<svg id="Capa_1" enable-background="new 0 0 512 512" height="512" viewBox="0 0 512 512" width="512" xmlns="http://www.w3.org/2000/svg"><g><g><g><g><path d="m477 512h-442c-19.299 0-35-15.701-35-35v-200c0-19.299 15.701-35 35-35h442c19.299 0 35 15.701 35 35v200c0 19.299-15.701 35-35 35z" fill="#0a617d"/></g></g><g><path d="m477 242h-221v270h221c19.299 0 35-15.701 35-35v-200c0-19.299-15.701-35-35-35z" fill="#08475e"/></g><g><path d="m35 272c-2.757 0-5 2.243-5 5v200c0 2.757 2.243 5 5 5h442c2.757 0 5-2.243 5-5v-200c0-2.757-2.243-5-5-5z" fill="#08475e"/></g><g><path d="m477 272h-221v210h221c2.757 0 5-2.243 5-5v-200c0-2.757-2.243-5-5-5z" fill="#05303d"/></g><g><g><path d="m101 332h-30c-8.284 0-15-6.716-15-15s6.716-15 15-15h30c8.284 0 15 6.716 15 15s-6.716 15-15 15z" fill="#0a617d"/></g><g><path d="m186 332h-30c-8.284 0-15-6.716-15-15s6.716-15 15-15h30c8.284 0 15 6.716 15 15s-6.716 15-15 15z" fill="#0a617d"/></g><g><path d="m271 332h-30c-8.284 0-15-6.716-15-15s6.716-15 15-15h30c8.284 0 15 6.716 15 15s-6.716 15-15 15z" fill="#0a617d"/></g><g><path d="m356 332h-30c-8.284 0-15-6.716-15-15s6.716-15 15-15h30c8.284 0 15 6.716 15 15s-6.716 15-15 15z" fill="#08475e"/></g><g><path d="m441 332h-30c-8.284 0-15-6.716-15-15s6.716-15 15-15h30c8.284 0 15 6.716 15 15s-6.716 15-15 15z" fill="#08475e"/></g><g><path d="m101 392h-30c-8.284 0-15-6.716-15-15s6.716-15 15-15h30c8.284 0 15 6.716 15 15s-6.716 15-15 15z" fill="#0a617d"/></g><g><path d="m186 392h-30c-8.284 0-15-6.716-15-15s6.716-15 15-15h30c8.284 0 15 6.716 15 15s-6.716 15-15 15z" fill="#0a617d"/></g><g><path d="m271 392h-30c-8.284 0-15-6.716-15-15s6.716-15 15-15h30c8.284 0 15 6.716 15 15s-6.716 15-15 15z" fill="#0a617d"/></g><g><path d="m356 392h-30c-8.284 0-15-6.716-15-15s6.716-15 15-15h30c8.284 0 15 6.716 15 15s-6.716 15-15 15z" fill="#08475e"/></g><g><path d="m441 392h-30c-8.284 0-15-6.716-15-15s6.716-15 15-15h30c8.284 0 15 6.716 15 15s-6.716 15-15 15z" fill="#08475e"/></g><g><path d="m101 452h-30c-8.284 0-15-6.716-15-15s6.716-15 15-15h30c8.284 0 15 6.716 15 15s-6.716 15-15 15z" fill="#0a617d"/></g><g><path d="m356 452h-200c-8.284 0-15-6.716-15-15s6.716-15 15-15h200c8.284 0 15 6.716 15 15s-6.716 15-15 15z" fill="#0a617d"/></g><g><path d="m441 452h-30c-8.284 0-15-6.716-15-15s6.716-15 15-15h30c8.284 0 15 6.716 15 15s-6.716 15-15 15z" fill="#08475e"/></g></g></g><g><g fill="#08475e"><path d="m286 317c0-8.284-6.716-15-15-15h-15v30h15c8.284 0 15-6.716 15-15z"/><path d="m286 377c0-8.284-6.716-15-15-15h-15v30h15c8.284 0 15-6.716 15-15z"/><path d="m356 422h-100v30h100c8.284 0 15-6.716 15-15s-6.716-15-15-15z"/></g></g><g><g><g><g><g><path d="m214.497 290.001c-1.811 0-3.638-.328-5.395-1.006-5.786-2.231-9.602-7.794-9.602-13.995v-260c0-8.284 6.716-15 15-15h282.5c8.284 0 15 6.716 15 15v180c0 8.284-6.716 15-15 15h-203.351l-68.035 75.073c-2.899 3.199-6.963 4.928-11.117 4.928z" fill="#e9f7ff"/></g></g><g><path d="m497 0h-141.25v210h141.25c8.284 0 15-6.716 15-15v-180c0-8.284-6.716-15-15-15z" fill="#dce6f5"/></g><g><path d="m437 90h-162.5c-8.284 0-15-6.716-15-15s6.716-15 15-15h162.5c8.284 0 15 6.716 15 15s-6.716 15-15 15z" fill="#0a617d"/></g><g><path d="m437 150h-162.5c-8.284 0-15-6.716-15-15s6.716-15 15-15h162.5c8.284 0 15 6.716 15 15s-6.716 15-15 15z" fill="#0a617d"/></g></g></g></g><g fill="#08475e"><path d="m452 75c0-8.284-6.716-15-15-15h-81.25v30h81.25c8.284 0 15-6.716 15-15z"/><path d="m437 120h-81.25v30h81.25c8.284 0 15-6.716 15-15s-6.716-15-15-15z"/></g></g></svg>