<svg id="Capa_1" enable-background="new 0 0 510 510" height="512" viewBox="0 0 510 510" width="512" xmlns="http://www.w3.org/2000/svg" xmlns:xlink="http://www.w3.org/1999/xlink"><linearGradient id="lg1"><stop offset="0" stop-color="#faf7f7"/><stop offset=".4551" stop-color="#f3eae6"/><stop offset="1" stop-color="#efe2dd"/></linearGradient><linearGradient id="SVGID_1_" gradientUnits="userSpaceOnUse" x1="12" x2="518.099" xlink:href="#lg1" y1="278.59" y2="278.59"/><linearGradient id="SVGID_2_" gradientUnits="userSpaceOnUse" x1="-148.676" x2="258.46" xlink:href="#lg1" y1="326.56" y2="326.56"/><linearGradient id="lg2"><stop offset="0" stop-color="#f3eae6"/><stop offset="1" stop-color="#cdbfba"/></linearGradient><linearGradient id="SVGID_3_" gradientUnits="userSpaceOnUse" x1="12.003" x2="568" xlink:href="#lg2" y1="278.59" y2="278.59"/><linearGradient id="SVGID_4_" gradientUnits="userSpaceOnUse" x1="0" x2="168.463" xlink:href="#lg1" y1="477.474" y2="477.474"/><linearGradient id="SVGID_5_" gradientUnits="userSpaceOnUse" x1="15.463" x2="212.669" xlink:href="#lg2" y1="477.474" y2="477.474"/><linearGradient id="lg3"><stop offset="0" stop-color="#537983"/><stop offset=".593" stop-color="#554e56"/><stop offset="1" stop-color="#433f43"/></linearGradient><linearGradient id="SVGID_6_" gradientUnits="userSpaceOnUse" x1="33.111" x2="110.186" xlink:href="#lg3" y1="45.25" y2="45.25"/><linearGradient id="SVGID_7_" gradientUnits="userSpaceOnUse" x1="22.269" x2="112.075" xlink:href="#lg1" y1="66.974" y2="66.974"/><linearGradient id="SVGID_8_" gradientUnits="userSpaceOnUse" x1="-2.564" x2="145.197" xlink:href="#lg2" y1="66.974" y2="66.974"/><linearGradient id="SVGID_9_" gradientUnits="userSpaceOnUse" x1="158.33" x2="235.405" xlink:href="#lg3" y1="45.25" y2="45.25"/><linearGradient id="SVGID_10_" gradientUnits="userSpaceOnUse" x1="147.488" x2="237.293" xlink:href="#lg1" y1="66.974" y2="66.974"/><linearGradient id="SVGID_11_" gradientUnits="userSpaceOnUse" x1="122.654" x2="270.415" xlink:href="#lg2" y1="66.974" y2="66.974"/><linearGradient id="SVGID_12_" gradientUnits="userSpaceOnUse" x1="283.549" x2="360.623" xlink:href="#lg3" y1="45.25" y2="45.25"/><linearGradient id="SVGID_13_" gradientUnits="userSpaceOnUse" x1="272.707" x2="362.512" xlink:href="#lg1" y1="66.974" y2="66.974"/><linearGradient id="SVGID_14_" gradientUnits="userSpaceOnUse" x1="247.873" x2="395.634" xlink:href="#lg2" y1="66.974" y2="66.974"/><linearGradient id="SVGID_15_" gradientUnits="userSpaceOnUse" x1="408.767" x2="485.842" xlink:href="#lg3" y1="45.25" y2="45.25"/><linearGradient id="SVGID_16_" gradientUnits="userSpaceOnUse" x1="397.925" x2="487.731" xlink:href="#lg1" y1="66.974" y2="66.974"/><linearGradient id="SVGID_17_" gradientUnits="userSpaceOnUse" x1="373.092" x2="520.853" xlink:href="#lg2" y1="66.974" y2="66.974"/><linearGradient id="SVGID_18_" gradientUnits="userSpaceOnUse" x1="0" x2="168.463" xlink:href="#lg1" y1="290.38" y2="290.38"/><linearGradient id="SVGID_19_" gradientUnits="userSpaceOnUse" x1="15.463" x2="212.669" xlink:href="#lg2" y1="290.38" y2="290.38"/><linearGradient id="SVGID_20_" gradientUnits="userSpaceOnUse" x1="341.537" x2="510" xlink:href="#lg1" y1="290.38" y2="290.38"/><linearGradient id="SVGID_21_" gradientUnits="userSpaceOnUse" x1="357" x2="554.206" xlink:href="#lg2" y1="290.38" y2="290.38"/><linearGradient id="SVGID_22_" gradientUnits="userSpaceOnUse" x1="341.537" x2="510" xlink:href="#lg1" y1="477.474" y2="477.474"/><linearGradient id="SVGID_23_" gradientUnits="userSpaceOnUse" x1="357" x2="554.206" xlink:href="#lg2" y1="477.474" y2="477.474"/><linearGradient id="SVGID_24_" gradientUnits="userSpaceOnUse" x1="0" x2="510" xlink:href="#lg1" y1="104.552" y2="104.552"/><linearGradient id="SVGID_25_" gradientUnits="userSpaceOnUse" x1="357" x2="554.206" xlink:href="#lg2" y1="104.552" y2="104.552"/><linearGradient id="lg4"><stop offset="0" stop-color="#cdbfba"/><stop offset="1" stop-color="#766e6e"/></linearGradient><linearGradient id="SVGID_26_" gradientUnits="userSpaceOnUse" x1="39" x2="163.579" xlink:href="#lg4" y1="205.565" y2="205.565"/><linearGradient id="SVGID_27_" gradientUnits="userSpaceOnUse" x1="325" x2="508.33" xlink:href="#lg4" y1="205.565" y2="205.565"/><linearGradient id="SVGID_28_" gradientUnits="userSpaceOnUse" x1="252" x2="440.322" xlink:href="#lg4" y1="205.565" y2="205.565"/><g><path d="m20.848 95.026v367.127h125.882v-162.916c0-59.796 48.474-108.269 108.269-108.269 59.796 0 108.269 48.474 108.269 108.269v162.916h125.883v-367.127z" fill="url(#SVGID_1_)"/><path d="m214.564 190.971c-59.825.223-107.854 49.614-107.854 109.439v10.894h-85.86v25.011h49.984c19.814 0 35.876 16.062 35.876 35.876v89.958h40.02v-162.909c0-52.96 38.02-97.04 88.26-106.42-6.611-1.245-13.441-1.875-20.426-1.849z" fill="url(#SVGID_2_)"/><path d="m20.85 95.03v67.06h315.252c62.424 0 113.028 50.604 113.028 113.028v36.485h-85.86v25.011h49.984c19.814 0 35.876 16.062 35.876 35.876v89.66h40.02v-367.12z" fill="url(#SVGID_3_)"/><g><path d="m148.621 510h-128.779c-10.958 0-19.842-8.884-19.842-19.842v-25.368c0-10.959 8.884-19.842 19.842-19.842h128.778c10.959 0 19.842 8.884 19.842 19.842v25.367c.001 10.959-8.883 19.843-19.841 19.843z" fill="url(#SVGID_4_)"/><path d="m148.621 444.948h-40.02c10.958 0 19.842 8.884 19.842 19.842v25.367c0 10.958-8.884 19.842-19.842 19.842h40.02c10.958 0 19.842-8.884 19.842-19.842v-25.367c0-10.958-8.884-19.842-19.842-19.842z" fill="url(#SVGID_5_)"/></g><g><g><path d="m77.172 10v80.5h-20v-80.5c0-5.52 4.48-10 10-10s10 4.48 10 10z" fill="url(#SVGID_6_)"/><g><path d="m92.232 99.5h-50.12c-10.959 0-19.842-8.884-19.842-19.842v-25.367c0-10.959 8.884-19.842 19.842-19.842h50.121c10.959 0 19.842 8.884 19.842 19.842v25.367c0 10.958-8.884 19.842-19.843 19.842z" fill="url(#SVGID_7_)"/><path d="m92.232 34.448h-25.011c10.958 0 19.842 8.884 19.842 19.842v25.367c0 10.958-8.884 19.842-19.842 19.842h25.011c10.958 0 19.842-8.884 19.842-19.842v-25.366c.001-10.959-8.883-19.843-19.842-19.843z" fill="url(#SVGID_8_)"/></g></g><g><path d="m202.39 10v80.5h-20v-80.5c0-5.52 4.48-10 10-10s10 4.48 10 10z" fill="url(#SVGID_9_)"/><g><path d="m217.451 99.5h-50.121c-10.959 0-19.842-8.884-19.842-19.842v-25.367c0-10.959 8.884-19.842 19.842-19.842h50.121c10.959 0 19.842 8.884 19.842 19.842v25.367c0 10.958-8.883 19.842-19.842 19.842z" fill="url(#SVGID_10_)"/><path d="m217.451 34.448h-25.011c10.958 0 19.842 8.884 19.842 19.842v25.367c0 10.958-8.884 19.842-19.842 19.842h25.011c10.958 0 19.842-8.884 19.842-19.842v-25.366c0-10.959-8.883-19.843-19.842-19.843z" fill="url(#SVGID_11_)"/></g></g><g><path d="m327.609 10v80.5h-20v-80.5c0-5.52 4.48-10 10-10s10 4.48 10 10z" fill="url(#SVGID_12_)"/><g><path d="m342.67 99.5h-50.121c-10.959 0-19.842-8.884-19.842-19.842v-25.367c0-10.959 8.884-19.842 19.842-19.842h50.121c10.959 0 19.842 8.884 19.842 19.842v25.367c0 10.958-8.884 19.842-19.842 19.842z" fill="url(#SVGID_13_)"/><path d="m342.67 34.448h-25.011c10.958 0 19.842 8.884 19.842 19.842v25.367c0 10.958-8.884 19.842-19.842 19.842h25.011c10.958 0 19.842-8.884 19.842-19.842v-25.366c0-10.959-8.884-19.843-19.842-19.843z" fill="url(#SVGID_14_)"/></g></g><g><path d="m452.828 10v80.5h-20v-80.5c0-5.52 4.48-10 10-10s10 4.48 10 10z" fill="url(#SVGID_15_)"/><g><path d="m467.888 99.5h-50.121c-10.959 0-19.842-8.884-19.842-19.842v-25.367c0-10.959 8.884-19.842 19.842-19.842h50.121c10.959 0 19.842 8.884 19.842 19.842v25.367c.001 10.958-8.883 19.842-19.842 19.842z" fill="url(#SVGID_16_)"/><path d="m467.888 34.448h-25.011c10.958 0 19.842 8.884 19.842 19.842v25.367c0 10.958-8.884 19.842-19.842 19.842h25.011c10.958 0 19.842-8.884 19.842-19.842v-25.366c.001-10.959-8.883-19.843-19.842-19.843z" fill="url(#SVGID_17_)"/></g></g></g><g><path d="m148.621 311.603h-128.779c-10.958 0-19.842-8.884-19.842-19.842v-2.762c0-10.959 8.884-19.842 19.842-19.842h128.778c10.959 0 19.842 8.884 19.842 19.842v2.762c.001 10.958-8.883 19.842-19.841 19.842z" fill="url(#SVGID_18_)"/><path d="m148.621 269.156h-40.02c10.958 0 19.842 8.884 19.842 19.842v2.762c0 10.958-8.884 19.842-19.842 19.842h40.02c10.958 0 19.842-8.884 19.842-19.842v-2.762c0-10.958-8.884-19.842-19.842-19.842z" fill="url(#SVGID_19_)"/></g><g><path d="m490.158 311.603h-128.779c-10.959 0-19.842-8.884-19.842-19.842v-2.762c0-10.959 8.884-19.842 19.842-19.842h128.778c10.959 0 19.842 8.884 19.842 19.842v2.762c.001 10.958-8.883 19.842-19.841 19.842z" fill="url(#SVGID_20_)"/><path d="m490.158 269.156h-40.02c10.958 0 19.842 8.884 19.842 19.842v2.762c0 10.958-8.884 19.842-19.842 19.842h40.02c10.958 0 19.842-8.884 19.842-19.842v-2.762c0-10.958-8.884-19.842-19.842-19.842z" fill="url(#SVGID_21_)"/></g><g><path d="m490.158 510h-128.779c-10.959 0-19.842-8.884-19.842-19.842v-25.368c0-10.959 8.884-19.842 19.842-19.842h128.778c10.959 0 19.842 8.884 19.842 19.842v25.367c.001 10.959-8.883 19.843-19.841 19.843z" fill="url(#SVGID_22_)"/><path d="m490.158 444.948h-40.02c10.958 0 19.842 8.884 19.842 19.842v25.367c0 10.958-8.884 19.842-19.842 19.842h40.02c10.958 0 19.842-8.884 19.842-19.842v-25.367c0-10.958-8.884-19.842-19.842-19.842z" fill="url(#SVGID_23_)"/></g><g><path d="m490.158 137.078h-470.316c-10.958 0-19.842-8.884-19.842-19.842v-25.368c0-10.958 8.884-19.842 19.842-19.842h470.315c10.959 0 19.842 8.884 19.842 19.842v25.367c.001 10.959-8.883 19.843-19.841 19.843z" fill="url(#SVGID_24_)"/><path d="m490.158 72.026h-40.02c10.958 0 19.842 8.884 19.842 19.842v25.367c0 10.958-8.884 19.842-19.842 19.842h40.02c10.958 0 19.842-8.884 19.842-19.842v-25.367c0-10.958-8.884-19.842-19.842-19.842z" fill="url(#SVGID_25_)"/></g><path d="m98.191 249.04h-34.351c-7.525 0-13.625-6.1-13.625-13.625v-59.701c0-7.525 6.1-13.625 13.625-13.625h34.351c7.525 0 13.625 6.1 13.625 13.625v59.701c0 7.525-6.1 13.625-13.625 13.625z" fill="url(#SVGID_26_)"/><path d="m446.16 249.04h-34.351c-7.525 0-13.625-6.1-13.625-13.625v-59.701c0-7.525 6.1-13.625 13.625-13.625h34.351c7.525 0 13.625 6.1 13.625 13.625v59.701c-.001 7.525-6.101 13.625-13.625 13.625z" fill="url(#SVGID_27_)"/><path d="m446.159 162.09h-34.351c-7.525 0-13.625 6.1-13.625 13.625v4.946c23.713 15.617 41.195 39.917 47.917 68.38h.058c7.525 0 13.625-6.1 13.625-13.625v-59.701c.001-7.525-6.099-13.625-13.624-13.625z" fill="url(#SVGID_28_)"/></g></svg>