<svg id="Capa_1" enable-background="new 0 0 510 510" height="512" viewBox="0 0 510 510" width="512" xmlns="http://www.w3.org/2000/svg" xmlns:xlink="http://www.w3.org/1999/xlink"><linearGradient id="lg1"><stop offset="0" stop-color="#fbc56d"/><stop offset=".593" stop-color="#dc8758"/><stop offset="1" stop-color="#9e5528"/></linearGradient><linearGradient id="SVGID_1_" gradientUnits="userSpaceOnUse" x1="26.831" x2="122.168" xlink:href="#lg1" y1="358.001" y2="358.001"/><linearGradient id="SVGID_2_" gradientUnits="userSpaceOnUse" x1="-63" x2="119.464" xlink:href="#lg1" y1="358.004" y2="358.004"/><linearGradient id="SVGID_3_" gradientUnits="userSpaceOnUse" x1="11.644" x2="96.829" xlink:href="#lg1" y1="229.911" y2="229.911"/><linearGradient id="SVGID_4_" gradientTransform="matrix(1 0 0 -1 0 399.124)" gradientUnits="userSpaceOnUse" x1="-6.661" x2="103.919" xlink:href="#lg1" y1="-39.634" y2="-39.634"/><linearGradient id="SVGID_5_" gradientUnits="userSpaceOnUse" x1="142.92" x2="238.258" xlink:href="#lg1" y1="358.001" y2="358.001"/><linearGradient id="SVGID_6_" gradientUnits="userSpaceOnUse" x1="87" x2="233.123" xlink:href="#lg1" y1="358.004" y2="358.004"/><linearGradient id="SVGID_7_" gradientUnits="userSpaceOnUse" x1="127.733" x2="212.918" xlink:href="#lg1" y1="229.911" y2="229.911"/><linearGradient id="SVGID_8_" gradientTransform="matrix(1 0 0 -1 0 399.124)" gradientUnits="userSpaceOnUse" x1="109.428" x2="220.008" xlink:href="#lg1" y1="-39.634" y2="-39.634"/><linearGradient id="SVGID_9_" gradientUnits="userSpaceOnUse" x1="283.555" x2="361.85" xlink:href="#lg1" y1="283.006" y2="283.006"/><linearGradient id="SVGID_10_" gradientUnits="userSpaceOnUse" x1="274.652" x2="369.988" xlink:href="#lg1" y1="410.564" y2="410.564"/><linearGradient id="SVGID_11_" gradientUnits="userSpaceOnUse" x1="221.757" x2="364.209" xlink:href="#lg1" y1="283.006" y2="283.006"/><linearGradient id="SVGID_12_" gradientUnits="userSpaceOnUse" x1="259.333" x2="352.859" xlink:href="#lg1" y1="410.569" y2="410.569"/><linearGradient id="SVGID_13_" gradientUnits="userSpaceOnUse" x1="259.465" x2="344.649" xlink:href="#lg1" y1="229.911" y2="229.911"/><linearGradient id="SVGID_14_" gradientTransform="matrix(1 0 0 -1 0 399.124)" gradientUnits="userSpaceOnUse" x1="241.16" x2="351.74" xlink:href="#lg1" y1="-39.634" y2="-39.634"/><linearGradient id="SVGID_15_" gradientUnits="userSpaceOnUse" x1="390.741" x2="486.078" xlink:href="#lg1" y1="358.001" y2="358.001"/><linearGradient id="SVGID_16_" gradientUnits="userSpaceOnUse" x1="317" x2="477.378" xlink:href="#lg1" y1="358.004" y2="358.004"/><linearGradient id="SVGID_17_" gradientUnits="userSpaceOnUse" x1="375.554" x2="460.739" xlink:href="#lg1" y1="229.911" y2="229.911"/><linearGradient id="SVGID_18_" gradientTransform="matrix(1 0 0 -1 0 399.124)" gradientUnits="userSpaceOnUse" x1="357.249" x2="467.829" xlink:href="#lg1" y1="-39.634" y2="-39.634"/><linearGradient id="lg2"><stop offset="0" stop-color="#fef056"/><stop offset=".5213" stop-color="#fbc56d"/><stop offset="1" stop-color="#c86d36"/></linearGradient><linearGradient id="SVGID_19_" gradientUnits="userSpaceOnUse" x1="-140.667" x2="420.489" xlink:href="#lg2" y1="460.007" y2="460.007"/><linearGradient id="SVGID_20_" gradientUnits="userSpaceOnUse" x1="193.343" x2="484.246" xlink:href="#lg1" y1="460.008" y2="460.008"/><linearGradient id="SVGID_21_" gradientUnits="userSpaceOnUse" x1="25.049" x2="529.294" xlink:href="#lg2" y1="485.003" y2="485.003"/><linearGradient id="SVGID_22_" gradientUnits="userSpaceOnUse" x1="237" x2="549.554" xlink:href="#lg1" y1="485.003" y2="485.003"/><linearGradient id="SVGID_23_" gradientUnits="userSpaceOnUse" x1="-119" x2="497.315" xlink:href="#lg2" y1="75.899" y2="75.899"/><linearGradient id="SVGID_24_" gradientUnits="userSpaceOnUse" x1="-187" x2="408.121" xlink:href="#lg2" y1="75.903" y2="75.903"/><linearGradient id="SVGID_25_" gradientUnits="userSpaceOnUse" x1="-27" x2="354.956" xlink:href="#lg2" y1="105.238" y2="105.238"/><linearGradient id="SVGID_26_" gradientUnits="userSpaceOnUse" x1="-118" x2="237.621" xlink:href="#lg2" y1="105.242" y2="105.242"/><linearGradient id="SVGID_27_" gradientUnits="userSpaceOnUse" x1="-68.041" x2="380.13" xlink:href="#lg2" y1="177.589" y2="177.589"/><linearGradient id="SVGID_28_" gradientUnits="userSpaceOnUse" x1="-211" x2="484.162" xlink:href="#lg1" y1="177.589" y2="177.589"/><linearGradient id="SVGID_29_" gradientUnits="userSpaceOnUse" x1="0" x2="510" xlink:href="#lg2" y1="140.175" y2="140.175"/><linearGradient id="SVGID_30_" gradientUnits="userSpaceOnUse" x1="191" x2="492.955" xlink:href="#lg1" y1="140.175" y2="140.175"/><linearGradient id="SVGID_31_" gradientUnits="userSpaceOnUse" x1="0" x2="510" xlink:href="#lg2" y1="215.935" y2="215.935"/><linearGradient id="SVGID_32_" gradientUnits="userSpaceOnUse" x1="191" x2="492.955" xlink:href="#lg1" y1="215.935" y2="215.935"/><g><g><g><g><g><g><path d="m111.5 479.84h-76.911l9.089-243.678h58.734z" fill="url(#SVGID_1_)"/><path d="m102.412 236.162 9.089 243.684h-34.049l-.757-171.043c-.065-16.639-15.501-29.698-34.479-29.698l1.467-42.942h58.729z" fill="url(#SVGID_2_)"/></g><path d="m103.882 256.443h-61.675c-7.988 0-14.193-5.251-13.864-11.642l2.132-41.422h85.139l2.132 41.422c.33 6.391-5.876 11.642-13.864 11.642z" fill="url(#SVGID_3_)"/></g><path d="m109.555 395.924h-73.021c-9.458 0-17.508 7.458-17.99 16.805l-3.544 68.861h116.09l-3.545-68.86c-.481-9.348-8.532-16.806-17.99-16.806z" fill="url(#SVGID_4_)"/></g><g><g><g><path d="m227.59 479.84h-76.911l9.089-243.678h58.733z" fill="url(#SVGID_5_)"/><path d="m218.501 236.162 9.089 243.684h-34.049l-.757-171.043c-.065-16.639-15.501-29.698-34.479-29.698l1.467-42.942h58.729z" fill="url(#SVGID_6_)"/></g><path d="m219.972 256.443h-61.675c-7.988 0-14.193-5.251-13.864-11.642l2.132-41.422h85.139l2.132 41.422c.329 6.391-5.876 11.642-13.864 11.642z" fill="url(#SVGID_7_)"/></g><path d="m225.645 395.924h-73.021c-9.458 0-17.508 7.458-17.99 16.805l-3.545 68.86h116.089l-3.545-68.86c-.48-9.347-8.531-16.805-17.988-16.805z" fill="url(#SVGID_8_)"/></g></g><g><g><g><g><path d="m298.237 295.628c-5.236-2.476-8.499-7.827-8.302-13.616l1.565-45.853h58.73l2.853 83.476c.243 7.124-6.914 12.148-13.531 9.499l-14.972-5.995-8.788-3.519c-4.456-1.784-7.741-5.655-8.777-10.342l-.809-3.662c-.969-4.382-3.911-8.069-7.969-9.988z" fill="url(#SVGID_9_)"/><path d="m359.32 479.84h-76.91l3.124-91.385c.322-9.406 8.04-16.865 17.452-16.865 4.502 0 8.83-1.739 12.08-4.853l9.735-9.327 14.064-13.484c1.991-1.909 4.715-2.856 7.46-2.595 4.745.451 8.417 4.354 8.58 9.117z" fill="url(#SVGID_10_)"/><path d="m339.552 329.134-14.972-5.995-.06-14.34c-.07-16.64-15.51-29.7-34.48-29.7l1.46-42.94h58.73l2.853 83.476c.244 7.124-6.914 12.149-13.531 9.499z" fill="url(#SVGID_11_)"/><path d="m359.32 479.84v.01h-34.05v-.01l-.47-122.43 14.064-13.484c1.991-1.909 4.715-2.856 7.46-2.595 4.745.451 8.417 4.354 8.58 9.117z" fill="url(#SVGID_12_)"/></g><path d="m351.703 256.443h-61.675c-7.988 0-14.193-5.251-13.864-11.642l2.132-41.422h85.139l2.132 41.422c.33 6.391-5.876 11.642-13.864 11.642z" fill="url(#SVGID_13_)"/></g><path d="m357.376 395.924h-73.021c-9.458 0-17.508 7.458-17.99 16.805l-3.545 68.86h116.09l-3.545-68.86c-.48-9.347-8.531-16.805-17.989-16.805z" fill="url(#SVGID_14_)"/></g><g><g><g><path d="m475.411 479.84h-76.911l9.088-243.678h58.734z" fill="url(#SVGID_15_)"/><path d="m466.322 236.162 9.089 243.684h-34.049l-.757-171.043c-.065-16.639-15.501-29.698-34.479-29.698l1.467-42.942h58.729z" fill="url(#SVGID_16_)"/></g><path d="m467.793 256.443h-61.675c-7.988 0-14.193-5.251-13.864-11.642l2.132-41.422h85.139l2.132 41.422c.329 6.391-5.876 11.642-13.864 11.642z" fill="url(#SVGID_17_)"/></g><path d="m473.466 395.924h-73.021c-9.458 0-17.508 7.458-17.99 16.805l-3.545 68.86h116.09l-3.545-68.86c-.481-9.347-8.532-16.805-17.989-16.805z" fill="url(#SVGID_18_)"/></g></g></g><g><path d="m481.191 481.995h-452.382c-10.756 0-19.476-8.72-19.476-19.476v-5.023c0-10.756 8.72-19.476 19.476-19.476h452.382c10.756 0 19.476 8.72 19.476 19.476v5.023c0 10.756-8.72 19.476-19.476 19.476z" fill="url(#SVGID_19_)"/><path d="m481.551 438.02h-38.555c10.557 0 19.116 8.884 19.116 19.842v4.29c0 10.958-8.559 19.842-19.116 19.842h38.555c10.557 0 19.116-8.884 19.116-19.842v-4.29c0-10.958-8.559-19.842-19.116-19.842z" fill="url(#SVGID_20_)"/></g><g><path d="m490.158 509.999h-470.316c-10.958 0-19.842-8.883-19.842-19.842v-10.307c0-10.959 8.884-19.842 19.842-19.842h470.315c10.959 0 19.842 8.884 19.842 19.842v10.307c.001 10.959-8.883 19.842-19.841 19.842z" fill="url(#SVGID_21_)"/><path d="m490.158 460.007h-40.02c10.958 0 19.842 8.884 19.842 19.842v10.307c0 10.958-8.884 19.842-19.842 19.842h40.02c10.958 0 19.842-8.884 19.842-19.842v-10.306c0-10.959-8.884-19.843-19.842-19.843z" fill="url(#SVGID_22_)"/></g><path d="m497.29 143.858-220.16-137.52c-13.54-8.45-30.72-8.45-44.26 0-3.322 2.078-5.34 5.72-5.34 9.638 0 14.075-5.591 27.573-15.543 37.525l-21.377 21.378c-9.719 9.719-22.902 15.18-36.647 15.18h-28.469c-2.762 0-5.411 1.097-7.364 3.05l-9.646 9.646c-4.067 4.067-10.661 4.067-14.728 0-3.428-3.428-8.768-4.037-12.88-1.469l-68.166 42.572c-3.66 2.29-2.04 7.94 2.27 7.94h480.04c4.31 0 5.93-5.65 2.27-7.94z" fill="url(#SVGID_23_)"/><path d="m497.29 143.858-220.16-137.52c-12.844-8.016-28.959-8.413-42.14-1.221.714.389 1.425.787 2.12 1.221l220.16 137.52c3.66 2.29 2.04 7.94-2.27 7.94h40.02c4.31 0 5.93-5.65 2.27-7.94z" fill="url(#SVGID_24_)"/><path d="m277.131 65.02c-13.542-8.458-30.72-8.458-44.261 0l-138.93 86.78h322.12z" fill="url(#SVGID_25_)"/><path d="m277.131 65.02c-12.846-8.024-28.958-8.422-42.141-1.222.714.39 1.425.788 2.121 1.222l138.929 86.78h40.02z" fill="url(#SVGID_26_)"/><path d="m19.75 151.8h470.5v51.578h-470.5z" fill="url(#SVGID_27_)"/><path d="m490.25 151.799v51.58h-42.85c1.8-2.98 2.83-6.48 2.83-10.22 0-7.008-5.681-12.69-12.69-12.69h-417.79v-28.67z" fill="url(#SVGID_28_)"/><g><path d="m490.158 162.162h-470.316c-10.958 0-19.842-8.884-19.842-19.843v-4.29c0-10.959 8.884-19.842 19.842-19.842h470.315c10.959 0 19.842 8.884 19.842 19.842v4.29c.001 10.959-8.883 19.843-19.841 19.843z" fill="url(#SVGID_29_)"/><path d="m490.158 118.187h-40.02c10.958 0 19.842 8.884 19.842 19.842v4.29c0 10.958-8.884 19.842-19.842 19.842h40.02c10.958 0 19.842-8.884 19.842-19.842v-4.29c0-10.958-8.884-19.842-19.842-19.842z" fill="url(#SVGID_30_)"/></g><g><path d="m490.158 237.922h-470.316c-10.958 0-19.842-8.883-19.842-19.842v-4.29c0-10.959 8.884-19.842 19.842-19.842h470.315c10.959 0 19.842 8.884 19.842 19.842v4.29c.001 10.959-8.883 19.842-19.841 19.842z" fill="url(#SVGID_31_)"/><path d="m490.158 193.948h-40.02c10.958 0 19.842 8.884 19.842 19.842v4.29c0 10.958-8.884 19.842-19.842 19.842h40.02c10.958 0 19.842-8.884 19.842-19.842v-4.29c0-10.958-8.884-19.842-19.842-19.842z" fill="url(#SVGID_32_)"/></g></g></svg>