<svg id="Capa_1" enable-background="new 0 0 510 510" height="512" viewBox="0 0 510 510" width="512" xmlns="http://www.w3.org/2000/svg" xmlns:xlink="http://www.w3.org/1999/xlink"><linearGradient id="lg1"><stop offset="0" stop-color="#fef056"/><stop offset=".5213" stop-color="#fbc56d"/><stop offset="1" stop-color="#c86d36"/></linearGradient><linearGradient id="SVGID_1_" gradientUnits="userSpaceOnUse" x1="0" x2="672.002" xlink:href="#lg1" y1="399.316" y2="399.316"/><linearGradient id="SVGID_2_" gradientUnits="userSpaceOnUse" x1="235.333" x2="533.318" xlink:href="#lg1" y1="399.316" y2="399.316"/><linearGradient id="SVGID_3_" gradientUnits="userSpaceOnUse" x1="39.333" x2="446.906" xlink:href="#lg1" y1="119.766" y2="119.766"/><linearGradient id="SVGID_4_" gradientUnits="userSpaceOnUse" x1="5.5" x2="410.9" xlink:href="#lg1" y1="119.768" y2="119.768"/><linearGradient id="SVGID_5_" gradientUnits="userSpaceOnUse" x1="216.573" x2="321.375" y1="165.307" y2="165.307"><stop offset="0" stop-color="#537983"/><stop offset=".593" stop-color="#554e56"/><stop offset="1" stop-color="#433f43"/></linearGradient><linearGradient id="SVGID_6_" gradientUnits="userSpaceOnUse" x1="176.645" x2="469.076" xlink:href="#lg1" y1="29.887" y2="29.887"/><linearGradient id="SVGID_7_" gradientUnits="userSpaceOnUse" x1="196.891" x2="391.55" xlink:href="#lg1" y1="29.887" y2="29.887"/><linearGradient id="SVGID_8_" gradientUnits="userSpaceOnUse" x1="176.645" x2="469.076" xlink:href="#lg1" y1="82.23" y2="82.23"/><linearGradient id="SVGID_9_" gradientUnits="userSpaceOnUse" x1="196.891" x2="391.55" xlink:href="#lg1" y1="82.23" y2="82.23"/><linearGradient id="SVGID_10_" gradientUnits="userSpaceOnUse" x1="-351.981" x2="441.555" xlink:href="#lg1" y1="235.982" y2="235.982"/><linearGradient id="SVGID_11_" gradientUnits="userSpaceOnUse" x1="-46.667" x2="217.523" xlink:href="#lg1" y1="235.982" y2="235.982"/><linearGradient id="SVGID_12_" gradientUnits="userSpaceOnUse" x1="84" x2="381.985" xlink:href="#lg1" y1="235.982" y2="235.982"/><linearGradient id="SVGID_13_" gradientUnits="userSpaceOnUse" x1="-238.821" x2="500.052" xlink:href="#lg1" y1="290.427" y2="290.427"/><linearGradient id="SVGID_14_" gradientUnits="userSpaceOnUse" x1="25" x2="214.667" xlink:href="#lg1" y1="290.427" y2="290.427"/><linearGradient id="SVGID_15_" gradientUnits="userSpaceOnUse" x1="134.5" x2="432.485" xlink:href="#lg1" y1="290.427" y2="290.427"/><linearGradient id="SVGID_16_" gradientUnits="userSpaceOnUse" x1="-135.917" x2="629.046" xlink:href="#lg1" y1="344.872" y2="344.872"/><linearGradient id="SVGID_17_" gradientUnits="userSpaceOnUse" x1="14.667" x2="246.041" xlink:href="#lg1" y1="344.872" y2="344.872"/><linearGradient id="SVGID_18_" gradientUnits="userSpaceOnUse" x1="201.167" x2="499.152" xlink:href="#lg1" y1="344.872" y2="344.872"/><linearGradient id="SVGID_19_" gradientUnits="userSpaceOnUse" x1="0" x2="672.002" xlink:href="#lg1" y1="414.296" y2="414.296"/><linearGradient id="SVGID_20_" gradientUnits="userSpaceOnUse" x1="31.333" x2="259.533" xlink:href="#lg1" y1="414.296" y2="414.296"/><linearGradient id="SVGID_21_" gradientUnits="userSpaceOnUse" x1="235.333" x2="533.318" xlink:href="#lg1" y1="414.296" y2="414.296"/><linearGradient id="lg2"><stop offset="0" stop-color="#fbc56d"/><stop offset=".593" stop-color="#dc8758"/><stop offset="1" stop-color="#9e5528"/></linearGradient><linearGradient id="SVGID_22_" gradientUnits="userSpaceOnUse" x1="209" x2="350.032" xlink:href="#lg2" y1="235.983" y2="235.983"/><linearGradient id="SVGID_23_" gradientUnits="userSpaceOnUse" x1="153.01" x2="366.443" xlink:href="#lg2" y1="290.423" y2="290.423"/><linearGradient id="SVGID_24_" gradientUnits="userSpaceOnUse" x1="92.55" x2="359.902" xlink:href="#lg2" y1="344.873" y2="344.873"/><linearGradient id="SVGID_25_" gradientUnits="userSpaceOnUse" x1="24.1" x2="345.344" xlink:href="#lg2" y1="399.313" y2="399.313"/><linearGradient id="SVGID_26_" gradientUnits="userSpaceOnUse" x1="115.614" x2="262.4" xlink:href="#lg1" y1="318.059" y2="318.059"/><linearGradient id="SVGID_27_" gradientUnits="userSpaceOnUse" x1="249.108" x2="389.116" xlink:href="#lg1" y1="318.059" y2="318.059"/><linearGradient id="lg3"><stop offset="0" stop-color="#bbec6c"/><stop offset=".5857" stop-color="#78a91f"/><stop offset="1" stop-color="#02905d"/></linearGradient><linearGradient id="SVGID_28_" gradientUnits="userSpaceOnUse" x1="-23.932" x2="657.231" xlink:href="#lg3" y1="440.492" y2="440.492"/><linearGradient id="SVGID_29_" gradientUnits="userSpaceOnUse" x1="108.137" x2="494.454" xlink:href="#lg3" y1="440.492" y2="440.492"/><g><g><path d="m490.158 431.842h-470.316c-10.958 0-19.842-8.884-19.842-19.842v-25.367c0-10.959 8.884-19.842 19.842-19.842h470.315c10.959 0 19.842 8.884 19.842 19.842v25.367c.001 10.958-8.883 19.842-19.841 19.842z" fill="url(#SVGID_1_)"/><path d="m490.158 366.79h-40.02c10.958 0 19.842 8.884 19.842 19.842v25.368c0 10.958-8.884 19.842-19.842 19.842h40.02c10.958 0 19.842-8.884 19.842-19.842v-25.367c0-10.959-8.884-19.843-19.842-19.843z" fill="url(#SVGID_2_)"/></g><path d="m146.705 30.593h216.591v178.345h-216.591z" fill="url(#SVGID_3_)"/><path d="m363.3 30.593v178.349h-40.02v-59.678c0-15.415-12.497-27.912-27.912-27.912h-148.668v-25.02h176.58v-65.74h40.02z" fill="url(#SVGID_4_)"/><path d="m285.8 208.938h-61.6v-73.638c0-7.525 6.1-13.625 13.625-13.625h34.351c7.525 0 13.625 6.1 13.625 13.625v73.638z" fill="url(#SVGID_5_)"/><g><path d="m376.096 29.887c0-7.675-6.222-13.897-13.897-13.897h-214.399c-7.675 0-13.897 6.222-13.897 13.897 0 7.675 6.222 13.897 13.897 13.897h214.399c7.676 0 13.897-6.222 13.897-13.897z" fill="url(#SVGID_6_)"/><path d="m362.199 15.99h-27.794c7.675 0 13.897 6.222 13.897 13.897s-6.222 13.897-13.897 13.897h27.794c7.675 0 13.897-6.222 13.897-13.897s-6.221-13.897-13.897-13.897z" fill="url(#SVGID_7_)"/></g><g><path d="m376.096 82.23c0-7.675-6.222-13.897-13.897-13.897h-214.399c-7.675 0-13.897 6.222-13.897 13.897 0 7.675 6.222 13.897 13.897 13.897h214.399c7.676 0 13.897-6.222 13.897-13.897z" fill="url(#SVGID_8_)"/><path d="m362.199 68.333h-27.794c7.675 0 13.897 6.222 13.897 13.897s-6.222 13.897-13.897 13.897h27.794c7.675 0 13.897-6.222 13.897-13.897s-6.221-13.897-13.897-13.897z" fill="url(#SVGID_9_)"/></g><g><g><path d="m418 268.508h-326v-45.21c0-10.959 8.884-19.842 19.842-19.842h286.315c10.959 0 19.842 8.884 19.842 19.842v45.21z" fill="url(#SVGID_10_)"/><path d="m148.672 268.508h29.21l21.03-65.052h-29.21z" fill="url(#SVGID_11_)"/><path d="m398.158 203.456h-40.02c10.958 0 19.842 8.884 19.842 19.842v25.367c0 10.958-8.884 19.842-19.842 19.842h59.862v-45.209c0-10.958-8.884-19.842-19.842-19.842z" fill="url(#SVGID_12_)"/></g></g><g><g><path d="m454.5 322.953h-399v-45.21c0-10.959 8.884-19.842 19.842-19.842h359.315c10.959 0 19.842 8.884 19.842 19.842v45.21z" fill="url(#SVGID_13_)"/><path d="m131.072 322.953h29.21l21.03-65.052h-29.211z" fill="url(#SVGID_14_)"/><path d="m434.658 257.901h-40.02c10.958 0 19.842 8.884 19.842 19.842v25.367c0 10.958-8.884 19.842-19.842 19.842h59.862v-45.209c0-10.958-8.884-19.842-19.842-19.842z" fill="url(#SVGID_15_)"/></g></g><g><g><path d="m488.5 377.397h-467v-45.21c0-10.959 8.884-19.842 19.842-19.842h427.315c10.959 0 19.842 8.884 19.842 19.842v45.21z" fill="url(#SVGID_16_)"/><path d="m113.472 377.397h29.21l21.029-65.051h-29.21z" fill="url(#SVGID_17_)"/><path d="m468.658 312.346h-40.02c10.958 0 19.842 8.884 19.842 19.842v25.367c0 10.958-8.884 19.842-19.842 19.842h59.862v-45.209c0-10.959-8.884-19.842-19.842-19.842z" fill="url(#SVGID_18_)"/></g></g><g><path d="m510 461.802h-510v-75.17c0-10.959 8.884-19.842 19.842-19.842h470.315c10.959 0 19.842 8.884 19.842 19.842v75.17z" fill="url(#SVGID_19_)"/><path d="m95.871 461.802h29.21l21.03-95.012h-29.21z" fill="url(#SVGID_20_)"/><path d="m490.158 366.79h-40.02c10.958 0 19.842 8.884 19.842 19.842v25.368c0 10.958-8.884 49.802-19.842 49.802h59.862v-75.17c0-10.958-8.884-19.842-19.842-19.842z" fill="url(#SVGID_21_)"/></g><g><path d="m315.54 268.508h-121.08l3.98-10.61 20.45-54.44h72.22l20.45 54.44z" fill="url(#SVGID_22_)"/><path d="m335.99 322.948h-161.98l3.98-10.6 16.47-43.84 3.98-10.61h113.12l3.98 10.61 16.47 43.84z" fill="url(#SVGID_23_)"/><path d="m356.45 377.398h-202.9l3.99-10.61 16.47-43.84 3.98-10.6h154.02l3.98 10.6 16.47 43.84z" fill="url(#SVGID_24_)"/><path d="m376.9 431.838h-243.8l20.45-54.44 3.99-10.61h194.92l3.99 10.61z" fill="url(#SVGID_25_)"/></g><g><path d="m215.023 185.783c-7.304-2.357-15.136 1.654-17.493 8.958l-76.971 238.101c-2.357 7.304 1.654 15.136 8.958 17.493 7.304 2.357 15.136-1.654 17.493-8.958l76.971-238.101c2.357-7.304-1.654-15.136-8.958-17.493z" fill="url(#SVGID_26_)"/><path d="m294.977 185.783c7.304-2.357 15.136 1.654 17.493 8.958l76.971 238.101c2.357 7.304-1.654 15.136-8.958 17.493-7.304 2.357-15.136-1.654-17.493-8.958l-76.971-238.101c-2.357-7.304 1.654-15.136 8.958-17.493z" fill="url(#SVGID_27_)"/></g><g><path d="m476.968 494.01h-443.936c-34.545 0-45.867-46.475-15.131-62.243 52.865-27.12 139.363-44.793 237.099-44.793s184.233 17.673 237.099 44.793c30.736 15.767 19.414 62.243-15.131 62.243z" fill="url(#SVGID_28_)"/><path d="m492.099 431.767c-52.865-27.12-139.363-44.792-237.099-44.792-6.695 0-13.332.091-19.915.254 48.944 1.217 95.402 3.819 133.931 15.875 59.06 18.48 43.473 90.907-3.742 90.907h111.694c34.545-.001 45.867-46.477 15.131-62.244z" fill="url(#SVGID_29_)"/></g></g></svg>