<svg id="Capa_1" enable-background="new 0 0 510 510" height="512" viewBox="0 0 510 510" width="512" xmlns="http://www.w3.org/2000/svg" xmlns:xlink="http://www.w3.org/1999/xlink"><linearGradient id="lg1"><stop offset="0" stop-color="#fbc56d"/><stop offset=".593" stop-color="#dc8758"/><stop offset="1" stop-color="#9e5528"/></linearGradient><linearGradient id="SVGID_1_" gradientUnits="userSpaceOnUse" x1="214.195" x2="340.336" xlink:href="#lg1" y1="80.994" y2="80.994"/><linearGradient id="lg2"><stop offset="0" stop-color="#537983"/><stop offset=".593" stop-color="#554e56"/><stop offset="1" stop-color="#433f43"/></linearGradient><linearGradient id="SVGID_2_" gradientUnits="userSpaceOnUse" x1="220.5" x2="284.002" xlink:href="#lg2" y1="90.978" y2="90.978"/><linearGradient id="SVGID_4_" gradientUnits="userSpaceOnUse" x1="178.345" x2="415.312" xlink:href="#lg1" y1="182.812" y2="182.812"/><linearGradient id="SVGID_5_" gradientUnits="userSpaceOnUse" x1="174" x2="359.52" xlink:href="#lg1" y1="182.812" y2="182.812"/><linearGradient id="SVGID_6_" gradientUnits="userSpaceOnUse" x1="183" x2="316.094" xlink:href="#lg2" y1="189.497" y2="189.497"/><linearGradient id="SVGID_9_" gradientUnits="userSpaceOnUse" x1="178.345" x2="415.312" xlink:href="#lg1" y1="434.222" y2="434.222"/><linearGradient id="SVGID_10_" gradientUnits="userSpaceOnUse" x1="33.102" x2="381.136" xlink:href="#lg1" y1="434.22" y2="434.22"/><linearGradient id="SVGID_11_" gradientUnits="userSpaceOnUse" x1="140.733" x2="493.969" xlink:href="#lg1" y1="303.471" y2="303.471"/><linearGradient id="SVGID_12_" gradientUnits="userSpaceOnUse" x1="74" x2="402.661" xlink:href="#lg1" y1="316.781" y2="316.781"/><linearGradient id="SVGID_13_" gradientUnits="userSpaceOnUse" x1="118.597" x2="416.324" xlink:href="#lg1" y1="303.471" y2="303.471"/><linearGradient id="SVGID_14_" gradientUnits="userSpaceOnUse" x1="205.106" x2="315.501" xlink:href="#lg2" y1="36.5" y2="36.5"/><linearGradient id="SVGID_15_" gradientUnits="userSpaceOnUse" x1="144.5" x2="298.507" xlink:href="#lg2" y1="36.5" y2="36.5"/><linearGradient id="SVGID_16_" gradientUnits="userSpaceOnUse" x1="181.896" x2="368.681" xlink:href="#lg2" y1="131.689" y2="131.689"/><linearGradient id="SVGID_17_" gradientUnits="userSpaceOnUse" x1="71.333" x2="302.855" xlink:href="#lg2" y1="131.689" y2="131.689"/><linearGradient id="SVGID_18_" gradientUnits="userSpaceOnUse" x1="25" x2="295.148" xlink:href="#lg1" y1="147.4" y2="147.4"/><linearGradient id="SVGID_19_" gradientUnits="userSpaceOnUse" x1="64.06" x2="288.33" xlink:href="#lg1" y1="104.289" y2="104.289"/><linearGradient id="SVGID_20_" gradientUnits="userSpaceOnUse" x1="187.757" x2="310.495" y1="303.471" y2="303.471"><stop offset="0" stop-color="#faf7f7"/><stop offset=".4551" stop-color="#f3eae6"/><stop offset="1" stop-color="#efe2dd"/></linearGradient><linearGradient id="SVGID_21_" gradientUnits="userSpaceOnUse" x1="242.706" x2="319.506" y1="303.471" y2="303.471"><stop offset="0" stop-color="#f3eae6"/><stop offset="1" stop-color="#cdbfba"/></linearGradient><linearGradient id="lg3"><stop offset="0" stop-color="#fef056"/><stop offset=".5213" stop-color="#fbc56d"/><stop offset="1" stop-color="#c86d36"/></linearGradient><linearGradient id="SVGID_22_" gradientUnits="userSpaceOnUse" x1="103.675" x2="198.104" xlink:href="#lg3" y1="305.156" y2="305.156"/><linearGradient id="SVGID_23_" gradientUnits="userSpaceOnUse" x1="319.184" x2="413.614" xlink:href="#lg3" y1="305.156" y2="305.156"/><linearGradient id="SVGID_24_" gradientUnits="userSpaceOnUse" x1="216.667" x2="284.001" xlink:href="#lg2" y1="271.385" y2="271.385"/><linearGradient id="SVGID_25_" gradientUnits="userSpaceOnUse" x1="237.5" x2="272.5" xlink:href="#lg1" y1="303.471" y2="303.471"/><g><path d="m214.662 57.7h80.676v46.589h-80.676z" fill="url(#SVGID_1_)"/><g fill="url(#SVGID_2_)"><path d="m237.563 77.667c-5.35 0-9.687 4.337-9.687 9.687v16.935h19.375v-16.935c-.001-5.35-4.338-9.687-9.688-9.687z"/><path d="m272.437 77.667c-5.35 0-9.687 4.337-9.687 9.687v16.935h19.375v-16.935c-.001-5.35-4.338-9.687-9.688-9.687z"/></g><path d="m179.221 150.877h151.557v63.869h-151.557z" fill="url(#SVGID_4_)"/><path d="m290.758 150.877h40.02v63.869h-40.02z" fill="url(#SVGID_5_)"/><g fill="url(#SVGID_6_)"><path d="m209.981 164.247c-6.907 0-12.506 5.599-12.506 12.506v37.994h25.011v-37.994c0-6.907-5.599-12.506-12.505-12.506z"/><path d="m255 164.247c-6.907 0-12.505 5.599-12.505 12.506v37.994h25.011v-37.994c-.001-6.907-5.599-12.506-12.506-12.506z"/><path d="m300.019 164.247c-6.907 0-12.506 5.599-12.506 12.506v37.994h25.011v-37.994c.001-6.907-5.598-12.506-12.505-12.506z"/></g><path d="m320.569 510h-131.138c-5.639 0-10.209-4.571-10.209-10.209v-131.139c0-5.639 4.571-10.209 10.209-10.209h131.138c5.639 0 10.209 4.571 10.209 10.209v131.138c.001 5.639-4.57 10.21-10.209 10.21z" fill="url(#SVGID_9_)"/><path d="m330.78 368.65v131.14c0 5.639-4.571 10.21-10.21 10.21h-40.02c5.64 0 10.21-4.57 10.21-10.21v-25.748c0-18.006-14.597-32.603-32.603-32.603h-78.937v-72.79c0-5.639 4.571-10.21 10.21-10.21h131.14c5.639.001 10.21 4.572 10.21 10.211z" fill="url(#SVGID_10_)"/><path d="m352.741 416.431h-195.482c-8.405 0-15.219-6.814-15.219-15.219v-195.482c0-8.405 6.814-15.219 15.219-15.219h195.482c8.405 0 15.219 6.814 15.219 15.219v195.482c0 8.405-6.814 15.219-15.219 15.219z" fill="url(#SVGID_11_)"/><circle cx="229.989" cy="316.781" fill="url(#SVGID_12_)" r="79.573"/><path d="m352.741 190.511h-49.577v225.919h49.577c8.405 0 15.219-6.814 15.219-15.219v-195.481c0-8.405-6.814-15.219-15.219-15.219z" fill="url(#SVGID_13_)"/><path d="m244.415 5.444-37.513 52.469c-4.513 6.313-.001 15.087 7.76 15.087h80.676c7.761 0 12.274-8.774 7.76-15.087l-37.513-52.469c-5.19-7.259-15.98-7.259-21.17 0z" fill="url(#SVGID_14_)"/><path d="m303.098 57.913-37.513-52.469c-5.19-7.259-15.98-7.259-21.17 0l-1.92 2.686 35.592 49.782c4.513 6.314.001 15.088-7.76 15.088h25.011c7.761 0 12.273-8.774 7.76-15.087z" fill="url(#SVGID_15_)"/><path d="m191.619 112.5-23.129 38.377h173.02l-23.129-38.377z" fill="url(#SVGID_16_)"/><path d="m318.381 112.5h-40.02l23.129 38.377h40.02z" fill="url(#SVGID_17_)"/><path d="m334.859 157.4h-159.718c-5.523 0-10-4.477-10-10s4.477-10 10-10h159.718c5.522 0 10 4.477 10 10s-4.478 10-10 10z" fill="url(#SVGID_18_)"/><path d="m319.598 114.289h-129.196c-5.523 0-10-4.477-10-10s4.477-10 10-10h129.197c5.522 0 10 4.477 10 10s-4.478 10-10.001 10z" fill="url(#SVGID_19_)"/><circle cx="255" cy="303.471" fill="url(#SVGID_20_)" r="79.573"/><path d="m255 223.898c-6.912 0-13.616.884-20.01 2.54 34.26 8.874 59.563 39.997 59.563 77.033 0 37.035-25.302 68.158-59.563 77.033 6.394 1.656 13.098 2.54 20.01 2.54 43.947 0 79.573-35.626 79.573-79.573s-35.626-79.573-79.573-79.573z" fill="url(#SVGID_21_)"/><path d="m157.3 425h-20.11c-5.255 0-9.516-4.26-9.516-9.516v-220.656c0-5.255 4.26-9.516 9.516-9.516h20.11c5.255 0 9.516 4.26 9.516 9.516v220.656c0 5.256-4.261 9.516-9.516 9.516z" fill="url(#SVGID_22_)"/><path d="m372.81 425h-20.11c-5.255 0-9.516-4.26-9.516-9.516v-220.656c0-5.255 4.26-9.516 9.516-9.516h20.11c5.255 0 9.516 4.26 9.516 9.516v220.656c0 5.256-4.261 9.516-9.516 9.516z" fill="url(#SVGID_23_)"/><path d="m295.019 291.406h-30.019v-50.042c0-5.523-4.477-10-10-10s-10 4.477-10 10v60.042c0 5.522 4.477 10 10 10h40.019c5.523 0 10-4.477 10-10s-4.477-10-10-10z" fill="url(#SVGID_24_)"/><path d="m255 285.971c-9.665 0-17.5 7.835-17.5 17.5 0 9.665 7.835 17.5 17.5 17.5 9.665 0 17.5-7.835 17.5-17.5 0-9.665-7.835-17.5-17.5-17.5z" fill="url(#SVGID_25_)"/></g></svg>