<svg id="Capa_1" enable-background="new 0 0 510 510" height="512" viewBox="0 0 510 510" width="512" xmlns="http://www.w3.org/2000/svg" xmlns:xlink="http://www.w3.org/1999/xlink"><linearGradient id="lg1"><stop offset="0" stop-color="#537983"/><stop offset=".593" stop-color="#554e56"/><stop offset="1" stop-color="#433f43"/></linearGradient><linearGradient id="SVGID_1_" gradientUnits="userSpaceOnUse" x1="83.395" x2="145.55" xlink:href="#lg1" y1="218.625" y2="218.625"/><linearGradient id="SVGID_2_" gradientUnits="userSpaceOnUse" x1="80.488" x2="175.173" xlink:href="#lg1" y1="256.968" y2="256.968"/><linearGradient id="SVGID_3_" gradientUnits="userSpaceOnUse" x1="49.562" x2="136.936" xlink:href="#lg1" y1="256.968" y2="256.968"/><linearGradient id="SVGID_4_" gradientUnits="userSpaceOnUse" x1="15.378" x2="281.121" xlink:href="#lg1" y1="328.832" y2="328.832"/><linearGradient id="SVGID_5_" gradientUnits="userSpaceOnUse" x1="21.789" x2="202.988" xlink:href="#lg1" y1="328.831" y2="328.831"/><linearGradient id="SVGID_6_" gradientUnits="userSpaceOnUse" x1="21.789" x2="202.988" xlink:href="#lg1" y1="301.237" y2="301.237"/><linearGradient id="SVGID_7_" gradientUnits="userSpaceOnUse" x1="21.789" x2="202.988" xlink:href="#lg1" y1="265.608" y2="265.608"/><linearGradient id="SVGID_8_" gradientUnits="userSpaceOnUse" x1="21.789" x2="202.988" xlink:href="#lg1" y1="402.227" y2="402.227"/><linearGradient id="SVGID_9_" gradientUnits="userSpaceOnUse" x1="21.789" x2="202.988" xlink:href="#lg1" y1="337.775" y2="337.775"/><linearGradient id="SVGID_10_" gradientUnits="userSpaceOnUse" x1="21.789" x2="202.988" xlink:href="#lg1" y1="372.497" y2="372.497"/><linearGradient id="SVGID_11_" gradientUnits="userSpaceOnUse" x1="21.789" x2="202.988" xlink:href="#lg1" y1="336.867" y2="336.867"/><linearGradient id="SVGID_13_" gradientUnits="userSpaceOnUse" x1="67.575" x2="232.418" xlink:href="#lg1" y1="398.014" y2="398.014"/><linearGradient id="SVGID_14_" gradientUnits="userSpaceOnUse" x1="24.039" x2="198.223" xlink:href="#lg1" y1="398.014" y2="398.014"/><linearGradient id="SVGID_15_" gradientUnits="userSpaceOnUse" x1="345.605" x2="407.76" xlink:href="#lg1" y1="218.625" y2="218.625"/><linearGradient id="SVGID_16_" gradientUnits="userSpaceOnUse" x1="342.698" x2="437.383" xlink:href="#lg1" y1="256.968" y2="256.968"/><linearGradient id="SVGID_17_" gradientUnits="userSpaceOnUse" x1="311.772" x2="399.146" xlink:href="#lg1" y1="256.968" y2="256.968"/><linearGradient id="SVGID_18_" gradientUnits="userSpaceOnUse" x1="277.588" x2="543.331" xlink:href="#lg1" y1="328.832" y2="328.832"/><linearGradient id="SVGID_19_" gradientUnits="userSpaceOnUse" x1="283.998" x2="465.198" xlink:href="#lg1" y1="328.831" y2="328.831"/><linearGradient id="SVGID_20_" gradientUnits="userSpaceOnUse" x1="283.998" x2="465.198" xlink:href="#lg1" y1="301.237" y2="301.237"/><linearGradient id="SVGID_21_" gradientUnits="userSpaceOnUse" x1="283.998" x2="465.198" xlink:href="#lg1" y1="265.608" y2="265.608"/><linearGradient id="SVGID_22_" gradientUnits="userSpaceOnUse" x1="283.998" x2="465.198" xlink:href="#lg1" y1="402.227" y2="402.227"/><linearGradient id="SVGID_23_" gradientUnits="userSpaceOnUse" x1="283.998" x2="465.198" xlink:href="#lg1" y1="337.775" y2="337.775"/><linearGradient id="SVGID_24_" gradientUnits="userSpaceOnUse" x1="283.998" x2="465.198" xlink:href="#lg1" y1="372.497" y2="372.497"/><linearGradient id="SVGID_25_" gradientUnits="userSpaceOnUse" x1="283.998" x2="465.198" xlink:href="#lg1" y1="336.867" y2="336.867"/><linearGradient id="SVGID_27_" gradientUnits="userSpaceOnUse" x1="329.784" x2="494.628" xlink:href="#lg1" y1="398.014" y2="398.014"/><linearGradient id="SVGID_28_" gradientUnits="userSpaceOnUse" x1="286.249" x2="460.433" xlink:href="#lg1" y1="398.014" y2="398.014"/><linearGradient id="SVGID_29_" gradientUnits="userSpaceOnUse" x1="223.05" x2="286.95" xlink:href="#lg1" y1="81.116" y2="81.116"/><linearGradient id="SVGID_30_" gradientUnits="userSpaceOnUse" x1="198.667" x2="291.118" xlink:href="#lg1" y1="81.116" y2="81.116"/><linearGradient id="SVGID_31_" gradientUnits="userSpaceOnUse" x1="211.593" x2="306.278" xlink:href="#lg1" y1="147.648" y2="147.648"/><linearGradient id="SVGID_32_" gradientUnits="userSpaceOnUse" x1="180.667" x2="268.041" xlink:href="#lg1" y1="147.648" y2="147.648"/><linearGradient id="SVGID_33_" gradientUnits="userSpaceOnUse" x1="102.831" x2="475.471" xlink:href="#lg1" y1="261.14" y2="261.14"/><linearGradient id="SVGID_35_" gradientUnits="userSpaceOnUse" x1="79.821" x2="346.338" xlink:href="#lg1" y1="261.14" y2="261.14"/><linearGradient id="SVGID_36_" gradientUnits="userSpaceOnUse" x1="79.821" x2="346.338" xlink:href="#lg1" y1="146.341" y2="146.341"/><linearGradient id="SVGID_37_" gradientUnits="userSpaceOnUse" x1="79.821" x2="346.338" xlink:href="#lg1" y1="211.696" y2="211.696"/><linearGradient id="SVGID_38_" gradientUnits="userSpaceOnUse" x1="79.821" x2="346.338" xlink:href="#lg1" y1="174.518" y2="174.518"/><linearGradient id="SVGID_39_" gradientUnits="userSpaceOnUse" x1="79.821" x2="346.338" xlink:href="#lg1" y1="209.156" y2="209.156"/><linearGradient id="SVGID_40_" gradientUnits="userSpaceOnUse" x1="79.821" x2="346.338" xlink:href="#lg1" y1="173.526" y2="173.526"/><linearGradient id="SVGID_42_" gradientUnits="userSpaceOnUse" x1="79.821" x2="346.338" xlink:href="#lg1" y1="351.675" y2="351.675"/><linearGradient id="SVGID_43_" gradientUnits="userSpaceOnUse" x1="79.821" x2="346.338" xlink:href="#lg1" y1="316.045" y2="316.045"/><linearGradient id="SVGID_48_" gradientUnits="userSpaceOnUse" x1="79.821" x2="346.338" xlink:href="#lg1" y1="280.416" y2="280.416"/><linearGradient id="SVGID_49_" gradientUnits="userSpaceOnUse" x1="79.821" x2="346.338" xlink:href="#lg1" y1="244.785" y2="244.785"/><linearGradient id="SVGID_50_" gradientUnits="userSpaceOnUse" x1="79.821" x2="346.338" xlink:href="#lg1" y1="280.415" y2="280.415"/><linearGradient id="SVGID_53_" gradientUnits="userSpaceOnUse" x1="168.987" x2="420.737" xlink:href="#lg1" y1="371.026" y2="371.026"/><linearGradient id="SVGID_54_" gradientUnits="userSpaceOnUse" x1="215.19" x2="389.374" xlink:href="#lg1" y1="371.026" y2="371.026"/><linearGradient id="SVGID_55_" gradientUnits="userSpaceOnUse" x1="43.506" x2="777.648" xlink:href="#lg1" y1="415.144" y2="415.144"/><linearGradient id="SVGID_56_" gradientUnits="userSpaceOnUse" x1="232.355" x2="475.694" xlink:href="#lg1" y1="415.144" y2="415.144"/><linearGradient id="SVGID_57_" gradientUnits="userSpaceOnUse" x1="-10" x2="628.028" xlink:href="#lg1" y1="443.358" y2="443.358"/><linearGradient id="SVGID_58_" gradientUnits="userSpaceOnUse" x1="251" x2="457" xlink:href="#lg1" y1="443.358" y2="443.358"/><g><g><g><path d="m133.895 183.375v80.5h-20v-80.5c0-5.52 4.48-10 10-10s10 4.48 10 10z" fill="url(#SVGID_1_)"/><path d="m168.395 285.176h-89v-31.863c0-13.56 10.993-24.553 24.553-24.553h39.895c13.56 0 24.553 10.993 24.553 24.553v31.863z" fill="url(#SVGID_2_)"/><path d="m143.842 228.76h-25.011c13.56 0 24.553 10.993 24.553 24.553v31.863h25.011v-31.863c0-13.56-10.993-24.553-24.553-24.553z" fill="url(#SVGID_3_)"/></g><path d="m202.685 339.37v-22.286c0-43.514-35.275-78.79-78.79-78.79-43.514 0-78.79 35.275-78.79 78.79v22.286c0 17.1-7.748 33.411-21.345 43.781-7.399 5.643-11.559 12.001-11.559 18.727 0 23.321 223.387 23.321 223.387 0 0-6.725-4.16-13.083-11.559-18.727-13.596-10.37-21.344-26.68-21.344-43.781z" fill="url(#SVGID_4_)"/><g><path d="m224.03 383.152c-13.597-10.37-21.345-26.681-21.345-43.781v-22.286c0-43.514-35.275-78.79-78.79-78.79-7.466 0-14.68 1.061-21.524 3.001 23.905 6.777 43.182 24.546 52.023 47.501l-4.682-4.682c-2.971-2.971-7.787-2.971-10.758 0l-11.744 11.744c-2.971 2.971-2.971 7.787 0 10.758l11.744 11.744c2.971 2.971 7.787 2.971 10.758 0l9.485-9.485c.28 2.699.44 5.434.44 8.208v22.286c0 17.1 7.748 33.411 21.345 43.781 5.822 4.441 9.627 9.325 10.99 14.481l-6.633-6.628c-2.97-2.97-7.78-2.97-10.75 0l-11.75 11.74c-2.97 2.97-2.97 7.79 0 10.76l.614.612c-11.852 1.937-26.517 3.338-42.439 4.203l4.815-4.815c2.97-2.97 2.97-7.79 0-10.76l-11.75-11.74c-2.97-2.97-7.78-2.97-10.75 0l-11.75 11.74c-2.97 2.97-2.97 7.79 0 10.76l5.4 5.4c1.788.062 3.587.117 5.393.166l.341-.005c-.114.003-.228.007-.342.01 62.009 1.701 133.217-4.031 133.217-17.198.001-6.724-4.159-13.082-11.558-18.725z" fill="url(#SVGID_5_)"/><path d="m67.696 318.361c2.971 2.971 7.787 2.971 10.758 0l11.744-11.744c2.971-2.971 2.971-7.787 0-10.758l-11.744-11.744c-2.971-2.971-7.787-2.971-10.758 0l-11.744 11.744c-2.971 2.971-2.971 7.787 0 10.758z" fill="url(#SVGID_6_)"/><path d="m103.325 282.731c2.971 2.971 7.787 2.971 10.758 0l11.744-11.744c2.971-2.971 2.971-7.787 0-10.758l-11.744-11.744c-2.971-2.971-7.787-2.971-10.758 0l-11.744 11.744c-2.971 2.971-2.971 7.787 0 10.758z" fill="url(#SVGID_7_)"/><path d="m42.829 391.005c-2.98-2.97-7.79-2.97-10.76 0l-11.75 11.74c-1.46 1.46-2.2 3.34-2.22 5.25 6.79 3.27 19 5.83 34.3 7.68l2.17-2.17c2.97-2.97 2.97-7.79 0-10.76z" fill="url(#SVGID_8_)"/><path d="m54.569 331.485-9.46-9.46v17.34c0 4.82-.62 9.58-1.81 14.16l11.27-11.28c2.97-2.97 2.97-7.79 0-10.76z" fill="url(#SVGID_9_)"/><path d="m90.198 367.118-11.744-11.744c-2.971-2.971-7.787-2.971-10.758 0l-11.744 11.744c-2.971 2.971-2.971 7.787 0 10.758l11.744 11.744c2.971 2.971 7.787 2.971 10.758 0l11.744-11.744c2.97-2.971 2.97-7.787 0-10.758z" fill="url(#SVGID_10_)"/><path d="m114.083 319.744c-2.971-2.971-7.787-2.971-10.758 0l-11.744 11.744c-2.971 2.971-2.971 7.787 0 10.758l11.744 11.744c2.971 2.971 7.787 2.971 10.758 0l11.744-11.744c2.971-2.971 2.971-7.787 0-10.758z" fill="url(#SVGID_11_)"/><path d="m127.211 377.876 11.744 11.744c2.971 2.971 7.787 2.971 10.758 0l11.744-11.744c2.971-2.971 2.971-7.787 0-10.758l-11.744-11.744c-2.971-2.971-7.787-2.971-10.758 0l-11.744 11.744c-2.971 2.971-2.971 7.787 0 10.758z" fill="url(#SVGID_10_)"/></g><g><g><path d="m217.948 419.237h-188.106c-10.959 0-19.842-8.884-19.842-19.842v-2.762c0-10.959 8.884-19.842 19.842-19.842h188.106c10.959 0 19.842 8.884 19.842 19.842v2.762c0 10.958-8.883 19.842-19.842 19.842z" fill="url(#SVGID_13_)"/><path d="m217.948 376.79h-40.02c10.958 0 19.842 8.884 19.842 19.842v2.762c0 10.958-8.884 19.842-19.842 19.842h40.02c10.958 0 19.842-8.884 19.842-19.842v-2.762c0-10.958-8.884-19.842-19.842-19.842z" fill="url(#SVGID_14_)"/></g></g></g><g><g><path d="m396.105 183.375v80.5h-20v-80.5c0-5.52 4.48-10 10-10s10 4.48 10 10z" fill="url(#SVGID_15_)"/><path d="m430.605 285.176h-89v-31.863c0-13.56 10.993-24.553 24.553-24.553h39.895c13.56 0 24.553 10.993 24.553 24.553v31.863z" fill="url(#SVGID_16_)"/><path d="m406.052 228.76h-25.011c13.56 0 24.553 10.993 24.553 24.553v31.863h25.011v-31.863c0-13.56-10.993-24.553-24.553-24.553z" fill="url(#SVGID_17_)"/></g><path d="m464.895 339.37v-22.286c0-43.514-35.275-78.79-78.79-78.79-43.514 0-78.79 35.275-78.79 78.79v22.286c0 17.1-7.748 33.411-21.345 43.781-7.399 5.643-11.559 12.001-11.559 18.727 0 23.321 223.387 23.321 223.387 0 0-6.725-4.16-13.083-11.559-18.727-13.597-10.37-21.344-26.68-21.344-43.781z" fill="url(#SVGID_18_)"/><g><path d="m486.24 383.152c-13.597-10.37-21.345-26.681-21.345-43.781v-22.286c0-43.514-35.275-78.79-78.79-78.79-7.466 0-14.68 1.061-21.524 3.001 23.905 6.777 43.182 24.546 52.023 47.501l-4.682-4.682c-2.971-2.971-7.787-2.971-10.758 0l-11.744 11.744c-2.971 2.971-2.971 7.787 0 10.758l11.744 11.744c2.971 2.971 7.787 2.971 10.758 0l9.485-9.485c.28 2.699.44 5.434.44 8.208v22.286c0 17.1 7.748 33.411 21.345 43.781 5.822 4.441 9.627 9.325 10.99 14.481l-6.633-6.628c-2.97-2.97-7.78-2.97-10.75 0l-11.75 11.74c-2.97 2.97-2.97 7.79 0 10.76l.614.612c-11.852 1.937-26.517 3.338-42.439 4.203l4.815-4.815c2.97-2.97 2.97-7.79 0-10.76l-11.75-11.74c-2.97-2.97-7.78-2.97-10.75 0l-11.75 11.74c-2.97 2.97-2.97 7.79 0 10.76l5.4 5.4c1.788.062 3.587.117 5.393.166l.341-.005c-.114.003-.228.007-.342.01 62.009 1.701 133.217-4.031 133.217-17.198 0-6.724-4.159-13.082-11.558-18.725z" fill="url(#SVGID_19_)"/><path d="m329.905 318.361c2.971 2.971 7.787 2.971 10.758 0l11.744-11.744c2.971-2.971 2.971-7.787 0-10.758l-11.744-11.744c-2.971-2.971-7.787-2.971-10.758 0l-11.744 11.744c-2.971 2.971-2.971 7.787 0 10.758z" fill="url(#SVGID_20_)"/><path d="m365.535 282.731c2.971 2.971 7.787 2.971 10.758 0l11.744-11.744c2.971-2.971 2.971-7.787 0-10.758l-11.744-11.744c-2.971-2.971-7.787-2.971-10.758 0l-11.744 11.744c-2.971 2.971-2.971 7.787 0 10.758z" fill="url(#SVGID_21_)"/><path d="m305.038 391.005c-2.98-2.97-7.79-2.97-10.76 0l-11.75 11.74c-1.46 1.46-2.2 3.34-2.22 5.25 6.79 3.27 19 5.83 34.3 7.68l2.17-2.17c2.97-2.97 2.97-7.79 0-10.76z" fill="url(#SVGID_22_)"/><path d="m316.778 331.485-9.46-9.46v17.34c0 4.82-.62 9.58-1.81 14.16l11.27-11.28c2.97-2.97 2.97-7.79 0-10.76z" fill="url(#SVGID_23_)"/><path d="m352.407 367.118-11.744-11.744c-2.971-2.971-7.787-2.971-10.758 0l-11.744 11.744c-2.971 2.971-2.971 7.787 0 10.758l11.744 11.744c2.971 2.971 7.787 2.971 10.758 0l11.744-11.744c2.971-2.971 2.971-7.787 0-10.758z" fill="url(#SVGID_24_)"/><path d="m376.293 319.744c-2.971-2.971-7.787-2.971-10.758 0l-11.744 11.744c-2.971 2.971-2.971 7.787 0 10.758l11.744 11.744c2.971 2.971 7.787 2.971 10.758 0l11.744-11.744c2.971-2.971 2.971-7.787 0-10.758z" fill="url(#SVGID_25_)"/><path d="m389.42 377.876 11.744 11.744c2.971 2.971 7.787 2.971 10.758 0l11.744-11.744c2.971-2.971 2.971-7.787 0-10.758l-11.744-11.744c-2.971-2.971-7.787-2.971-10.758 0l-11.744 11.744c-2.97 2.971-2.97 7.787 0 10.758z" fill="url(#SVGID_24_)"/></g><g><g><path d="m480.158 419.237h-188.106c-10.959 0-19.842-8.884-19.842-19.842v-2.762c0-10.959 8.884-19.842 19.842-19.842h188.106c10.959 0 19.842 8.884 19.842 19.842v2.762c0 10.958-8.884 19.842-19.842 19.842z" fill="url(#SVGID_27_)"/><path d="m480.158 376.79h-40.02c10.958 0 19.842 8.884 19.842 19.842v2.762c0 10.958-8.884 19.842-19.842 19.842h40.02c10.958 0 19.842-8.884 19.842-19.842v-2.762c0-10.958-8.884-19.842-19.842-19.842z" fill="url(#SVGID_28_)"/></g></g></g><g><g><path d="m263.883 34.116h-17.765c-8.021 0-14.726 6.099-15.484 14.084l-7.584 79.916h63.9l-7.583-79.916c-.758-7.985-7.464-14.084-15.484-14.084z" fill="url(#SVGID_29_)"/><path d="m263.883 34.116h-16.403c2.69 2.79 4.47 6.47 4.86 10.56l7.92 83.44h26.69l-7.583-79.916c-.758-7.985-7.464-14.084-15.484-14.084z" fill="url(#SVGID_30_)"/></g><path d="m299.5 175.856h-89v-31.863c0-13.56 10.993-24.553 24.553-24.553h39.895c13.56 0 24.553 10.993 24.553 24.553v31.863z" fill="url(#SVGID_31_)"/><path d="m274.947 119.44h-25.011c13.56 0 24.553 10.993 24.553 24.553v31.863h25.011v-31.863c0-13.56-10.993-24.553-24.553-24.553z" fill="url(#SVGID_32_)"/><g><path d="m365.483 275.918v-31.251c0-61.018-49.465-110.483-110.483-110.483-61.018 0-110.483 49.465-110.483 110.483v31.251c0 23.979-10.864 46.85-29.931 61.392-10.375 7.913-16.208 16.829-16.208 26.26 0 32.702 313.245 32.702 313.245 0 0-9.431-5.833-18.346-16.208-26.26-19.067-14.541-29.932-37.413-29.932-61.392z" fill="url(#SVGID_33_)"/><path d="m365.483 275.918v-31.251c0-61.018-49.465-110.483-110.483-110.483-61.018 0-110.483 49.465-110.483 110.483v31.251c0 23.979-10.864 46.85-29.931 61.392-10.375 7.913-16.208 16.829-16.208 26.26 0 32.702 313.245 32.702 313.245 0 0-9.431-5.833-18.346-16.208-26.26-19.067-14.541-29.932-37.413-29.932-61.392z" fill="url(#SVGID_33_)"/><g><path d="m395.414 337.311c-19.067-14.542-29.931-37.413-29.931-61.392v-31.251c0-61.018-49.465-110.483-110.483-110.483-5.038 0-9.994.344-14.853.997 49.513 6.654 88.629 46.101 94.781 95.771l-3.289-3.289c-2.971-2.971-7.787-2.971-10.758 0l-11.744 11.744c-2.971 2.971-2.971 7.787 0 10.758l11.744 11.744c2.971 2.971 7.787 2.971 10.758 0 1.527-1.527 4.139-.446 4.139 1.714v12.295c0 19.91 7.495 39.053 20.952 53.301 1.427 1.51 1.29 3.841-.188 5.302-.01.01-.02.02-.031.031l-11.744 11.744c-2.971 2.971-2.971 7.787 0 10.758l11.744 11.744c2.971 2.971 7.787 2.971 10.758 0l11.744-11.744c.553-.553 1.003-1.171 1.35-1.828 1.018 2.727 1.554 5.512 1.554 8.345 0 15.316-68.71 23.458-141.769 24.428 82.935 1.101 171.476-7.042 171.476-24.428-.002-9.433-5.834-18.348-16.21-26.261z" fill="url(#SVGID_35_)"/><path d="m224.752 155.022 11.743-11.75c2.115-2.116 2.724-5.181 1.826-7.839-11.802 1.789-22.989 5.448-33.254 10.659l8.922 8.93c2.976 2.969 7.786 2.969 10.763 0z" fill="url(#SVGID_36_)"/><path d="m153.492 226.281 11.743-11.75c2.969-2.969 2.969-7.787 0-10.756l-8.893-8.893c-5.189 10.266-8.826 21.46-10.592 33.254 2.635.855 5.642.238 7.742-1.855z" fill="url(#SVGID_37_)"/><path d="m178.359 190.651c2.977 2.969 7.787 2.969 10.763 0l11.743-11.75c2.969-2.969 2.969-7.787 0-10.756l-11.743-11.743c-.082-.082-.171-.163-.252-.245-4.246 3.17-8.247 6.643-11.988 10.385-3.778 3.778-7.289 7.831-10.489 12.122.067.082.141.156.223.238z" fill="url(#SVGID_38_)"/><path d="m224.749 192.032c-2.971-2.971-7.787-2.971-10.758 0l-11.744 11.744c-2.971 2.971-2.971 7.787 0 10.758l11.744 11.744c2.971 2.971 7.787 2.971 10.758 0l11.744-11.744c2.971-2.971 2.971-7.787 0-10.758z" fill="url(#SVGID_39_)"/><path d="m260.379 156.403c-2.971-2.971-7.787-2.971-10.758 0l-11.744 11.744c-2.971 2.971-2.971 7.787 0 10.758l11.744 11.744c2.971 2.971 7.787 2.971 10.758 0l11.744-11.744c2.971-2.971 2.971-7.787 0-10.758z" fill="url(#SVGID_40_)"/><path d="m307.753 203.777-11.744-11.744c-2.971-2.971-7.787-2.971-10.758 0l-11.744 11.744c-2.971 2.971-2.971 7.787 0 10.758l11.744 11.744c2.971 2.971 7.787 2.971 10.758 0l11.744-11.744c2.971-2.971 2.971-7.788 0-10.758z" fill="url(#SVGID_39_)"/><path d="m153.49 334.551c-2.971-2.971-7.787-2.971-10.758 0l-11.744 11.744c-2.971 2.971-2.971 7.787 0 10.758l11.744 11.744c2.971 2.971 7.787 2.971 10.758 0l11.744-11.744c2.971-2.971 2.971-7.787 0-10.758z" fill="url(#SVGID_42_)"/><path d="m200.864 310.666-11.744-11.744c-2.971-2.971-7.787-2.971-10.758 0l-11.744 11.744c-2.971 2.971-2.971 7.787 0 10.758l11.744 11.744c2.971 2.971 7.787 2.971 10.758 0l11.744-11.744c2.97-2.971 2.97-7.787 0-10.758z" fill="url(#SVGID_43_)"/><path d="m224.749 334.551c-2.971-2.971-7.787-2.971-10.758 0l-11.744 11.744c-2.971 2.971-2.971 7.787 0 10.758l11.744 11.744c2.971 2.971 7.787 2.971 10.758 0l11.744-11.744c2.971-2.971 2.971-7.787 0-10.758z" fill="url(#SVGID_42_)"/><path d="m249.621 333.168c2.971 2.971 7.787 2.971 10.758 0l11.744-11.744c2.971-2.971 2.971-7.787 0-10.758l-11.744-11.744c-2.971-2.971-7.787-2.971-10.758 0l-11.744 11.744c-2.971 2.971-2.971 7.787 0 10.758z" fill="url(#SVGID_43_)"/><path d="m285.251 368.798c2.971 2.971 7.787 2.971 10.758 0l11.744-11.744c2.971-2.971 2.971-7.787 0-10.758l-11.744-11.744c-2.971-2.971-7.787-2.971-10.758 0l-11.744 11.744c-2.971 2.971-2.971 7.787 0 10.758z" fill="url(#SVGID_42_)"/><path d="m331.638 333.168 11.744-11.744c2.971-2.971 2.971-7.787 0-10.758l-11.744-11.744c-2.971-2.971-7.787-2.971-10.758 0l-11.744 11.744c-2.971 2.971-2.971 7.787 0 10.758l11.744 11.744c2.971 2.971 7.788 2.971 10.758 0z" fill="url(#SVGID_43_)"/><path d="m153.492 297.541 11.743-11.75c2.969-2.969 2.969-7.787 0-10.756l-11.743-11.743c-2.435-2.427-6.094-2.873-8.974-1.329v13.955c0 7.044-.935 13.992-2.746 20.665l.958.958c2.976 2.969 7.786 2.969 10.762 0z" fill="url(#SVGID_48_)"/><path d="m178.362 227.662-11.744 11.744c-2.971 2.971-2.971 7.787 0 10.758l11.744 11.744c2.971 2.971 7.787 2.971 10.758 0l11.744-11.744c2.971-2.971 2.971-7.787 0-10.758l-11.744-11.744c-2.971-2.97-7.788-2.97-10.758 0z" fill="url(#SVGID_49_)"/><path d="m213.992 297.538c2.971 2.971 7.787 2.971 10.758 0l11.744-11.744c2.971-2.971 2.971-7.787 0-10.758l-11.744-11.744c-2.971-2.971-7.787-2.971-10.758 0l-11.744 11.744c-2.971 2.971-2.971 7.787 0 10.758z" fill="url(#SVGID_50_)"/><path d="m237.877 250.164 11.744 11.744c2.971 2.971 7.787 2.971 10.758 0l11.744-11.744c2.971-2.971 2.971-7.787 0-10.758l-11.744-11.744c-2.971-2.971-7.787-2.971-10.758 0l-11.744 11.744c-2.971 2.971-2.971 7.788 0 10.758z" fill="url(#SVGID_49_)"/><path d="m296.009 263.292c-2.971-2.971-7.787-2.971-10.758 0l-11.744 11.744c-2.971 2.971-2.971 7.787 0 10.758l11.744 11.744c2.971 2.971 7.787 2.971 10.758 0l11.744-11.744c2.971-2.971 2.971-7.787 0-10.758z" fill="url(#SVGID_50_)"/></g></g><g><path d="m409.099 392.249h-308.198c-10.959 0-19.842-8.884-19.842-19.842v-2.762c0-10.959 8.884-19.842 19.842-19.842h308.198c10.959 0 19.842 8.884 19.842 19.842v2.762c0 10.959-8.884 19.842-19.842 19.842z" fill="url(#SVGID_53_)"/><path d="m409.099 349.802h-40.02c10.958 0 19.842 8.884 19.842 19.842v2.762c0 10.958-8.884 19.842-19.842 19.842h40.02c10.958 0 19.842-8.884 19.842-19.842v-2.762c0-10.958-8.884-19.842-19.842-19.842z" fill="url(#SVGID_54_)"/></g><g><path d="m436.16 447.669h-362.32c-10.959 0-19.842-8.884-19.842-19.842v-25.367c0-10.959 8.884-19.842 19.842-19.842h362.32c10.959 0 19.842 8.884 19.842 19.842v25.367c0 10.959-8.884 19.842-19.842 19.842z" fill="url(#SVGID_55_)"/><path d="m436.16 382.618h-40.02c10.958 0 19.842 8.884 19.842 19.842v25.367c0 10.958-8.884 19.842-19.842 19.842h40.02c10.958 0 19.842-8.884 19.842-19.842v-25.367c0-10.959-8.884-19.842-19.842-19.842z" fill="url(#SVGID_56_)"/></g></g><g><path d="m490.158 475.884h-470.316c-10.958 0-19.842-8.883-19.842-19.842v-25.367c0-10.959 8.884-19.842 19.842-19.842h470.315c10.959 0 19.842 8.884 19.842 19.842v25.367c.001 10.959-8.883 19.842-19.841 19.842z" fill="url(#SVGID_57_)"/><path d="m490.158 410.832h-40.02c10.958 0 19.842 8.884 19.842 19.842v25.367c0 10.958-8.884 19.842-19.842 19.842h40.02c10.958 0 19.842-8.884 19.842-19.842v-25.367c0-10.958-8.884-19.842-19.842-19.842z" fill="url(#SVGID_58_)"/></g></g></svg>