<svg id="Capa_1" enable-background="new 0 0 510 510" height="512" viewBox="0 0 510 510" width="512" xmlns="http://www.w3.org/2000/svg" xmlns:xlink="http://www.w3.org/1999/xlink"><linearGradient id="lg1"><stop offset="0" stop-color="#bbec6c"/><stop offset=".5857" stop-color="#78a91f"/><stop offset="1" stop-color="#02905d"/></linearGradient><linearGradient id="SVGID_1_" gradientUnits="userSpaceOnUse" x1="203.333" x2="296.726" xlink:href="#lg1" y1="27.804" y2="27.804"/><linearGradient id="SVGID_2_" gradientUnits="userSpaceOnUse" x1="236.667" x2="290.7" xlink:href="#lg1" y1="63.747" y2="63.747"/><linearGradient id="SVGID_3_" gradientUnits="userSpaceOnUse" x1="144.667" x2="356.765" xlink:href="#lg1" y1="76.154" y2="76.154"/><linearGradient id="SVGID_4_" gradientUnits="userSpaceOnUse" x1="166.25" x2="302.315" xlink:href="#lg1" y1="76.152" y2="76.152"/><linearGradient id="lg2"><stop offset="0" stop-color="#faf7f7"/><stop offset=".4551" stop-color="#f3eae6"/><stop offset="1" stop-color="#efe2dd"/></linearGradient><linearGradient id="SVGID_7_" gradientUnits="userSpaceOnUse" x1="-5.423" x2="323.536" xlink:href="#lg2" y1="182.487" y2="182.487"/><linearGradient id="SVGID_8_" gradientUnits="userSpaceOnUse" x1="63" x2="120.14" xlink:href="#lg2" y1="182.487" y2="182.487"/><linearGradient id="lg3"><stop offset="0" stop-color="#f3eae6"/><stop offset="1" stop-color="#cdbfba"/></linearGradient><linearGradient id="SVGID_9_" gradientUnits="userSpaceOnUse" x1="385" x2="537.742" xlink:href="#lg3" y1="182.487" y2="182.487"/><linearGradient id="lg4"><stop offset="0" stop-color="#cdbfba"/><stop offset="1" stop-color="#766e6e"/></linearGradient><linearGradient id="SVGID_10_" gradientUnits="userSpaceOnUse" x1="40.49" x2="110.519" xlink:href="#lg4" y1="389.722" y2="389.722"/><linearGradient id="lg5"><stop offset="0" stop-color="#9e9797"/><stop offset="1" stop-color="#5b5555"/></linearGradient><linearGradient id="SVGID_11_" gradientUnits="userSpaceOnUse" x1="40.49" x2="170.144" xlink:href="#lg5" y1="389.724" y2="389.724"/><linearGradient id="SVGID_12_" gradientUnits="userSpaceOnUse" x1="35.66" x2="84.327" xlink:href="#lg2" y1="279.36" y2="279.36"/><linearGradient id="SVGID_13_" gradientTransform="matrix(1 0 0 -1 0 -7048.877)" gradientUnits="userSpaceOnUse" x1="15.98" x2="97.079" xlink:href="#lg2" y1="-7520.164" y2="-7520.164"/><linearGradient id="SVGID_14_" gradientUnits="userSpaceOnUse" x1="159.396" x2="229.425" xlink:href="#lg4" y1="389.722" y2="389.722"/><linearGradient id="SVGID_15_" gradientUnits="userSpaceOnUse" x1="159.396" x2="289.05" xlink:href="#lg5" y1="389.724" y2="389.724"/><linearGradient id="SVGID_16_" gradientUnits="userSpaceOnUse" x1="154.566" x2="203.233" xlink:href="#lg2" y1="279.36" y2="279.36"/><linearGradient id="SVGID_17_" gradientTransform="matrix(1 0 0 -1 0 -7048.877)" gradientUnits="userSpaceOnUse" x1="134.886" x2="215.985" xlink:href="#lg2" y1="-7520.164" y2="-7520.164"/><linearGradient id="SVGID_18_" gradientUnits="userSpaceOnUse" x1="282.712" x2="352.741" xlink:href="#lg4" y1="389.722" y2="389.722"/><linearGradient id="SVGID_19_" gradientUnits="userSpaceOnUse" x1="282.712" x2="412.365" xlink:href="#lg5" y1="389.724" y2="389.724"/><linearGradient id="SVGID_20_" gradientUnits="userSpaceOnUse" x1="277.882" x2="326.548" xlink:href="#lg2" y1="279.36" y2="279.36"/><linearGradient id="SVGID_21_" gradientTransform="matrix(1 0 0 -1 0 -7048.877)" gradientUnits="userSpaceOnUse" x1="258.202" x2="339.301" xlink:href="#lg2" y1="-7520.164" y2="-7520.164"/><linearGradient id="SVGID_22_" gradientUnits="userSpaceOnUse" x1="410.705" x2="480.733" xlink:href="#lg4" y1="389.722" y2="389.722"/><linearGradient id="SVGID_23_" gradientUnits="userSpaceOnUse" x1="410.705" x2="540.358" xlink:href="#lg5" y1="389.724" y2="389.724"/><linearGradient id="SVGID_24_" gradientUnits="userSpaceOnUse" x1="405.875" x2="454.541" xlink:href="#lg2" y1="279.36" y2="279.36"/><linearGradient id="SVGID_25_" gradientTransform="matrix(1 0 0 -1 0 -7048.877)" gradientUnits="userSpaceOnUse" x1="386.195" x2="467.293" xlink:href="#lg2" y1="-7520.164" y2="-7520.164"/><linearGradient id="SVGID_26_" gradientUnits="userSpaceOnUse" x1="92.498" x2="687.597" xlink:href="#lg3" y1="235.889" y2="235.889"/><linearGradient id="SVGID_27_" gradientUnits="userSpaceOnUse" x1="-47.421" x2="450.879" xlink:href="#lg3" y1="235.89" y2="235.89"/><linearGradient id="SVGID_28_" gradientUnits="userSpaceOnUse" x1="148.153" x2="280.805" xlink:href="#lg2" y1="147.817" y2="147.817"/><linearGradient id="SVGID_29_" gradientUnits="userSpaceOnUse" x1="160" x2="410.057" xlink:href="#lg3" y1="147.817" y2="147.817"/><linearGradient id="SVGID_30_" gradientUnits="userSpaceOnUse" x1="90.003" x2="705.792" xlink:href="#lg2" y1="187.963" y2="187.963"/><linearGradient id="SVGID_31_" gradientUnits="userSpaceOnUse" x1="330.794" x2="525.453" xlink:href="#lg3" y1="187.963" y2="187.963"/><linearGradient id="SVGID_32_" gradientUnits="userSpaceOnUse" x1="25.049" x2="529.294" xlink:href="#lg3" y1="490.158" y2="490.158"/><linearGradient id="SVGID_33_" gradientUnits="userSpaceOnUse" x1="410.53" x2="601.168" xlink:href="#lg4" y1="490.158" y2="490.158"/><linearGradient id="SVGID_34_" gradientUnits="userSpaceOnUse" x1="188.897" x2="435.601" xlink:href="#lg2" y1="104.243" y2="104.243"/><linearGradient id="SVGID_35_" gradientUnits="userSpaceOnUse" x1="177.955" x2="372.614" xlink:href="#lg3" y1="104.243" y2="104.243"/><g><path d="m293.534 2.935c-3.903-3.903-10.232-3.91-14.142 0l-24.388 24.388-24.396-24.396c-3.903-3.903-10.239-3.903-14.142 0-3.91 3.91-3.903 10.239 0 14.142l38.537 38.537 38.53-38.53c3.911-3.91 3.904-10.238.001-14.141z" fill="url(#SVGID_1_)"/><path d="m245 108.243v-88.992c0-5.523 4.477-10 10-10s10 4.477 10 10v88.993c0 5.522-4.477 10-10 10s-10-4.478-10-10.001z" fill="url(#SVGID_2_)"/><g><path d="m271.372 56.911c-5.065-2.346-9.498-5.922-12.64-10.535-.182-.268-.357-.532-.525-.793-1.498-2.329-4.916-2.329-6.414 0-.02.031-.04.063-.061.094-3.192 4.929-7.797 8.771-13.125 11.243-13.348 6.193-22.607 19.712-22.607 35.396 0 21.539 78 21.539 78 0 0-15.692-9.268-29.217-22.628-35.405z" fill="url(#SVGID_3_)"/><path d="m271.433 56.94c-4.638-2.158-8.805-5.255-11.85-9.365-.505-.682-.961-1.346-1.372-1.984-1.505-2.337-4.912-2.344-6.418-.007l-.061.094c-1.634 2.524-3.64 4.763-5.923 6.678-1.516 1.272-1.283 3.702.511 4.537.013.006.027.012.04.019 13.36 6.188 22.628 19.713 22.628 35.405 0 8.43-11.95 13.561-26.495 15.391 22.617 2.847 51.507-2.283 51.507-15.392 0-15.668-9.24-29.175-22.567-35.376z" fill="url(#SVGID_4_)"/><g fill="url(#SVGID_3_)"><path d="m192.281 58.267c-1.874-1.548-2.959-3.852-2.959-6.282 0-4.5-3.648-8.147-8.147-8.147h-1.837c-8.299 0-15.027 6.728-15.027 15.027v16.195c0 4.362 2.404 8.369 6.253 10.422s6.253 6.06 6.253 10.422v12.566h25.011v-29.938c-.001-7.841-3.502-15.272-9.547-20.265z"/><path d="m330.663 43.837h-1.837c-4.5 0-8.147 3.648-8.147 8.147 0 2.431-1.085 4.734-2.959 6.282-6.046 4.993-9.546 12.424-9.546 20.265v29.938h25.011v-12.565c0-4.362 2.404-8.369 6.253-10.422s6.253-6.06 6.253-10.422v-16.196c-.002-8.299-6.729-15.027-15.028-15.027z"/></g></g><g><path d="m465.444 134.561h-411.801c-12.027 0-21.776 9.75-21.776 21.776v74.075h455.353v-74.075c0-12.026-9.749-21.776-21.776-21.776z" fill="url(#SVGID_7_)"/><path d="m138.179 134.561h37.852v95.852h-37.852z" fill="url(#SVGID_8_)"/><path d="m465.444 134.561h-40.02c12.027 0 21.776 9.75 21.776 21.776v74.075h40.02v-74.075c0-12.026-9.749-21.776-21.776-21.776z" fill="url(#SVGID_9_)"/><g><g><g><g><g><g><path d="m46.189 287.972h56.494v203.501h-56.494z" fill="url(#SVGID_10_)"/><path d="m102.683 287.972v203.505h-25.01v-122.661c0-17.386-14.094-31.48-31.48-31.48v-49.364z" fill="url(#SVGID_11_)"/></g><path d="m103.414 311.886h-57.956c-7.506 0-13.592-6.085-13.592-13.592v-51.46h85.139v51.46c.001 7.507-6.084 13.592-13.591 13.592z" fill="url(#SVGID_12_)"/></g><path d="m103.414 451.097h-57.956c-7.506 0-13.592 6.085-13.592 13.592v26.788h85.139v-26.788c.001-7.506-6.084-13.592-13.591-13.592z" fill="url(#SVGID_13_)"/></g></g></g></g><g><g><g><g><g><g><path d="m165.095 287.972h56.494v203.501h-56.494z" fill="url(#SVGID_14_)"/><path d="m221.589 287.972v203.505h-25.01v-122.661c0-17.386-14.094-31.48-31.48-31.48v-49.364z" fill="url(#SVGID_15_)"/></g><path d="m222.32 311.886h-57.956c-7.506 0-13.592-6.085-13.592-13.592v-51.46h85.139v51.46c.001 7.507-6.084 13.592-13.591 13.592z" fill="url(#SVGID_16_)"/></g><path d="m222.32 451.097h-57.956c-7.506 0-13.592 6.085-13.592 13.592v26.788h85.139v-26.788c.001-7.506-6.084-13.592-13.591-13.592z" fill="url(#SVGID_17_)"/></g></g></g></g><g><g><g><g><g><g><path d="m288.411 287.972h56.494v203.501h-56.494z" fill="url(#SVGID_18_)"/><path d="m344.905 287.972v203.505h-25.01v-122.661c0-17.386-14.094-31.48-31.48-31.48v-49.364z" fill="url(#SVGID_19_)"/></g><path d="m345.636 311.886h-57.956c-7.506 0-13.592-6.085-13.592-13.592v-51.46h85.139v51.46c.001 7.507-6.085 13.592-13.591 13.592z" fill="url(#SVGID_20_)"/></g><path d="m345.636 451.097h-57.956c-7.506 0-13.592 6.085-13.592 13.592v26.788h85.139v-26.788c.001-7.506-6.085-13.592-13.591-13.592z" fill="url(#SVGID_21_)"/></g></g></g></g><g><g><g><g><g><g><path d="m416.404 287.972h56.494v203.501h-56.494z" fill="url(#SVGID_22_)"/><path d="m472.898 287.972v203.505h-25.01v-122.661c0-17.386-14.094-31.48-31.48-31.48v-49.364z" fill="url(#SVGID_23_)"/></g><path d="m473.629 311.886h-57.956c-7.506 0-13.592-6.085-13.592-13.592v-51.46h85.139v51.46c0 7.507-6.085 13.592-13.591 13.592z" fill="url(#SVGID_24_)"/></g><path d="m473.629 451.097h-57.956c-7.506 0-13.592 6.085-13.592 13.592v26.788h85.139v-26.788c0-7.506-6.085-13.592-13.591-13.592z" fill="url(#SVGID_25_)"/></g></g></g></g><path d="m465.444 283.815h-411.801c-12.027 0-21.776-9.75-21.776-21.776v-74.075h455.353v74.075c0 12.026-9.749 21.776-21.776 21.776z" fill="url(#SVGID_26_)"/><path d="m487.22 187.965v74.074c0 12.027-9.75 21.776-21.776 21.776h-18.244v-17.078c0-20.601-16.701-37.302-37.302-37.302h-378.028v-41.47z" fill="url(#SVGID_27_)"/><path d="m163.19 108.47h183.62v78.693h-183.62z" fill="url(#SVGID_28_)"/><path d="m346.81 108.467v78.7h-25.01v-18.57c0-14.056-11.394-25.45-25.45-25.45h-133.16v-34.68z" fill="url(#SVGID_29_)"/><g><path d="m510 187.963c0-7.675-6.222-13.897-13.897-13.897h-482.206c-7.675 0-13.897 6.222-13.897 13.897 0 7.675 6.222 13.897 13.897 13.897h482.206c7.675 0 13.897-6.222 13.897-13.897z" fill="url(#SVGID_30_)"/><path d="m496.103 174.066h-27.794c7.675 0 13.897 6.222 13.897 13.897s-6.222 13.897-13.897 13.897h27.794c7.675 0 13.897-6.222 13.897-13.897s-6.222-13.897-13.897-13.897z" fill="url(#SVGID_31_)"/></g><g><path d="m490.158 510h-470.316c-10.958 0-19.842-8.884-19.842-19.842 0-10.959 8.884-19.842 19.842-19.842h470.315c10.959 0 19.842 8.884 19.842 19.842.001 10.958-8.883 19.842-19.841 19.842z" fill="url(#SVGID_32_)"/><path d="m490.158 470.315h-40.02c10.958 0 19.842 8.884 19.842 19.842 0 10.958-8.884 19.842-19.842 19.842h40.02c10.958 0 19.842-8.884 19.842-19.842 0-10.958-8.884-19.842-19.842-19.842z" fill="url(#SVGID_33_)"/></g><g><path d="m357.161 104.242c0-7.675-6.222-13.897-13.897-13.897h-176.528c-7.675 0-13.897 6.222-13.897 13.897 0 7.675 6.222 13.897 13.897 13.897h176.528c7.675 0 13.897-6.221 13.897-13.897z" fill="url(#SVGID_34_)"/><path d="m343.264 90.346h-27.794c7.675 0 13.897 6.222 13.897 13.897s-6.222 13.897-13.897 13.897h27.794c7.675 0 13.897-6.222 13.897-13.897s-6.222-13.897-13.897-13.897z" fill="url(#SVGID_35_)"/></g></g></g></svg>