<svg id="Capa_1" enable-background="new 0 0 510 510" height="512" viewBox="0 0 510 510" width="512" xmlns="http://www.w3.org/2000/svg" xmlns:xlink="http://www.w3.org/1999/xlink"><linearGradient id="lg1"><stop offset="0" stop-color="#bbec6c"/><stop offset=".5857" stop-color="#78a91f"/><stop offset="1" stop-color="#02905d"/></linearGradient><linearGradient id="SVGID_1_" gradientUnits="userSpaceOnUse" x1="182" x2="292.727" xlink:href="#lg1" y1="44.658" y2="44.658"/><linearGradient id="SVGID_3_" gradientTransform="matrix(1 0 0 -1 0 168.537)" gradientUnits="userSpaceOnUse" x1="231.333" x2="283.896" xlink:href="#lg1" y1="87.194" y2="87.194"/><linearGradient id="lg2"><stop offset="0" stop-color="#cdbfba"/><stop offset="1" stop-color="#766e6e"/></linearGradient><linearGradient id="SVGID_4_" gradientUnits="userSpaceOnUse" x1="221.054" x2="291.083" xlink:href="#lg2" y1="252.072" y2="252.072"/><linearGradient id="lg3"><stop offset="0" stop-color="#9e9797"/><stop offset="1" stop-color="#5b5555"/></linearGradient><linearGradient id="SVGID_5_" gradientUnits="userSpaceOnUse" x1="226.5" x2="316.403" xlink:href="#lg3" y1="317.195" y2="317.195"/><linearGradient id="SVGID_6_" gradientUnits="userSpaceOnUse" x1="226.5" x2="316.403" xlink:href="#lg3" y1="223.533" y2="223.533"/><linearGradient id="SVGID_7_" gradientUnits="userSpaceOnUse" x1="226.5" x2="316.403" xlink:href="#lg3" y1="252.074" y2="252.074"/><linearGradient id="lg4"><stop offset="0" stop-color="#f3eae6"/><stop offset="1" stop-color="#cdbfba"/></linearGradient><linearGradient id="SVGID_8_" gradientTransform="matrix(1 0 0 -1 0 -5984.877)" gradientUnits="userSpaceOnUse" x1="196.544" x2="277.643" xlink:href="#lg4" y1="-6344.669" y2="-6344.669"/><linearGradient id="SVGID_9_" gradientUnits="userSpaceOnUse" x1="196.544" x2="277.643" xlink:href="#lg4" y1="417.274" y2="417.274"/><linearGradient id="SVGID_10_" gradientUnits="userSpaceOnUse" x1="225.481" x2="316.454" y1="377.408" y2="377.408"><stop offset="0" stop-color="#faf7f7"/><stop offset=".4551" stop-color="#f3eae6"/><stop offset="1" stop-color="#efe2dd"/></linearGradient><linearGradient id="SVGID_11_" gradientUnits="userSpaceOnUse" x1="183.5" x2="221.141" xlink:href="#lg1" y1="143.784" y2="143.784"/><linearGradient id="SVGID_12_" gradientUnits="userSpaceOnUse" x1="259.25" x2="302.355" xlink:href="#lg1" y1="143.784" y2="143.784"/><linearGradient id="SVGID_13_" gradientUnits="userSpaceOnUse" x1="162" x2="340.387" xlink:href="#lg1" y1="129.445" y2="129.445"/><linearGradient id="SVGID_14_" gradientUnits="userSpaceOnUse" x1="112.346" x2="205.994" xlink:href="#lg1" y1="390.048" y2="390.048"/><linearGradient id="SVGID_15_" gradientUnits="userSpaceOnUse" x1="68" x2="204.298" xlink:href="#lg1" y1="390.048" y2="390.048"/><linearGradient id="SVGID_16_" gradientUnits="userSpaceOnUse" x1="303.346" x2="407.288" xlink:href="#lg1" y1="390.048" y2="390.048"/><linearGradient id="SVGID_17_" gradientUnits="userSpaceOnUse" x1="264" x2="405.217" xlink:href="#lg1" y1="390.048" y2="390.048"/><linearGradient id="SVGID_18_" gradientUnits="userSpaceOnUse" x1="198.192" x2="324.359" xlink:href="#lg1" y1="379.791" y2="379.791"/><linearGradient id="SVGID_19_" gradientUnits="userSpaceOnUse" x1="183" x2="302.708" xlink:href="#lg1" y1="380.06" y2="380.06"/><linearGradient id="SVGID_20_" gradientUnits="userSpaceOnUse" x1="107.822" x2="430.559" xlink:href="#lg2" y1="477.473" y2="477.473"/><linearGradient id="SVGID_21_" gradientUnits="userSpaceOnUse" x1="178.761" x2="369.399" xlink:href="#lg2" y1="477.474" y2="477.474"/><linearGradient id="SVGID_22_" gradientUnits="userSpaceOnUse" x1="128.938" x2="599.417" xlink:href="#lg2" y1="489.99" y2="489.99"/><linearGradient id="SVGID_23_" gradientUnits="userSpaceOnUse" x1="191.791" x2="472.078" xlink:href="#lg2" y1="489.99" y2="489.99"/><linearGradient id="SVGID_24_" gradientUnits="userSpaceOnUse" x1="111" x2="345.129" xlink:href="#lg1" y1="129.445" y2="129.445"/><linearGradient id="SVGID_25_" gradientUnits="userSpaceOnUse" x1="231.333" x2="283.896" xlink:href="#lg1" y1="133.773" y2="133.773"/><g><g fill="url(#SVGID_1_)"><path d="m229.208 30.557c0-7.625-3.029-14.938-8.421-20.329l-9.193-9.193c-2.211-2.211-5.993-.645-5.993 2.482v32.572c0 14.226 6.601 27.647 17.868 36.331l21.921 16.895v-30.666l-7.763-7.762c-5.39-5.392-8.419-12.705-8.419-20.33z"/><path d="m298.406 1.035-9.193 9.193c-5.392 5.392-8.421 12.704-8.421 20.329s-3.029 14.937-8.42 20.329l-7.763 7.762v30.667l21.921-16.895c11.268-8.684 17.868-22.105 17.868-36.331v-32.572c0-3.127-3.781-4.693-5.992-2.482z"/></g><path d="m266.635 73.538c.704-12.621-1.414-25.231-5.933-35.318-2.868-6.403-8.536-6.403-11.404 0-4.519 10.087-6.637 22.696-5.933 35.318l1.825 32.718.48 8.583c1.07 19.239 17.59 19.239 18.66 0l.48-8.583z" fill="url(#SVGID_3_)"/><g><g><path d="m226.753 129.445h56.494v245.255h-56.494z" fill="url(#SVGID_4_)"/><g><path d="m247 259.689c-5.523 0-10 4.477-10 10v105.011h20v-105.011c0-5.523-4.477-10-10-10z" fill="url(#SVGID_5_)"/><path d="m246.335 202.206c-5.316.344-9.335 4.994-9.335 10.32v22.355c0 5.523 4.477 10 10 10 5.523 0 10-4.477 10-10v-22.697c0-5.743-4.841-10.355-10.665-9.978z" fill="url(#SVGID_6_)"/><path d="m226.757 129.445v49.364h12.218c15.202 0 27.525 12.323 27.525 27.525v168.369h16.747v-245.258z" fill="url(#SVGID_7_)"/></g></g><path d="m283.978 342.178h-57.956c-7.506 0-13.592 6.085-13.592 13.592v21.638h85.139v-21.638c.001-7.507-6.085-13.592-13.591-13.592z" fill="url(#SVGID_8_)"/></g><path d="m212.43 374.704h85.139v85.139h-85.139z" fill="url(#SVGID_9_)"/><path d="m299.496 387.408h-88.993c-5.523 0-10-4.477-10-10s4.477-10 10-10h88.993c5.522 0 10 4.477 10 10s-4.477 10-10 10z" fill="url(#SVGID_10_)"/><path d="m198.607 134.107c3.69 3.69 6.532 8.071 8.398 12.839 3.219 8.225 11.121 13.657 19.954 13.657h.697c0-.081-.006-7.558-.006-7.558 0-14.402-11.675-26.078-26.078-26.078h-.007c-3.727-.001-5.593 4.505-2.958 7.14z" fill="url(#SVGID_11_)"/><path d="m311.393 134.107c-3.69 3.69-6.532 8.071-8.398 12.839-3.219 8.225-11.121 13.657-19.954 13.657h-.697c0-.081.006-7.558.006-7.558 0-14.402 11.675-26.078 26.078-26.078h.007c3.727-.001 5.593 4.505 2.958 7.14z" fill="url(#SVGID_12_)"/><path d="m305.191 96.919h-100.382c-6.611 0-9.921 7.993-5.247 12.667 8.24 8.24 12.869 19.415 12.869 31.068 0 11.773 9.544 21.317 21.317 21.317h42.505c11.773 0 21.317-9.544 21.317-21.317 0-11.653 4.629-22.828 12.869-31.068 4.674-4.674 1.363-12.667-5.248-12.667z" fill="url(#SVGID_13_)"/><g><path d="m189.679 447.714v-29.979c0-7.697-3.058-15.078-8.5-20.521-5.442-5.442-8.5-12.824-8.5-20.521v-13.686c0-5.247-4.253-9.5-9.5-9.5-5.247 0-9.5-4.253-9.5-9.5v-.293c0-6.259-5.074-11.333-11.333-11.333-6.259 0-11.333 5.074-11.333 11.333v28.386c0 2.741 1.089 5.369 3.027 7.307 4.035 4.035 4.035 10.578 0 14.614-8.108 8.108-12.663 19.105-12.663 30.572v23.121h26.303l6.594-6.594c4.209-4.209 11.406-1.228 11.406 4.725v1.869z" fill="url(#SVGID_14_)"/><g><path d="m181.021 397.057c-5.429-5.347-8.342-12.744-8.342-20.364v-13.688c0-5.323-4.372-9.394-9.694-9.5-5.157-.103-9.306-4.316-9.306-9.498v-.064c0-5.555-3.907-10.488-9.386-11.4-7.119-1.185-13.281 4.273-13.281 11.171v2.489c0 3.796 2.892 7.106 6.684 7.292.188.009.378.013.569.011 5.209-.052 9.403 4.291 9.403 9.5v13.686c0 7.62 2.913 15.017 8.342 20.364 5.541 5.457 8.658 12.907 8.658 20.678v24.569c.625.997 1.011 2.187 1.011 3.542v1.869h24v-29.979c0-7.771-3.117-15.22-8.658-20.678z" fill="url(#SVGID_15_)"/></g></g><g><path d="m320.321 447.714v-29.979c0-7.697 3.058-15.078 8.5-20.521 5.442-5.442 8.5-12.824 8.5-20.521v-13.686c0-5.247 4.253-9.5 9.5-9.5 5.247 0 9.5-4.253 9.5-9.5v-.293c0-6.259 5.074-11.333 11.333-11.333 6.259 0 11.333 5.074 11.333 11.333v28.386c0 2.741-1.089 5.369-3.027 7.307-4.035 4.035-4.035 10.578 0 14.614 8.108 8.108 12.663 19.105 12.663 30.572v23.121h-26.303l-6.594-6.594c-4.209-4.209-11.406-1.228-11.406 4.725v1.869z" fill="url(#SVGID_16_)"/><g><path d="m375.961 394.021c-4.001-4.001-4.035-10.468-.101-14.511 1.93-1.983 3.128-4.562 3.128-7.329v-28.091c0-6.24-4.882-11.593-11.121-11.707-6.356-.116-11.545 5.001-11.545 11.331v.293c0 .869-.117 1.709-.337 2.508-1.245 4.529-2.008 9.176-2.008 13.873v15.993c0 1.672-1.355 3.027-3.027 3.027-4.035 4.035-4.035 10.578 0 14.614 8.108 8.108 12.663 19.105 12.663 30.572v23.121h25.011v-23.121c.001-11.468-4.555-22.465-12.663-30.573z" fill="url(#SVGID_17_)"/></g></g><g><path d="m273.459 364.85c-2.408-3.828-3.465-8.352-3.134-12.862.927-12.622-1.863-25.231-7.815-35.318-3.778-6.403-11.244-6.403-15.021 0-5.952 10.087-8.742 22.696-7.815 35.318.331 4.51-.725 9.034-3.134 12.862-7.524 11.96-10.888 25.876-9.47 39.81l4.381 43.054h47.096l4.381-43.054c1.419-13.934-1.945-27.851-9.469-39.81z" fill="url(#SVGID_18_)"/><path d="m273.459 364.851c-2.375-3.774-3.49-8.214-3.149-12.66.971-12.67-1.807-25.342-7.773-35.475-3.406-5.786-11.716-5.725-15.113.066-.041.071-.083.141-.124.212-3.202 5.521-4.116 12.032-2.929 18.302 1.025 5.412 1.358 11.049.943 16.692-.334 4.549.767 9.087 3.189 12.951 7.485 11.94 10.828 25.821 9.414 39.721l-4.381 43.054h25.011l4.381-43.054c1.419-13.934-1.944-27.85-9.469-39.809z" fill="url(#SVGID_19_)"/></g><g><g><path d="m398.368 509.999h-286.736c-10.959 0-19.842-8.884-19.842-19.842v-25.367c0-10.959 8.884-19.842 19.842-19.842h286.736c10.959 0 19.842 8.884 19.842 19.842v25.367c0 10.959-8.883 19.842-19.842 19.842z" fill="url(#SVGID_20_)"/><path d="m398.368 444.948h-40.02c10.958 0 19.842 8.884 19.842 19.842v25.367c0 10.958-8.884 19.842-19.842 19.842h40.02c10.958 0 19.842-8.884 19.842-19.842v-25.367c0-10.959-8.883-19.842-19.842-19.842z" fill="url(#SVGID_21_)"/></g><g><path d="m449.827 489.99c0-11.051-8.959-20.01-20.01-20.01h-349.634c-11.051 0-20.01 8.959-20.01 20.01 0 11.051 8.959 20.01 20.01 20.01h349.634c11.051 0 20.01-8.959 20.01-20.01z" fill="url(#SVGID_22_)"/><path d="m429.817 469.98h-40.02c11.051 0 20.01 8.959 20.01 20.01s-8.959 20.01-20.01 20.01h40.02c11.051 0 20.01-8.959 20.01-20.01s-8.959-20.01-20.01-20.01z" fill="url(#SVGID_23_)"/></g></g><path d="m305.191 96.919h-25.011c.233 0 .461.01.685.029 7.352.632 7.74 11.422.512 12.91-14.943 3.077-26.37 19.937-26.37 40.287h-.015c0-22.534-14.009-40.802-31.29-40.802h-.008c-4.471 0-6.71 7.049-3.549 11.171 4.428 5.774 7.837 12.629 10.076 20.088 3.683 12.27 12.477 20.548 22.473 21.294-.482.032-.963.073-1.453.073h2.922 1.672 20.417c11.721 0 21.353-9.46 21.317-21.18-.036-11.702 4.597-22.933 12.869-31.205 4.677-4.674 1.366-12.665-5.247-12.665z" fill="url(#SVGID_24_)"/><path d="m264.81 119.115-.48-5.05c-1.07-11.32-17.59-11.32-18.66 0l-.48 5.05-1.825 19.25c-.704 7.426 1.414 14.845 5.933 20.78 2.868 3.767 8.536 3.767 11.404 0 4.519-5.935 6.637-13.354 5.933-20.78z" fill="url(#SVGID_25_)"/></g></svg>