<svg id="Capa_1" enable-background="new 0 0 510 510" height="512" viewBox="0 0 510 510" width="512" xmlns="http://www.w3.org/2000/svg" xmlns:xlink="http://www.w3.org/1999/xlink"><linearGradient id="lg1"><stop offset="0" stop-color="#fe646f"/><stop offset=".593" stop-color="#fb2b3a"/><stop offset="1" stop-color="#c41926"/></linearGradient><linearGradient id="SVGID_1_" gradientUnits="userSpaceOnUse" x1="278.802" x2="499.456" xlink:href="#lg1" y1="463.312" y2="463.312"/><linearGradient id="SVGID_2_" gradientUnits="userSpaceOnUse" x1="196.056" x2="477.312" xlink:href="#lg1" y1="463.31" y2="463.31"/><linearGradient id="lg2"><stop offset="0" stop-color="#fef056"/><stop offset=".5213" stop-color="#fbc56d"/><stop offset="1" stop-color="#c86d36"/></linearGradient><linearGradient id="SVGID_3_" gradientUnits="userSpaceOnUse" x1="370.823" x2="408.941" xlink:href="#lg2" y1="104.85" y2="104.85"/><linearGradient id="lg3"><stop offset="0" stop-color="#bbec6c"/><stop offset=".5857" stop-color="#78a91f"/><stop offset="1" stop-color="#02905d"/></linearGradient><linearGradient id="SVGID_4_" gradientUnits="userSpaceOnUse" x1="259.563" x2="509.955" xlink:href="#lg3" y1="295.093" y2="295.093"/><linearGradient id="SVGID_5_" gradientUnits="userSpaceOnUse" x1="255.563" x2="490.109" xlink:href="#lg3" y1="295.093" y2="295.093"/><linearGradient id="lg4"><stop offset="0" stop-color="#faf7f7"/><stop offset=".4551" stop-color="#f3eae6"/><stop offset="1" stop-color="#efe2dd"/></linearGradient><linearGradient id="SVGID_6_" gradientUnits="userSpaceOnUse" x1="301.116" x2="552.736" xlink:href="#lg4" y1="295.093" y2="295.093"/><linearGradient id="SVGID_7_" gradientUnits="userSpaceOnUse" x1="347.219" x2="459.823" xlink:href="#lg3" y1="295.093" y2="295.093"/><linearGradient id="SVGID_8_" gradientUnits="userSpaceOnUse" x1="308.23" x2="462.862" xlink:href="#lg3" y1="295.093" y2="295.093"/><linearGradient id="lg5"><stop offset="0" stop-color="#f3eae6"/><stop offset="1" stop-color="#cdbfba"/></linearGradient><linearGradient id="SVGID_9_" gradientUnits="userSpaceOnUse" x1="305.563" x2="481.486" xlink:href="#lg5" y1="430.586" y2="430.586"/><linearGradient id="SVGID_10_" gradientUnits="userSpaceOnUse" x1="305.563" x2="481.486" xlink:href="#lg5" y1="295.089" y2="295.089"/><linearGradient id="SVGID_11_" gradientUnits="userSpaceOnUse" x1="305.563" x2="481.486" xlink:href="#lg5" y1="179.854" y2="179.854"/><linearGradient id="SVGID_12_" gradientUnits="userSpaceOnUse" x1="355.994" x2="437.608" xlink:href="#lg2" y1="124.504" y2="124.504"/><linearGradient id="SVGID_13_" gradientUnits="userSpaceOnUse" x1="363.207" x2="405.983" xlink:href="#lg3" y1="173.017" y2="173.017"/><linearGradient id="SVGID_14_" gradientUnits="userSpaceOnUse" x1="304.38" x2="603.634" xlink:href="#lg2" y1="423.03" y2="423.03"/><linearGradient id="SVGID_15_" gradientUnits="userSpaceOnUse" x1="250.449" x2="530.735" xlink:href="#lg2" y1="423.03" y2="423.03"/><linearGradient id="SVGID_16_" gradientTransform="matrix(1 0 0 .386 0 -1261.343)" gradientUnits="userSpaceOnUse" x1="271.214" x2="358.299" xlink:href="#lg1" y1="3578.09" y2="3578.09"/><linearGradient id="SVGID_17_" gradientUnits="userSpaceOnUse" x1="262.843" x2="305.658" xlink:href="#lg1" y1="119.333" y2="119.333"/><linearGradient id="SVGID_18_" gradientUnits="userSpaceOnUse" x1="252.56" x2="389.576" xlink:href="#lg2" y1="56.965" y2="56.965"/><linearGradient id="SVGID_19_" gradientUnits="userSpaceOnUse" x1="190" x2="380.043" xlink:href="#lg2" y1="56.965" y2="56.965"/><linearGradient id="SVGID_20_" gradientUnits="userSpaceOnUse" x1="181.56" x2="414.44" xlink:href="#lg1" y1="243.817" y2="243.817"/><linearGradient id="SVGID_21_" gradientUnits="userSpaceOnUse" x1="130.666" x2="311.081" xlink:href="#lg1" y1="284.835" y2="284.835"/><linearGradient id="SVGID_22_" gradientUnits="userSpaceOnUse" x1="119.667" x2="363.402" xlink:href="#lg1" y1="243.82" y2="243.82"/><linearGradient id="SVGID_23_" gradientUnits="userSpaceOnUse" x1="234.666" x2="361.334" xlink:href="#lg3" y1="309.051" y2="309.051"/><linearGradient id="SVGID_24_" gradientUnits="userSpaceOnUse" x1="191.5" x2="336.621" xlink:href="#lg3" y1="309.052" y2="309.052"/><linearGradient id="SVGID_25_" gradientUnits="userSpaceOnUse" x1="136" x2="465.109" xlink:href="#lg1" y1="430.8" y2="430.8"/><linearGradient id="SVGID_26_" gradientUnits="userSpaceOnUse" x1="33" x2="412.223" xlink:href="#lg1" y1="430.8" y2="430.8"/><linearGradient id="SVGID_27_" gradientUnits="userSpaceOnUse" x1="136" x2="465.109" xlink:href="#lg3" y1="476" y2="476"/><linearGradient id="SVGID_28_" gradientUnits="userSpaceOnUse" x1="171" x2="279.462" xlink:href="#lg3" y1="479.232" y2="479.232"/><linearGradient id="SVGID_29_" gradientUnits="userSpaceOnUse" x1="219" x2="379.013" xlink:href="#lg3" y1="484.142" y2="484.142"/><linearGradient id="SVGID_30_" gradientUnits="userSpaceOnUse" x1="165.068" x2="434.255" xlink:href="#lg4" y1="487.173" y2="487.173"/><linearGradient id="SVGID_31_" gradientUnits="userSpaceOnUse" x1="193.402" x2="257.911" xlink:href="#lg5" y1="491.567" y2="491.567"/><linearGradient id="SVGID_32_" gradientUnits="userSpaceOnUse" x1="206.279" x2="548.593" xlink:href="#lg4" y1="351.599" y2="351.599"/><linearGradient id="SVGID_33_" gradientUnits="userSpaceOnUse" x1="176.543" x2="315.409" xlink:href="#lg5" y1="351.599" y2="351.599"/><linearGradient id="SVGID_34_" gradientUnits="userSpaceOnUse" x1="181.718" x2="462.004" xlink:href="#lg5" y1="351.599" y2="351.599"/><linearGradient id="SVGID_35_" gradientUnits="userSpaceOnUse" x1="278.5" x2="338.597" xlink:href="#lg4" y1="138.931" y2="138.931"/><linearGradient id="SVGID_36_" gradientUnits="userSpaceOnUse" x1="195" x2="373.07" xlink:href="#lg5" y1="498.684" y2="498.684"/><linearGradient id="SVGID_37_" gradientUnits="userSpaceOnUse" x1="19.676" x2="240.33" xlink:href="#lg1" y1="447.607" y2="447.607"/><linearGradient id="SVGID_38_" gradientUnits="userSpaceOnUse" x1="-63.07" x2="218.187" xlink:href="#lg1" y1="447.605" y2="447.605"/><linearGradient id="SVGID_39_" gradientUnits="userSpaceOnUse" x1="111.697" x2="149.815" xlink:href="#lg2" y1="84.144" y2="84.144"/><linearGradient id="lg6"><stop offset="0" stop-color="#01d0fb"/><stop offset=".6075" stop-color="#26a6fe"/><stop offset="1" stop-color="#0182fc"/></linearGradient><linearGradient id="SVGID_40_" gradientUnits="userSpaceOnUse" x1=".437" x2="250.829" xlink:href="#lg6" y1="263.682" y2="263.682"/><linearGradient id="lg7"><stop offset="0" stop-color="#01bffa"/><stop offset="1" stop-color="#5b5cff"/></linearGradient><linearGradient id="SVGID_41_" gradientUnits="userSpaceOnUse" x1="-3.563" x2="230.984" xlink:href="#lg7" y1="263.682" y2="263.682"/><linearGradient id="SVGID_42_" gradientUnits="userSpaceOnUse" x1="41.99" x2="293.61" xlink:href="#lg4" y1="263.682" y2="263.682"/><linearGradient id="SVGID_43_" gradientUnits="userSpaceOnUse" x1="88.093" x2="200.697" xlink:href="#lg6" y1="263.682" y2="263.682"/><linearGradient id="SVGID_44_" gradientUnits="userSpaceOnUse" x1="49.104" x2="203.736" xlink:href="#lg7" y1="263.682" y2="263.682"/><linearGradient id="SVGID_45_" gradientUnits="userSpaceOnUse" x1="46.437" x2="222.36" xlink:href="#lg5" y1="399.175" y2="399.175"/><linearGradient id="SVGID_46_" gradientUnits="userSpaceOnUse" x1="46.437" x2="222.36" xlink:href="#lg5" y1="263.678" y2="263.678"/><linearGradient id="SVGID_47_" gradientUnits="userSpaceOnUse" x1="46.437" x2="222.36" xlink:href="#lg5" y1="148.443" y2="148.443"/><linearGradient id="SVGID_48_" gradientUnits="userSpaceOnUse" x1="96.869" x2="178.482" xlink:href="#lg2" y1="93.093" y2="93.093"/><linearGradient id="SVGID_49_" gradientUnits="userSpaceOnUse" x1="104.081" x2="146.857" xlink:href="#lg6" y1="141.606" y2="141.606"/><linearGradient id="SVGID_50_" gradientUnits="userSpaceOnUse" x1="45.254" x2="344.508" xlink:href="#lg3" y1="391.619" y2="391.619"/><linearGradient id="SVGID_51_" gradientUnits="userSpaceOnUse" x1="-8.677" x2="271.61" xlink:href="#lg3" y1="391.619" y2="391.619"/><g><g><path d="m468.267 510h-167.408c-7.128 0-12.906-5.778-12.906-12.906v-80.47h193.219v80.47c.001 7.128-5.778 12.906-12.905 12.906z" fill="url(#SVGID_1_)"/><path d="m481.176 416.621v80.474c0 7.128-5.778 12.906-12.906 12.906h-27.114v-.221c0-23.046-18.682-41.728-41.728-41.728h-111.472v-51.43h193.22z" fill="url(#SVGID_2_)"/><g><path d="m394.563 46.682v126.334h-20v-126.334c0-5.52 4.48-10 10-10s10 4.48 10 10z" fill="url(#SVGID_3_)"/><g><path d="m450.284 233.795c-21.944-13.524-39.497-33.224-50.546-56.513-1.55-3.267-2.963-6.466-4.247-9.554-5.104-12.272-16.752-12.272-21.857 0-1.284 3.086-2.696 6.284-4.245 9.549-11.236 23.684-29.46 43.214-51.634 57.194-35.226 22.209-58.63 51.871-58.63 96.591 0 69.391 57.103 101.163 126.491 100.592 68.793-.566 124.384-31.666 124.384-100.591 0-45.178-23.885-75.186-59.716-97.268z" fill="url(#SVGID_4_)"/><path d="m450.284 233.794c-21.944-13.524-39.497-33.224-50.546-56.513-1.55-3.267-2.963-6.466-4.247-9.554-5.104-12.272-16.752-12.272-21.857 0-1.284 3.086-2.696 6.284-4.245 9.549-1.492 3.146-3.116 6.212-4.848 9.208 11.044 19.274 26.734 35.607 45.722 47.309 35.831 22.083 59.716 52.09 59.716 97.269 0 62.658-45.943 94.053-105.978 99.67 7.032.674 14.253.981 21.615.921 68.793-.565 124.384-31.665 124.384-100.59 0-45.178-23.885-75.186-59.716-97.269z" fill="url(#SVGID_5_)"/><path d="m434.906 233.794c-16.809-13.524-30.255-33.224-38.718-56.513-1.187-3.267-2.27-6.466-3.253-9.554-1.955-6.136-5.163-9.204-8.371-9.204 1.436 0 2.871 3.068 3.746 9.204.44 3.088.925 6.287 1.456 9.554 3.788 23.289 9.805 42.988 17.327 56.513 12.283 22.083 20.471 52.09 20.471 97.269 0 68.925-19.057 100.025-42.639 100.591-23.786.571-43.362-31.201-43.361-100.592 0-44.72 8.023-74.382 20.098-96.591 7.602-13.981 13.849-33.511 17.7-57.195.531-3.265 1.015-6.463 1.455-9.549.875-6.136 2.31-9.204 3.746-9.204-3.208 0-6.416 3.068-8.371 9.204-.983 3.086-2.065 6.284-3.252 9.549-8.607 23.684-22.566 43.214-39.552 57.195-26.983 22.209-44.911 51.871-44.911 96.591 0 69.391 43.741 101.163 96.893 100.592 52.695-.566 95.278-31.666 95.278-100.591.001-45.178-18.296-75.186-45.742-97.269z" fill="url(#SVGID_6_)"/><path d="m407.092 233.795c-7.522-13.524-13.539-33.224-17.327-56.513-.531-3.267-1.016-6.466-1.456-9.554-1.75-12.272-5.743-12.272-7.492 0-.44 3.086-.924 6.284-1.455 9.549-3.852 23.684-10.099 43.214-17.7 57.194-12.076 22.209-20.098 51.871-20.098 96.591 0 69.391 19.575 101.163 43.361 100.592 23.582-.566 42.639-31.666 42.639-100.591-.001-45.178-8.189-75.186-20.472-97.268z" fill="url(#SVGID_7_)"/><path d="m407.092 233.794c-7.522-13.524-13.539-33.224-17.327-56.513-.531-3.267-1.016-6.466-1.456-9.554-1.75-12.272-5.743-12.272-7.492 0-.44 3.086-.924 6.284-1.455 9.549-1.237 7.605-2.721 14.779-4.418 21.48-1.942 7.668-1.437 15.76 1.515 23.099 1.761 4.377 3.639 8.372 5.623 11.938 12.283 22.083 20.471 52.09 20.471 97.269 0 56.734-12.916 87.819-30.635 97.363 4.113 2.267 8.483 3.336 13.007 3.228 23.582-.566 42.639-31.666 42.639-100.591-.001-45.177-8.189-75.185-20.472-97.268z" fill="url(#SVGID_8_)"/><g><path d="m366.759 430.456c4.9.704 9.926 1.096 15.05 1.182.968.009 1.936.017 2.909.013-3.655.059-7.209-.641-10.607-2.132-2.425.355-4.875.67-7.352.937z" fill="url(#SVGID_9_)"/><path d="m434.906 233.794c-16.809-13.524-30.255-33.224-38.718-56.513-1.187-3.267-2.27-6.466-3.253-9.554-1.955-6.136-5.163-9.204-8.371-9.204 1.436 0 2.871 3.068 3.746 9.204.44 3.088.925 6.287 1.456 9.554 3.505 21.55 8.922 40.016 15.671 53.371 1.587 1.077 3.191 2.133 4.828 3.142 35.831 22.083 59.716 52.09 59.716 97.269 0 47.179-26.049 76.63-64.547 90.702-6.071 6.473-13.042 9.697-20.466 9.887.15-.001.297.003.447.002 52.675-.583 95.234-31.684 95.234-100.59 0-45.179-18.297-75.187-45.743-97.27z" fill="url(#SVGID_10_)"/><path d="m379.362 177.277c.531-3.265 1.015-6.463 1.455-9.549.875-6.136 2.31-9.204 3.746-9.204-3.208 0-6.416 3.068-8.371 9.204-.983 3.086-2.065 6.284-3.252 9.549-1.71 4.705-3.639 9.239-5.753 13.605 2.216 3.547 4.593 6.984 7.123 10.301 1.961-7.389 3.664-15.373 5.052-23.906z" fill="url(#SVGID_11_)"/></g></g><circle cx="385.412" cy="124.504" fill="url(#SVGID_12_)" r="21.411"/><path d="m384.564 189.62c6.118 0 11.975-.615 17.386-1.736 3.396-.704 5.085-4.541 3.352-7.544-.669-1.159-1.321-2.327-1.955-3.503-1.918-3.557-3.667-7.04-5.257-10.402-6.317-13.361-20.734-13.361-27.052 0-1.589 3.36-3.337 6.842-5.254 10.397-.634 1.176-1.287 2.342-1.957 3.499-1.741 3.004-.054 6.848 3.346 7.552 5.412 1.122 11.271 1.737 17.391 1.737z" fill="url(#SVGID_13_)"/></g><g><path d="m508.485 423.03c0-11.051-8.959-20.01-20.01-20.01h-207.824c-11.051 0-20.01 8.959-20.01 20.01 0 11.051 8.959 20.01 20.01 20.01h207.824c11.051 0 20.01-8.959 20.01-20.01z" fill="url(#SVGID_14_)"/><path d="m488.475 403.02h-40.02c11.051 0 20.01 8.959 20.01 20.01s-8.959 20.01-20.01 20.01h40.02c11.051 0 20.01-8.959 20.01-20.01s-8.959-20.01-20.01-20.01z" fill="url(#SVGID_15_)"/></g></g><g><g><path d="m318.616 141.989h-41.232l-22.384-45.312h86z" fill="url(#SVGID_16_)"/><path d="m320.708 96.677-22.384 45.312h20.292l22.384-45.312z" fill="url(#SVGID_17_)"/></g><path d="m325.413 31.396c-9.153-5.641-16.475-13.858-21.083-23.572-.646-1.363-1.236-2.697-1.772-3.985-2.129-5.119-6.988-5.119-9.117 0-.535 1.287-1.125 2.621-1.771 3.983-4.687 9.879-12.288 18.025-21.537 23.857-14.693 9.264-24.455 21.636-24.455 40.29 0 28.944 23.819 42.197 52.762 41.958 28.694-.236 51.882-13.208 51.882-41.958 0-18.845-9.963-31.361-24.909-40.573z" fill="url(#SVGID_18_)"/><path d="m325.663 31.551c-8.594-5.338-15.782-12.714-20.357-21.736-1.041-2.054-1.954-4.066-2.748-5.976-2.129-5.119-6.988-5.119-9.117 0-.535 1.287-1.125 2.621-1.771 3.983-.017.036-.034.072-.051.108-3.478 7.288-1.569 16.051 4.922 20.855 1.247.923 2.535 1.794 3.861 2.612 14.945 9.211 24.909 21.728 24.909 40.572 0 24.662-17.068 37.704-40.032 41.067 4.213.634 8.624.929 13.161.892 28.694-.236 51.882-13.208 51.882-41.958 0-18.741-9.852-31.222-24.659-40.419z" fill="url(#SVGID_19_)"/><path d="m267.501 147.636-85.941 203.963h232.88l-85.941-203.963c-6.517-15.468-54.481-15.468-60.998 0z" fill="url(#SVGID_20_)"/><path d="m287.556 274.523c-3.782-5.978-10.324-8.611-16.541-7.907-6.121-19.361-17.726-35.214-33.193-48.545l-56.262 133.528h28.095 52.395 74.273z" fill="url(#SVGID_21_)"/><path d="m329.04 148.93-.54-1.29c-4.98-11.81-34.11-14.6-50.51-8.38-5.09 1.93-8.95 4.72-10.49 8.38l-.54 1.29-10.54 25.01h10.907c19.533 0 37.165 11.704 44.749 29.704l62.344 147.956h40.02z" fill="url(#SVGID_22_)"/><path d="m283.433 274.523-48.767 77.076h126.669l-48.767-77.076c-6.768-10.695-22.368-10.695-29.135 0z" fill="url(#SVGID_23_)"/><path d="m312.57 274.52c-6.15-9.71-19.59-10.6-27.07-2.66.75.79 1.44 1.68 2.06 2.66l48.76 77.08h25.01z" fill="url(#SVGID_24_)"/><path d="m409.738 510h-20.772l-90.966-3-95.668 3h-20.772v-158.4h228.178z" fill="url(#SVGID_25_)"/><path d="m262.049 351.6h-80.489v158.4h20.772l37.157-1.165c4.461-2.032 7.569-6.519 7.569-11.741v-85.465h7.302c9.361 0 17.197-6.437 19.383-15.119h52.306c24.119 0 43.671 19.552 43.671 43.671v69.189l19.25.63h20.77v-158.4z" fill="url(#SVGID_26_)"/><path d="m409.738 510h-20.772l-90.966-3-95.668 3h-20.772c0-37.555 51.079-68 114.089-68 63.01 0 114.089 30.445 114.089 68z" fill="url(#SVGID_27_)"/><g><path d="m247.058 497.094v-48.631c-38.707 10.877-65.498 34.34-65.498 61.537h20.772l37.157-1.165c4.461-2.032 7.569-6.519 7.569-11.741z" fill="url(#SVGID_28_)"/></g><path d="m369.72 458.284v51.082l18.786.62.464.014h20.768c0-20.704-15.529-39.244-40.018-51.716z" fill="url(#SVGID_29_)"/><path d="m388.966 510c-13.429-26.578-50.134-45.655-93.317-45.655-43.183 0-79.888 19.077-93.317 45.655z" fill="url(#SVGID_30_)"/><g><path d="m247.058 473.134c-20.724 8.078-36.79 21.161-44.726 36.866h44.726z" fill="url(#SVGID_31_)"/></g><g><path d="m439.753 351.599c0-11.051-8.959-20.01-20.01-20.01h-243.486c-11.051 0-20.01 8.959-20.01 20.01 0 11.051 8.959 20.01 20.01 20.01h243.487c11.051 0 20.009-8.959 20.009-20.01z" fill="url(#SVGID_32_)"/><path d="m176.257 331.589c-11.051 0-20.01 8.959-20.01 20.01 0 11.051 8.959 20.01 20.01 20.01h68.284c12.309-10.358 21.562-23.64 26.716-40.02z" fill="url(#SVGID_33_)"/><path d="m419.743 331.589h-40.02c11.051 0 20.01 8.959 20.01 20.01s-8.959 20.01-20.01 20.01h40.02c11.051 0 20.01-8.959 20.01-20.01s-8.958-20.01-20.01-20.01z" fill="url(#SVGID_34_)"/></g><path d="m324.001 148.93h-52.002c-5.523 0-10-4.477-10-10s4.477-10 10-10h52.002c5.522 0 10 4.477 10 10s-4.478 10-10 10z" fill="url(#SVGID_35_)"/><path d="m369.72 487.369v22.001l19.246.63c-4.255-8.421-10.852-16.085-19.246-22.631z" fill="url(#SVGID_36_)"/></g><g><path d="m209.141 510h-167.408c-7.128 0-12.906-5.778-12.906-12.906v-111.88h193.219v111.88c.001 7.128-5.777 12.906-12.905 12.906z" fill="url(#SVGID_37_)"/><path d="m222.05 385.21v111.884c0 7.128-5.778 12.906-12.906 12.906h-27.114v-31.632c0-23.046-18.682-41.728-41.728-41.728h-111.472v-51.43z" fill="url(#SVGID_38_)"/><g><path d="m135.437 36.682v104.924h-20v-104.924c0-5.52 4.48-10 10-10s10 4.48 10 10z" fill="url(#SVGID_39_)"/><g><path d="m191.158 202.384c-21.944-13.524-39.497-33.224-50.546-56.513-1.55-3.267-2.963-6.466-4.247-9.554-5.104-12.272-16.752-12.272-21.857 0-1.284 3.086-2.696 6.284-4.245 9.549-11.236 23.684-29.46 43.214-51.634 57.194-35.225 22.21-58.629 51.872-58.629 96.592 0 69.391 57.103 101.163 126.491 100.592 68.792-.566 124.383-31.666 124.383-100.591 0-45.179-23.885-75.186-59.716-97.269z" fill="url(#SVGID_40_)"/><path d="m191.158 202.384c-21.944-13.524-39.497-33.224-50.546-56.513-1.55-3.267-2.963-6.466-4.247-9.554-5.104-12.272-16.752-12.272-21.857 0-1.284 3.086-2.696 6.284-4.245 9.549-1.492 3.146-3.116 6.212-4.848 9.208 11.044 19.274 26.734 35.607 45.722 47.309 35.831 22.083 59.716 52.09 59.716 97.269 0 62.658-45.943 94.053-105.978 99.67 7.032.674 14.253.981 21.615.921 68.792-.566 124.383-31.666 124.383-100.591.001-45.178-23.884-75.185-59.715-97.268z" fill="url(#SVGID_41_)"/><path d="m175.78 202.384c-16.809-13.524-30.255-33.224-38.718-56.513-1.187-3.267-2.27-6.466-3.253-9.554-1.955-6.136-5.163-9.204-8.371-9.204 1.436 0 2.871 3.068 3.746 9.204.44 3.088.925 6.287 1.456 9.554 3.788 23.289 9.805 42.988 17.327 56.513 12.283 22.083 20.471 52.09 20.471 97.269 0 68.925-19.057 100.025-42.639 100.591-23.786.571-43.362-31.201-43.361-100.592 0-44.72 8.023-74.382 20.098-96.591 7.602-13.981 13.849-33.511 17.7-57.195.531-3.265 1.015-6.463 1.455-9.549.875-6.136 2.31-9.204 3.746-9.204-3.208 0-6.416 3.068-8.371 9.204-.983 3.086-2.065 6.284-3.252 9.549-8.607 23.684-22.566 43.214-39.552 57.195-26.983 22.209-44.911 51.871-44.911 96.591 0 69.391 43.741 101.163 96.893 100.592 52.695-.566 95.278-31.666 95.278-100.591.001-45.179-18.296-75.186-45.742-97.269z" fill="url(#SVGID_42_)"/><path d="m147.966 202.384c-7.522-13.524-13.54-33.224-17.327-56.513-.531-3.267-1.016-6.466-1.456-9.554-1.75-12.272-5.743-12.272-7.492 0-.44 3.086-.924 6.284-1.455 9.549-3.852 23.684-10.099 43.214-17.7 57.194-12.076 22.209-20.098 51.871-20.098 96.591 0 69.391 19.575 101.163 43.361 100.592 23.582-.566 42.639-31.666 42.639-100.591-.001-45.178-8.189-75.185-20.472-97.268z" fill="url(#SVGID_43_)"/><path d="m147.966 202.384c-7.522-13.524-13.539-33.224-17.327-56.513-.531-3.267-1.016-6.466-1.456-9.554-1.75-12.272-5.743-12.272-7.492 0-.44 3.086-.924 6.284-1.455 9.549-1.237 7.605-2.721 14.779-4.418 21.48-1.942 7.668-1.437 15.76 1.515 23.099 1.761 4.377 3.639 8.372 5.623 11.938 12.283 22.083 20.471 52.09 20.471 97.269 0 56.734-12.916 87.819-30.635 97.363 4.113 2.267 8.483 3.336 13.007 3.228 23.582-.566 42.639-31.666 42.639-100.591-.001-45.178-8.189-75.185-20.472-97.268z" fill="url(#SVGID_44_)"/><g><path d="m107.633 399.045c4.9.704 9.926 1.096 15.05 1.182.968.009 1.936.017 2.909.013-3.655.059-7.209-.641-10.607-2.132-2.425.356-4.875.671-7.352.937z" fill="url(#SVGID_45_)"/><path d="m175.78 202.384c-16.809-13.524-30.255-33.224-38.718-56.513-1.187-3.267-2.27-6.466-3.253-9.554-1.955-6.136-5.163-9.204-8.371-9.204 1.436 0 2.871 3.068 3.746 9.204.44 3.088.925 6.287 1.456 9.554 3.505 21.55 8.922 40.016 15.671 53.371 1.587 1.077 3.191 2.133 4.828 3.142 35.831 22.083 59.716 52.09 59.716 97.269 0 47.179-26.049 76.63-64.547 90.702-6.071 6.473-13.042 9.697-20.466 9.887.15-.001.297.003.447.002 52.675-.583 95.234-31.684 95.234-100.59 0-45.18-18.297-75.187-45.743-97.27z" fill="url(#SVGID_46_)"/><path d="m120.236 145.867c.531-3.265 1.015-6.463 1.455-9.549.875-6.136 2.31-9.204 3.746-9.204-3.208 0-6.416 3.068-8.371 9.204-.983 3.086-2.065 6.284-3.252 9.549-1.71 4.705-3.639 9.239-5.753 13.605 2.216 3.547 4.593 6.984 7.123 10.301 1.961-7.39 3.664-15.374 5.052-23.906z" fill="url(#SVGID_47_)"/></g></g><circle cx="126.287" cy="93.093" fill="url(#SVGID_48_)" r="21.411"/><path d="m125.438 158.209c6.118 0 11.975-.615 17.386-1.736 3.396-.704 5.085-4.541 3.352-7.544-.669-1.159-1.321-2.327-1.955-3.503-1.918-3.557-3.667-7.04-5.257-10.402-6.317-13.361-20.734-13.361-27.052 0-1.589 3.36-3.337 6.842-5.254 10.397-.634 1.176-1.287 2.342-1.957 3.499-1.741 3.004-.054 6.848 3.346 7.552 5.412 1.122 11.271 1.737 17.391 1.737z" fill="url(#SVGID_49_)"/></g><g><path d="m249.359 391.619c0-11.051-8.959-20.01-20.01-20.01h-207.824c-11.051 0-20.01 8.959-20.01 20.01 0 11.051 8.959 20.01 20.01 20.01h207.824c11.051 0 20.01-8.959 20.01-20.01z" fill="url(#SVGID_50_)"/><path d="m229.349 371.609h-40.02c11.051 0 20.01 8.959 20.01 20.01s-8.959 20.01-20.01 20.01h40.02c11.051 0 20.01-8.959 20.01-20.01s-8.959-20.01-20.01-20.01z" fill="url(#SVGID_51_)"/></g></g></g></svg>