<svg id="Capa_1" enable-background="new 0 0 511 511" height="512" viewBox="0 0 511 511" width="512" xmlns="http://www.w3.org/2000/svg" xmlns:xlink="http://www.w3.org/1999/xlink"><linearGradient id="lg1"><stop offset="0" stop-color="#f3eae6"/><stop offset="1" stop-color="#cdbfba"/></linearGradient><linearGradient id="SVGID_1_" gradientUnits="userSpaceOnUse" x1="182" x2="298.155" xlink:href="#lg1" y1="81.939" y2="81.939"/><linearGradient id="lg2"><stop offset="0" stop-color="#faf7f7"/><stop offset=".4551" stop-color="#f3eae6"/><stop offset="1" stop-color="#efe2dd"/></linearGradient><linearGradient id="SVGID_2_" gradientUnits="userSpaceOnUse" x1="50.965" x2="104.183" xlink:href="#lg2" y1="145.476" y2="145.476"/><linearGradient id="SVGID_3_" gradientUnits="userSpaceOnUse" x1="95.833" x2="235.215" xlink:href="#lg2" y1="142.653" y2="142.653"/><linearGradient id="SVGID_4_" gradientUnits="userSpaceOnUse" x1="125.5" x2="288.509" xlink:href="#lg1" y1="142.653" y2="142.653"/><linearGradient id="SVGID_5_" gradientUnits="userSpaceOnUse" x1="398.5" x2="457.303" xlink:href="#lg2" y1="145.476" y2="145.476"/><linearGradient id="SVGID_6_" gradientUnits="userSpaceOnUse" x1="324.5" x2="409.295" xlink:href="#lg2" y1="142.653" y2="142.653"/><linearGradient id="SVGID_7_" gradientUnits="userSpaceOnUse" x1="199.363" x2="306.591" xlink:href="#lg2" y1="344.735" y2="344.735"/><linearGradient id="SVGID_8_" gradientUnits="userSpaceOnUse" x1="212.5" x2="301.171" xlink:href="#lg1" y1="437.623" y2="437.623"/><linearGradient id="SVGID_9_" gradientUnits="userSpaceOnUse" x1="212.5" x2="301.171" xlink:href="#lg1" y1="344.735" y2="344.735"/><linearGradient id="SVGID_10_" gradientUnits="userSpaceOnUse" x1="240.04" x2="337.656" xlink:href="#lg2" y1="244.314" y2="244.314"/><linearGradient id="SVGID_11_" gradientUnits="userSpaceOnUse" x1="189.982" x2="347.224" xlink:href="#lg1" y1="256.822" y2="256.822"/><linearGradient id="SVGID_12_" gradientTransform="matrix(1 0 0 -1 0 1364.819)" gradientUnits="userSpaceOnUse" x1="240.04" x2="337.656" xlink:href="#lg2" y1="1208.027" y2="1208.027"/><linearGradient id="SVGID_13_" gradientUnits="userSpaceOnUse" x1="189.333" x2="299.675" xlink:href="#lg2" y1="156.766" y2="156.766"/><linearGradient id="SVGID_14_" gradientUnits="userSpaceOnUse" x1="284.451" x2="361.498" xlink:href="#lg2" y1="188.965" y2="188.965"/><linearGradient id="SVGID_15_" gradientUnits="userSpaceOnUse" x1="295.5" x2="386.297" xlink:href="#lg1" y1="188.964" y2="188.964"/><linearGradient id="SVGID_16_" gradientUnits="userSpaceOnUse" x1="236.89" x2="303.942" xlink:href="#lg2" y1="63.456" y2="63.456"/><linearGradient id="SVGID_17_" gradientUnits="userSpaceOnUse" x1="203.5" x2="271.552" xlink:href="#lg2" y1="63.456" y2="63.456"/><linearGradient id="SVGID_18_" gradientUnits="userSpaceOnUse" x1="257.696" x2="300.158" xlink:href="#lg2" y1="28.367" y2="28.367"/><linearGradient id="SVGID_19_" gradientUnits="userSpaceOnUse" x1="220" x2="262.362" xlink:href="#lg2" y1="28.367" y2="28.367"/><linearGradient id="lg3"><stop offset="0" stop-color="#cdbfba"/><stop offset="1" stop-color="#766e6e"/></linearGradient><linearGradient id="SVGID_20_" gradientUnits="userSpaceOnUse" x1="141.69" x2="391.257" xlink:href="#lg3" y1="478.473" y2="478.473"/><linearGradient id="SVGID_21_" gradientUnits="userSpaceOnUse" x1="142.259" x2="332.897" xlink:href="#lg3" y1="478.474" y2="478.474"/><linearGradient id="SVGID_22_" gradientUnits="userSpaceOnUse" x1="153.38" x2="534.504" xlink:href="#lg3" y1="490.99" y2="490.99"/><linearGradient id="SVGID_23_" gradientUnits="userSpaceOnUse" x1="155.289" x2="435.575" xlink:href="#lg3" y1="490.99" y2="490.99"/><g><path d="m215.234 48.622v56.288c0 5.714 4.632 10.345 10.345 10.345h64.233c5.714 0 10.345-4.632 10.345-10.345v-56.288z" fill="url(#SVGID_1_)"/><g><path d="m126.61 124.444-32.697 6.847-8.09-8.09c-4.256-4.256-11.43-3.981-16.025.613-3.653 3.653-4.564 8.932-2.651 13.082l-5.994 1.255c-5.01 1.049-8.221 5.962-7.172 10.972l2.99 14.276c1.049 5.01 5.962 8.221 10.972 7.172l65.456-13.708z" fill="url(#SVGID_2_)"/><path d="m190.264 177.538-8.203-69.77-81.636 17.097c-4.645.973-7.622 5.527-6.649 10.172l5.192 24.79c.749 3.576 3.677 6.287 7.299 6.759z" fill="url(#SVGID_3_)"/><path d="m182.061 107.767-40.572 8.497c-2.955 3.922-4.585 8.294-4.585 13.117 0 15.178 3.614 29.511 10.027 42.187.057.113.109.228.166.34l43.167 5.629z" fill="url(#SVGID_4_)"/></g><g><path d="m384.39 124.444 32.697 6.847 8.09-8.09c4.256-4.256 11.43-3.981 16.025.613 3.653 3.653 4.564 8.932 2.651 13.082l5.994 1.255c5.01 1.049 8.221 5.962 7.172 10.972l-2.99 14.276c-1.049 5.01-5.962 8.221-10.972 7.172l-65.457-13.707z" fill="url(#SVGID_5_)"/><path d="m320.736 177.538 8.203-69.77 81.636 17.097c4.645.973 7.622 5.527 6.649 10.172l-5.192 24.79c-.749 3.576-3.677 6.287-7.299 6.759z" fill="url(#SVGID_6_)"/></g><path d="m202.571 219.146h105.859v251.176h-105.859z" fill="url(#SVGID_7_)"/><g><path d="m224.47 404.927c-6.5 0-11.76 4.88-11.76 10.9v54.494h23.53v-54.494c0-6.02-5.27-10.9-11.77-10.9z" fill="url(#SVGID_8_)"/><path d="m202.57 219.15v123.629c0 10.97 5.395 21.238 14.428 27.461l28.407 19.571c11.387 7.845 19.126 19.726 21.877 32.998-.425-.043-.855-.069-1.293-.069-6.5 0-11.77 4.88-11.77 10.9v36.68h54.21v-251.17z" fill="url(#SVGID_9_)"/></g><path d="m349.086 129.381c0-51.686-187.172-51.686-187.172 0 0 15.178 3.614 29.511 10.027 42.187 11.312 22.358 17.213 47.059 17.213 72.116v51.682c0 14.041 6.953 27.171 18.567 35.062l96.587 65.625c7.454 5.065 17.537-.275 17.537-9.286v-143.083c0-25.057 5.901-49.758 17.213-72.116 6.414-12.676 10.028-27.01 10.028-42.187z" fill="url(#SVGID_10_)"/><path d="m321.85 126.09v260.68c0 9.01-10.09 14.35-17.54 9.28l-22.48-15.27v-51.58c0-6.909-5.595-12.523-12.503-12.52-5.992.003-10.837-4.302-10.837-9.63v-36.313c0-12.009-8.635-22.223-20.448-24.384-.059-.011-.117-.022-.174-.033-.828-.158-1.652-.327-2.471-.506-25.472-5.579-45.754-24.845-53.516-49.738-2.62-8.404-5.938-16.601-9.941-24.506-3.94-7.79-6.82-16.21-8.46-25.07 13.45-32.56 110.13-39.36 158.37-20.41z" fill="url(#SVGID_11_)"/><path d="m349.086 129.381c0-51.686-187.172-51.686-187.172 0s41.9 93.586 93.586 93.586 93.586-41.9 93.586-93.586z" fill="url(#SVGID_12_)"/><path d="m300.116 94.833c-26.042-5.322-58.099-5.605-84.782-.85.435 18.488 15.547 33.344 34.139 33.344 4.979 0 9.016 4.037 9.016 9.016v86.571c8.687-.273 17.077-1.726 25.011-4.21v-96.202c9.528-5.697 16.051-15.9 16.616-27.669z" fill="url(#SVGID_13_)"/><path d="m336.729 108.881c-4.346-3.117-8.291-6.726-11.811-10.752-1.949-2.229-4.612-3.975-7.748-4.959-8.66-2.71-18.51-4.83-29.03-6.33-2.43-.35-4.64 1.33-4.64 3.52v128.34 59.47c0 9.91 10.68 16.14 19.31 11.28l10.03-5.66c9.64-5.43 15.6-15.63 15.6-26.7v-40.229c0-16.074 4.002-31.82 11.096-46.244 6.119-12.441 9.554-26.437 9.554-41.237 0-8.1-4.601-14.934-12.361-20.499z" fill="url(#SVGID_14_)"/><path d="m336.729 108.881c-4.346-3.117-8.291-6.726-11.811-10.752-1.949-2.229-4.612-3.975-7.748-4.959-8.66-2.71-18.51-4.83-29.03-6.33-2.43-.35-4.64 1.33-4.64 3.52v.401c2.992.744 5.892 1.543 8.659 2.409 3.136.984 5.799 2.73 7.748 4.959 3.52 4.026 7.465 7.636 11.811 10.752 7.76 5.564 12.361 12.399 12.361 20.499 0 14.8-3.436 28.796-9.554 41.237-7.094 14.424-11.096 30.17-11.096 46.244v40.229c0 11.07-5.96 21.27-15.6 26.7l-2.328 1.314c3.496 5.487 10.955 7.924 17.309 4.346l10.03-5.66c9.64-5.43 15.6-15.63 15.6-26.7v-40.229c0-16.074 4.002-31.82 11.096-46.244 6.119-12.441 9.554-26.437 9.554-41.237 0-8.1-4.601-14.934-12.361-20.499z" fill="url(#SVGID_15_)"/><path d="m264.214 102.316h-12.958c-14.793 0-26.786-11.992-26.786-26.786v-21.006c0-16.529 13.399-29.928 29.928-29.928h6.673c16.529 0 29.928 13.399 29.928 29.928v21.007c.001 14.793-11.991 26.785-26.785 26.785z" fill="url(#SVGID_16_)"/><path d="m261.072 24.595h-6.673c-3.199 0-6.279.507-9.169 1.437 12.042 3.873 20.759 15.162 20.759 28.491v21.007c0 12.72-8.869 23.361-20.759 26.096 1.938.446 3.953.689 6.027.689h12.958c14.793 0 26.786-11.992 26.786-26.786v-21.005c-.001-16.529-13.4-29.929-29.929-29.929z" fill="url(#SVGID_17_)"/><path d="m291.851 56.733c4.588 0 8.307-3.719 8.307-8.307v-10.264c0-21.076-17.086-38.162-38.162-38.162h-4.3v22.578c0 18.863 15.292 34.155 34.155 34.155z" fill="url(#SVGID_18_)"/><path d="m223.541 56.733c-4.588 0-8.307-3.719-8.307-8.307v-10.264c0-21.076 17.086-38.162 38.163-38.162h4.3v22.578c-.001 18.863-15.293 34.155-34.156 34.155z" fill="url(#SVGID_19_)"/><g><g><path d="m361.866 510.999h-212.732c-10.959 0-19.842-8.884-19.842-19.842v-25.367c0-10.959 8.884-19.842 19.842-19.842h212.731c10.959 0 19.842 8.884 19.842 19.842v25.367c.001 10.959-8.883 19.842-19.841 19.842z" fill="url(#SVGID_20_)"/><path d="m361.866 445.948h-40.02c10.958 0 19.842 8.884 19.842 19.842v25.367c0 10.958-8.884 19.842-19.842 19.842h40.02c10.958 0 19.842-8.884 19.842-19.842v-25.367c0-10.959-8.884-19.842-19.842-19.842z" fill="url(#SVGID_21_)"/></g><g><path d="m413.325 490.99c0-11.051-8.959-20.01-20.01-20.01h-275.63c-11.051 0-20.01 8.959-20.01 20.01 0 11.051 8.959 20.01 20.01 20.01h275.629c11.052 0 20.011-8.959 20.011-20.01z" fill="url(#SVGID_22_)"/><path d="m393.315 470.98h-40.02c11.051 0 20.01 8.959 20.01 20.01s-8.959 20.01-20.01 20.01h40.02c11.051 0 20.01-8.959 20.01-20.01s-8.959-20.01-20.01-20.01z" fill="url(#SVGID_23_)"/></g></g></g></svg>