<svg id="Capa_1" enable-background="new 0 0 510 510" height="512" viewBox="0 0 510 510" width="512" xmlns="http://www.w3.org/2000/svg" xmlns:xlink="http://www.w3.org/1999/xlink"><linearGradient id="lg1"><stop offset="0" stop-color="#faf7f7"/><stop offset=".4551" stop-color="#f3eae6"/><stop offset="1" stop-color="#efe2dd"/></linearGradient><linearGradient id="SVGID_1_" gradientUnits="userSpaceOnUse" x1="30" x2="338.058" xlink:href="#lg1" y1="215.079" y2="215.079"/><linearGradient id="SVGID_2_" gradientUnits="userSpaceOnUse" x1="-59.341" x2="142.593" xlink:href="#lg1" y1="328.545" y2="328.545"/><linearGradient id="SVGID_3_" gradientUnits="userSpaceOnUse" x1="176" x2="518.086" y1="215.076" y2="215.076"><stop offset="0" stop-color="#f3eae6"/><stop offset="1" stop-color="#cdbfba"/></linearGradient><linearGradient id="lg2"><stop offset="0" stop-color="#cdbfba"/><stop offset="1" stop-color="#766e6e"/></linearGradient><linearGradient id="SVGID_4_" gradientUnits="userSpaceOnUse" x1="0" x2="91.576" xlink:href="#lg2" y1="389.011" y2="389.011"/><linearGradient id="SVGID_5_" gradientUnits="userSpaceOnUse" x1="392" x2="483.576" xlink:href="#lg2" y1="389.011" y2="389.011"/><linearGradient id="SVGID_6_" gradientUnits="userSpaceOnUse" x1="25.049" x2="680.101" xlink:href="#lg2" y1="420.72" y2="420.72"/><linearGradient id="SVGID_7_" gradientUnits="userSpaceOnUse" x1="198" x2="502.657" xlink:href="#lg2" y1="420.72" y2="420.72"/><g><g><path d="m255 283.697c59.284 0 113.127 26.825 152.875 70.51 35.614 39.141 101.274 14.489 102.094-38.423.021-1.368.032-2.74.031-4.113-.046-143.133-116.676-257.505-259.784-254.872-138.625 2.55-250.216 115.721-250.216 254.956 0 1.046.006 2.091.019 3.134.643 53.345 66.211 78.764 102.117 39.307 39.746-43.678 93.585-70.499 152.864-70.499z" fill="url(#SVGID_1_)"/><path d="m214.98 283.697c-59.279 0-113.118 26.821-152.865 70.499-6.779 7.45-14.616 12.583-22.873 15.657 20.684 7.413 45.334 3.639 62.893-15.657 35.223-38.707 81.518-64.158 132.855-69.454-6.592-.68-13.264-1.045-20.01-1.045z" fill="url(#SVGID_2_)"/><path d="m250.216 56.799c-5.086.094-10.131.354-15.141.741 51.629 3.986 98.916 23.247 137.316 53.328 35.726 27.986 9.281 85.354-35.149 76.104-27.223-5.667-56.522-8.591-87.025-8.246-19.134.216-37.753 1.729-55.634 4.401-9.503 1.42-8.373 15.406 1.235 15.274.344-.005.687-.009 1.031-.013 122.186-1.382 225.543 48.358 256.818 117.131 9.628 21.173-.516 46.297-22.38 54.232-.129.047-.258.093-.387.139 35.299 13.008 78.406-11.296 79.069-54.106.021-1.368.032-2.74.031-4.113-.046-143.133-116.676-257.505-259.784-254.872z" fill="url(#SVGID_3_)"/></g><g><path d="m96.667 404.617h-75.334v-14.925c0-8.995 7.292-16.287 16.287-16.287h42.759c8.995 0 16.287 7.292 16.287 16.287v14.925z" fill="url(#SVGID_4_)"/><path d="m488.667 404.617h-75.333v-14.925c0-8.995 7.292-16.287 16.287-16.287h42.759c8.995 0 16.287 7.292 16.287 16.287z" fill="url(#SVGID_5_)"/></g><g><path d="m490.158 453.246h-470.316c-10.958 0-19.842-8.884-19.842-19.843v-25.367c0-10.959 8.884-19.842 19.842-19.842h470.315c10.959 0 19.842 8.884 19.842 19.842v25.367c.001 10.959-8.883 19.843-19.841 19.843z" fill="url(#SVGID_6_)"/><path d="m490.158 388.194h-40.02c10.958 0 19.842 8.884 19.842 19.842v25.367c0 10.958-8.884 19.842-19.842 19.842h40.02c10.958 0 19.842-8.884 19.842-19.842v-25.367c0-10.958-8.884-19.842-19.842-19.842z" fill="url(#SVGID_7_)"/></g></g></svg>