<svg id="Capa_1" enable-background="new 0 0 510 510" height="512" viewBox="0 0 510 510" width="512" xmlns="http://www.w3.org/2000/svg" xmlns:xlink="http://www.w3.org/1999/xlink"><linearGradient id="lg1"><stop offset="0" stop-color="#faf7f7"/><stop offset=".4551" stop-color="#f3eae6"/><stop offset="1" stop-color="#efe2dd"/></linearGradient><linearGradient id="SVGID_1_" gradientUnits="userSpaceOnUse" x1="94.782" x2="199.457" xlink:href="#lg1" y1="419.01" y2="419.01"/><linearGradient id="lg2"><stop offset="0" stop-color="#f3eae6"/><stop offset="1" stop-color="#cdbfba"/></linearGradient><linearGradient id="SVGID_2_" gradientUnits="userSpaceOnUse" x1="64.27" x2="174.297" xlink:href="#lg2" y1="440.001" y2="440.001"/><linearGradient id="SVGID_3_" gradientUnits="userSpaceOnUse" x1="381.576" x2="486.251" xlink:href="#lg1" y1="412.521" y2="412.521"/><linearGradient id="SVGID_4_" gradientUnits="userSpaceOnUse" x1="249.394" x2="326.943" xlink:href="#lg1" y1="431" y2="431"/><linearGradient id="SVGID_5_" gradientUnits="userSpaceOnUse" x1="174.989" x2="240.488" xlink:href="#lg2" y1="384.045" y2="384.045"/><linearGradient id="SVGID_6_" gradientUnits="userSpaceOnUse" x1="201.578" x2="308.422" xlink:href="#lg1" y1="236.516" y2="236.516"/><linearGradient id="SVGID_7_" gradientUnits="userSpaceOnUse" x1="221.31" x2="308.42" xlink:href="#lg2" y1="236.515" y2="236.515"/><linearGradient id="SVGID_8_" gradientUnits="userSpaceOnUse" x1="233.339" x2="315.479" y1="143.839" y2="143.839"><stop offset="0" stop-color="#fe646f"/><stop offset=".593" stop-color="#fb2b3a"/><stop offset="1" stop-color="#c41926"/></linearGradient><linearGradient id="lg3"><stop offset="0" stop-color="#cdbfba"/><stop offset="1" stop-color="#766e6e"/></linearGradient><linearGradient id="SVGID_9_" gradientUnits="userSpaceOnUse" x1="223.592" x2="342.692" xlink:href="#lg3" y1="186.443" y2="186.443"/><linearGradient id="SVGID_10_" gradientUnits="userSpaceOnUse" x1="213" x2="304.501" xlink:href="#lg3" y1="186.445" y2="186.445"/><linearGradient id="SVGID_11_" gradientUnits="userSpaceOnUse" x1="196.134" x2="313.866" xlink:href="#lg2" y1="225.322" y2="225.322"/><linearGradient id="SVGID_12_" gradientUnits="userSpaceOnUse" x1="126" x2="297.105" xlink:href="#lg2" y1="225.322" y2="225.322"/><linearGradient id="SVGID_13_" gradientUnits="userSpaceOnUse" x1="25.049" x2="529.294" xlink:href="#lg2" y1="477.474" y2="477.474"/><linearGradient id="SVGID_14_" gradientUnits="userSpaceOnUse" x1="410.53" x2="601.168" xlink:href="#lg3" y1="477.474" y2="477.474"/><linearGradient id="lg4"><stop offset="0" stop-color="#537983"/><stop offset=".593" stop-color="#554e56"/><stop offset="1" stop-color="#433f43"/></linearGradient><linearGradient id="SVGID_15_" gradientUnits="userSpaceOnUse" x1="187.667" x2="361.678" xlink:href="#lg4" y1="169.892" y2="169.892"/><linearGradient id="SVGID_16_" gradientUnits="userSpaceOnUse" x1="187.667" x2="361.678" xlink:href="#lg4" y1="191.159" y2="191.159"/><linearGradient id="SVGID_17_" gradientUnits="userSpaceOnUse" x1="223.333" x2="270" xlink:href="#lg4" y1="171.57" y2="171.57"/><linearGradient id="SVGID_18_" gradientUnits="userSpaceOnUse" x1="223.333" x2="270" xlink:href="#lg4" y1="193.11" y2="193.11"/><g><g><path d="m149.603 478.001h-76v-110.052c0-4.379 3.55-7.93 7.93-7.93h60.141c4.379 0 7.93 3.55 7.93 7.93v110.052z" fill="url(#SVGID_1_)"/><path d="m206.154 478.001h-76v-68.07c0-4.379 3.55-7.93 7.93-7.93h60.141c4.379 0 7.93 3.55 7.93 7.93v68.07z" fill="url(#SVGID_2_)"/><path d="m436.397 478.001h-76v-123.029c0-4.379 3.55-7.93 7.93-7.93h60.141c4.379 0 7.93 3.55 7.93 7.93v123.029z" fill="url(#SVGID_3_)"/><path d="m383.751 478.001h-94.001v-84.193c0-5.417 4.391-9.808 9.808-9.808h74.385c5.417 0 9.808 4.391 9.808 9.808z" fill="url(#SVGID_4_)"/><path d="m254.431 478.001h-76v-179.982c0-4.379 3.55-7.93 7.93-7.93h60.141c4.379 0 7.93 3.55 7.93 7.93v179.982z" fill="url(#SVGID_5_)"/></g><path d="m245.671 8.486-44.092 464.546h106.843l-44.093-464.546c-1.073-11.315-17.585-11.315-18.658 0z" fill="url(#SVGID_6_)"/><path d="m264.33 8.49c-1.07-11.32-17.59-11.32-18.66 0l-.039.41c-7.078 74.579-7.078 149.661-.001 224.24-7.48.3-14.67.97-21.47 1.97l-2.85 30c2.155.351 4.352.669 6.589.953 12.32 1.563 21.942 11.396 23.115 23.759l17.386 183.208h40.02z" fill="url(#SVGID_7_)"/><path d="m299 160.347h-88v-20.983c0-6.646 5.388-12.034 12.034-12.034h63.932c6.646 0 12.034 5.388 12.034 12.034z" fill="url(#SVGID_8_)"/><path d="m262.813 230.942h-15.627c-27.848 0-51.323-20.77-54.714-48.411l-1.116-9.094c-1.142-9.305 4.125-18.213 12.828-21.698 32.618-13.06 69.013-13.06 101.631 0 8.704 3.485 13.97 12.393 12.828 21.698l-1.116 9.094c-3.391 27.641-26.865 48.411-54.714 48.411z" fill="url(#SVGID_9_)"/><path d="m305.816 151.738c-20.254-8.109-41.963-11.179-63.321-9.218 13.038 1.197 25.945 4.267 38.31 9.218 8.704 3.485 13.97 12.393 12.828 21.698l-1.116 9.094c-3.199 26.073-24.27 46.024-50.022 48.205 1.549.131 3.112.207 4.692.207h15.627c27.848 0 51.323-20.77 54.714-48.411l1.116-9.094c1.142-9.306-4.125-18.214-12.828-21.699z" fill="url(#SVGID_10_)"/><g><path d="m255 207.93c-14.932 0-29 1.454-41.338 4.021-23.371 4.862-23.371 21.881 0 26.743 12.338 2.567 26.406 4.021 41.338 4.021s29-1.454 41.338-4.021c23.371-4.862 23.371-21.881 0-26.743-12.338-2.567-26.406-4.021-41.338-4.021z" fill="url(#SVGID_11_)"/><path d="m296.338 211.951c-12.338-2.567-26.406-4.021-41.338-4.021-4.246 0-8.419.121-12.505.349 10.284.572 20.003 1.835 28.832 3.672 23.371 4.862 23.371 21.881 0 26.743-8.829 1.837-18.548 3.1-28.832 3.672 4.086.227 8.259.349 12.505.349 14.932 0 29-1.454 41.338-4.021 23.371-4.863 23.371-21.881 0-26.743z" fill="url(#SVGID_12_)"/></g><g><path d="m490.158 510h-470.316c-10.958 0-19.842-8.884-19.842-19.842v-25.367c0-10.959 8.884-19.842 19.842-19.842h470.315c10.959 0 19.842 8.884 19.842 19.842v25.367c.001 10.958-8.883 19.842-19.841 19.842z" fill="url(#SVGID_13_)"/><path d="m490.158 444.948h-40.02c10.958 0 19.842 8.884 19.842 19.842v25.367c0 10.958-8.884 19.842-19.842 19.842h40.02c10.958 0 19.842-8.884 19.842-19.842v-25.367c0-10.958-8.884-19.842-19.842-19.842z" fill="url(#SVGID_14_)"/></g><g><path d="m191.356 173.436 1.116 9.094c.081.658.183 1.308.287 1.958 1.69-2.067 4.084-3.757 6.988-4.78 35.63-12.555 74.877-12.555 110.507 0 2.904 1.023 5.298 2.713 6.987 4.78.103-.65.206-1.3.287-1.958l1.116-9.094c.275-2.238.17-4.451-.256-6.573-1.014-.481-2.063-.92-3.15-1.303-38.845-13.686-81.631-13.688-120.477 0-1.087.383-2.136.822-3.15 1.303-.425 2.122-.529 4.335-.255 6.573z" fill="url(#SVGID_15_)"/><path d="m315.238 189.163c-38.846-13.686-81.631-13.687-120.477.001-.327.115-.636.256-.957.38 1.266 4.94 3.189 9.594 5.667 13.875.093-.034.18-.075.274-.108 35.631-12.555 74.876-12.554 110.508-.001.094.033.182.073.274.108 2.479-4.28 4.401-8.935 5.667-13.875-.319-.124-.628-.264-.956-.38z" fill="url(#SVGID_16_)"/></g><g><path d="m318.64 173.44-1.11 9.09c-.08.66-.19 1.31-.29 1.96-1.69-2.07-4.08-3.76-6.99-4.78-5.51-1.94-11.11-3.59-16.78-4.93l.16-1.34c.1-.85.15-1.69.15-2.53 0-4.48-1.46-8.77-4.03-12.26 8.62 1.67 17.15 3.97 25.49 6.91 1.09.38 2.13.82 3.15 1.3.42 2.13.53 4.34.25 6.58z" fill="url(#SVGID_17_)"/><path d="m316.2 189.54c-1.27 4.94-3.19 9.6-5.67 13.88-.09-.04-.18-.08-.28-.11-7.1-2.5-14.35-4.5-21.68-6 1.93-4.54 3.26-9.41 3.91-14.51 7.69 1.61 15.3 3.73 22.76 6.36.33.12.63.26.96.38z" fill="url(#SVGID_18_)"/></g></g></svg>