<svg id="Capa_1" enable-background="new 0 0 510 510" height="512" viewBox="0 0 510 510" width="512" xmlns="http://www.w3.org/2000/svg" xmlns:xlink="http://www.w3.org/1999/xlink"><linearGradient id="lg1"><stop offset="0" stop-color="#faf7f7"/><stop offset=".4551" stop-color="#f3eae6"/><stop offset="1" stop-color="#efe2dd"/></linearGradient><linearGradient id="SVGID_1_" gradientUnits="userSpaceOnUse" x1="190.809" x2="565.939" xlink:href="#lg1" y1="255" y2="255"/><linearGradient id="lg2"><stop offset="0" stop-color="#f3eae6"/><stop offset="1" stop-color="#cdbfba"/></linearGradient><linearGradient id="SVGID_2_" gradientUnits="userSpaceOnUse" x1="24" x2="300.798" xlink:href="#lg2" y1="194.29" y2="194.29"/><linearGradient id="SVGID_3_" gradientUnits="userSpaceOnUse" x1="-3.923" x2="483.61" xlink:href="#lg2" y1="255" y2="255"/><linearGradient id="lg3"><stop offset="0" stop-color="#537983"/><stop offset=".593" stop-color="#554e56"/><stop offset="1" stop-color="#433f43"/></linearGradient><linearGradient id="SVGID_4_" gradientUnits="userSpaceOnUse" x1="49.183" x2="438.876" xlink:href="#lg3" y1="422.224" y2="422.224"/><linearGradient id="SVGID_5_" gradientUnits="userSpaceOnUse" x1="49.142" x2="438.834" xlink:href="#lg3" y1="422.224" y2="422.224"/><linearGradient id="SVGID_9_" gradientUnits="userSpaceOnUse" x1="49.183" x2="438.876" xlink:href="#lg3" y1="274" y2="274"/><linearGradient id="SVGID_10_" gradientUnits="userSpaceOnUse" x1="49.142" x2="438.834" xlink:href="#lg3" y1="274" y2="274"/><linearGradient id="SVGID_13_" gradientUnits="userSpaceOnUse" x1="49.183" x2="438.876" xlink:href="#lg3" y1="125.777" y2="125.777"/><linearGradient id="SVGID_14_" gradientUnits="userSpaceOnUse" x1="49.142" x2="438.834" xlink:href="#lg3" y1="125.777" y2="125.777"/><linearGradient id="SVGID_15_" gradientUnits="userSpaceOnUse" x1="0" x2="242.019" xlink:href="#lg1" y1="32.526" y2="32.526"/><linearGradient id="SVGID_16_" gradientUnits="userSpaceOnUse" x1="0" x2="510" xlink:href="#lg1" y1="477.474" y2="477.474"/><linearGradient id="SVGID_17_" gradientUnits="userSpaceOnUse" x1="357" x2="554.206" xlink:href="#lg2" y1="477.474" y2="477.474"/><linearGradient id="SVGID_18_" gradientUnits="userSpaceOnUse" x1="0" x2="510" xlink:href="#lg1" y1="333.897" y2="333.897"/><linearGradient id="SVGID_19_" gradientUnits="userSpaceOnUse" x1="357" x2="554.206" xlink:href="#lg2" y1="333.897" y2="333.897"/><linearGradient id="SVGID_20_" gradientUnits="userSpaceOnUse" x1="0" x2="299.611" xlink:href="#lg1" y1="176.105" y2="176.105"/><linearGradient id="SVGID_21_" gradientUnits="userSpaceOnUse" x1="188" x2="382.659" xlink:href="#lg2" y1="176.105" y2="176.105"/><linearGradient id="SVGID_22_" gradientUnits="userSpaceOnUse" x1="378.198" x2="510" xlink:href="#lg1" y1="32.526" y2="32.526"/><linearGradient id="SVGID_23_" gradientUnits="userSpaceOnUse" x1="378.198" x2="510" xlink:href="#lg1" y1="176.105" y2="176.105"/><linearGradient id="SVGID_24_" gradientUnits="userSpaceOnUse" x1="357" x2="554.206" xlink:href="#lg2" y1="176.105" y2="176.105"/><linearGradient id="SVGID_25_" gradientUnits="userSpaceOnUse" x1="357" x2="554.206" xlink:href="#lg2" y1="32.526" y2="32.526"/><linearGradient id="SVGID_26_" gradientUnits="userSpaceOnUse" x1="127" x2="302.923" xlink:href="#lg2" y1="32.526" y2="32.526"/><g><path d="m388.37 53.3 21.985 20.892c11.408 10.841 11.408 29.026 0 39.866-5.463 5.191-8.556 12.397-8.556 19.933v88.698c0 26.62-10.925 52.073-30.222 70.411l-44.383 42.177v-59.794c0-29.302-12.026-57.32-33.267-77.505l-46.488-44.177c-21.241-20.185-33.267-48.203-33.267-77.505v-22.996h-190.172v403.4h462v-403.4z" fill="url(#SVGID_1_)"/><path d="m327.19 275.48v26.844l-40.02 32.956v-59.8c0-5.043-.357-10.047-1.055-14.979-2.181-15.401-15.346-26.861-30.9-26.861h-231.215v-25.01h239.69c-3-3.75-6.26-7.31-9.78-10.65l-46.49-44.18c-12.603-11.969-21.961-26.703-27.488-42.823-4.303-12.549-16.18-20.917-29.446-20.917h-126.486v-36.76h190.17v23c0 4.63.3 9.22.89 13.76 3.14 24.19 14.49 46.75 32.38 63.74l46.49 44.18c3.52 3.34 6.78 6.9 9.78 10.65 6.13 7.64 11.15 16.07 14.95 25.01 5.57 13.1 8.53 27.31 8.53 41.84z" fill="url(#SVGID_2_)"/><path d="m486 53.3v403.4h-40.02v-37.9c0-15.116-12.254-27.37-27.37-27.37h-394.61v-25.01h421.98v-105.41c0-15.116-12.254-27.37-27.37-27.37h-17.44c.42-3.62.63-7.27.63-10.95v-14.06h44.18v-91.2c0-15.116-12.254-27.37-27.37-27.37-.87-5.84-3.62-11.46-8.25-15.87l-9.62-9.14-12.37-11.75z" fill="url(#SVGID_3_)"/><g><path d="m72.308 387.747c-12.649 0-22.903 8.868-22.903 19.807v49.146h45.805v-49.145c.001-10.94-10.253-19.808-22.902-19.808z" fill="url(#SVGID_4_)"/><path d="m163.654 387.747c-12.649 0-22.903 8.868-22.903 19.807v49.146h45.805v-49.145c.001-10.94-10.253-19.808-22.902-19.808z" fill="url(#SVGID_5_)"/><g fill="url(#SVGID_4_)"><path d="m255 387.747c-12.649 0-22.903 8.868-22.903 19.807v49.146h45.805v-49.145c.001-10.94-10.253-19.808-22.902-19.808z"/><path d="m346.346 387.747c-12.649 0-22.903 8.868-22.903 19.807v49.146h45.805v-49.145c0-10.94-10.253-19.808-22.902-19.808z"/><path d="m437.692 387.747c-12.649 0-22.903 8.868-22.903 19.807v49.146h45.805v-49.145c0-10.94-10.253-19.808-22.902-19.808z"/></g></g><g><path d="m72.308 239.524c-12.649 0-22.903 8.868-22.903 19.807v49.145h45.805v-49.145c.001-10.939-10.253-19.807-22.902-19.807z" fill="url(#SVGID_9_)"/><path d="m163.654 239.524c-12.649 0-22.903 8.868-22.903 19.807v49.145h45.805v-49.145c.001-10.939-10.253-19.807-22.902-19.807z" fill="url(#SVGID_10_)"/><g fill="url(#SVGID_9_)"><path d="m255 239.524c-12.649 0-22.903 8.868-22.903 19.807v49.145h45.805v-49.145c.001-10.939-10.253-19.807-22.902-19.807z"/><path d="m437.692 239.524c-12.649 0-22.903 8.868-22.903 19.807v49.145h45.805v-49.145c0-10.939-10.253-19.807-22.902-19.807z"/></g></g><g><path d="m72.308 91.3c-12.649 0-22.903 8.868-22.903 19.807v49.145h45.805v-49.145c.001-10.939-10.253-19.807-22.902-19.807z" fill="url(#SVGID_13_)"/><path d="m163.654 91.3c-12.649 0-22.903 8.868-22.903 19.807v49.145h45.805v-49.145c.001-10.939-10.253-19.807-22.902-19.807z" fill="url(#SVGID_14_)"/></g><path d="m222.176 65.052h-202.334c-10.958 0-19.842-8.884-19.842-19.842v-25.368c0-10.958 8.884-19.842 19.842-19.842h202.334c10.959 0 19.842 8.884 19.842 19.842v25.368c.001 10.958-8.883 19.842-19.842 19.842z" fill="url(#SVGID_15_)"/><path d="m490.158 510h-470.316c-10.958 0-19.842-8.884-19.842-19.842v-25.368c0-10.959 8.884-19.842 19.842-19.842h470.315c10.959 0 19.842 8.884 19.842 19.842v25.367c.001 10.959-8.883 19.843-19.841 19.843z" fill="url(#SVGID_16_)"/><path d="m490.158 444.948h-40.02c10.958 0 19.842 8.884 19.842 19.842v25.367c0 10.958-8.884 19.842-19.842 19.842h40.02c10.958 0 19.842-8.884 19.842-19.842v-25.367c0-10.958-8.884-19.842-19.842-19.842z" fill="url(#SVGID_17_)"/><path d="m490.158 366.423h-470.316c-10.958 0-19.842-8.884-19.842-19.842v-25.367c0-10.959 8.884-19.842 19.842-19.842h470.315c10.959 0 19.842 8.884 19.842 19.842v25.367c.001 10.958-8.883 19.842-19.841 19.842z" fill="url(#SVGID_18_)"/><path d="m490.158 301.371h-40.02c10.958 0 19.842 8.884 19.842 19.842v25.367c0 10.958-8.884 19.842-19.842 19.842h40.02c10.958 0 19.842-8.884 19.842-19.842v-25.367c0-10.958-8.884-19.842-19.842-19.842z" fill="url(#SVGID_19_)"/><path d="m284.822 208.63h-264.982c-10.957 0-19.84-8.883-19.84-19.84v-25.37c0-10.957 8.883-19.84 19.84-19.84h214.133c13.471 0 26.397 5.316 35.971 14.793l25.262 25.008c9.37 9.277 2.801 25.249-10.384 25.249z" fill="url(#SVGID_20_)"/><path d="m295.206 183.382-25.262-25.009c-9.573-9.477-22.5-14.793-35.971-14.793h-40.02c13.471 0 26.397 5.316 35.971 14.793l25.262 25.009c9.37 9.276 2.802 25.248-10.384 25.248h40.02c13.185 0 19.754-15.972 10.384-25.248z" fill="url(#SVGID_21_)"/><path d="m490.158 65.052h-92.117c-10.959 0-19.842-8.884-19.842-19.842v-25.368c-.001-10.958 8.883-19.842 19.842-19.842h92.117c10.958 0 19.842 8.884 19.842 19.842v25.368c0 10.958-8.884 19.842-19.842 19.842z" fill="url(#SVGID_22_)"/><path d="m490.158 208.631h-92.117c-10.959 0-19.842-8.884-19.842-19.842v-25.367c0-10.959 8.884-19.842 19.842-19.842h92.117c10.959 0 19.842 8.884 19.842 19.842v25.367c0 10.958-8.884 19.842-19.842 19.842z" fill="url(#SVGID_23_)"/><path d="m490.158 143.579h-40.02c10.958 0 19.842 8.884 19.842 19.842v25.367c0 10.958-8.884 19.842-19.842 19.842h40.02c10.958 0 19.842-8.884 19.842-19.842v-25.367c0-10.958-8.884-19.842-19.842-19.842z" fill="url(#SVGID_24_)"/><path d="m490.158 0h-40.02c10.958 0 19.842 8.884 19.842 19.842v25.368c0 10.958-8.884 19.842-19.842 19.842h40.02c10.958 0 19.842-8.884 19.842-19.842v-25.368c0-10.958-8.884-19.842-19.842-19.842z" fill="url(#SVGID_25_)"/><path d="m222.176 0h-40.02c10.958 0 19.842 8.884 19.842 19.842v25.368c0 10.958-8.884 19.842-19.842 19.842h40.02c10.958 0 19.842-8.884 19.842-19.842v-25.368c.001-10.958-8.883-19.842-19.842-19.842z" fill="url(#SVGID_26_)"/></g></svg>