<svg id="Capa_1" enable-background="new 0 0 510 510" height="512" viewBox="0 0 510 510" width="512" xmlns="http://www.w3.org/2000/svg" xmlns:xlink="http://www.w3.org/1999/xlink"><linearGradient id="lg1"><stop offset="0" stop-color="#cdbfba"/><stop offset="1" stop-color="#766e6e"/></linearGradient><linearGradient id="SVGID_1_" gradientUnits="userSpaceOnUse" x1="133.043" x2="440.554" xlink:href="#lg1" y1="411.108" y2="411.108"/><linearGradient id="SVGID_2_" gradientUnits="userSpaceOnUse" x1="20" x2="391.776" xlink:href="#lg1" y1="411.11" y2="411.11"/><linearGradient id="lg2"><stop offset="0" stop-color="#bbec6c"/><stop offset=".5857" stop-color="#78a91f"/><stop offset="1" stop-color="#02905d"/></linearGradient><linearGradient id="SVGID_3_" gradientUnits="userSpaceOnUse" x1="-23.932" x2="657.231" xlink:href="#lg2" y1="456.482" y2="456.482"/><linearGradient id="SVGID_4_" gradientUnits="userSpaceOnUse" x1="108.137" x2="494.454" xlink:href="#lg2" y1="456.482" y2="456.482"/><linearGradient id="SVGID_5_" gradientUnits="userSpaceOnUse" x1="26.042" x2="362.9" xlink:href="#lg1" y1="176.538" y2="176.538"/><linearGradient id="SVGID_6_" gradientUnits="userSpaceOnUse" x1="172" x2="474.662" xlink:href="#lg1" y1="184.204" y2="184.204"/><linearGradient id="SVGID_7_" gradientUnits="userSpaceOnUse" x1="98" x2="443.017" xlink:href="#lg1" y1="184.203" y2="184.203"/><linearGradient id="SVGID_8_" gradientUnits="userSpaceOnUse" x1="174" x2="371.124" xlink:href="#lg1" y1="106.979" y2="106.979"/><linearGradient id="SVGID_9_" gradientUnits="userSpaceOnUse" x1="153" x2="317.11" xlink:href="#lg1" y1="156.434" y2="156.434"/><linearGradient id="SVGID_10_" gradientUnits="userSpaceOnUse" x1="93.5" x2="357.512" xlink:href="#lg1" y1="49.456" y2="49.456"/><g><path d="m368.605 476.891h-227.21v-56.931c0-41.219 33.415-74.634 74.634-74.634h77.943c41.219 0 74.634 33.415 74.634 74.634v56.931z" fill="url(#SVGID_1_)"/><path d="m368.61 419.96v56.93h-40.02v-56.93c0-8.528-1.429-16.723-4.063-24.355-2.592-7.508-9.911-12.217-17.85-11.975-.666.02-1.335.03-2.007.03h-99.34c-16.41 0-31.23-6.11-42.48-16.06 13.54-13.75 32.36-22.27 53.18-22.27h77.94c20.82 0 39.64 8.52 53.18 22.27 13.28 13.46 21.46 31.96 21.46 52.36z" fill="url(#SVGID_2_)"/><g><path d="m476.968 510h-443.936c-34.545 0-45.867-46.475-15.131-62.243 52.865-27.12 139.363-44.793 237.099-44.793s184.233 17.673 237.099 44.793c30.736 15.768 19.414 62.243-15.131 62.243z" fill="url(#SVGID_3_)"/><path d="m492.099 447.757c-52.865-27.12-139.363-44.792-237.099-44.792-6.695 0-13.332.091-19.915.254 48.944 1.217 95.402 3.819 133.931 15.875 59.06 18.48 43.473 90.907-3.742 90.907h111.694c34.545-.001 45.867-46.476 15.131-62.244z" fill="url(#SVGID_4_)"/></g><g><path d="m158.542 255.503h192.916c15.065 0 26.637-13.344 24.505-28.258l-15.503-108.422c-1.743-12.194-12.187-21.25-24.505-21.25h-161.91c-12.318 0-22.761 9.056-24.505 21.25l-15.503 108.422c-2.132 14.913 9.44 28.258 24.505 28.258z" fill="url(#SVGID_5_)"/><path d="m304.671 358.646h-99.343c-39.07 0-69.081-34.607-63.551-73.284l34.349-240.223c2.903-20.3 20.289-35.377 40.796-35.377h76.156c20.506 0 37.893 15.077 40.796 35.377l34.349 240.223c5.529 38.677-24.481 73.284-63.552 73.284z" fill="url(#SVGID_6_)"/><path d="m368.22 285.363-22.94-160.44-3.58-25.01-7.83-54.77c-2.9-20.3-20.29-35.38-40.79-35.38h-76.16c-20.5 0-37.89 15.08-40.79 35.38l-7.83 54.77-3.58 25.01h117.36c13.301 0 24.579 9.78 26.461 22.947l14.543 101.711c-21.155-3.498-44.521-5.341-68.084-5.341-26.145 0-52.056 2.263-74.964 6.545-6.77 1.266-11.556 7.687-10.386 14.473 1.189 6.893 7.777 11.456 14.631 10.166 21.501-4.045 45.955-6.184 70.719-6.184 36.75 0 46.819 3.244 61.946 5.089 5.816.71 10.425 5.232 11.254 11.033 5.53 38.68-24.48 73.28-63.55 73.28h40.02c39.07.001 69.08-34.599 63.55-73.279z" fill="url(#SVGID_7_)"/><path d="m350.232 81.514-5.928-41.459c-3.286-22.984-22.972-40.055-46.19-40.055h-86.227c-23.218 0-42.904 17.071-46.19 40.056l-5.928 41.459c-1.325 9.267 5.937 17.418 15.298 17.397h.188 53.196l-13.845 96.827c-1.375 9.615 6.086 18.219 15.799 18.219h49.192c9.713 0 17.174-8.603 15.799-18.219l-13.846-96.828h53.196.188c9.361.021 16.623-8.129 15.298-17.397z" fill="url(#SVGID_8_)"/><path d="m295.395 195.738-13.845-96.827h-5.985c-10.041 0-17.754 8.894-16.333 18.835l11.152 77.992c1.375 9.615-6.086 18.219-15.799 18.219h25.011c9.713 0 17.174-8.603 15.799-18.219z" fill="url(#SVGID_9_)"/><path d="m350.232 81.514-5.928-41.459c-3.286-22.984-22.972-40.055-46.19-40.055h-40.02c23.218 0 42.904 17.071 46.191 40.056l5.928 41.459c1.325 9.266-5.935 17.415-15.294 17.397h39.828.188c9.36.02 16.622-8.13 15.297-17.398z" fill="url(#SVGID_10_)"/></g></g></svg>