<svg id="Capa_1" enable-background="new 0 0 510 510" height="512" viewBox="0 0 510 510" width="512" xmlns="http://www.w3.org/2000/svg" xmlns:xlink="http://www.w3.org/1999/xlink"><linearGradient id="SVGID_1_" gradientUnits="userSpaceOnUse" x1="104.491" x2="379.214" y1="234.808" y2="234.808"><stop offset="0" stop-color="#cdbfba"/><stop offset="1" stop-color="#766e6e"/></linearGradient><linearGradient id="lg1"><stop offset="0" stop-color="#9e9797"/><stop offset="1" stop-color="#5b5555"/></linearGradient><linearGradient id="SVGID_2_" gradientUnits="userSpaceOnUse" x1="168" x2="445.13" xlink:href="#lg1" y1="249.695" y2="249.695"/><linearGradient id="SVGID_3_" gradientUnits="userSpaceOnUse" x1="168" x2="445.13" xlink:href="#lg1" y1="418.117" y2="418.117"/><linearGradient id="SVGID_4_" gradientUnits="userSpaceOnUse" x1="168" x2="445.13" xlink:href="#lg1" y1="234.81" y2="234.81"/><linearGradient id="lg2"><stop offset="0" stop-color="#f3eae6"/><stop offset="1" stop-color="#cdbfba"/></linearGradient><linearGradient id="SVGID_5_" gradientTransform="matrix(1 0 0 -1 0 404.133)" gradientUnits="userSpaceOnUse" x1="230.916" x2="274.876" xlink:href="#lg2" y1="369.927" y2="369.927"/><linearGradient id="lg3"><stop offset="0" stop-color="#faf7f7"/><stop offset=".4551" stop-color="#f3eae6"/><stop offset="1" stop-color="#efe2dd"/></linearGradient><linearGradient id="SVGID_6_" gradientUnits="userSpaceOnUse" x1="201.971" x2="325.204" xlink:href="#lg3" y1="55.412" y2="55.412"/><linearGradient id="SVGID_7_" gradientUnits="userSpaceOnUse" x1="221.84" x2="299.877" xlink:href="#lg2" y1="55.412" y2="55.412"/><linearGradient id="SVGID_8_" gradientUnits="userSpaceOnUse" x1="170.726" x2="366.569" xlink:href="#lg3" y1="182.051" y2="182.051"/><linearGradient id="SVGID_9_" gradientUnits="userSpaceOnUse" x1="248.591" x2="326.627" xlink:href="#lg2" y1="182.051" y2="182.051"/><linearGradient id="SVGID_10_" gradientUnits="userSpaceOnUse" x1="162" x2="404.18" xlink:href="#lg3" y1="316.196" y2="316.196"/><linearGradient id="SVGID_11_" gradientUnits="userSpaceOnUse" x1="293.333" x2="409.764" xlink:href="#lg2" y1="316.196" y2="316.196"/><linearGradient id="SVGID_12_" gradientUnits="userSpaceOnUse" x1="91.538" x2="211.377" xlink:href="#lg3" y1="488.42" y2="488.42"/><linearGradient id="SVGID_13_" gradientUnits="userSpaceOnUse" x1="76.41" x2="201.979" xlink:href="#lg2" y1="488.42" y2="488.42"/><linearGradient id="SVGID_14_" gradientUnits="userSpaceOnUse" x1="364.538" x2="484.377" xlink:href="#lg3" y1="488.42" y2="488.42"/><linearGradient id="SVGID_15_" gradientUnits="userSpaceOnUse" x1="349.41" x2="474.979" xlink:href="#lg2" y1="488.42" y2="488.42"/><g><path d="m433.108 469.615c-110.584-117.225-156.933-399.907-165.548-458.766-.912-6.232-6.262-10.849-12.56-10.849s-11.648 4.616-12.56 10.848c-8.615 58.86-54.964 341.541-165.548 458.767h89.798c-.596-3.89-.943-7.863-1.02-11.902-.95-49.354 38.881-90.503 88.24-91.092 49.845-.595 90.438 39.633 90.438 89.341 0 4.642-.355 9.201-1.037 13.652h89.797zm-209.406-165.013c17.408-42.482 25.504-95.344 27.435-109.363.281-2.037 1.926-3.546 3.863-3.546s3.583 1.509 3.863 3.546c1.931 14.02 10.027 66.881 27.435 109.363z" fill="url(#SVGID_1_)"/><g><path d="m217.807 241.101c-4.423 19.866-10.673 42.904-19.117 63.499h25.01c11.71-28.56 19.2-61.82 23.45-84.8 2.07-11.2 3.36-19.97 3.99-24.56.02-.15.05-.3.09-.45h-46.82c-2.2 8.25-4.5 16.6-6.92 25.01h3.207c11.203 0 19.544 10.366 17.11 21.301z" fill="url(#SVGID_2_)"/><path d="m140.66 457.71c.08 4.04.42 8.01 1.02 11.91h25.01c-.6-3.9-.94-7.87-1.02-11.91-.88-45.49 32.9-84.01 76.85-90.22-4.44-.63-8.99-.92-13.62-.87-49.36.59-89.19 41.74-88.24 91.09z" fill="url(#SVGID_3_)"/><path d="m363.86 361.22c-3.82-8.19-7.5-16.54-11.05-25.01-15.82-37.67-29.18-77.65-40.3-116.41-2.42-8.41-4.72-16.76-6.92-25.01-9.84-36.82-17.65-71.77-23.63-101.63-1.76-8.81-3.37-17.17-4.82-25.01-4.717-25.434-7.83-45.342-9.523-56.912-.891-6.088-5.863-10.935-12.009-11.224-6.561-.308-12.229 4.406-13.168 10.836-1.42 9.7-12.64 73.5-14.4 82.31 8.066 0 15.023 5.653 16.669 13.549 5.561 26.672 12.474 56.697 20.861 88.081h-6.8c.04.15.07.3.09.45.63 4.59 1.92 13.36 3.99 24.56 5.69 0 10.706 3.739 12.314 9.197 10.569 35.859 23.054 72.516 37.626 107.213h-155.6c-3.55 8.47-7.23 16.82-11.05 25.01h116.206c35.981 0 69.254 19 87.655 49.92 13.13 22.063 27.468 41.924 43.089 58.48h40.02c-26.71-28.31-49.67-66.28-69.25-108.4z" fill="url(#SVGID_4_)"/></g><path d="m261.136 18h-12.273c-8.776 0-16.383 6.074-18.326 14.632l-4.037 17.78h57l-4.037-17.781c-1.943-8.557-9.551-14.631-18.327-14.631z" fill="url(#SVGID_5_)"/><g><path d="m300.401 55.412c0-7.035-5.704-12.739-12.739-12.739h-65.324c-7.036 0-12.739 5.704-12.739 12.739s5.704 12.739 12.739 12.739h65.324c7.036 0 12.739-5.703 12.739-12.739z" fill="url(#SVGID_6_)"/><path d="m287.662 42.673h-25.009c7.035.001 12.737 5.704 12.737 12.738 0 7.036-5.703 12.739-12.739 12.739h25.011c7.036 0 12.739-5.704 12.739-12.739 0-7.035-5.704-12.738-12.739-12.738z" fill="url(#SVGID_7_)"/></g><g><path d="m327.151 182.051c0-7.035-5.704-12.739-12.739-12.739h-118.825c-7.036 0-12.739 5.704-12.739 12.739s5.704 12.739 12.739 12.739h118.825c7.036 0 12.74-5.704 12.739-12.739z" fill="url(#SVGID_8_)"/><path d="m314.412 169.312h-25.009c7.035.001 12.737 5.704 12.737 12.738 0 7.036-5.703 12.74-12.739 12.74h25.011c7.036 0 12.739-5.704 12.739-12.74 0-7.035-5.703-12.738-12.739-12.738z" fill="url(#SVGID_9_)"/></g><g><path d="m398.73 316.196c0-11.051-8.959-20.01-20.01-20.01h-247.44c-11.051 0-20.01 8.959-20.01 20.01 0 11.051 8.959 20.01 20.01 20.01h247.44c11.051 0 20.01-8.959 20.01-20.01z" fill="url(#SVGID_10_)"/><path d="m378.72 296.186h-40.02c11.051 0 20.01 8.959 20.01 20.01s-8.959 20.01-20.01 20.01h40.02c11.051 0 20.01-8.959 20.01-20.01s-8.959-20.01-20.01-20.01z" fill="url(#SVGID_11_)"/></g><g><g><path d="m190.079 488.419c0-11.919-9.662-21.581-21.581-21.581h-99.997c-11.919 0-21.581 9.662-21.581 21.581 0 11.919 9.662 21.581 21.581 21.581h99.997c11.919 0 21.581-9.662 21.581-21.581z" fill="url(#SVGID_12_)"/><path d="m168.499 466.839h-43.161c11.919 0 21.581 9.662 21.581 21.581s-9.663 21.58-21.581 21.58h43.161c11.919 0 21.581-9.662 21.581-21.581s-9.663-21.58-21.581-21.58z" fill="url(#SVGID_13_)"/></g><g><path d="m463.079 488.419c0-11.919-9.662-21.581-21.581-21.581h-99.997c-11.919 0-21.581 9.662-21.581 21.581 0 11.919 9.662 21.581 21.581 21.581h99.997c11.919 0 21.581-9.662 21.581-21.581z" fill="url(#SVGID_14_)"/><path d="m441.499 466.839h-43.161c11.919 0 21.581 9.662 21.581 21.581s-9.663 21.58-21.581 21.58h43.161c11.919 0 21.581-9.662 21.581-21.581s-9.663-21.58-21.581-21.58z" fill="url(#SVGID_15_)"/></g></g></g></svg>