<svg id="Capa_1" enable-background="new 0 0 510 510" height="512" viewBox="0 0 510 510" width="512" xmlns="http://www.w3.org/2000/svg" xmlns:xlink="http://www.w3.org/1999/xlink"><linearGradient id="lg1"><stop offset="0" stop-color="#fe646f"/><stop offset=".593" stop-color="#fb2b3a"/><stop offset="1" stop-color="#c41926"/></linearGradient><linearGradient id="SVGID_1_" gradientUnits="userSpaceOnUse" x1="47.499" x2="575.394" xlink:href="#lg1" y1="392.74" y2="392.74"/><linearGradient id="SVGID_2_" gradientUnits="userSpaceOnUse" x1="-174" x2="436.21" xlink:href="#lg1" y1="392.74" y2="392.74"/><linearGradient id="SVGID_3_" gradientUnits="userSpaceOnUse" x1="51" x2="574.138" xlink:href="#lg1" y1="265.866" y2="265.866"/><linearGradient id="SVGID_4_" gradientUnits="userSpaceOnUse" x1="-166" x2="392.001" xlink:href="#lg1" y1="265.87" y2="265.87"/><linearGradient id="lg2"><stop offset="0" stop-color="#537983"/><stop offset=".593" stop-color="#554e56"/><stop offset="1" stop-color="#433f43"/></linearGradient><linearGradient id="SVGID_5_" gradientUnits="userSpaceOnUse" x1="83.333" x2="480.081" xlink:href="#lg2" y1="281.312" y2="281.312"/><linearGradient id="SVGID_10_" gradientUnits="userSpaceOnUse" x1="206" x2="368.777" xlink:href="#lg2" y1="281.312" y2="281.312"/><linearGradient id="SVGID_11_" gradientTransform="matrix(1 0 0 -.884 0 2598.693)" gradientUnits="userSpaceOnUse" x1="128.489" x2="450.34" y1="2780.747" y2="2780.747"><stop offset="0" stop-color="#bbec6c"/><stop offset=".5857" stop-color="#78a91f"/><stop offset="1" stop-color="#02905d"/></linearGradient><linearGradient id="SVGID_12_" gradientUnits="userSpaceOnUse" x1="112" x2="429.355" xlink:href="#lg2" y1="409.601" y2="409.601"/><linearGradient id="SVGID_13_" gradientUnits="userSpaceOnUse" x1="112" x2="429.355" xlink:href="#lg2" y1="426.13" y2="426.13"/><linearGradient id="SVGID_15_" gradientUnits="userSpaceOnUse" x1="96.5" x2="288.511" xlink:href="#lg2" y1="367.245" y2="367.245"/><linearGradient id="lg3"><stop offset="0" stop-color="#f3eae6"/><stop offset="1" stop-color="#cdbfba"/></linearGradient><linearGradient id="SVGID_16_" gradientUnits="userSpaceOnUse" x1="25.049" x2="529.294" xlink:href="#lg3" y1="477.474" y2="477.474"/><linearGradient id="SVGID_17_" gradientUnits="userSpaceOnUse" x1="410.53" x2="601.168" y1="477.474" y2="477.474"><stop offset="0" stop-color="#cdbfba"/><stop offset="1" stop-color="#766e6e"/></linearGradient><linearGradient id="SVGID_18_" gradientUnits="userSpaceOnUse" x1="90.003" x2="705.792" y1="315.676" y2="315.676"><stop offset="0" stop-color="#faf7f7"/><stop offset=".4551" stop-color="#f3eae6"/><stop offset="1" stop-color="#efe2dd"/></linearGradient><linearGradient id="SVGID_19_" gradientUnits="userSpaceOnUse" x1="330.794" x2="525.453" xlink:href="#lg3" y1="315.676" y2="315.676"/><linearGradient id="SVGID_20_" gradientUnits="userSpaceOnUse" x1="1.336" x2="555.571" xlink:href="#lg2" y1="195.494" y2="195.494"/><linearGradient id="lg4"><stop offset="0" stop-color="#fef056"/><stop offset=".5213" stop-color="#fbc56d"/><stop offset="1" stop-color="#c86d36"/></linearGradient><linearGradient id="SVGID_21_" gradientUnits="userSpaceOnUse" x1="-92.858" x2="685.345" xlink:href="#lg4" y1="20.29" y2="20.29"/><linearGradient id="SVGID_22_" gradientUnits="userSpaceOnUse" x1="28.912" x2="522.895" xlink:href="#lg2" y1="84.152" y2="84.152"/><linearGradient id="SVGID_23_" gradientUnits="userSpaceOnUse" x1="156.908" x2="424.434" xlink:href="#lg4" y1="337.515" y2="337.515"/><linearGradient id="SVGID_24_" gradientUnits="userSpaceOnUse" x1="-77.333" x2="421.57" xlink:href="#lg2" y1="84.151" y2="84.151"/><linearGradient id="SVGID_25_" gradientUnits="userSpaceOnUse" x1="-40.868" x2="415.119" xlink:href="#lg2" y1="195.494" y2="195.494"/><g><path d="m13.391 315.676h483.218v154.128h-483.218z" fill="url(#SVGID_1_)"/><path d="m13.39 315.68v40.18h139.049v20.475c0 4.836 3.921 8.757 8.757 8.757h139.734c4.836 0 8.757-3.921 8.757-8.757v-20.475h121.185c14.204 0 25.719 11.515 25.719 25.719v88.221h40.02v-154.12z" fill="url(#SVGID_2_)"/><path d="m48.648 216.057h412.704v99.62h-412.704z" fill="url(#SVGID_3_)"/><path d="m461.35 216.06v99.62h-40.02v-24.585c0-19.482-15.793-35.275-35.275-35.275h-337.405v-39.76z" fill="url(#SVGID_4_)"/><g><g fill="url(#SVGID_5_)"><path d="m105.275 246.948c-13.384 0-24.235 10.85-24.235 24.235v44.494h48.469v-44.494c.001-13.385-10.849-24.235-24.234-24.235z"/><path d="m180.138 246.948c-13.385 0-24.235 10.85-24.235 24.235v44.494h48.469v-44.494c0-13.385-10.85-24.235-24.234-24.235z"/><path d="m255 246.948c-13.384 0-24.235 10.85-24.235 24.235v44.494h48.469v-44.494c.001-13.385-10.85-24.235-24.234-24.235z"/><path d="m329.862 246.948c-13.384 0-24.235 10.85-24.235 24.235v44.494h48.469v-44.494c.001-13.385-10.849-24.235-24.234-24.235z"/><path d="m404.725 246.948c-13.385 0-24.235 10.85-24.235 24.235v44.494h48.469v-44.494c0-13.385-10.85-24.235-24.234-24.235z"/></g><path d="m404.725 246.948c-7.553 0-14.298 3.456-18.742 8.872h.073c19.482 0 35.274 15.793 35.274 35.274v24.582h7.629v-44.494c0-13.384-10.85-24.234-24.234-24.234z" fill="url(#SVGID_10_)"/></g><path d="m107.694 106.374h294.612v70.766h-294.612z" fill="url(#SVGID_11_)"/><g><path d="m255 349.398c-23.449 0-42.457 19.009-42.457 42.457v77.95h84.915v-77.95c-.001-23.449-19.009-42.457-42.458-42.457z" fill="url(#SVGID_12_)"/><g fill="url(#SVGID_13_)"><path d="m148.031 382.456c-17.011 0-30.8 13.79-30.8 30.8v56.548h61.601v-56.548c-.001-17.01-13.79-30.8-30.801-30.8z"/><path d="m361.969 382.456c-17.011 0-30.8 13.79-30.8 30.8v56.548h61.601v-56.548c-.001-17.01-13.79-30.8-30.801-30.8z"/></g></g><path d="m213.085 385.092h83.83c-3.24-20.233-20.769-35.694-41.915-35.694-21.146 0-38.675 15.461-41.915 35.694z" fill="url(#SVGID_15_)"/><g><path d="m490.158 510h-470.316c-10.958 0-19.842-8.884-19.842-19.842v-25.368c0-10.959 8.884-19.842 19.842-19.842h470.315c10.959 0 19.842 8.884 19.842 19.842v25.367c.001 10.959-8.883 19.843-19.841 19.843z" fill="url(#SVGID_16_)"/><path d="m490.158 444.948h-40.02c10.958 0 19.842 8.884 19.842 19.842v25.367c0 10.958-8.884 19.842-19.842 19.842h40.02c10.958 0 19.842-8.884 19.842-19.842v-25.367c0-10.958-8.884-19.842-19.842-19.842z" fill="url(#SVGID_17_)"/></g><g><path d="m510 315.676c0-7.675-6.222-13.897-13.897-13.897h-482.206c-7.675 0-13.897 6.222-13.897 13.897 0 7.675 6.222 13.897 13.897 13.897h482.206c7.675 0 13.897-6.222 13.897-13.897z" fill="url(#SVGID_18_)"/><path d="m496.103 301.779h-27.794c7.675 0 13.897 6.222 13.897 13.897s-6.222 13.897-13.897 13.897h27.794c7.675 0 13.897-6.222 13.897-13.897s-6.222-13.897-13.897-13.897z" fill="url(#SVGID_19_)"/></g><path d="m503.211 214.281c-35.404-12.119-68.008-11.611-86.854-40.886-4.948-7.685-13.332-12.467-22.473-12.467h-277.768c-9.14 0-17.525 4.782-22.473 12.467-18.846 29.276-51.451 28.768-86.854 40.886-8.646 2.96-6.46 15.779 2.679 15.779h491.063c9.14 0 11.326-12.819 2.68-15.779z" fill="url(#SVGID_20_)"/><path d="m385.127.003c-4.105.123-7.269 3.704-7.269 7.811 0 5.631-4.565 10.196-10.196 10.196h-225.324c-5.631 0-10.196-4.565-10.196-10.196 0-4.107-3.165-7.688-7.269-7.811-4.247-.127-7.731 3.278-7.731 7.497v25.58c0 4.142 3.358 7.5 7.499 7.5h260.716c4.142 0 7.5-3.358 7.5-7.5v-25.58c.001-4.219-3.482-7.624-7.73-7.497z" fill="url(#SVGID_21_)"/><path d="m476.249 120.619c-32.142-10.978-61.622-44.724-77.62-78.766-2.269-4.828-7.08-7.945-12.414-7.945h-262.43c-5.334 0-10.145 3.117-12.414 7.945-15.997 34.042-45.477 67.788-77.62 78.766-7.593 2.593-5.797 13.777 2.227 13.777h438.044c8.024 0 9.82-11.184 2.227-13.777z" fill="url(#SVGID_22_)"/><path d="m324.867 361.154h-139.734c-4.836 0-8.757-3.921-8.757-8.757v-29.765c0-4.836 3.921-8.757 8.757-8.757h139.734c4.836 0 8.757 3.921 8.757 8.757v29.765c0 4.837-3.921 8.757-8.757 8.757z" fill="url(#SVGID_23_)"/><path d="m476.249 120.619c-32.142-10.978-61.622-44.724-77.62-78.766-2.269-4.828-7.08-7.945-12.414-7.945h-40.02c5.334 0 10.145 3.117 12.414 7.945 6.065 12.907 14.072 25.769 23.424 37.366-.972-.2-1.969-.309-2.982-.309-9.435 0-15.147 10.513-9.927 18.374 2.978 4.484 6.086 8.553 9.289 12.101h-32.283c-13.739 0-26.349-8.002-31.813-20.608-.343-.79-.678-1.589-1.005-2.397-1.82-4.486-6.115-7.47-10.956-7.47h-.514c-10.482 0-17.79 10.555-13.933 20.301 1.476 3.728 3.136 7.141 4.978 10.174h-75.783c2.588-4.259 4.82-9.267 6.685-14.84 2.572-7.684-3.15-15.634-11.253-15.634h-2.784c-6.017 0-11.415 3.627-13.769 9.165-.1.236-.201.471-.303.705-5.464 12.604-18.074 20.604-31.811 20.604h-32.284c3.203-3.548 6.312-7.617 9.289-12.101 5.219-7.86-.492-18.374-9.927-18.374-4.917 0-9.509 2.431-12.301 6.479-2.807 4.07-5.746 7.938-8.792 11.545-6.649 7.874-16.403 12.451-26.709 12.451h-3.359c-6.907 0-12.505 5.599-12.505 12.505 0 6.907 5.599 12.505 12.505 12.505h394.236c8.024.001 9.82-11.183 2.227-13.776z" fill="url(#SVGID_24_)"/><path d="m503.211 214.281c-35.404-12.119-68.008-11.611-86.854-40.886-4.948-7.685-13.332-12.467-22.473-12.467h-40.02c9.14 0 17.525 4.782 22.473 12.467 12.751 19.807 31.804 25.98 53.757 31.655h-83.957c-13.741 0-26.353-8.003-31.818-20.611-.343-.79-.678-1.59-1.005-2.397-1.82-4.486-6.116-7.471-10.958-7.471h-.294c-10.587 0-17.993 10.669-14.071 20.503 1.456 3.651 3.091 6.997 4.901 9.976h-75.789c2.589-4.26 4.822-9.269 6.688-14.844 2.572-7.684-3.15-15.635-11.252-15.635h-2.784c-6.017 0-11.415 3.627-13.769 9.164-.101.236-.202.472-.304.707-5.465 12.606-18.077 20.607-31.816 20.607h-32.283c3.205-3.549 6.314-7.619 9.293-12.105 5.219-7.86-.492-18.374-9.927-18.374-4.917 0-9.509 2.431-12.301 6.479-2.808 4.071-5.748 7.94-8.795 11.548-6.65 7.875-16.406 12.452-26.713 12.452h-13.968c-6.907 0-12.505 5.599-12.505 12.505 0 6.907 5.599 12.505 12.505 12.505h391.339 20.576 19.444c9.14.001 11.326-12.818 2.68-15.778z" fill="url(#SVGID_25_)"/></g></svg>