<svg id="Capa_1" enable-background="new 0 0 510 510" height="512" viewBox="0 0 510 510" width="512" xmlns="http://www.w3.org/2000/svg" xmlns:xlink="http://www.w3.org/1999/xlink"><linearGradient id="lg1"><stop offset="0" stop-color="#fe646f"/><stop offset=".593" stop-color="#fb2b3a"/><stop offset="1" stop-color="#c41926"/></linearGradient><linearGradient id="SVGID_1_" gradientUnits="userSpaceOnUse" x1="159.915" x2="405.134" xlink:href="#lg1" y1="103.971" y2="103.971"/><linearGradient id="SVGID_3_" gradientUnits="userSpaceOnUse" x1="99.098" x2="360.085" xlink:href="#lg1" y1="103.971" y2="103.971"/><linearGradient id="SVGID_4_" gradientUnits="userSpaceOnUse" x1="46.601" x2="565.887" y1="320.753" y2="320.753"><stop offset="0" stop-color="#faf7f7"/><stop offset=".4551" stop-color="#f3eae6"/><stop offset="1" stop-color="#efe2dd"/></linearGradient><linearGradient id="SVGID_5_" gradientUnits="userSpaceOnUse" x1="236" x2="377.174" y1="314.196" y2="314.196"><stop offset="0" stop-color="#f3eae6"/><stop offset="1" stop-color="#cdbfba"/></linearGradient><linearGradient id="lg2"><stop offset="0" stop-color="#01d0fb"/><stop offset=".6075" stop-color="#26a6fe"/><stop offset="1" stop-color="#0182fc"/></linearGradient><linearGradient id="SVGID_6_" gradientUnits="userSpaceOnUse" x1="9.103" x2="514.313" xlink:href="#lg2" y1="374.28" y2="374.28"/><linearGradient id="SVGID_7_" gradientUnits="userSpaceOnUse" x1="-10.667" x2="260.483" xlink:href="#lg2" y1="438.862" y2="438.862"/><linearGradient id="lg3"><stop offset="0" stop-color="#01bffa"/><stop offset="1" stop-color="#5b5cff"/></linearGradient><linearGradient id="SVGID_8_" gradientUnits="userSpaceOnUse" x1="184.594" x2="558.313" xlink:href="#lg3" y1="367.723" y2="367.723"/><linearGradient id="SVGID_9_" gradientUnits="userSpaceOnUse" x1="184.594" x2="558.313" xlink:href="#lg3" y1="413.868" y2="413.868"/><g><circle cx="255" cy="103.971" fill="url(#SVGID_1_)" r="103.971"/><circle cx="255" cy="103.971" fill="url(#SVGID_1_)" r="103.971"/><path d="m255 0c-6.846 0-13.534.669-20.01 1.931 47.846 9.329 83.961 51.464 83.961 102.04s-36.115 92.711-83.961 102.04c6.476 1.263 13.164 1.931 20.01 1.931 57.422 0 103.971-46.55 103.971-103.971s-46.549-103.971-103.971-103.971z" fill="url(#SVGID_3_)"/><path d="m277.868 132.138c-15.03 3.619-30.705 3.619-45.735 0-12.849-3.094-25.56 5.506-27.506 18.579-7.437 49.942-40.327 165.766-185.465 254.383-11.895 7.262-19.162 20.187-19.162 34.124v59.623c0 6.159 4.994 11.153 11.154 11.153h487.693c6.16 0 11.154-4.994 11.154-11.154v-59.623c0-13.936-7.267-26.861-19.162-34.124-145.138-88.617-178.027-204.441-185.465-254.383-1.947-13.071-14.657-21.671-27.506-18.578z" fill="url(#SVGID_4_)"/><path d="m490.838 405.1c-145.138-88.617-178.027-204.441-185.465-254.383-1.947-13.072-14.657-21.672-27.506-18.578-10.59 2.549-21.498 3.294-32.277 2.251 8.727 4.134 15.354 12.403 16.9 22.785 9.932 66.696 53.841 221.327 247.51 339.711v-57.662c0-13.937-7.267-26.862-19.162-34.124z" fill="url(#SVGID_5_)"/><path d="m510 439.22v59.63c0 6.16-4.99 11.15-11.15 11.15h-487.7c-6.16 0-11.15-4.99-11.15-11.15v-59.63c0-13.93 7.27-26.86 19.16-34.12 49.09-29.98 85.35-63.06 112.11-95.66 18.02-21.94 31.74-43.66 42.18-64.06 6.9-4.55 14.86-6.82 22.82-6.82 10.63 0 21.25 4.05 29.36 12.16 8.11 8.1 18.74 12.16 29.37 12.16s21.26-4.06 29.37-12.16c8.11-8.11 18.73-12.16 29.36-12.16 7.96 0 15.92 2.27 22.82 6.82 10.44 20.4 24.16 42.12 42.18 64.06 26.76 32.6 63.02 65.68 112.11 95.66 11.89 7.26 19.16 20.19 19.16 34.12z" fill="url(#SVGID_6_)"/><path d="m170.474 402.246c-8.467 12.283-17.561 24.551-27.327 36.738-4.172 5.206-12.256-.215-9.01-6.044 10.007-17.973 20.567-37.324 26.872-50.208 5.632-11.51-10.506-20.984-17.779-10.434-32.27 46.817-71.646 93.473-119.69 137.702h127.489c-13.071-13.071-8.607-24.239-3.622-32.292 13.447-21.802 25.748-44.342 37.001-67.341 4.409-9.011-8.24-16.381-13.934-8.121z" fill="url(#SVGID_7_)"/><g><path d="m490.84 405.1c-49.09-29.98-85.35-63.06-112.11-95.66-18.02-21.94-31.74-43.66-42.18-64.06-6.9-4.55-14.86-6.82-22.82-6.82-9.232 0-18.454 3.059-26.033 9.175 30.167 74.473 92.696 169.926 222.303 249.151v-57.666c0-13.93-7.27-26.86-19.16-34.12z" fill="url(#SVGID_8_)"/><path d="m293.545 320.336c-3.099-5.486-11.402-1.459-8.998 4.365 20.745 50.261 45.149 99.589 73.864 146.146 6.044 9.764 10.891 23.345 14.258 39.153h71.331c-65.804-60.579-114.468-125.955-150.455-189.664z" fill="url(#SVGID_9_)"/></g></g></svg>