<svg id="Capa_1" enable-background="new 0 0 510 510" height="512" viewBox="0 0 510 510" width="512" xmlns="http://www.w3.org/2000/svg" xmlns:xlink="http://www.w3.org/1999/xlink"><linearGradient id="lg1"><stop offset="0" stop-color="#faf7f7"/><stop offset=".4551" stop-color="#f3eae6"/><stop offset="1" stop-color="#efe2dd"/></linearGradient><linearGradient id="SVGID_1_" gradientUnits="userSpaceOnUse" x1="73" x2="189.349" xlink:href="#lg1" y1="440.001" y2="440.001"/><linearGradient id="SVGID_2_" gradientUnits="userSpaceOnUse" x1="204.667" x2="309.342" xlink:href="#lg1" y1="419.01" y2="419.01"/><linearGradient id="SVGID_3_" gradientUnits="userSpaceOnUse" x1="278.667" x2="341.365" xlink:href="#lg1" y1="440.001" y2="440.001"/><linearGradient id="SVGID_4_" gradientUnits="userSpaceOnUse" x1="272" x2="417.012" xlink:href="#lg1" y1="384.045" y2="384.045"/><linearGradient id="lg2"><stop offset="0" stop-color="#f3eae6"/><stop offset="1" stop-color="#cdbfba"/></linearGradient><linearGradient id="SVGID_5_" gradientUnits="userSpaceOnUse" x1="7.35" x2="502.65" xlink:href="#lg2" y1="243.01" y2="243.01"/><linearGradient id="SVGID_6_" gradientUnits="userSpaceOnUse" x1="323" x2="787.431" y1="243.01" y2="243.01"><stop offset="0" stop-color="#cdbfba"/><stop offset="1" stop-color="#766e6e"/></linearGradient><linearGradient id="SVGID_7_" gradientUnits="userSpaceOnUse" x1="-74" x2="234.016" xlink:href="#lg2" y1="279.025" y2="279.025"/><linearGradient id="lg3"><stop offset="0" stop-color="#bbec6c"/><stop offset=".5857" stop-color="#78a91f"/><stop offset="1" stop-color="#02905d"/></linearGradient><linearGradient id="SVGID_8_" gradientUnits="userSpaceOnUse" x1="-23.932" x2="657.231" xlink:href="#lg3" y1="478.001" y2="478.001"/><linearGradient id="SVGID_9_" gradientUnits="userSpaceOnUse" x1="108" x2="494.448" xlink:href="#lg3" y1="478.001" y2="478.001"/><g><g><path d="m198.705 478.001h-76v-68.07c0-4.379 3.55-7.93 7.93-7.93h60.141c4.379 0 7.93 3.55 7.93 7.93v68.07z" fill="url(#SVGID_1_)"/><path d="m259.488 478.001h-76v-110.052c0-4.379 3.55-7.93 7.93-7.93h60.141c4.379 0 7.93 3.55 7.93 7.93v110.052z" fill="url(#SVGID_2_)"/><path d="m387.295 478.001h-76v-68.07c0-4.379 3.55-7.93 7.93-7.93h60.141c4.379 0 7.93 3.55 7.93 7.93v68.07z" fill="url(#SVGID_3_)"/><path d="m322.982 478.001h-76v-179.982c0-4.379 3.55-7.93 7.93-7.93h60.141c4.379 0 7.93 3.55 7.93 7.93v179.982z" fill="url(#SVGID_4_)"/></g><path d="m502.65 486.02h-115.43c-33.99-276.28-87.32-413.99-132.22-413.99s-98.23 137.71-132.22 413.99h-115.43c63.65-324.35 163.55-486.02 247.65-486.02s184 161.67 247.65 486.02z" fill="url(#SVGID_5_)"/><path d="m255 0c-6.582 0-13.26.991-20.01 2.971 79.504 23.33 168.971 184.082 227.64 483.049h40.02c-63.65-324.35-163.55-486.02-247.65-486.02z" fill="url(#SVGID_6_)"/><path d="m214.98 72.03c-44.9 0-98.23 137.71-132.22 413.99h40.02c29.054-236.159 72.238-371.05 112.21-405.254-6.791-5.811-13.49-8.736-20.01-8.736z" fill="url(#SVGID_7_)"/><g><path d="m491.634 510h-473.268c-20.968 0-25.527-29.406-5.574-35.852 52.566-16.985 141.432-28.147 242.208-28.147s189.642 11.162 242.208 28.146c19.953 6.447 15.395 35.853-5.574 35.853z" fill="url(#SVGID_8_)"/><path d="m497.208 474.147c-52.566-16.984-141.432-28.146-242.208-28.146-6.727 0-13.395.053-20.008.151 49.114.727 94.905 4.105 134.395 9.493 33.668 4.593 30.226 54.355-3.754 54.355h126.002c20.968 0 25.526-29.406 5.573-35.853z" fill="url(#SVGID_9_)"/></g></g></svg>