<svg id="Capa_1" enable-background="new 0 0 510 510" height="512" viewBox="0 0 510 510" width="512" xmlns="http://www.w3.org/2000/svg" xmlns:xlink="http://www.w3.org/1999/xlink"><linearGradient id="SVGID_1_" gradientUnits="userSpaceOnUse" x1="156" x2="403.588" y1="240.587" y2="240.587"><stop offset="0" stop-color="#01d0fb"/><stop offset=".6075" stop-color="#26a6fe"/><stop offset="1" stop-color="#0182fc"/></linearGradient><linearGradient id="SVGID_2_" gradientUnits="userSpaceOnUse" x1="158.41" x2="402.908" y1="240.587" y2="240.587"><stop offset="0" stop-color="#01bffa"/><stop offset="1" stop-color="#5b5cff"/></linearGradient><linearGradient id="lg1"><stop offset="0" stop-color="#537983"/><stop offset=".593" stop-color="#554e56"/><stop offset="1" stop-color="#433f43"/></linearGradient><linearGradient id="SVGID_3_" gradientUnits="userSpaceOnUse" x1="166" x2="376.466" xlink:href="#lg1" y1="143.69" y2="143.69"/><linearGradient id="SVGID_4_" gradientUnits="userSpaceOnUse" x1="166" x2="376.466" xlink:href="#lg1" y1="258.645" y2="258.645"/><linearGradient id="SVGID_5_" gradientUnits="userSpaceOnUse" x1="166" x2="376.466" xlink:href="#lg1" y1="380.025" y2="380.025"/><linearGradient id="lg2"><stop offset="0" stop-color="#cdbfba"/><stop offset="1" stop-color="#766e6e"/></linearGradient><linearGradient id="SVGID_6_" gradientUnits="userSpaceOnUse" x1="201.213" x2="287.418" xlink:href="#lg2" y1="50.831" y2="50.831"/><linearGradient id="SVGID_7_" gradientUnits="userSpaceOnUse" x1="108" x2="317.289" xlink:href="#lg1" y1="187.76" y2="187.76"/><linearGradient id="SVGID_8_" gradientUnits="userSpaceOnUse" x1="108" x2="317.289" xlink:href="#lg1" y1="330.872" y2="330.872"/><linearGradient id="SVGID_9_" gradientUnits="userSpaceOnUse" x1="108" x2="317.289" xlink:href="#lg1" y1="453.106" y2="453.106"/><linearGradient id="SVGID_10_" gradientUnits="userSpaceOnUse" x1="108" x2="317.289" xlink:href="#lg1" y1="72.99" y2="72.99"/><linearGradient id="lg3"><stop offset="0" stop-color="#f3eae6"/><stop offset="1" stop-color="#cdbfba"/></linearGradient><linearGradient id="SVGID_11_" gradientUnits="userSpaceOnUse" x1="141.19" x2="390.757" xlink:href="#lg3" y1="477.473" y2="477.473"/><linearGradient id="SVGID_12_" gradientUnits="userSpaceOnUse" x1="281.737" x2="472.375" xlink:href="#lg2" y1="477.474" y2="477.474"/><linearGradient id="SVGID_13_" gradientUnits="userSpaceOnUse" x1="152.88" x2="534.004" y1="489.99" y2="489.99"><stop offset="0" stop-color="#faf7f7"/><stop offset=".4551" stop-color="#f3eae6"/><stop offset="1" stop-color="#efe2dd"/></linearGradient><linearGradient id="SVGID_14_" gradientUnits="userSpaceOnUse" x1="154.789" x2="435.075" xlink:href="#lg3" y1="489.99" y2="489.99"/><g><g><path d="m239.492 8.1c-38.125 54.895-127.463 220.003-44.143 473.073h59.651 59.651c83.32-253.07-6.018-418.178-44.143-473.073-7.501-10.8-23.515-10.8-31.016 0z" fill="url(#SVGID_1_)"/><path d="m270.508 8.1c-7.501-10.8-23.516-10.8-31.016 0-1.432 2.062-2.937 4.282-4.502 6.654 6.927 10.5 15.037 24.025 23.302 40.471h-46.604c-4.7 9.352-9.449 19.651-14.059 30.874h53.224c.082 0 .163 0 .245.001 11.035.086 16.57 13.522 8.944 21.499-2.896 3.03-5.843 6.045-8.84 9.041-23.034 23.034-47.151 43.236-70.788 59.465-7.23 4.964-12.115 12.692-13.443 21.36-1.485 9.697-2.729 19.71-3.689 30.035 36.84-19.63 76.21-49.66 112.66-86.11l.12-.12c5.272-5.274 14.303-2.868 16.203 4.344 4.48 17.01 8.323 35.33 11.197 54.925-12.576 15.986-26.777 31.959-42.259 47.441-26.583 26.574-54.599 49.384-81.657 66.662-10.323 6.592-16.089 18.438-14.683 30.605.642 5.554 1.368 11.168 2.18 16.843 38.6-19.49 80.39-50.85 118.9-89.37 1.293-1.292 2.576-2.588 3.852-3.887 7.018-7.151 19.216-2.293 19.243 7.727.057 20.693-1.035 42.421-3.529 65.159-10.513 12.682-22.007 25.292-34.306 37.591-27.93 27.93-57.46 51.7-85.79 69.26 2.99 10.7 6.3 21.57 9.93 32.6h3.81c24.902-14.971 50.578-34.29 75.427-56.783 6.35-5.749 16.287.269 14.165 8.567-4.015 15.697-8.697 31.771-14.112 48.219h40.02c83.318-253.07-6.02-418.178-44.145-473.073z" fill="url(#SVGID_2_)"/><g><path d="m346.71 227.5c-36.84-19.63-76.21-49.66-112.66-86.11-9.11-9.11-17.817-18.403-26.06-27.793-9.212-10.494-11.444-25.415-5.809-38.191 2.39-5.419 4.802-10.594 7.209-15.526 14.25 19.08 30.91 38.27 49.4 56.76 23.033 23.033 47.149 43.234 70.785 59.463 7.231 4.965 12.118 12.695 13.446 21.366 1.485 9.695 2.729 19.708 3.689 30.031z" fill="url(#SVGID_3_)"/><path d="m345.129 345.255c-.642 5.551-1.367 11.162-2.179 16.835-38.6-19.49-80.39-50.85-118.9-89.37-18.051-18.042-34.527-36.804-48.945-55.624-6.009-7.844-8.496-17.857-6.849-27.599 2.018-11.935 4.392-23.37 7.044-34.296 17.89 30.43 43.25 62.54 73.49 92.78 26.58 26.572 54.594 49.38 81.65 66.657 10.327 6.594 16.096 18.445 14.689 30.617z" fill="url(#SVGID_4_)"/><path d="m324.58 448.57c-2.99 10.7-6.3 21.57-9.93 32.6h-3.81c-32.12-19.31-65.53-45.85-96.79-77.11-9.657-9.652-18.862-19.511-27.54-29.474-14.361-16.488-22.908-37.239-24.337-59.058-.822-12.551-1.217-24.769-1.233-36.648 18.01 32.66 45.07 67.65 77.85 100.43 27.93 27.93 57.46 51.7 85.79 69.26z" fill="url(#SVGID_5_)"/></g><path d="m295.763 60.831h-81.525c-5.523 0-10-4.477-10-10s4.477-10 10-10h81.525c5.522 0 10 4.477 10 10s-4.478 10-10 10z" fill="url(#SVGID_6_)"/><g><path d="m346.71 227.5c-.96-10.323-2.203-20.336-3.689-30.031-1.328-8.671-6.215-16.401-13.446-21.366-12.172-8.357-24.471-17.775-36.684-28.084 4.21 16.318 7.826 33.823 10.564 52.484 14.586 10.381 29.107 19.458 43.255 26.997z" fill="url(#SVGID_7_)"/><path d="m330.44 314.637c-7.217-4.608-14.502-9.622-21.809-14.983-.5 13.147-1.468 26.68-2.961 40.592 12.609 8.363 25.103 15.695 37.28 21.843.812-5.672 1.538-11.284 2.179-16.835 1.407-12.171-4.362-24.022-14.689-30.617z" fill="url(#SVGID_8_)"/><path d="m280.863 461.316c10.048 7.255 20.074 13.901 29.977 19.854h3.81c3.63-11.03 6.94-21.9 9.93-32.6-11.159-6.917-22.504-14.81-33.864-23.528-2.893 11.872-6.168 23.964-9.853 36.274z" fill="url(#SVGID_9_)"/><path d="m202.181 75.406c-1.522 3.451-2.451 7.059-2.842 10.693h31.127c-7.486-8.712-14.545-17.476-21.075-26.219-2.408 4.932-4.82 10.107-7.21 15.526z" fill="url(#SVGID_10_)"/></g></g><g><path d="m361.366 509.999h-212.732c-10.959 0-19.842-8.884-19.842-19.842v-25.367c0-10.959 8.884-19.842 19.842-19.842h212.731c10.959 0 19.842 8.884 19.842 19.842v25.367c.001 10.959-8.883 19.842-19.841 19.842z" fill="url(#SVGID_11_)"/><path d="m361.366 444.948h-40.02c10.958 0 19.842 8.884 19.842 19.842v25.367c0 10.958-8.884 19.842-19.842 19.842h40.02c10.958 0 19.842-8.884 19.842-19.842v-25.367c0-10.959-8.884-19.842-19.842-19.842z" fill="url(#SVGID_12_)"/></g><g><path d="m412.825 489.99c0-11.051-8.959-20.01-20.01-20.01h-275.63c-11.051 0-20.01 8.959-20.01 20.01 0 11.051 8.959 20.01 20.01 20.01h275.629c11.052 0 20.011-8.959 20.011-20.01z" fill="url(#SVGID_13_)"/><path d="m392.815 469.98h-40.02c11.051 0 20.01 8.959 20.01 20.01s-8.959 20.01-20.01 20.01h40.02c11.051 0 20.01-8.959 20.01-20.01s-8.959-20.01-20.01-20.01z" fill="url(#SVGID_14_)"/></g></g></svg>