<svg id="Capa_1" enable-background="new 0 0 510 510" height="512" viewBox="0 0 510 510" width="512" xmlns="http://www.w3.org/2000/svg" xmlns:xlink="http://www.w3.org/1999/xlink"><linearGradient id="SVGID_1_" gradientUnits="userSpaceOnUse" x1="-3.37" x2="785.111" y1="274.185" y2="274.185"><stop offset="0" stop-color="#bbec6c"/><stop offset=".5857" stop-color="#78a91f"/><stop offset="1" stop-color="#02905d"/></linearGradient><linearGradient id="lg1"><stop offset="0" stop-color="#fef056"/><stop offset=".5213" stop-color="#fbc56d"/><stop offset="1" stop-color="#c86d36"/></linearGradient><linearGradient id="SVGID_2_" gradientUnits="userSpaceOnUse" x1="118" x2="420.744" xlink:href="#lg1" y1="164.189" y2="164.189"/><linearGradient id="SVGID_3_" gradientUnits="userSpaceOnUse" x1="178.667" x2="502.318" xlink:href="#lg1" y1="124.195" y2="124.195"/><linearGradient id="SVGID_4_" gradientUnits="userSpaceOnUse" x1="358.826" x2="519.804" xlink:href="#lg1" y1="106.461" y2="106.461"/><linearGradient id="lg2"><stop offset="0" stop-color="#537983"/><stop offset=".593" stop-color="#554e56"/><stop offset="1" stop-color="#433f43"/></linearGradient><linearGradient id="SVGID_5_" gradientUnits="userSpaceOnUse" x1="414.638" x2="510.978" xlink:href="#lg2" y1="139.636" y2="139.636"/><linearGradient id="SVGID_6_" gradientUnits="userSpaceOnUse" x1="190" x2="555.075" xlink:href="#lg1" y1="149.453" y2="149.453"/><linearGradient id="SVGID_7_" gradientUnits="userSpaceOnUse" x1="178.667" x2="502.318" xlink:href="#lg1" y1="188.471" y2="188.471"/><linearGradient id="SVGID_8_" gradientUnits="userSpaceOnUse" x1="132.056" x2="267.944" xlink:href="#lg1" y1="67.607" y2="67.607"/><linearGradient id="SVGID_9_" gradientUnits="userSpaceOnUse" x1="7.333" x2="283.022" xlink:href="#lg1" y1="67.61" y2="67.61"/><linearGradient id="SVGID_10_" gradientUnits="userSpaceOnUse" x1="120.163" x2="282.837" xlink:href="#lg1" y1="36.357" y2="36.357"/><linearGradient id="SVGID_11_" gradientUnits="userSpaceOnUse" x1="99.454" x2="285.327" xlink:href="#lg1" y1="226.461" y2="226.461"/><linearGradient id="SVGID_12_" gradientUnits="userSpaceOnUse" x1="51.333" x2="265.337" xlink:href="#lg1" y1="226.465" y2="226.465"/><linearGradient id="SVGID_13_" gradientUnits="userSpaceOnUse" x1="136.808" x2="191.145" xlink:href="#lg2" y1="188.876" y2="188.876"/><linearGradient id="SVGID_14_" gradientUnits="userSpaceOnUse" x1="207.595" x2="261.932" xlink:href="#lg2" y1="188.876" y2="188.876"/><linearGradient id="SVGID_15_" gradientUnits="userSpaceOnUse" x1="117.603" x2="183.657" xlink:href="#lg1" y1="117.343" y2="117.343"/><linearGradient id="SVGID_16_" gradientUnits="userSpaceOnUse" x1="168.29" x2="234.344" xlink:href="#lg1" y1="117.343" y2="117.343"/><linearGradient id="SVGID_17_" gradientUnits="userSpaceOnUse" x1="218.976" x2="285.03" xlink:href="#lg1" y1="117.343" y2="117.343"/><linearGradient id="SVGID_18_" gradientUnits="userSpaceOnUse" x1="136.703" x2="344.535" xlink:href="#lg1" y1="133.18" y2="133.18"/><linearGradient id="SVGID_19_" gradientUnits="userSpaceOnUse" x1="99.249" x2="293.908" xlink:href="#lg1" y1="133.18" y2="133.18"/><linearGradient id="SVGID_20_" gradientUnits="userSpaceOnUse" x1="-18.369" x2="605.27" xlink:href="#lg1" y1="430.189" y2="430.189"/><linearGradient id="SVGID_21_" gradientUnits="userSpaceOnUse" x1="-296" x2="535.135" xlink:href="#lg1" y1="451.168" y2="451.168"/><linearGradient id="SVGID_22_" gradientUnits="userSpaceOnUse" x1="-296" x2="535.135" xlink:href="#lg1" y1="458.284" y2="458.284"/><linearGradient id="SVGID_23_" gradientUnits="userSpaceOnUse" x1="-296" x2="535.135" xlink:href="#lg1" y1="489.956" y2="489.956"/><linearGradient id="SVGID_24_" gradientUnits="userSpaceOnUse" x1="-296" x2="535.135" xlink:href="#lg1" y1="430.19" y2="430.19"/><linearGradient id="SVGID_25_" gradientUnits="userSpaceOnUse" x1="396" x2="521.602" xlink:href="#lg1" y1="312.8" y2="312.8"/><linearGradient id="SVGID_26_" gradientUnits="userSpaceOnUse" x1="371.333" x2="499.675" xlink:href="#lg1" y1="312.8" y2="312.8"/><linearGradient id="SVGID_27_" gradientUnits="userSpaceOnUse" x1="20.344" x2="145.947" xlink:href="#lg1" y1="312.8" y2="312.8"/><linearGradient id="SVGID_28_" gradientUnits="userSpaceOnUse" x1="-4.323" x2="124.019" xlink:href="#lg1" y1="312.8" y2="312.8"/><linearGradient id="SVGID_29_" gradientUnits="userSpaceOnUse" x1="145.563" x2="271.165" xlink:href="#lg1" y1="312.8" y2="312.8"/><linearGradient id="SVGID_30_" gradientUnits="userSpaceOnUse" x1="120.896" x2="249.238" xlink:href="#lg1" y1="312.8" y2="312.8"/><linearGradient id="SVGID_31_" gradientUnits="userSpaceOnUse" x1="270.781" x2="396.384" xlink:href="#lg1" y1="312.8" y2="312.8"/><linearGradient id="SVGID_32_" gradientUnits="userSpaceOnUse" x1="246.115" x2="374.456" xlink:href="#lg1" y1="312.8" y2="312.8"/><linearGradient id="SVGID_33_" gradientUnits="userSpaceOnUse" x1="0" x2="672.002" xlink:href="#lg1" y1="350.378" y2="350.378"/><linearGradient id="SVGID_34_" gradientUnits="userSpaceOnUse" x1="235.333" x2="533.318" xlink:href="#lg1" y1="350.378" y2="350.378"/><linearGradient id="SVGID_35_" gradientUnits="userSpaceOnUse" x1="235.333" x2="428.667" xlink:href="#lg1" y1="176.576" y2="176.576"/><linearGradient id="SVGID_36_" gradientUnits="userSpaceOnUse" x1="235.333" x2="428.667" xlink:href="#lg1" y1="192.685" y2="192.685"/><linearGradient id="SVGID_37_" gradientUnits="userSpaceOnUse" x1="235.333" x2="428.667" xlink:href="#lg1" y1="250.264" y2="250.264"/><linearGradient id="SVGID_38_" gradientUnits="userSpaceOnUse" x1="235.333" x2="428.667" xlink:href="#lg1" y1="218.072" y2="218.072"/><g><path d="m510 349.242h-510v-128.57c0-11.898 9.645-21.543 21.543-21.543h488.457z" fill="url(#SVGID_1_)"/><path d="m485.222 155.629h-21.192c-16.997 0-33.297 6.752-45.315 18.77l-48.422 48.422c-12.018 12.018-28.319 18.77-45.315 18.77h-62.373v-68.844h62.373c16.997 0 33.297-6.752 45.315-18.77l48.422-48.422c12.018-12.018 28.319-18.77 45.315-18.77h21.192z" fill="url(#SVGID_2_)"/><path d="m323.581 174.676h-62.373c-4.142 0-7.5-3.358-7.5-7.5s3.358-7.5 7.5-7.5h62.373c15.115 0 29.325-5.886 40.012-16.574l48.422-48.422c13.52-13.521 31.497-20.967 50.619-20.967h19.407c4.142 0 7.5 3.358 7.5 7.5s-3.358 7.5-7.5 7.5h-19.407c-15.115 0-29.325 5.886-40.012 16.574l-48.422 48.422c-13.521 13.521-31.498 20.967-50.619 20.967z" fill="url(#SVGID_3_)"/><path d="m494.19 85.426c-2.783 0-5.039-2.256-5.039-5.039v-32.514c1.983.132 4.014-.548 5.537-2.071 2.702-2.702 2.804-7.051.231-9.876l-24.777-27.216c-10.573-11.613-28.844-11.613-39.417 0l-24.777 27.215c-2.573 2.826-2.471 7.174.231 9.876 1.523 1.523 3.554 2.203 5.537 2.071v32.514c0 2.783-2.256 5.039-5.039 5.039-2.587 0-4.753 1.958-5.014 4.532l-12.449 122.964h105.228c9.211 0 16.404-7.959 15.477-17.123l-10.715-105.84c-.261-2.573-2.427-4.532-5.014-4.532z" fill="url(#SVGID_4_)"/><path d="m436.873 174.345h27.121c3.966 0 7.182-3.215 7.182-7.182v-41.495c0-11.455-9.286-20.742-20.742-20.742-11.455 0-20.742 9.287-20.742 20.742v41.495c0 3.967 3.215 7.182 7.181 7.182z" fill="url(#SVGID_5_)"/><path d="m509.919 195.8-10.69-105.591c-.265-2.619-2.401-4.785-5.034-4.782-2.785.003-5.044-2.255-5.044-5.039v-32.515c1.983.132 4.014-.548 5.537-2.071 2.702-2.702 2.804-7.051.232-9.876l-24.778-27.216c-8.443-9.274-21.793-11.134-32.214-5.596 2.628 1.397 5.073 3.256 7.203 5.596l24.777 27.215c2.573 2.826 2.471 7.174-.232 9.876-1.299 1.299-2.969 1.98-4.662 2.071h-34.399c-4.107 0-7.688 3.164-7.811 7.269-.128 4.247 3.278 7.731 7.497 7.731h23.277c5.833 0 10.562 4.729 10.562 10.562v6.952c0 2.746 2.197 5.092 4.943 5.04 2.629-.049 4.846 1.925 5.11 4.531l5.481 54.136h-15.644c-16.997 0-33.297 6.752-45.315 18.77l-48.422 48.422c-12.018 12.018-28.319 18.77-45.315 18.77h-62.373v68.845h62.373c16.997 0 33.297-6.752 45.315-18.77l48.422-48.422c12.018-12.018 28.319-18.77 45.315-18.77h21.192v-.015h9.221c9.21-.001 16.404-7.959 15.476-17.123z" fill="url(#SVGID_6_)"/><path d="m323.581 238.952h-62.373c-4.142 0-7.5-3.358-7.5-7.5s3.358-7.5 7.5-7.5h62.373c15.115 0 29.325-5.886 40.012-16.574l48.422-48.422c13.52-13.521 31.497-20.967 50.619-20.967h19.407c4.142 0 7.5 3.358 7.5 7.5s-3.358 7.5-7.5 7.5h-19.407c-15.115 0-29.325 5.886-40.012 16.574l-48.422 48.422c-13.521 13.521-31.498 20.967-50.619 20.967z" fill="url(#SVGID_7_)"/><g><path d="m251.167 129.685h-117.553v-68.123l58.777-56.034 58.776 56.034z" fill="url(#SVGID_8_)"/><path d="m251.17 61.56v68.13h-25.01v-44.114c0-6.978-2.604-13.706-7.304-18.865l-11.386-12.501c-8.09-8.89-22.07-8.89-30.16 0l-36.39 39.96c-1.97 2.17-4.61 3.36-7.31 3.53v-36.14l46.28-44.11 12.5-11.92z" fill="url(#SVGID_9_)"/><path d="m222.31 13.223c-16.051-17.63-43.788-17.63-59.839 0l-37.614 41.316c-3.905 4.29-3.751 10.891.351 14.993 4.383 4.383 11.54 4.216 15.713-.368l36.384-39.965c8.092-8.888 22.076-8.888 30.168 0l36.384 39.965c4.173 4.584 11.33 4.752 15.713.368 4.102-4.102 4.257-10.704.351-14.993z" fill="url(#SVGID_10_)"/><path d="m285.327 323.236h-185.873l19.595-193.551h146.683z" fill="url(#SVGID_11_)"/><path d="m285.33 323.24h-40.02l-12.518-123.583c-1.586-15.655-14.766-27.567-30.5-27.567h-87.532l2.53-25.01 1.76-17.39h146.68l1.76 17.39 2.53 25.01z" fill="url(#SVGID_12_)"/><g><path d="m149.349 208.453h15.297c2.237 0 4.051-1.813 4.051-4.051v-23.404c0-6.461-5.238-11.699-11.699-11.699-6.461 0-11.699 5.238-11.699 11.699v23.404c-.001 2.237 1.813 4.051 4.05 4.051z" fill="url(#SVGID_13_)"/><path d="m220.136 208.453h15.297c2.237 0 4.051-1.813 4.051-4.051v-23.404c0-6.461-5.238-11.699-11.699-11.699-6.461 0-11.699 5.238-11.699 11.699v23.404c-.001 2.237 1.813 4.051 4.05 4.051z" fill="url(#SVGID_14_)"/></g><g><path d="m159.648 133.331h-35.888v-29.429c0-1.407 1.14-2.547 2.547-2.547h30.794c1.407 0 2.547 1.14 2.547 2.547z" fill="url(#SVGID_15_)"/><path d="m210.335 133.331h-35.888v-29.429c0-1.407 1.14-2.547 2.547-2.547h30.794c1.407 0 2.547 1.14 2.547 2.547z" fill="url(#SVGID_16_)"/><path d="m261.021 133.331h-35.888v-29.429c0-1.407 1.14-2.547 2.547-2.547h30.794c1.407 0 2.547 1.14 2.547 2.547z" fill="url(#SVGID_17_)"/></g><g><path d="m278.455 133.18c0-7.675-6.222-13.897-13.897-13.897h-144.334c-7.675 0-13.897 6.222-13.897 13.897 0 7.675 6.222 13.897 13.897 13.897h144.334c7.675 0 13.897-6.222 13.897-13.897z" fill="url(#SVGID_18_)"/><path d="m264.558 119.283h-27.794c7.675 0 13.897 6.222 13.897 13.897s-6.222 13.897-13.897 13.897h27.794c7.675 0 13.897-6.222 13.897-13.897s-6.222-13.897-13.897-13.897z" fill="url(#SVGID_19_)"/></g></g><path d="m494.777 510h-479.554c-8.408 0-15.223-6.815-15.223-15.223v-129.177c0-8.407 6.815-15.223 15.223-15.223h479.555c8.407 0 15.223 6.815 15.223 15.223v129.177c-.001 8.408-6.816 15.223-15.224 15.223z" fill="url(#SVGID_20_)"/><g><path d="m339.148 445.86h-20.412v-11.268c0-5.052-4.095-9.147-9.147-9.147h-34.785c-5.052 0-9.147 4.095-9.147 9.147v12.737c0 5.052 4.095 9.147 9.147 9.147h20.412v11.268c0 5.052 4.095 9.147 9.147 9.147h34.785c5.052 0 9.147-4.095 9.147-9.147v-12.737c0-5.052-4.095-9.147-9.147-9.147z" fill="url(#SVGID_21_)"/><path d="m113.148 432.561h-34.784c-5.052 0-9.147 4.095-9.147 9.147v11.268h-20.412c-5.052 0-9.147 4.095-9.147 9.147v12.737c0 5.052 4.095 9.147 9.147 9.147h34.785c5.052 0 9.147-4.095 9.147-9.147v-11.268h20.412c5.052 0 9.147-4.095 9.147-9.147v-12.737c-.001-5.052-4.096-9.147-9.148-9.147z" fill="url(#SVGID_22_)"/><path d="m421.068 474.441h-34.785c-5.052 0-9.147 4.095-9.147 9.147v12.737c0 5.052 4.095 9.147 9.147 9.147h34.785c5.052 0 9.147-4.095 9.147-9.147v-12.737c0-5.052-4.095-9.147-9.147-9.147z" fill="url(#SVGID_23_)"/><path d="m494.78 350.38h-479.56c-8.4 0-15.22 6.81-15.22 15.22v42.31h437.849c8.51 0 16.241 3.314 21.989 8.714h-7.251c-5.052 0-9.147 4.095-9.147 9.147v12.737c0 5.052 4.095 9.147 9.147 9.147 9.606 0 17.392 7.787 17.392 17.392v29.733c0 8.4-6.82 15.22-15.22 15.22h40.02c8.406 0 15.22-6.814 15.22-15.22v-129.18c.001-8.41-6.819-15.22-15.219-15.22z" fill="url(#SVGID_24_)"/></g><g><g><path d="m467.888 345.326h-50.121c-10.959 0-19.842-8.884-19.842-19.842v-25.367c0-10.959 8.884-19.842 19.842-19.842h50.121c10.959 0 19.842 8.884 19.842 19.842v25.367c.001 10.958-8.883 19.842-19.842 19.842z" fill="url(#SVGID_25_)"/><path d="m467.888 280.274h-25.011c10.958 0 19.842 8.884 19.842 19.842v25.367c0 10.958-8.884 19.842-19.842 19.842h25.011c10.958 0 19.842-8.884 19.842-19.842v-25.367c.001-10.958-8.883-19.842-19.842-19.842z" fill="url(#SVGID_26_)"/></g><g><path d="m92.232 345.326h-50.12c-10.959 0-19.842-8.884-19.842-19.842v-25.367c0-10.959 8.884-19.842 19.842-19.842h50.121c10.959 0 19.842 8.884 19.842 19.842v25.367c0 10.958-8.884 19.842-19.843 19.842z" fill="url(#SVGID_27_)"/><path d="m92.232 280.274h-25.011c10.958 0 19.842 8.884 19.842 19.842v25.367c0 10.958-8.884 19.842-19.842 19.842h25.011c10.958 0 19.842-8.884 19.842-19.842v-25.367c.001-10.958-8.883-19.842-19.842-19.842z" fill="url(#SVGID_28_)"/></g><g><path d="m217.451 345.326h-50.121c-10.959 0-19.842-8.884-19.842-19.842v-25.367c0-10.959 8.884-19.842 19.842-19.842h50.121c10.959 0 19.842 8.884 19.842 19.842v25.367c0 10.958-8.883 19.842-19.842 19.842z" fill="url(#SVGID_29_)"/><path d="m217.451 280.274h-25.011c10.958 0 19.842 8.884 19.842 19.842v25.367c0 10.958-8.884 19.842-19.842 19.842h25.011c10.958 0 19.842-8.884 19.842-19.842v-25.367c0-10.958-8.883-19.842-19.842-19.842z" fill="url(#SVGID_30_)"/></g><g><path d="m342.67 345.326h-50.121c-10.959 0-19.842-8.884-19.842-19.842v-25.367c0-10.959 8.884-19.842 19.842-19.842h50.121c10.959 0 19.842 8.884 19.842 19.842v25.367c0 10.958-8.884 19.842-19.842 19.842z" fill="url(#SVGID_31_)"/><path d="m342.67 280.274h-25.011c10.958 0 19.842 8.884 19.842 19.842v25.367c0 10.958-8.884 19.842-19.842 19.842h25.011c10.958 0 19.842-8.884 19.842-19.842v-25.367c0-10.958-8.884-19.842-19.842-19.842z" fill="url(#SVGID_32_)"/></g><g><path d="m490.158 382.904h-470.316c-10.958 0-19.842-8.884-19.842-19.843v-25.367c0-10.959 8.884-19.842 19.842-19.842h470.315c10.959 0 19.842 8.884 19.842 19.842v25.367c.001 10.959-8.883 19.843-19.841 19.843z" fill="url(#SVGID_33_)"/><path d="m490.158 317.852h-40.02c10.958 0 19.842 8.884 19.842 19.842v25.367c0 10.958-8.884 19.842-19.842 19.842h40.02c10.958 0 19.842-8.884 19.842-19.842v-25.367c0-10.958-8.884-19.842-19.842-19.842z" fill="url(#SVGID_34_)"/></g></g><g><path d="m460.212 174.372h-8.477v-4.68c0-2.098-1.701-3.799-3.799-3.799h-14.446c-2.098 0-3.799 1.701-3.799 3.799v5.29c0 2.098 1.701 3.799 3.799 3.799h8.477v4.68c0 2.098 1.701 3.799 3.799 3.799h14.446c2.098 0 3.799-1.701 3.799-3.799v-5.29c0-2.099-1.701-3.799-3.799-3.799z" fill="url(#SVGID_35_)"/><path d="m494.234 186.241h-14.446c-2.098 0-3.799 1.701-3.799 3.799v5.29c0 2.098 1.701 3.799 3.799 3.799h14.446c2.098 0 3.799-1.701 3.799-3.799v-5.29c0-2.098-1.701-3.799-3.799-3.799z" fill="url(#SVGID_36_)"/><path d="m369.735 243.82h-14.446c-2.098 0-3.799 1.701-3.799 3.799v5.29c0 2.098 1.701 3.799 3.799 3.799h14.446c2.098 0 3.799-1.701 3.799-3.799v-5.29c0-2.098-1.701-3.799-3.799-3.799z" fill="url(#SVGID_37_)"/><path d="m410.899 211.628h-14.446c-2.098 0-3.799 1.701-3.799 3.799v5.29c0 2.098 1.701 3.799 3.799 3.799h14.446c2.098 0 3.799-1.701 3.799-3.799v-5.29c0-2.098-1.701-3.799-3.799-3.799z" fill="url(#SVGID_38_)"/></g></g></svg>