<svg id="Capa_1" enable-background="new 0 0 510 510" height="512" viewBox="0 0 510 510" width="512" xmlns="http://www.w3.org/2000/svg" xmlns:xlink="http://www.w3.org/1999/xlink"><linearGradient id="SVGID_1_" gradientUnits="userSpaceOnUse" x1="34.78" x2="475.22" y1="231.025" y2="231.025"><stop offset="0" stop-color="#faf7f7"/><stop offset=".4551" stop-color="#f3eae6"/><stop offset="1" stop-color="#efe2dd"/></linearGradient><linearGradient id="lg1"><stop offset="0" stop-color="#f3eae6"/><stop offset="1" stop-color="#cdbfba"/></linearGradient><linearGradient id="SVGID_2_" gradientUnits="userSpaceOnUse" x1="29.09" x2="284.518" xlink:href="#lg1" y1="346.05" y2="346.05"/><linearGradient id="SVGID_3_" gradientUnits="userSpaceOnUse" x1="130" x2="502.012" xlink:href="#lg1" y1="351.156" y2="351.156"/><linearGradient id="SVGID_4_" gradientUnits="userSpaceOnUse" x1="130" x2="502.012" xlink:href="#lg1" y1="389.943" y2="389.943"/><linearGradient id="SVGID_5_" gradientUnits="userSpaceOnUse" x1="130" x2="502.012" xlink:href="#lg1" y1="231.025" y2="231.025"/><linearGradient id="lg2"><stop offset="0" stop-color="#537983"/><stop offset=".593" stop-color="#554e56"/><stop offset="1" stop-color="#433f43"/></linearGradient><linearGradient id="SVGID_6_" gradientUnits="userSpaceOnUse" x1="34.78" x2="560.008" xlink:href="#lg2" y1="167.105" y2="167.105"/><linearGradient id="SVGID_7_" gradientUnits="userSpaceOnUse" x1="15.333" x2="166.426" xlink:href="#lg2" y1="282.13" y2="282.13"/><linearGradient id="SVGID_8_" gradientUnits="userSpaceOnUse" x1="-74" x2="466.004" xlink:href="#lg2" y1="167.105" y2="167.105"/><linearGradient id="lg3"><stop offset="0" stop-color="#fef056"/><stop offset=".5213" stop-color="#fbc56d"/><stop offset="1" stop-color="#c86d36"/></linearGradient><linearGradient id="SVGID_9_" gradientUnits="userSpaceOnUse" x1="34.78" x2="475.22" xlink:href="#lg3" y1="95.026" y2="95.026"/><linearGradient id="SVGID_10_" gradientUnits="userSpaceOnUse" x1="54.101" x2="309.529" xlink:href="#lg3" y1="346.05" y2="346.05"/><linearGradient id="SVGID_11_" gradientUnits="userSpaceOnUse" x1="-64" x2="276.024" xlink:href="#lg3" y1="346.05" y2="346.05"/><linearGradient id="SVGID_12_" gradientUnits="userSpaceOnUse" x1="0" x2="510" y1="453.499" y2="453.499"><stop offset="0" stop-color="#cdbfba"/><stop offset="1" stop-color="#766e6e"/></linearGradient><linearGradient id="SVGID_13_" gradientUnits="userSpaceOnUse" x1="300.003" x2="497.208" y1="453.499" y2="453.499"><stop offset="0" stop-color="#9e9797"/><stop offset="1" stop-color="#5b5555"/></linearGradient><linearGradient id="SVGID_14_" gradientUnits="userSpaceOnUse" x1="124" x2="392.604" xlink:href="#lg3" y1="95.026" y2="95.026"/><g><path d="m455.906 438.076h-401.812c-10.667 0-19.314-8.647-19.314-19.314v-375.473c0-10.667 8.647-19.314 19.314-19.314h401.813c10.667 0 19.314 8.647 19.314 19.314v375.473c-.001 10.667-8.648 19.314-19.315 19.314z" fill="url(#SVGID_1_)"/><path d="m69.002 438.076h109.987v-169.934c0-7.797-6.32-14.117-14.117-14.117h-81.753c-7.797 0-14.117 6.32-14.117 14.117z" fill="url(#SVGID_2_)"/><g><path d="m311.689 345.848h-20.412v-11.268c0-5.052-4.095-9.147-9.147-9.147h-34.785c-5.052 0-9.147 4.095-9.147 9.147v12.737c0 5.052 4.095 9.147 9.147 9.147h20.412v11.268c0 5.052 4.095 9.147 9.147 9.147h34.785c5.052 0 9.147-4.095 9.147-9.147v-12.737c0-5.052-4.095-9.147-9.147-9.147z" fill="url(#SVGID_3_)"/><path d="m393.609 374.428h-34.785c-5.052 0-9.147 4.095-9.147 9.147v12.737c0 5.052 4.095 9.147 9.147 9.147h34.785c5.052 0 9.147-4.095 9.147-9.147v-12.737c-.001-5.052-4.096-9.147-9.147-9.147z" fill="url(#SVGID_4_)"/><path d="m455.906 23.975h-40.02c10.667 0 19.314 8.647 19.314 19.314v282.144h-23.298c-5.052 0-9.147 4.095-9.147 9.147v12.737c0 5.052 4.095 9.147 9.147 9.147h5.659c9.742 0 17.639 7.897 17.639 17.639v44.66c0 10.667-8.647 19.314-19.314 19.314h40.02c10.667 0 19.314-8.647 19.314-19.314v-375.474c0-10.667-8.647-19.314-19.314-19.314z" fill="url(#SVGID_5_)"/></g><path d="m475.22 43.285v28.741l-9.72 20.999 9.72 25.002v192.209h-440.44v-192.209l5.22-25.002-5.22-20.999v-28.741c0-10.66 8.65-19.31 19.31-19.31h401.82c10.66 0 19.31 8.65 19.31 19.31z" fill="url(#SVGID_6_)"/><path d="m178.989 310.235v-42.093c0-7.797-6.32-14.117-14.117-14.117h-81.753c-7.797 0-14.117 6.32-14.117 14.117v42.093z" fill="url(#SVGID_7_)"/><path d="m455.91 23.975h-40.015c10.663.005 19.305 8.649 19.305 19.313v266.947h40.02v-192.292l-9-21.379 9-24.433v-28.846c0-10.66-8.65-19.31-19.31-19.31z" fill="url(#SVGID_8_)"/><path d="m34.78 72.026h440.44v46h-440.44z" fill="url(#SVGID_9_)"/><path d="m94.013 438.076h109.987v-169.934c0-7.797-6.32-14.117-14.117-14.117h-81.753c-7.797 0-14.117 6.32-14.117 14.117z" fill="url(#SVGID_10_)"/><path d="m189.883 254.025h-40.02c7.797 0 14.117 6.32 14.117 14.117v169.933h40.02v-169.933c0-7.796-6.32-14.117-14.117-14.117z" fill="url(#SVGID_11_)"/><g><path d="m490.158 486.025h-470.316c-10.958 0-19.842-8.883-19.842-19.842v-25.367c0-10.959 8.884-19.842 19.842-19.842h470.315c10.959 0 19.842 8.884 19.842 19.842v25.367c.001 10.959-8.883 19.842-19.841 19.842z" fill="url(#SVGID_12_)"/><path d="m490.158 420.973h-40.02c10.958 0 19.842 8.884 19.842 19.842v25.367c0 10.958-8.884 19.842-19.842 19.842h40.02c10.958 0 19.842-8.884 19.842-19.842v-25.367c0-10.958-8.884-19.842-19.842-19.842z" fill="url(#SVGID_13_)"/></g><path d="m435.2 72.026h40.02v46h-40.02z" fill="url(#SVGID_14_)"/></g></svg>