<svg id="Capa_1" enable-background="new 0 0 510 510" height="512" viewBox="0 0 510 510" width="512" xmlns="http://www.w3.org/2000/svg" xmlns:xlink="http://www.w3.org/1999/xlink"><linearGradient id="lg1"><stop offset="0" stop-color="#fe646f"/><stop offset=".593" stop-color="#fb2b3a"/><stop offset="1" stop-color="#c41926"/></linearGradient><linearGradient id="SVGID_1_" gradientUnits="userSpaceOnUse" x1="119.313" x2="402.647" xlink:href="#lg1" y1="332.399" y2="332.399"/><linearGradient id="SVGID_2_" gradientUnits="userSpaceOnUse" x1="41.98" x2="340.263" xlink:href="#lg1" y1="332.401" y2="332.401"/><linearGradient id="lg2"><stop offset="0" stop-color="#537983"/><stop offset=".593" stop-color="#554e56"/><stop offset="1" stop-color="#433f43"/></linearGradient><linearGradient id="SVGID_3_" gradientUnits="userSpaceOnUse" x1="216.573" x2="321.375" xlink:href="#lg2" y1="421.472" y2="421.472"/><linearGradient id="lg3"><stop offset="0" stop-color="#bbec6c"/><stop offset=".5857" stop-color="#78a91f"/><stop offset="1" stop-color="#02905d"/></linearGradient><linearGradient id="SVGID_4_" gradientUnits="userSpaceOnUse" x1="-23.932" x2="657.231" xlink:href="#lg3" y1="477.969" y2="477.969"/><linearGradient id="SVGID_5_" gradientUnits="userSpaceOnUse" x1="108" x2="494.448" xlink:href="#lg3" y1="477.969" y2="477.969"/><linearGradient id="SVGID_6_" gradientUnits="userSpaceOnUse" x1="176.93" x2="388.665" xlink:href="#lg2" y1="214.668" y2="214.668"/><linearGradient id="SVGID_7_" gradientUnits="userSpaceOnUse" x1="133.48" x2="334.602" xlink:href="#lg2" y1="214.668" y2="214.668"/><linearGradient id="lg4"><stop offset="0" stop-color="#faf7f7"/><stop offset=".4551" stop-color="#f3eae6"/><stop offset="1" stop-color="#efe2dd"/></linearGradient><linearGradient id="SVGID_8_" gradientUnits="userSpaceOnUse" x1="76.788" x2="197.486" xlink:href="#lg4" y1="137.782" y2="137.782"/><linearGradient id="lg5"><stop offset="0" stop-color="#f3eae6"/><stop offset="1" stop-color="#cdbfba"/></linearGradient><linearGradient id="SVGID_9_" gradientUnits="userSpaceOnUse" x1="90.982" x2="199.721" xlink:href="#lg5" y1="128.596" y2="128.596"/><linearGradient id="SVGID_10_" gradientUnits="userSpaceOnUse" x1="289.98" x2="486.217" xlink:href="#lg4" y1="315.143" y2="315.143"/><linearGradient id="SVGID_11_" gradientUnits="userSpaceOnUse" x1="339.825" x2="448.564" xlink:href="#lg5" y1="324.331" y2="324.331"/><linearGradient id="lg6"><stop offset="0" stop-color="#cdbfba"/><stop offset="1" stop-color="#766e6e"/></linearGradient><linearGradient id="SVGID_12_" gradientUnits="userSpaceOnUse" x1="75.829" x2="539.218" xlink:href="#lg6" y1="226.462" y2="226.462"/><linearGradient id="SVGID_13_" gradientUnits="userSpaceOnUse" x1="254.98" x2="419.965" xlink:href="#lg4" y1="92.73" y2="92.73"/><linearGradient id="SVGID_14_" gradientUnits="userSpaceOnUse" x1="253.98" x2="470.877" xlink:href="#lg5" y1="101.92" y2="101.92"/><linearGradient id="SVGID_15_" gradientUnits="userSpaceOnUse" x1="98.299" x2="308.956" xlink:href="#lg4" y1="360.195" y2="360.195"/><linearGradient id="SVGID_16_" gradientUnits="userSpaceOnUse" x1="65.98" x2="242.264" xlink:href="#lg5" y1="351.007" y2="351.007"/><linearGradient id="SVGID_17_" gradientUnits="userSpaceOnUse" x1="59.98" x2="446.27" xlink:href="#lg6" y1="226.462" y2="226.462"/><linearGradient id="lg7"><stop offset="0" stop-color="#fef056"/><stop offset=".5213" stop-color="#fbc56d"/><stop offset="1" stop-color="#c86d36"/></linearGradient><linearGradient id="SVGID_18_" gradientUnits="userSpaceOnUse" x1="225.581" x2="309.795" xlink:href="#lg7" y1="225.322" y2="225.322"/><linearGradient id="SVGID_19_" gradientUnits="userSpaceOnUse" x1="172.102" x2="331.546" xlink:href="#lg7" y1="225.322" y2="225.322"/><g><path d="m402.647 504.455h-283.334l40.718-248.139c9.133-55.655 51.541-95.973 100.949-95.973 49.408 0 91.816 40.318 100.949 95.973z" fill="url(#SVGID_1_)"/><path d="m402.65 504.454h-40.02l-18.607-113.393c-3.175-19.35-12.333-37.215-26.185-51.08l-28.638-28.666c-9.21.731-18.63 1.111-28.22 1.111-12.03 0-23.81-.601-35.23-1.752-20.99-2.092-40.77-6.036-58.73-11.491-5.2-1.582-9.52-4.745-12.58-8.829l5.59-34.043c4.14-25.215 15.11-47.286 30.47-63.883 13.85-14.965 31.27-25.475 50.47-29.829 6.49-1.481 13.18-2.252 20.01-2.252 13.99 0 27.41 3.233 39.68 9.129 9.4 4.514 18.13 10.6 25.9 17.988 1.68 1.592 3.32 3.253 4.9 4.965 15.36 16.596 26.33 38.668 30.47 63.883l5.59 34.043 11.78 71.81 7.72 47.076z" fill="url(#SVGID_2_)"/><path d="m285.8 465.146h-61.6v-56.548c0-17.011 13.79-30.8 30.8-30.8 17.011 0 30.8 13.79 30.8 30.8z" fill="url(#SVGID_3_)"/><g><path d="m491.634 510h-473.268c-20.968 0-25.527-29.434-5.574-35.888 52.566-17.001 141.432-28.174 242.208-28.174s189.642 11.173 242.208 28.174c19.953 6.454 15.395 35.888-5.574 35.888z" fill="url(#SVGID_4_)"/><path d="m497.208 474.112c-52.566-17.001-141.432-28.174-242.208-28.174-6.727 0-13.395.054-20.008.152 49.114.728 94.905 4.109 134.395 9.502 33.668 4.597 30.226 54.408-3.754 54.408h126.002c20.968 0 25.526-29.434 5.573-35.888z" fill="url(#SVGID_5_)"/></g><path d="m260.98 287.392c34.163 0 66.225-4.816 93.964-13.248 12.096-3.677 19.457-15.918 17.12-28.354l-2.586-13.765c-9.816-52.239-55.395-90.082-108.498-90.082-53.103 0-98.682 37.843-108.498 90.082l-2.586 13.765c-2.337 12.436 5.024 24.677 17.12 28.354 27.739 8.433 59.801 13.248 93.964 13.248z" fill="url(#SVGID_6_)"/><path d="m372.064 245.79-2.586-13.765c-9.816-52.239-55.395-90.082-108.498-90.082-6.815 0-13.503.633-20.01 1.83.003 0 .005.001.008.002-.02.004-.04.005-.059.009.325.397.671.783 1.042 1.153l59.21 59.268-22.701 22.724c-1.241-21.216-18.815-38.04-40.322-38.04-9.131 0-17.552 3.035-24.317 8.149l-26.698-26.724c-17.501 15.761-30.033 37.143-34.649 61.713l-2.586 13.765c-.215 1.145-.347 2.288-.401 3.423 4.09.109 8.215-1.385 11.336-4.51l30.656-30.686.241.241c3.962 3.965 6.031 9.375 6.02 14.983v.084c0 21.528 16.807 39.12 38.003 40.362l-15.356 15.371c10.441 1.213 21.201 1.963 32.202 2.219.29.016.593.029.922.036 2.475.052 4.963.079 7.462.079 34.189 0 66.275-4.823 94.028-13.267 12.069-3.674 19.385-15.925 17.053-28.337zm-57.112 28.346c-6.144 1.869-12.52 3.539-19.068 5.035l-17.119-17.135 34.907-34.941c5.268-5.273 14.366-2.565 15.754 4.761.011.056.021.113.032.169l2.586 13.765c2.335 12.426-5.007 24.671-17.092 28.346z" fill="url(#SVGID_7_)"/><g><path d="m79.748 45.052-40.483 40.523c-6.033 6.039-6.033 15.831 0 21.87l118.421 118.537c6.033 6.039 15.816 6.039 21.849 0l40.483-40.523z" fill="url(#SVGID_8_)"/><path d="m220.02 185.462-8.96 8.969-17.69 17.707-140.27-140.418 17.69-17.697 8.96-8.969z" fill="url(#SVGID_9_)"/><path d="m482.695 345.48-118.42-118.537c-6.033-6.039-15.816-6.039-21.849 0l-40.483 40.523 140.27 140.407 40.483-40.523c6.033-6.04 6.033-15.831-.001-21.87z" fill="url(#SVGID_10_)"/><path d="m468.863 381.196-8.96 8.969-17.69 17.707-140.27-140.417 17.69-17.697 8.96-8.969z" fill="url(#SVGID_11_)"/></g><path d="m451.728 397.725-361.843-362.198c-5.427-5.432-14.226-5.432-19.653 0-5.427 5.432-5.427 14.24 0 19.672l361.843 362.198c5.427 5.432 14.226 5.432 19.653 0 5.427-5.432 5.427-14.24 0-19.672z" fill="url(#SVGID_12_)"/><g><path d="m401.73 4.53c-6.033-6.039-15.816-6.039-21.849 0l-118.421 118.536c-6.033 6.039-6.033 15.831 0 21.871l40.483 40.522 140.27-140.407z" fill="url(#SVGID_13_)"/><path d="m301.943 185.462-8.96-8.969-17.69-17.707 140.28-140.408 17.68 17.707 8.96 8.969z" fill="url(#SVGID_14_)"/><path d="m260.5 307.988-40.483-40.523-140.269 140.407 40.483 40.522c6.033 6.039 15.816 6.039 21.849 0l118.42-118.536c6.033-6.039 6.033-15.831 0-21.87z" fill="url(#SVGID_15_)"/><path d="m106.4 434.549-8.96-8.969-17.69-17.707 140.28-140.408 17.68 17.707 8.96 8.969z" fill="url(#SVGID_16_)"/></g><path d="m451.728 35.527c-5.427-5.432-14.226-5.432-19.653 0l-361.843 362.198c-5.427 5.432-5.427 14.24 0 19.672 5.427 5.432 14.226 5.432 19.653 0l361.843-362.198c5.427-5.432 5.427-14.24 0-19.672z" fill="url(#SVGID_17_)"/><ellipse cx="260.98" cy="225.322" fill="url(#SVGID_18_)" rx="40.399" ry="40.438"/><path d="m260.98 184.884c-4.366 0-8.567.702-12.505 1.985 16.188 5.272 27.893 20.491 27.893 38.453s-11.705 33.182-27.893 38.454c3.939 1.283 8.139 1.985 12.505 1.985 22.312 0 40.399-18.105 40.399-40.438s-18.087-40.439-40.399-40.439z" fill="url(#SVGID_19_)"/></g></svg>