<svg id="Capa_1" enable-background="new 0 0 510 510" height="512" viewBox="0 0 510 510" width="512" xmlns="http://www.w3.org/2000/svg" xmlns:xlink="http://www.w3.org/1999/xlink"><linearGradient id="lg1"><stop offset="0" stop-color="#f3eae6"/><stop offset="1" stop-color="#cdbfba"/></linearGradient><linearGradient id="SVGID_1_" gradientUnits="userSpaceOnUse" x1="71.333" x2="283.879" xlink:href="#lg1" y1="210.894" y2="210.894"/><linearGradient id="lg2"><stop offset="0" stop-color="#faf7f7"/><stop offset=".4551" stop-color="#f3eae6"/><stop offset="1" stop-color="#efe2dd"/></linearGradient><linearGradient id="SVGID_2_" gradientUnits="userSpaceOnUse" x1="147.85" x2="362.15" xlink:href="#lg2" y1="344.165" y2="344.165"/><linearGradient id="SVGID_3_" gradientUnits="userSpaceOnUse" x1="214.834" x2="295.166" xlink:href="#lg1" y1="235.794" y2="235.794"/><linearGradient id="SVGID_4_" gradientUnits="userSpaceOnUse" x1="124" x2="355.368" xlink:href="#lg1" y1="403.526" y2="403.526"/><linearGradient id="lg3"><stop offset="0" stop-color="#cdbfba"/><stop offset="1" stop-color="#766e6e"/></linearGradient><linearGradient id="SVGID_6_" gradientUnits="userSpaceOnUse" x1="54.612" x2="518.01" xlink:href="#lg3" y1="213.041" y2="213.041"/><linearGradient id="SVGID_7_" gradientUnits="userSpaceOnUse" x1="-82.589" x2="330.449" xlink:href="#lg3" y1="216.057" y2="216.057"/><linearGradient id="SVGID_8_" gradientUnits="userSpaceOnUse" x1="-124" x2="283.966" xlink:href="#lg3" y1="213.041" y2="213.041"/><linearGradient id="SVGID_9_" gradientUnits="userSpaceOnUse" x1="17.001" x2="134.733" xlink:href="#lg2" y1="213.041" y2="213.041"/><linearGradient id="SVGID_10_" gradientUnits="userSpaceOnUse" x1="53.409" x2="165.853" xlink:href="#lg1" y1="213.041" y2="213.041"/><linearGradient id="SVGID_11_" gradientUnits="userSpaceOnUse" x1="375.267" x2="492.999" xlink:href="#lg2" y1="213.041" y2="213.041"/><linearGradient id="SVGID_12_" gradientUnits="userSpaceOnUse" x1="411.675" x2="524.119" xlink:href="#lg1" y1="213.041" y2="213.041"/><linearGradient id="SVGID_13_" gradientUnits="userSpaceOnUse" x1="196.134" x2="313.866" xlink:href="#lg2" y1="33.908" y2="33.908"/><linearGradient id="SVGID_14_" gradientUnits="userSpaceOnUse" x1="232.542" x2="344.986" xlink:href="#lg1" y1="33.908" y2="33.908"/><linearGradient id="SVGID_15_" gradientUnits="userSpaceOnUse" x1="196.134" x2="313.866" xlink:href="#lg2" y1="392.174" y2="392.174"/><linearGradient id="SVGID_16_" gradientUnits="userSpaceOnUse" x1="232.542" x2="344.986" xlink:href="#lg1" y1="392.174" y2="392.174"/><linearGradient id="SVGID_17_" gradientUnits="userSpaceOnUse" x1="59.468" x2="177.2" xlink:href="#lg2" y1="106.375" y2="106.375"/><linearGradient id="SVGID_18_" gradientUnits="userSpaceOnUse" x1="95.876" x2="208.32" xlink:href="#lg1" y1="106.375" y2="106.375"/><linearGradient id="SVGID_19_" gradientUnits="userSpaceOnUse" x1="332.8" x2="450.532" xlink:href="#lg2" y1="319.707" y2="319.707"/><linearGradient id="SVGID_20_" gradientUnits="userSpaceOnUse" x1="369.208" x2="481.652" xlink:href="#lg1" y1="319.707" y2="319.707"/><linearGradient id="SVGID_21_" gradientUnits="userSpaceOnUse" x1="332.8" x2="450.532" xlink:href="#lg2" y1="106.375" y2="106.375"/><linearGradient id="SVGID_22_" gradientUnits="userSpaceOnUse" x1="369.208" x2="481.652" xlink:href="#lg1" y1="106.375" y2="106.375"/><linearGradient id="SVGID_23_" gradientUnits="userSpaceOnUse" x1="59.468" x2="177.2" xlink:href="#lg2" y1="319.707" y2="319.707"/><linearGradient id="SVGID_24_" gradientUnits="userSpaceOnUse" x1="95.876" x2="208.32" xlink:href="#lg1" y1="319.707" y2="319.707"/><linearGradient id="SVGID_25_" gradientUnits="userSpaceOnUse" x1="216" x2="294" xlink:href="#lg3" y1="213.041" y2="213.041"/><linearGradient id="SVGID_26_" gradientUnits="userSpaceOnUse" x1="112" x2="850.878" xlink:href="#lg3" y1="477.969" y2="477.969"/><linearGradient id="SVGID_27_" gradientUnits="userSpaceOnUse" x1="52" x2="697.641" xlink:href="#lg3" y1="477.969" y2="477.969"/><g><path d="m436.28 203.394h-163.173l115.381-115.381-10.607-10.608-115.381 115.382v-163.174h-15v163.174l-115.381-115.382-10.607 10.608 115.381 115.381h-163.173v15h163.173l-115.381 115.38 10.607 10.608 115.381-115.382v163.174h15v-163.174l115.381 115.382 10.607-10.608-115.381-115.38h163.173z" fill="url(#SVGID_1_)"/><path d="m279.7 211.86c-3.23-11.08-13.16-18.53-24.7-18.53s-21.47 7.45-24.7 18.53l-82.45 283.14h36.45l70.7-242.76 70.7 242.76h36.45z" fill="url(#SVGID_2_)"/><path d="m279.7 211.86c-3.23-11.08-13.16-18.53-24.7-18.53s-21.47 7.45-24.7 18.53l-15.466 53.112c9.223 7.144 20.395 11.884 32.589 13.286l7.577-26.018 7.577 26.018c12.194-1.402 23.366-6.142 32.589-13.286z" fill="url(#SVGID_3_)"/><g fill="url(#SVGID_4_)"><path d="m169.858 419.424c10.512 4.954 21.519 9.019 32.928 12.101l12.585-43.214c-11.482-3.031-22.445-7.348-32.731-12.784z"/><path d="m327.36 375.527c-10.286 5.436-21.249 9.753-32.731 12.784l12.585 43.214c11.409-3.082 22.417-7.147 32.928-12.101z"/></g><g><path d="m255 413.428c-110.495 0-200.388-89.894-200.388-200.388s89.893-200.387 200.388-200.387 200.388 89.894 200.388 200.388-89.893 200.387-200.388 200.387zm0-355.775c-85.681 0-155.388 69.707-155.388 155.388s69.707 155.387 155.388 155.387 155.388-69.707 155.388-155.388-69.707-155.387-155.388-155.387z" fill="url(#SVGID_6_)"/><path d="m99.612 213.04c0-81.471 63.027-148.493 142.883-154.883-4.126-.33-8.296-.505-12.505-.505-40.657 0-77.711 15.703-105.433 41.354-6.037-.997-12.301-1.526-18.726-1.526-5.17 0-10.23.34-15.16 1-12.27 17.55-21.81 37.14-27.98 58.16.58.29 1.18.56 1.8.81 1.578.641 3.185 1.245 4.819 1.812 7.227 2.508 11.366 10.031 9.579 17.469-2.174 9.048-3.554 18.401-4.062 27.982-3.754-.373-7.579-.574-11.465-.574-2.89 0-5.74.11-8.56.31-.13 2.85-.19 5.71-.19 8.59 0 20.5 3.09 40.28 8.84 58.92 3.839-.003 7.62-.194 11.329-.561 6.223-.617 12.166 2.652 14.858 8.296 5.34 11.194 11.983 21.651 19.726 31.18-1.173-.035-2.349-.064-3.533-.064-8.4 0-16.53.9-24.23 2.57 13.89 23.93 32.6 44.74 54.79 61.08 3.72-1.03 7.32-2.27 10.78-3.67 2.541-1.031 4.805-2.342 6.792-3.872 8.759-6.744 20.374-8.374 30.952-5.161 14.271 4.336 29.405 6.67 45.075 6.67 4.21 0 8.379-.174 12.505-.505-79.857-6.388-142.884-73.411-142.884-154.882z" fill="url(#SVGID_7_)"/><path d="m255 12.653c-6.753 0-13.427.341-20.01.996 59.215 5.898 110.914 37.687 143.608 83.843-6.223.03-12.305.548-18.168 1.509 18.77 17.35 33.26 39.28 41.68 63.98 3.669-.784 7.328 1.432 8.167 5.081 2.699 11.731 4.36 23.854 4.894 36.263-1.68.094-3.349.218-5.002.385.15 2.76.22 5.53.22 8.33 0 20.04-3.81 39.21-10.76 56.81 3.842.708 6.134 4.62 4.866 8.304-3.978 11.553-8.978 22.634-14.905 33.127-3.422-.308-6.902-.471-10.431-.471-1.18 0-2.35.02-3.52.06-14.54 17.9-32.98 32.51-54.01 42.53.258.822.554 1.634.887 2.432 4.635 11.082-.496 23.849-11.226 29.25-22.13 11.14-53.602 25.088-76.301 27.349 6.583.656 13.257.997 20.01.997 110.495 0 200.388-89.894 200.388-200.388s-89.892-200.387-200.387-200.387z" fill="url(#SVGID_8_)"/></g><g><g><path d="m75.867 179.133c-14.932 0-29 2.834-41.338 7.839-23.371 9.48-23.371 42.658 0 52.137 12.338 5.004 26.406 7.839 41.338 7.839s29-2.834 41.338-7.839c23.371-9.48 23.371-42.658 0-52.137-12.339-5.005-26.406-7.839-41.338-7.839z" fill="url(#SVGID_9_)"/><path d="m117.204 186.972c-12.338-5.004-26.406-7.839-41.338-7.839-4.246 0-8.419.237-12.505.68 10.284 1.115 20.003 3.577 28.832 7.159 23.371 9.48 23.371 42.658 0 52.137-8.829 3.581-18.548 6.044-28.832 7.159 4.086.443 8.259.68 12.505.68 14.932 0 29-2.834 41.338-7.839 23.371-9.479 23.371-42.658 0-52.137z" fill="url(#SVGID_10_)"/></g><g><path d="m434.133 179.133c-14.932 0-29 2.834-41.338 7.839-23.371 9.48-23.371 42.658 0 52.137 12.338 5.004 26.406 7.839 41.338 7.839s29-2.834 41.338-7.839c23.371-9.48 23.371-42.658 0-52.137-12.338-5.005-26.406-7.839-41.338-7.839z" fill="url(#SVGID_11_)"/><path d="m475.471 186.972c-12.338-5.004-26.406-7.839-41.338-7.839-4.246 0-8.419.237-12.505.68 10.284 1.115 20.003 3.577 28.832 7.159 23.371 9.48 23.371 42.658 0 52.137-8.829 3.581-18.548 6.044-28.832 7.159 4.086.443 8.259.68 12.505.68 14.932 0 29-2.834 41.338-7.839 23.371-9.479 23.371-42.658 0-52.137z" fill="url(#SVGID_12_)"/></g><g><path d="m255 0c-14.932 0-29 2.834-41.338 7.839-23.371 9.48-23.371 42.658 0 52.137 12.338 5.005 26.406 7.839 41.338 7.839s29-2.834 41.338-7.839c23.371-9.48 23.371-42.658 0-52.137-12.338-5.005-26.406-7.839-41.338-7.839z" fill="url(#SVGID_13_)"/><path d="m296.338 7.839c-12.338-5.005-26.406-7.839-41.338-7.839-4.246 0-8.419.237-12.505.68 10.284 1.115 20.003 3.577 28.832 7.159 23.371 9.48 23.371 42.658 0 52.137-8.829 3.581-18.548 6.044-28.832 7.159 4.086.443 8.259.68 12.505.68 14.932 0 29-2.834 41.338-7.839 23.371-9.48 23.371-42.658 0-52.137z" fill="url(#SVGID_14_)"/></g><g><path d="m255 358.266c-14.932 0-29 2.834-41.338 7.839-23.371 9.48-23.371 42.658 0 52.137 12.338 5.004 26.406 7.839 41.338 7.839s29-2.834 41.338-7.839c23.371-9.48 23.371-42.658 0-52.137-12.338-5.005-26.406-7.839-41.338-7.839z" fill="url(#SVGID_15_)"/><path d="m296.338 366.105c-12.338-5.005-26.406-7.839-41.338-7.839-4.246 0-8.419.237-12.505.68 10.284 1.115 20.003 3.577 28.832 7.159 23.371 9.48 23.371 42.658 0 52.137-8.829 3.581-18.548 6.044-28.832 7.159 4.086.443 8.259.68 12.505.68 14.932 0 29-2.834 41.338-7.839 23.371-9.479 23.371-42.657 0-52.137z" fill="url(#SVGID_16_)"/></g><g><path d="m118.334 72.467c-14.932 0-29 2.834-41.338 7.839-23.371 9.48-23.371 42.658 0 52.137 12.338 5.004 26.406 7.839 41.338 7.839s29-2.834 41.338-7.839c23.371-9.48 23.371-42.658 0-52.137-12.339-5.005-26.406-7.839-41.338-7.839z" fill="url(#SVGID_17_)"/><path d="m159.671 80.306c-12.338-5.004-26.406-7.839-41.338-7.839-4.246 0-8.419.237-12.505.68 10.284 1.115 20.003 3.577 28.832 7.159 23.371 9.48 23.371 42.658 0 52.137-8.829 3.581-18.548 6.044-28.832 7.159 4.086.443 8.259.68 12.505.68 14.932 0 29-2.834 41.338-7.839 23.371-9.48 23.371-42.658 0-52.137z" fill="url(#SVGID_18_)"/></g><g><path d="m391.666 285.799c-14.932 0-29 2.834-41.338 7.839-23.371 9.48-23.371 42.658 0 52.137 12.338 5.004 26.406 7.839 41.338 7.839s29-2.834 41.338-7.839c23.371-9.48 23.371-42.658 0-52.137-12.338-5.004-26.406-7.839-41.338-7.839z" fill="url(#SVGID_19_)"/><path d="m433.004 293.638c-12.338-5.004-26.406-7.839-41.338-7.839-4.246 0-8.419.237-12.505.68 10.284 1.115 20.003 3.577 28.832 7.159 23.371 9.48 23.371 42.658 0 52.137-8.829 3.581-18.548 6.044-28.832 7.159 4.086.443 8.259.68 12.505.68 14.932 0 29-2.834 41.338-7.839 23.371-9.479 23.371-42.657 0-52.137z" fill="url(#SVGID_20_)"/></g><g><path d="m391.666 72.467c-14.932 0-29 2.834-41.338 7.839-23.371 9.48-23.371 42.658 0 52.137 12.338 5.004 26.406 7.839 41.338 7.839s29-2.834 41.338-7.839c23.371-9.48 23.371-42.658 0-52.137-12.338-5.005-26.406-7.839-41.338-7.839z" fill="url(#SVGID_21_)"/><path d="m433.004 80.306c-12.338-5.004-26.406-7.839-41.338-7.839-4.246 0-8.419.237-12.505.68 10.284 1.115 20.003 3.577 28.832 7.159 23.371 9.48 23.371 42.658 0 52.137-8.829 3.581-18.548 6.044-28.832 7.159 4.086.443 8.259.68 12.505.68 14.932 0 29-2.834 41.338-7.839 23.371-9.48 23.371-42.658 0-52.137z" fill="url(#SVGID_22_)"/></g><g><path d="m118.334 285.799c-14.932 0-29 2.834-41.338 7.839-23.371 9.48-23.371 42.658 0 52.137 12.338 5.004 26.406 7.839 41.338 7.839s29-2.834 41.338-7.839c23.371-9.48 23.371-42.658 0-52.137-12.339-5.004-26.406-7.839-41.338-7.839z" fill="url(#SVGID_23_)"/><path d="m159.671 293.638c-12.338-5.004-26.406-7.839-41.338-7.839-4.246 0-8.419.237-12.505.68 10.284 1.115 20.003 3.577 28.832 7.159 23.371 9.48 23.371 42.658 0 52.137-8.829 3.581-18.548 6.044-28.832 7.159 4.086.443 8.259.68 12.505.68 14.932 0 29-2.834 41.338-7.839 23.371-9.479 23.371-42.657 0-52.137z" fill="url(#SVGID_24_)"/></g></g><path d="m255 174.04c-21.539 0-39 17.461-39 39 0 21.539 17.461 39 39 39 21.539 0 39-17.461 39-39 0-21.539-17.461-39-39-39z" fill="url(#SVGID_25_)"/><g><path d="m491.634 510h-473.268c-20.968 0-25.527-29.434-5.574-35.888 52.566-17.001 141.432-28.174 242.208-28.174s189.642 11.173 242.208 28.174c19.953 6.454 15.395 35.888-5.574 35.888z" fill="url(#SVGID_26_)"/><path d="m497.208 474.112c-52.566-17.001-141.432-28.174-242.208-28.174-6.727 0-13.395.054-20.008.152 49.114.728 94.905 4.109 134.395 9.502 33.668 4.597 30.226 54.408-3.754 54.408h126.002c20.968 0 25.526-29.434 5.573-35.888z" fill="url(#SVGID_27_)"/></g></g></svg>