<svg id="Capa_1" enable-background="new 0 0 510 510" height="512" viewBox="0 0 510 510" width="512" xmlns="http://www.w3.org/2000/svg" xmlns:xlink="http://www.w3.org/1999/xlink"><linearGradient id="lg1"><stop offset="0" stop-color="#01d0fb"/><stop offset=".6075" stop-color="#26a6fe"/><stop offset="1" stop-color="#0182fc"/></linearGradient><linearGradient id="SVGID_1_" gradientUnits="userSpaceOnUse" x1="70.667" x2="495.451" xlink:href="#lg1" y1="237.92" y2="237.92"/><linearGradient id="lg2"><stop offset="0" stop-color="#01bffa"/><stop offset="1" stop-color="#5b5cff"/></linearGradient><linearGradient id="SVGID_2_" gradientUnits="userSpaceOnUse" x1="73.377" x2="534.006" xlink:href="#lg2" y1="237.923" y2="237.923"/><linearGradient id="SVGID_3_" gradientUnits="userSpaceOnUse" x1="60.667" x2="415.88" xlink:href="#lg1" y1="252.789" y2="252.789"/><linearGradient id="SVGID_4_" gradientUnits="userSpaceOnUse" x1="60.667" x2="415.88" xlink:href="#lg1" y1="285.195" y2="285.195"/><linearGradient id="SVGID_5_" gradientUnits="userSpaceOnUse" x1="60.667" x2="415.88" xlink:href="#lg1" y1="317.605" y2="317.605"/><linearGradient id="SVGID_6_" gradientUnits="userSpaceOnUse" x1="60.667" x2="415.88" xlink:href="#lg1" y1="350.015" y2="350.015"/><linearGradient id="SVGID_7_" gradientUnits="userSpaceOnUse" x1="60.667" x2="415.88" xlink:href="#lg1" y1="382.419" y2="382.419"/><linearGradient id="SVGID_8_" gradientUnits="userSpaceOnUse" x1="76.667" x2="344.136" xlink:href="#lg1" y1="252.789" y2="252.789"/><linearGradient id="SVGID_9_" gradientUnits="userSpaceOnUse" x1="76.667" x2="344.136" xlink:href="#lg1" y1="285.194" y2="285.194"/><linearGradient id="SVGID_10_" gradientUnits="userSpaceOnUse" x1="76.667" x2="344.136" xlink:href="#lg1" y1="317.604" y2="317.604"/><linearGradient id="SVGID_11_" gradientUnits="userSpaceOnUse" x1="76.667" x2="344.136" xlink:href="#lg1" y1="350.014" y2="350.014"/><linearGradient id="SVGID_12_" gradientUnits="userSpaceOnUse" x1="76.667" x2="344.136" xlink:href="#lg1" y1="382.419" y2="382.419"/><linearGradient id="SVGID_13_" gradientUnits="userSpaceOnUse" x1="165" x2="363.225" xlink:href="#lg2" y1="344.606" y2="344.606"/><linearGradient id="SVGID_14_" gradientUnits="userSpaceOnUse" x1="90" x2="335.381" xlink:href="#lg2" y1="344.606" y2="344.606"/><linearGradient id="SVGID_15_" gradientUnits="userSpaceOnUse" x1="0" x2="510" y1="442.199" y2="442.199"><stop offset="0" stop-color="#faf7f7"/><stop offset=".4551" stop-color="#f3eae6"/><stop offset="1" stop-color="#efe2dd"/></linearGradient><linearGradient id="SVGID_16_" gradientUnits="userSpaceOnUse" x1="357" x2="554.206" y1="442.199" y2="442.199"><stop offset="0" stop-color="#f3eae6"/><stop offset="1" stop-color="#cdbfba"/></linearGradient><g><path d="m223.485 53.471-191.971 332.509c-14.006 24.26 3.502 54.585 31.515 54.585h383.942c28.013 0 45.521-30.325 31.515-54.585l-191.971-332.509c-14.007-24.261-49.023-24.261-63.03 0z" fill="url(#SVGID_1_)"/><path d="m478.486 385.98-191.971-332.509c-11.002-19.056-34.962-23.136-51.525-12.256 4.524 2.971 8.5 7.051 11.505 12.256l30.527 52.876-21.809 37.709-42.008-72.761c-.003 0-.002 0-.005 0l-8.66 15 42.004 72.752-28.782 49.766-41.942-72.648c-.033 0-.041 0-.075 0l-8.625 14.94 41.972 72.698-28.789 49.779-41.913-72.597c-.01-.02-.02-.04-.03-.06l-8.66 15 41.937 72.641-28.787 49.776-41.88-72.537c-.033 0-.041 0-.075 0l-8.625 14.94 41.911 72.586-28.786 49.773-41.88-72.549c-.003 0-.002 0-.005 0l-8.65 14.99 41.872 72.538-13.002 22.482h25.98 2.91 14.4l-7.193-12.461 22.652-39.166c2.728-4.718 9.54-4.715 12.265.004l17.073 29.568-12.756 22.055h25.49 3.41 13.91l-6.949-12.036 28.786-49.772 22.679 39.284-13.026 22.524h26.03 2.87 14.45l-7.219-12.504 28.789-49.78 22.761 39.423-13.221 22.861h26.42 2.47 14.85l-7.419-12.85 22.648-39.161c2.728-4.718 9.54-4.715 12.265.004l16.303 28.237-13.747 23.769h25.343c-.001 0-.001 0-.002 0h40.02c28.012.001 45.52-30.324 31.514-54.584zm-102.863-108.848 13.346 23.116-21.809 37.71-22.76-39.423 12.382-21.41c4.191-7.248 14.655-7.244 18.841.007zm-37.114-64.286 13.264 22.974-21.809 37.709-22.679-39.281 12.382-21.409c4.192-7.248 14.656-7.244 18.842.007zm-17.214 75.672-28.783 49.769-22.679-39.283 22.647-39.157c2.728-4.718 9.54-4.715 12.265.005zm-39.267-140.873c4.191-7.247 14.655-7.243 18.841.007l13.787 23.88-21.809 37.709-23.201-40.186zm-14.923 47.014 17.073 29.571-28.783 49.767-23.201-40.186 22.646-39.156c2.729-4.718 9.54-4.715 12.265.004zm-37.451 64.757 17.072 29.57-28.79 49.778-23.201-40.185 22.653-39.168c2.729-4.717 9.541-4.715 12.266.005zm-49.171 144.107-23.201-40.184 22.65-39.164c2.728-4.718 9.54-4.715 12.265.005l17.072 29.57zm74.571-.469-22.68-39.283 28.79-49.778 22.68 39.282zm74.655-.338-22.76-39.423 22.647-39.159c2.728-4.718 9.54-4.715 12.265.004l16.632 28.807zm51.884-39.76 12.382-21.41c4.191-7.247 14.655-7.244 18.841.007l13.017 22.546-21.809 37.709zm42.38 73.406-5.516-9.555 21.692-37.506c8.184 18.064.063 38.461-16.176 47.061z" fill="url(#SVGID_2_)"/><g><path d="m440.145 436.814-216.82-375.55c-2.072-3.587-6.659-4.817-10.245-2.745-3.587 2.071-4.816 6.658-2.745 10.245l216.82 375.55c1.389 2.406 3.91 3.751 6.502 3.751 1.272 0 2.562-.324 3.743-1.006 3.587-2.07 4.816-6.657 2.745-10.245z" fill="url(#SVGID_3_)"/><path d="m185.905 126.075c-2.071-3.587-6.658-4.817-10.245-2.745-3.587 2.071-4.816 6.658-2.745 10.245l179.4 310.74c1.389 2.406 3.91 3.751 6.502 3.751 1.272 0 2.562-.324 3.743-1.006 3.587-2.071 4.816-6.658 2.745-10.245z" fill="url(#SVGID_4_)"/><path d="m148.475 190.894c-2.071-3.587-6.659-4.816-10.245-2.745-3.587 2.071-4.816 6.658-2.745 10.245l141.98 245.92c1.389 2.406 3.91 3.751 6.502 3.751 1.272 0 2.562-.324 3.743-1.006 3.587-2.071 4.816-6.658 2.745-10.245z" fill="url(#SVGID_5_)"/><path d="m111.055 255.715c-2.071-3.587-6.658-4.816-10.245-2.745s-4.816 6.658-2.745 10.245l104.56 181.1c1.389 2.406 3.91 3.751 6.502 3.751 1.272 0 2.562-.324 3.743-1.006 3.587-2.071 4.816-6.658 2.745-10.245z" fill="url(#SVGID_6_)"/><path d="m73.636 320.525c-2.071-3.588-6.66-4.818-10.245-2.746-3.587 2.071-4.817 6.658-2.746 10.245l67.13 116.29c1.389 2.407 3.91 3.752 6.502 3.752 1.272 0 2.562-.324 3.743-1.006 3.587-2.071 4.817-6.658 2.746-10.245z" fill="url(#SVGID_7_)"/></g><g><path d="m295.754 58.519c-3.587-2.073-8.174-.842-10.245 2.745l-216.82 375.55c-2.071 3.587-.842 8.174 2.745 10.245 1.181.682 2.471 1.006 3.743 1.006 2.592 0 5.113-1.346 6.502-3.751l216.821-375.549c2.071-3.588.841-8.175-2.746-10.246z" fill="url(#SVGID_8_)"/><path d="m333.175 123.33c-3.588-2.073-8.174-.842-10.245 2.745l-179.4 310.74c-2.071 3.587-.842 8.174 2.745 10.245 1.181.682 2.471 1.006 3.743 1.006 2.592 0 5.113-1.346 6.502-3.751l179.4-310.74c2.071-3.588.842-8.175-2.745-10.245z" fill="url(#SVGID_9_)"/><path d="m370.604 188.149c-3.588-2.072-8.174-.842-10.245 2.745l-141.98 245.92c-2.071 3.587-.842 8.174 2.745 10.245 1.181.682 2.471 1.006 3.743 1.006 2.592 0 5.113-1.346 6.502-3.751l141.98-245.92c2.072-3.587.843-8.174-2.745-10.245z" fill="url(#SVGID_10_)"/><path d="m408.024 252.97c-3.587-2.072-8.174-.843-10.245 2.745l-104.56 181.1c-2.071 3.587-.842 8.174 2.745 10.245 1.181.682 2.471 1.006 3.743 1.006 2.592 0 5.113-1.345 6.502-3.751l104.56-181.1c2.072-3.587.843-8.174-2.745-10.245z" fill="url(#SVGID_11_)"/><path d="m445.444 317.779c-3.588-2.071-8.174-.842-10.245 2.746l-67.13 116.29c-2.071 3.587-.841 8.174 2.746 10.245 1.181.682 2.47 1.006 3.743 1.006 2.592 0 5.113-1.346 6.502-3.752l67.13-116.29c2.071-3.588.842-8.174-2.746-10.245z" fill="url(#SVGID_12_)"/></g><path d="m240.077 257.263-90.905 157.454c-6.632 11.488 1.658 25.848 14.923 25.848h181.809c13.265 0 21.556-14.36 14.923-25.848l-90.905-157.454c-6.631-11.488-23.213-11.488-29.845 0z" fill="url(#SVGID_13_)"/><path d="m360.828 414.717-90.904-157.454c-6.633-11.488-23.214-11.488-29.847 0l-5.087 8.811 85.818 148.643c6.633 11.488-1.658 25.848-14.923 25.848h40.02c13.265 0 21.555-14.36 14.923-25.848z" fill="url(#SVGID_14_)"/><g><path d="m490.158 474.725h-470.316c-10.958 0-19.842-8.884-19.842-19.843v-25.367c0-10.959 8.884-19.842 19.842-19.842h470.315c10.959 0 19.842 8.884 19.842 19.842v25.367c.001 10.959-8.883 19.843-19.841 19.843z" fill="url(#SVGID_15_)"/><path d="m490.158 409.673h-40.02c10.958 0 19.842 8.884 19.842 19.842v25.367c0 10.958-8.884 19.842-19.842 19.842h40.02c10.958 0 19.842-8.884 19.842-19.842v-25.367c0-10.959-8.884-19.842-19.842-19.842z" fill="url(#SVGID_16_)"/></g></g></svg>