<svg id="Capa_1" enable-background="new 0 0 510 510" height="512" viewBox="0 0 510 510" width="512" xmlns="http://www.w3.org/2000/svg" xmlns:xlink="http://www.w3.org/1999/xlink"><linearGradient id="lg1"><stop offset="0" stop-color="#01d0fb"/><stop offset=".6075" stop-color="#26a6fe"/><stop offset="1" stop-color="#0182fc"/></linearGradient><linearGradient id="SVGID_1_" gradientUnits="userSpaceOnUse" x1="79.28" x2="286.306" xlink:href="#lg1" y1="311.02" y2="311.02"/><linearGradient id="lg2"><stop offset="0" stop-color="#f3eae6"/><stop offset="1" stop-color="#cdbfba"/></linearGradient><linearGradient id="SVGID_2_" gradientUnits="userSpaceOnUse" x1="268.457" x2="396.047" xlink:href="#lg2" y1="99.853" y2="99.853"/><linearGradient id="SVGID_3_" gradientUnits="userSpaceOnUse" x1="268.457" x2="396.047" xlink:href="#lg2" y1="182.343" y2="182.343"/><linearGradient id="lg3"><stop offset="0" stop-color="#faf7f7"/><stop offset=".4551" stop-color="#f3eae6"/><stop offset="1" stop-color="#efe2dd"/></linearGradient><linearGradient id="SVGID_4_" gradientUnits="userSpaceOnUse" x1="193.705" x2="485.456" xlink:href="#lg3" y1="344.109" y2="344.109"/><linearGradient id="SVGID_5_" gradientUnits="userSpaceOnUse" x1="221.576" x2="423.958" xlink:href="#lg2" y1="365.953" y2="365.953"/><linearGradient id="SVGID_6_" gradientUnits="userSpaceOnUse" x1="221.576" x2="423.958" xlink:href="#lg2" y1="330.157" y2="330.157"/><linearGradient id="SVGID_7_" gradientUnits="userSpaceOnUse" x1="221.576" x2="423.958" xlink:href="#lg2" y1="469.93" y2="469.93"/><linearGradient id="SVGID_8_" gradientUnits="userSpaceOnUse" x1="80" x2="437.259" xlink:href="#lg2" y1="344.109" y2="344.109"/><linearGradient id="SVGID_9_" gradientUnits="userSpaceOnUse" x1="182.826" x2="494.453" xlink:href="#lg3" y1="165.54" y2="165.54"/><linearGradient id="SVGID_10_" gradientUnits="userSpaceOnUse" x1="347.168" x2="537.401" xlink:href="#lg2" y1="165.54" y2="165.54"/><linearGradient id="SVGID_11_" gradientUnits="userSpaceOnUse" x1="179.034" x2="231.439" xlink:href="#lg2" y1="125.097" y2="125.097"/><linearGradient id="SVGID_12_" gradientUnits="userSpaceOnUse" x1="169.744" x2="352.25" xlink:href="#lg3" y1="90.367" y2="90.367"/><linearGradient id="SVGID_13_" gradientUnits="userSpaceOnUse" x1="223.569" x2="460.575" xlink:href="#lg2" y1="90.367" y2="90.367"/><linearGradient id="SVGID_14_" gradientUnits="userSpaceOnUse" x1="178.161" x2="206.76" xlink:href="#lg3" y1="76.291" y2="76.291"/><linearGradient id="SVGID_15_" gradientUnits="userSpaceOnUse" x1="146.819" x2="234.737" xlink:href="#lg3" y1="266.729" y2="266.729"/><linearGradient id="SVGID_16_" gradientUnits="userSpaceOnUse" x1="235.032" x2="300.206" xlink:href="#lg2" y1="47.518" y2="47.518"/><linearGradient id="SVGID_17_" gradientUnits="userSpaceOnUse" x1="143.164" x2="219.793" xlink:href="#lg3" y1="372.321" y2="372.321"/><linearGradient id="SVGID_18_" gradientUnits="userSpaceOnUse" x1="240.514" x2="429.619" xlink:href="#lg3" y1="190.832" y2="190.832"/><linearGradient id="SVGID_19_" gradientUnits="userSpaceOnUse" x1="-107.279" x2="308.535" xlink:href="#lg1" y1="489.163" y2="489.163"/><linearGradient id="SVGID_20_" gradientUnits="userSpaceOnUse" x1="12.845" x2="136.911" xlink:href="#lg1" y1="451.835" y2="451.835"/><g><path d="m99.216 498.537h-19.936v-278.056c0-53.474 43.503-96.978 96.977-96.978h110.048v19.935h-110.047c-42.481 0-77.042 34.562-77.042 77.043z" fill="url(#SVGID_1_)"/><g><path d="m472.073 166.342c-15.515-15.515-24.231-36.558-24.231-58.5v-7.455c0-45.723-37.066-82.788-82.788-82.788h-36.056c-.599 0-1.195.022-1.789.052 44.774 1.089 80.743 37.7 80.743 82.737v24.143c0 31.796 25.779 57.572 57.575 57.577h.017c8.226-.001 12.346-9.948 6.529-15.766z" fill="url(#SVGID_2_)"/><path d="m472.073 248.833c-15.515-15.515-24.231-36.558-24.231-58.5v-7.455c0-45.723-37.066-82.788-82.788-82.788h-36.056c-.599 0-1.195.022-1.789.052 44.774 1.089 80.743 37.7 80.743 82.737v24.143c0 31.796 25.779 57.572 57.575 57.577h.017c8.226-.002 12.346-9.949 6.529-15.766z" fill="url(#SVGID_3_)"/><path d="m258.19 178.217v99.312c0 4.684-2.649 8.934-6.805 11.096l-.068.035c2.148-12.733.243-26.176-6.151-38.274-11.59-21.93-38.763-30.312-60.694-18.723-8.533 4.51-9.395 16.569-1.641 22.316 18.721 13.874 29.375 36.581 27.748 60.13-.467 6.758-2.756 13.239-6.202 19.071-10.567 17.884-16.529 38.811-16.227 61.159.854 63.201 52.412 114.777 115.613 115.649 65.531.905 118.937-51.945 118.937-117.268v-214.503zm23.026 247.138c-18.024 0-32.635-14.611-32.635-32.635s14.611-32.635 32.635-32.635 32.635 14.611 32.635 32.635-14.611 32.635-32.635 32.635z" fill="url(#SVGID_4_)"/><g><path d="m267.225 363.232c4.241-2.016 8.983-3.147 13.991-3.147 14.223 0 26.321 9.098 30.791 21.792 1.532 4.35 7.056 5.632 10.317 2.371 8.298-8.298 8.298-21.75 0-30.048-9.61-9.61-24.658-11.124-35.989-3.621z" fill="url(#SVGID_5_)"/><path d="m294.519 333.581c.048-.015.095-.03.143-.045 13.591-4.192 27.833.935 35.846 11.748 2.746 3.705 8.403 3.302 10.558-.776 5.483-10.375 1.518-23.23-8.857-28.713-12.016-6.35-26.841-3.361-35.458 7.148l-5.194 6.335c-1.729 2.111.359 5.119 2.962 4.303z" fill="url(#SVGID_6_)"/><path d="m297.013 459.764c0-4.379-3.55-7.929-7.929-7.929s-7.929 3.55-7.929 7.929c0 6.84-5.565 12.404-12.404 12.404-6.84 0-12.405-5.564-12.405-12.404 0-4.379-3.55-7.929-7.929-7.929s-7.929 3.55-7.929 7.929c0 15.583 12.678 28.262 28.262 28.262 15.585-.001 28.263-12.679 28.263-28.262z" fill="url(#SVGID_7_)"/><path d="m382.809 178.217h-124.619v107.131s9.999-5.204 14.619-9.824l5.175-5.175c5.744-5.744 12.759-9.922 20.382-12.268-1.534 3.693-2.716 7.529-3.557 11.455-8.631 6.236-14.398 16.112-15.136 27.328l-.869 13.221c-.182 2.77 3.433 4.015 4.963 1.699.516-.781 1.061-1.55 1.636-2.306 11.064-14.539 29.783-19.818 46.232-14.491 5.607 1.816 11.18-2.869 10.387-8.709-.335-2.468-.996-4.81-1.924-6.997l7.411-7.411.055-.055c3.096-3.103 8.28-2.308 10.37 1.545 2.552 4.707 4.003 10.097 4.003 15.828 0 8.326 1.75 16.243 4.901 23.404 7.214 16.393 12.219 33.633 14.524 51.281-6.827-.009-12.379-5.56-12.388-12.387-.004-3.26-1.884-6.275-4.944-7.399-5.628-2.069-10.914 2.04-10.914 7.383 0 15.583 12.678 28.262 28.262 28.262.439 0 .874-.013 1.308-.033.073 1.998.122 3.998.122 6.003v7.019c0 5.388-.366 10.69-1.072 15.884-.987 7.266-8.826 11.695-15.385 8.417-.087-.043-.173-.087-.26-.133-3.902-2.039-6.011-6.225-5.946-10.626.068-4.615-3.807-8.343-8.473-8.031-4.15.277-7.44 4.163-7.381 8.321.036 2.483.393 4.89 1.034 7.18.871 3.117 1.198 6.353.813 9.566-.037.308-.056.621-.056.939 0 9.018-9.673 15.819-19.189 10.573-3.74-2.062-5.684-6.182-5.621-10.453.068-4.615-3.806-8.342-8.472-8.031-4.193.28-7.453 4.204-7.38 8.406.265 15.356 12.84 27.766 28.257 27.766 12.938 0 23.865-8.742 27.206-20.626 3.56 1.62 7.508 2.531 11.667 2.531h.027c1.266-.001 2.113 1.283 1.636 2.456-15.027 36.959-48.357 64.524-88.74 71.444 7.884 1.351 16.034 1.925 24.373 1.614 63.226-2.362 112.852-55.215 112.852-118.485v-213.216z" fill="url(#SVGID_8_)"/></g><path d="m294.741 22.434c6.719-8.707 17.095-13.806 28.093-13.806h36.056c45.723 0 82.788 37.066 82.788 82.788v156.771c0 21.942 8.716 42.985 24.231 58.5 5.818 5.818 1.697 15.765-6.53 15.765h-39.25c-32.139 0-58.193-26.054-58.193-58.193 0-18.387-14.905-33.292-33.292-33.292h-15.768c-13.087 0-25.638 5.199-34.892 14.453l-5.175 5.175c-4.629 4.629-7.229 10.907-7.229 17.452 0 10.954-7.22 20.598-17.731 23.683l-34.782 10.208c-8.652 2.539-17.316-3.947-17.316-12.964v-7.923c0-42.93 17.054-84.103 47.41-114.459l46.108-46.108-1.112-78.284c-.1-7.144 2.22-14.111 6.584-19.766z" fill="url(#SVGID_9_)"/><path d="m465.909 306.687c-15.515-15.515-24.231-36.558-24.231-58.5v-156.771c0-45.723-37.066-82.788-82.788-82.788h-36.056c-.599 0-1.195.022-1.789.052 44.774 1.089 80.743 37.7 80.743 82.737v156.771c0 21.942 8.716 42.985 24.231 58.5 5.756 5.756 1.781 15.548-6.273 15.755.129.001.255.01.384.01h39.25c8.226-.002 12.347-9.949 6.529-15.766z" fill="url(#SVGID_10_)"/><path d="m189.875 112.735v20.119c0 4.093 4.948 6.142 7.842 3.248l23.182-23.182z" fill="url(#SVGID_11_)"/><path d="m302.859 31.168h-11.799c-13.753 0-26.944 5.464-36.669 15.189l-6.638 6.638c-6.445 6.445-15.187 10.066-24.303 10.066h-11.777c-15.6 0-28.246 12.646-28.246 28.246v20.432c0 8.209 6.655 14.864 14.864 14.864h52.847c4.468 0 8.37 3.372 8.659 7.831.316 4.886-3.553 8.947-8.371 8.947h-39.433c-4.826 0-8.738 3.912-8.738 8.738v12.011c0 9.17 7.434 16.604 16.604 16.604h34.548c58.727 0 106.334-47.608 106.334-106.334v-64.24c0-9.167-11.198-13.627-17.501-6.971l-16.943 17.894c-6.095 6.438-14.571 10.085-23.438 10.085z" fill="url(#SVGID_12_)"/><path d="m343.242 3.188-7.429 7.846v63.365c0 58.727-47.608 106.334-106.334 106.334h24.93c58.727 0 106.334-47.608 106.334-106.334v-64.24c0-9.167-11.199-13.627-17.501-6.971z" fill="url(#SVGID_13_)"/><path d="m193.897 59.463h-.807c-7.59 0-13.742 6.153-13.742 13.742v15.533c0 3.896 4.71 5.847 7.465 3.092l14.49-14.49c6.596-6.597 1.924-17.877-7.406-17.877z" fill="url(#SVGID_14_)"/><path d="m272.986 230.966c-13.087 0-25.638 5.199-34.892 14.453l-5.175 5.175c-4.629 4.629-7.229 10.906-7.229 17.452 0 10.954-7.22 20.598-17.731 23.683l-10.831 3.179c2.774 5.66 9.354 8.962 15.939 7.03l34.782-10.208c10.511-3.085 17.731-12.728 17.731-23.683 0-6.546 2.6-12.824 7.229-17.452l5.175-5.175c9.254-9.254 21.805-14.453 34.892-14.453h-39.89z" fill="url(#SVGID_15_)"/><g><path d="m228.204 62.724h52.844c5.999 0 10.862-5.25 10.862-11.727s-4.864-11.727-10.862-11.727c-4.229 0-4.841-6.016-.764-6.959-9.732 2.069-18.748 6.901-25.892 14.045l-6.638 6.638c-5.315 5.315-12.192 8.703-19.55 9.73z" fill="url(#SVGID_16_)"/></g><path d="m268.751 348.45c0-16.107-13.057-29.164-29.164-29.164h-12.111c-9.146 0-17.588 4.816-22.338 12.632-2.381 3.919-4.54 7.988-6.457 12.191h13.738c10.953 0 19.833 8.88 19.833 19.833 0 3.953-1.248 7.773-3.394 11.093-3.74 5.786-5.7 12.831-5.1 20.36 1.237 15.524 13.579 28.179 29.07 29.782 5.677.587 11.091-.292 15.924-2.292-11.839-4.898-20.17-16.556-20.17-30.165 0-9.72 4.251-18.446 10.994-24.423 5.717-5.069 9.175-12.206 9.175-19.847z" fill="url(#SVGID_17_)"/><path d="m363.309 119.197v89.6c0 14.306-5.683 28.026-15.799 38.142l-10.002 10.002c-7.208 7.208-16.985 11.258-27.179 11.258h-7.157c-5.432 0-9.835-4.403-9.835-9.835 0-17.431 6.924-34.148 19.25-46.474l3.286-3.286c14.29-14.29 22.318-33.671 22.318-53.88 0-14.545 5.398-28.572 15.149-39.364 3.512-3.886 9.969-1.402 9.969 3.837z" fill="url(#SVGID_18_)"/></g><path d="m143.002 483.232c-3.493-11.16-15.355-17.406-26.54-13.956-8.002 2.468-14.25 8.198-17.556 15.396-1.718 3.742-5.54 6.068-9.658 6.068-4.118 0-7.94-2.326-9.658-6.068-3.305-7.199-9.554-12.928-17.556-15.396-11.185-3.45-23.047 2.795-26.54 13.956-1.375 4.394 2.338 8.775 6.891 8.098 13.311-1.979 27.008 4.466 33.653 17.04.023.044.047.089.07.133.568 1.088 1.61 1.549 2.609 1.486v.011h21.486l.003-.016c.858-.077 1.694-.549 2.181-1.481.023-.044.047-.089.07-.133 6.646-12.574 20.342-19.019 33.654-17.04 4.553.677 8.266-3.704 6.891-8.098z" fill="url(#SVGID_19_)"/><g fill="url(#SVGID_20_)"><path d="m134.207 448.292c-2.096-6.796-9.304-10.605-16.1-8.509-7.87 2.428-12.943 10.062-12.131 18.258l.489 4.94c.163 1.645 2.347 2.039 3.112.574l.042-.081c4.027-7.621 12.328-11.526 20.395-10.327 2.766.412 5.017-2.185 4.193-4.855z"/><path d="m60.389 439.783c-6.796-2.096-14.004 1.713-16.1 8.509-.824 2.671 1.427 5.268 4.192 4.856 8.067-1.199 16.368 2.706 20.395 10.327.014.027.028.054.042.081.766 1.465 2.95 1.07 3.113-.574l.489-4.94c.811-8.198-4.261-15.831-12.131-18.259z"/></g></g></svg>