<svg id="Capa_1" enable-background="new 0 0 510 510" height="512" viewBox="0 0 510 510" width="512" xmlns="http://www.w3.org/2000/svg" xmlns:xlink="http://www.w3.org/1999/xlink"><linearGradient id="lg1"><stop offset="0" stop-color="#fef056"/><stop offset=".5213" stop-color="#fbc56d"/><stop offset="1" stop-color="#c86d36"/></linearGradient><linearGradient id="SVGID_1_" gradientUnits="userSpaceOnUse" x1="179.918" x2="349.205" xlink:href="#lg1" y1="73.812" y2="73.812"/><linearGradient id="SVGID_2_" gradientUnits="userSpaceOnUse" x1="145.24" x2="324.139" xlink:href="#lg1" y1="73.81" y2="73.81"/><linearGradient id="lg2"><stop offset="0" stop-color="#faf7f7"/><stop offset=".4551" stop-color="#f3eae6"/><stop offset="1" stop-color="#efe2dd"/></linearGradient><linearGradient id="SVGID_3_" gradientUnits="userSpaceOnUse" x1="154.907" x2="327.093" xlink:href="#lg2" y1="426.5" y2="426.5"/><linearGradient id="lg3"><stop offset="0" stop-color="#f3eae6"/><stop offset="1" stop-color="#cdbfba"/></linearGradient><linearGradient id="SVGID_4_" gradientUnits="userSpaceOnUse" x1="193.24" x2="393.6" xlink:href="#lg3" y1="426.5" y2="426.5"/><linearGradient id="SVGID_5_" gradientUnits="userSpaceOnUse" x1="222.907" x2="291.835" xlink:href="#lg2" y1="272.156" y2="272.156"/><linearGradient id="SVGID_6_" gradientUnits="userSpaceOnUse" x1="205.24" x2="347.412" xlink:href="#lg3" y1="272.156" y2="272.156"/><linearGradient id="SVGID_7_" gradientTransform="matrix(1 0 0 .386 0 45.527)" gradientUnits="userSpaceOnUse" x1="216.225" x2="323.562" xlink:href="#lg3" y1="262.081" y2="262.081"/><linearGradient id="SVGID_8_" gradientUnits="userSpaceOnUse" x1="205.907" x2="258.679" xlink:href="#lg3" y1="146.656" y2="146.656"/><linearGradient id="SVGID_9_" gradientUnits="userSpaceOnUse" x1="156.24" x2="398.42" xlink:href="#lg2" y1="375" y2="375"/><linearGradient id="SVGID_10_" gradientUnits="userSpaceOnUse" x1="287.573" x2="404.003" xlink:href="#lg3" y1="375" y2="375"/><linearGradient id="SVGID_11_" gradientUnits="userSpaceOnUse" x1="224.24" x2="335.357" xlink:href="#lg2" y1="124" y2="124"/><linearGradient id="SVGID_12_" gradientUnits="userSpaceOnUse" x1="210.213" x2="326.643" xlink:href="#lg3" y1="124" y2="124"/><linearGradient id="lg4"><stop offset="0" stop-color="#bbec6c"/><stop offset=".5857" stop-color="#78a91f"/><stop offset="1" stop-color="#02905d"/></linearGradient><linearGradient id="SVGID_13_" gradientUnits="userSpaceOnUse" x1="75.046" x2="500.434" xlink:href="#lg4" y1="478.001" y2="478.001"/><linearGradient id="SVGID_14_" gradientUnits="userSpaceOnUse" x1="-150.368" x2="530.411" xlink:href="#lg4" y1="478.001" y2="478.001"/><g><g><path d="m309.322 61.157c-.178-.542-.359-1.076-.547-1.609-11.917-34.225-42.748-56.692-76.881-59.496-11.123-.914-19.163 10.144-15.336 20.628.16.44.314.884.461 1.332.074.225.145.443.212.669 5.4 17.465-1.381 35.879-15.625 45.939-7.345 5.188-12.691 12.733-14.749 21.487l-.029.124c-2.258 9.606-.521 19.751 4.94 27.97 15.995 24.071 46.62 35.562 75.421 26.13 34.603-11.329 53.465-48.571 42.133-83.174z" fill="url(#SVGID_1_)"/><path d="m309.322 61.157c-.178-.542-.359-1.077-.547-1.609-11.917-34.225-42.748-56.692-76.881-59.496-5.72-.47-10.618 2.23-13.513 6.385 22.832 9.363 41.661 28.088 50.374 53.111.188.532.37 1.066.547 1.609 11.331 34.602-7.531 71.844-42.133 83.176-.171.056-.342.102-.513.156 12.746 4.074 26.844 4.327 40.533-.156 34.603-11.331 53.465-48.573 42.133-83.176z" fill="url(#SVGID_2_)"/></g><path d="m302.76 478.001h-107.04l-58.111-103.001h223.262z" fill="url(#SVGID_3_)"/><path d="m360.87 375-58.11 103h-40.02l2.843-5.039c13.35-23.664-3.748-52.941-30.918-52.941h-71.655l-14.11-25.01-11.29-20.01z" fill="url(#SVGID_4_)"/><path d="m274.65 169.312h-50.82l-27.59 205.688h106z" fill="url(#SVGID_5_)"/><path d="m274.65 169.312h-25.011l27.59 205.688h25.011z" fill="url(#SVGID_6_)"/><path d="m274.65 169.312h-50.82l-27.59-45.312h106z" fill="url(#SVGID_7_)"/><path d="m277.229 124-27.59 45.312h25.011l27.59-45.312z" fill="url(#SVGID_8_)"/><g><path d="m392.97 375c0-11.051-8.959-20.01-20.01-20.01h-247.44c-11.051 0-20.01 8.959-20.01 20.01 0 11.051 8.959 20.01 20.01 20.01h247.44c11.051 0 20.01-8.959 20.01-20.01z" fill="url(#SVGID_9_)"/><path d="m372.96 354.99h-40.02c11.051 0 20.01 8.959 20.01 20.01s-8.959 20.01-20.01 20.01h40.02c11.051 0 20.01-8.959 20.01-20.01s-8.959-20.01-20.01-20.01z" fill="url(#SVGID_10_)"/></g><g><path d="m315.61 124c0-11.051-8.959-20.01-20.01-20.01h-92.72c-11.051 0-20.01 8.959-20.01 20.01 0 11.051 8.959 20.01 20.01 20.01h92.72c11.051 0 20.01-8.959 20.01-20.01z" fill="url(#SVGID_11_)"/><path d="m295.6 103.99h-40.02c11.051 0 20.01 8.959 20.01 20.01s-8.959 20.01-20.01 20.01h40.02c11.051 0 20.01-8.959 20.01-20.01s-8.959-20.01-20.01-20.01z" fill="url(#SVGID_12_)"/></g><g><path d="m392.536 510h-286.592c-15.174 0-21.794-19.355-9.671-28.482 27.963-21.052 85.958-35.517 152.967-35.517s125.004 14.464 152.967 35.517c12.123 9.127 5.504 28.482-9.671 28.482z" fill="url(#SVGID_13_)"/><path d="m420.008 510c0-35.345-76.456-63.999-170.768-63.999-9.203 0-18.229.28-27.037.805 58.013 3.459 106.296 17.861 129.282 37.389 11.855 10.073 2.086 25.805-15.964 25.805z" fill="url(#SVGID_14_)"/></g></g></svg>