<svg id="Capa_1" enable-background="new 0 0 510 510" height="512" viewBox="0 0 510 510" width="512" xmlns="http://www.w3.org/2000/svg" xmlns:xlink="http://www.w3.org/1999/xlink"><linearGradient id="lg1"><stop offset="0" stop-color="#f3eae6"/><stop offset="1" stop-color="#cdbfba"/></linearGradient><linearGradient id="SVGID_1_" gradientUnits="userSpaceOnUse" x1="219" x2="308.014" xlink:href="#lg1" y1="366.226" y2="366.226"/><linearGradient id="SVGID_2_" gradientUnits="userSpaceOnUse" x1="201.333" x2="278.046" xlink:href="#lg1" y1="366.225" y2="366.225"/><linearGradient id="lg2"><stop offset="0" stop-color="#faf7f7"/><stop offset=".4551" stop-color="#f3eae6"/><stop offset="1" stop-color="#efe2dd"/></linearGradient><linearGradient id="SVGID_3_" gradientUnits="userSpaceOnUse" x1="225.553" x2="342.444" xlink:href="#lg2" y1="431.621" y2="431.621"/><linearGradient id="SVGID_4_" gradientUnits="userSpaceOnUse" x1="225.554" x2="342.44" xlink:href="#lg1" y1="431.62" y2="431.62"/><linearGradient id="SVGID_5_" gradientUnits="userSpaceOnUse" x1="193.138" x2="336.486" xlink:href="#lg2" y1="178.32" y2="178.32"/><linearGradient id="SVGID_6_" gradientUnits="userSpaceOnUse" x1="239.099" x2="331.796" xlink:href="#lg1" y1="178.32" y2="178.32"/><linearGradient id="lg3"><stop offset="0" stop-color="#bbec6c"/><stop offset=".5857" stop-color="#78a91f"/><stop offset="1" stop-color="#02905d"/></linearGradient><linearGradient id="SVGID_7_" gradientUnits="userSpaceOnUse" x1="-23.932" x2="657.231" xlink:href="#lg3" y1="478.001" y2="478.001"/><linearGradient id="SVGID_8_" gradientUnits="userSpaceOnUse" x1="108" x2="494.448" xlink:href="#lg3" y1="478.001" y2="478.001"/><linearGradient id="SVGID_9_" gradientUnits="userSpaceOnUse" x1="202.326" x2="398.912" xlink:href="#lg2" y1="393.973" y2="393.973"/><linearGradient id="SVGID_10_" gradientUnits="userSpaceOnUse" x1="157.201" x2="351.86" xlink:href="#lg1" y1="393.973" y2="393.973"/><linearGradient id="SVGID_11_" gradientUnits="userSpaceOnUse" x1="228.092" x2="354.407" y1="219.146" y2="219.146"><stop offset="0" stop-color="#cdbfba"/><stop offset="1" stop-color="#766e6e"/></linearGradient><g><path d="m217.352 332.573h75.296v67.304h-75.296z" fill="url(#SVGID_1_)"/><path d="m267.637 332.573h25.011v67.304h-25.011z" fill="url(#SVGID_2_)"/><path d="m186.786 393.973h136.427v75.296h-136.427z" fill="url(#SVGID_3_)"/><path d="m323.21 393.97v75.3h-40.02v-19.154c0-9.519-7.717-17.236-17.236-17.236h-79.164v-38.91z" fill="url(#SVGID_4_)"/><path d="m323.136 339.795-27.199-272.114c-.36-3.604-1.334-7.12-2.878-10.396l-22.29-47.285c-6.285-13.333-25.254-13.333-31.539 0l-22.281 47.293c-1.543 3.274-2.515 6.788-2.875 10.389l-27.21 272.113c-.902 9.019 6.181 16.845 15.245 16.845h105.783c9.063 0 16.146-7.826 15.244-16.845z" fill="url(#SVGID_5_)"/><path d="m323.136 339.795-27.199-272.114c-.36-3.604-1.334-7.12-2.878-10.396l-22.29-47.285c-6.285-13.333-25.254-13.333-31.539 0l-4.239 8.998 18.048 38.286c1.544 3.276 2.518 6.792 2.878 10.396l27.199 272.114c.902 9.019-6.181 16.845-15.245 16.845h40.02c9.064.001 16.147-7.825 15.245-16.844z" fill="url(#SVGID_6_)"/><g><path d="m491.634 510h-473.268c-20.968 0-25.527-29.406-5.574-35.852 52.566-16.985 141.432-28.147 242.208-28.147s189.642 11.162 242.208 28.146c19.953 6.447 15.395 35.853-5.574 35.853z" fill="url(#SVGID_7_)"/><path d="m497.208 474.147c-52.566-16.984-141.432-28.146-242.208-28.146-6.727 0-13.395.053-20.008.151 49.114.727 94.905 4.105 134.395 9.493 33.668 4.593 30.226 54.355-3.754 54.355h126.002c20.968 0 25.526-29.405 5.573-35.853z" fill="url(#SVGID_8_)"/></g><g><path d="m336.407 393.973c0-7.675-6.222-13.897-13.897-13.897h-135.02c-7.675 0-13.897 6.222-13.897 13.897 0 7.675 6.222 13.897 13.897 13.897h135.02c7.675 0 13.897-6.222 13.897-13.897z" fill="url(#SVGID_9_)"/><path d="m322.51 380.076h-27.794c7.675 0 13.897 6.222 13.897 13.897s-6.222 13.897-13.897 13.897h27.794c7.675 0 13.897-6.222 13.897-13.897s-6.222-13.897-13.897-13.897z" fill="url(#SVGID_10_)"/></g><path d="m267.506 308.699v-179.105c0-6.907-5.599-12.506-12.505-12.506-6.907 0-12.505 5.599-12.505 12.506v179.105c0 6.907 5.599 12.505 12.505 12.505 6.906 0 12.505-5.599 12.505-12.505z" fill="url(#SVGID_11_)"/></g></svg>