<svg id="Capa_1" enable-background="new 0 0 510 510" height="512" viewBox="0 0 510 510" width="512" xmlns="http://www.w3.org/2000/svg" xmlns:xlink="http://www.w3.org/1999/xlink"><linearGradient id="lg1"><stop offset="0" stop-color="#fe646f"/><stop offset=".593" stop-color="#fb2b3a"/><stop offset="1" stop-color="#c41926"/></linearGradient><linearGradient id="SVGID_1_" gradientUnits="userSpaceOnUse" x1="188.892" x2="316.667" xlink:href="#lg1" y1="289.333" y2="289.333"/><linearGradient id="SVGID_2_" gradientUnits="userSpaceOnUse" x1="71.333" x2="307.969" xlink:href="#lg1" y1="289.33" y2="289.33"/><linearGradient id="lg2"><stop offset="0" stop-color="#537983"/><stop offset=".593" stop-color="#554e56"/><stop offset="1" stop-color="#433f43"/></linearGradient><linearGradient id="SVGID_3_" gradientUnits="userSpaceOnUse" x1="124.545" x2="409.578" xlink:href="#lg2" y1="343.357" y2="343.357"/><linearGradient id="SVGID_4_" gradientUnits="userSpaceOnUse" x1="11.027" x2="316.251" xlink:href="#lg2" y1="343.357" y2="343.357"/><linearGradient id="lg3"><stop offset="0" stop-color="#bbec6c"/><stop offset=".5857" stop-color="#78a91f"/><stop offset="1" stop-color="#02905d"/></linearGradient><linearGradient id="SVGID_5_" gradientUnits="userSpaceOnUse" x1="177.151" x2="371.989" xlink:href="#lg3" y1="315.676" y2="315.676"/><linearGradient id="SVGID_6_" gradientUnits="userSpaceOnUse" x1="113.582" x2="316.535" xlink:href="#lg3" y1="315.676" y2="315.676"/><linearGradient id="SVGID_7_" gradientUnits="userSpaceOnUse" x1="142.661" x2="388.113" xlink:href="#lg2" y1="254.888" y2="254.888"/><linearGradient id="SVGID_8_" gradientUnits="userSpaceOnUse" x1="45.908" x2="307.93" xlink:href="#lg2" y1="254.888" y2="254.888"/><linearGradient id="SVGID_9_" gradientUnits="userSpaceOnUse" x1="188.714" x2="354.612" xlink:href="#lg3" y1="230.6" y2="230.6"/><linearGradient id="SVGID_10_" gradientUnits="userSpaceOnUse" x1="128.784" x2="306.865" xlink:href="#lg3" y1="230.6" y2="230.6"/><linearGradient id="SVGID_11_" gradientUnits="userSpaceOnUse" x1="162.658" x2="364.418" xlink:href="#lg2" y1="179.496" y2="179.496"/><linearGradient id="SVGID_12_" gradientUnits="userSpaceOnUse" x1="81.516" x2="298.21" xlink:href="#lg2" y1="179.496" y2="179.496"/><linearGradient id="SVGID_13_" gradientUnits="userSpaceOnUse" x1="199.302" x2="338.7" xlink:href="#lg3" y1="160.258" y2="160.258"/><linearGradient id="SVGID_14_" gradientUnits="userSpaceOnUse" x1="158.388" x2="299.442" xlink:href="#lg3" y1="160.258" y2="160.258"/><linearGradient id="SVGID_15_" gradientUnits="userSpaceOnUse" x1="236" x2="278.337" xlink:href="#lg2" y1="46.742" y2="46.742"/><linearGradient id="SVGID_16_" gradientUnits="userSpaceOnUse" x1="179.35" x2="344.639" xlink:href="#lg2" y1="102.007" y2="102.007"/><linearGradient id="SVGID_17_" gradientUnits="userSpaceOnUse" x1="131.966" x2="293.927" xlink:href="#lg2" y1="102.007" y2="102.007"/><linearGradient id="SVGID_18_" gradientUnits="userSpaceOnUse" x1="240.808" x2="283.374" xlink:href="#lg2" y1="78.906" y2="78.906"/><linearGradient id="SVGID_19_" gradientUnits="userSpaceOnUse" x1="214.667" x2="274.06" xlink:href="#lg2" y1="424.419" y2="424.419"/><linearGradient id="lg4"><stop offset="0" stop-color="#f3eae6"/><stop offset="1" stop-color="#cdbfba"/></linearGradient><linearGradient id="SVGID_20_" gradientUnits="userSpaceOnUse" x1="141.19" x2="390.757" xlink:href="#lg4" y1="477.473" y2="477.473"/><linearGradient id="SVGID_21_" gradientUnits="userSpaceOnUse" x1="281.737" x2="472.375" y1="477.474" y2="477.474"><stop offset="0" stop-color="#cdbfba"/><stop offset="1" stop-color="#766e6e"/></linearGradient><linearGradient id="SVGID_22_" gradientUnits="userSpaceOnUse" x1="152.88" x2="534.004" y1="489.99" y2="489.99"><stop offset="0" stop-color="#faf7f7"/><stop offset=".4551" stop-color="#f3eae6"/><stop offset="1" stop-color="#efe2dd"/></linearGradient><linearGradient id="SVGID_23_" gradientUnits="userSpaceOnUse" x1="154.789" x2="435.075" xlink:href="#lg4" y1="489.99" y2="489.99"/><g><path d="m328.598 451.333h-147.196l36.206-324h74.784z" fill="url(#SVGID_1_)"/><path d="m328.6 451.33h-40.02l-1.9-16.999c-1.594-14.264-13.654-25.051-28.007-25.051h-72.573l2.79-25.01 28.72-256.94h74.78l28.72 256.94z" fill="url(#SVGID_2_)"/><g><g><path d="m380.616 370.491c-34.645-11.833-66.196-31.451-81.105-68.047h-89.021c-14.909 36.595-46.461 56.214-81.105 68.047-7.593 2.593-5.797 13.777 2.227 13.777h246.777c8.023 0 9.819-11.183 2.227-13.777z" fill="url(#SVGID_3_)"/><path d="m378.383 384.268h-41.725c8.028 0 9.821-11.187 2.231-13.773-4.446-1.518-8.84-3.165-13.153-4.959-14.185-5.9-29.335-9.137-44.698-9.137h-119.728c12.146-6.892 23.156-15.41 32.258-26.086 6.829-8.007 12.584-17.213 16.922-27.869h89.021c4.337 10.655 10.092 19.862 16.922 27.869 9.102 10.676 20.112 19.194 32.258 26.086 10.019 5.703 20.81 10.301 31.925 14.096 7.589 2.586 5.795 13.773-2.233 13.773z" fill="url(#SVGID_4_)"/><g><path d="m336.914 315.676c0-8.002-6.487-14.489-14.489-14.489h-134.85c-8.002 0-14.489 6.487-14.489 14.489 0 8.002 6.487 14.489 14.489 14.489h134.851c8.001 0 14.488-6.487 14.488-14.489z" fill="url(#SVGID_5_)"/><path d="m322.425 301.187h-28.978c8.002 0 14.489 6.487 14.489 14.489s-6.487 14.489-14.489 14.489h28.978c8.002 0 14.489-6.487 14.489-14.489s-6.487-14.489-14.489-14.489z" fill="url(#SVGID_6_)"/></g></g><g><path d="m363.093 278.697c-30.399-10.383-58.084-27.597-71.166-59.708h-73.854c-13.082 32.111-40.767 49.325-71.166 59.708-6.662 2.275-5.086 12.089 1.954 12.089h212.278c7.04 0 8.616-9.813 1.954-12.089z" fill="url(#SVGID_7_)"/><path d="m361.134 290.786h-36.612c7.044 0 8.618-9.816 1.958-12.085-3.901-1.332-7.756-2.777-11.541-4.351-12.447-5.177-25.74-8.017-39.22-8.017h-100.799c10.658-6.047 20.319-13.521 28.305-22.889 5.992-7.026 11.042-15.104 14.848-24.454h73.854c3.806 9.35 8.856 17.428 14.848 24.454 7.986 9.368 17.647 16.842 28.305 22.889 8.792 5.004 18.26 9.039 28.012 12.369 6.66 2.268 5.087 12.084-1.958 12.084z" fill="url(#SVGID_8_)"/><g><path d="m324.747 230.6c0-7.021-5.692-12.713-12.713-12.713h-114.068c-7.021 0-12.713 5.692-12.713 12.713 0 7.021 5.692 12.713 12.713 12.713h114.068c7.021 0 12.713-5.692 12.713-12.713z" fill="url(#SVGID_9_)"/><path d="m312.034 217.886h-25.427c7.021 0 12.713 5.692 12.713 12.713s-5.692 12.713-12.713 12.713h25.427c7.021 0 12.713-5.692 12.713-12.713s-5.692-12.713-12.713-12.713z" fill="url(#SVGID_10_)"/></g></g><g><path d="m343.979 198.355c-24.078-8.224-46.007-21.859-56.369-47.293h-65.22c-10.362 25.434-32.291 39.069-56.369 47.293-5.277 1.802-4.029 9.575 1.548 9.575h174.862c5.577 0 6.825-7.773 1.548-9.575z" fill="url(#SVGID_11_)"/><path d="m342.427 207.93h-28.999c5.58 0 6.826-7.775 1.551-9.572-3.09-1.055-6.144-2.199-9.142-3.446-9.859-4.101-20.388-6.35-31.066-6.35h-86.561c8.442-4.79 16.094-10.71 22.42-18.13 4.746-5.565 8.746-11.964 11.761-19.369h65.22c3.014 7.406 7.014 13.804 11.761 19.369 6.326 7.42 13.978 13.34 22.42 18.13 6.964 3.964 14.463 7.159 22.188 9.797 5.273 1.796 4.027 9.571-1.553 9.571z" fill="url(#SVGID_12_)"/><g><path d="m313.606 160.258c0-5.562-4.509-10.07-10.07-10.07h-97.072c-5.562 0-10.07 4.508-10.07 10.07 0 5.562 4.509 10.07 10.07 10.07h97.072c5.561 0 10.07-4.509 10.07-10.07z" fill="url(#SVGID_13_)"/><path d="m303.536 150.188h-20.14c5.562 0 10.07 4.508 10.07 10.07s-4.508 10.07-10.07 10.07h20.14c5.562 0 10.07-4.508 10.07-10.07s-4.509-10.07-10.07-10.07z" fill="url(#SVGID_14_)"/></g></g></g><path d="m254.925 93.484c-4.142 0-7.5-3.358-7.5-7.5v-78.484c0-4.142 3.358-7.5 7.5-7.5 4.142 0 7.5 3.358 7.5 7.5v78.484c0 4.142-3.358 7.5-7.5 7.5z" fill="url(#SVGID_15_)"/><g><path d="m326.391 125.891c-30.495-10.415-58.268-27.684-71.391-59.896-13.123 32.212-40.896 49.481-71.391 59.896-6.683 2.283-5.102 12.127 1.96 12.127h138.861c7.063 0 8.644-9.844 1.961-12.127z" fill="url(#SVGID_16_)"/><path d="m324.426 138.018h-36.727c7.066 0 8.645-9.847 1.964-12.123-3.913-1.336-7.781-2.785-11.578-4.365-12.486-5.194-25.821-8.043-39.344-8.043h-27.03c10.691-6.066 20.383-13.564 28.394-22.961 6.011-7.048 11.077-15.152 14.895-24.531 3.818 9.379 8.884 17.483 14.895 24.531 8.012 9.397 17.703 16.895 28.394 22.961 8.819 5.02 18.318 9.067 28.101 12.408 6.681 2.276 5.102 12.123-1.964 12.123z" fill="url(#SVGID_17_)"/></g><path d="m270.199 88.124c-5.063-4.276-9.113-10.503-11.663-17.866-.358-1.033-.684-2.044-.98-3.02-1.178-3.88-3.865-3.88-5.043 0-.296.976-.622 1.987-.979 3.019-2.593 7.487-6.798 13.662-11.914 18.081-8.129 7.022 38.847 6.768 30.579-.214z" fill="url(#SVGID_18_)"/><path d="m278 451.333v-18.382c0-13.172-6.753-25.425-17.89-32.459l-4.409-2.784c-.428-.271-.974-.271-1.402 0l-4.409 2.784c-11.137 7.034-17.89 19.287-17.89 32.459v18.382z" fill="url(#SVGID_19_)"/><g><path d="m361.366 509.999h-212.732c-10.959 0-19.842-8.884-19.842-19.842v-25.367c0-10.959 8.884-19.842 19.842-19.842h212.731c10.959 0 19.842 8.884 19.842 19.842v25.367c.001 10.959-8.883 19.842-19.841 19.842z" fill="url(#SVGID_20_)"/><path d="m361.366 444.948h-40.02c10.958 0 19.842 8.884 19.842 19.842v25.367c0 10.958-8.884 19.842-19.842 19.842h40.02c10.958 0 19.842-8.884 19.842-19.842v-25.367c0-10.959-8.884-19.842-19.842-19.842z" fill="url(#SVGID_21_)"/></g><g><path d="m412.825 489.99c0-11.051-8.959-20.01-20.01-20.01h-275.63c-11.051 0-20.01 8.959-20.01 20.01 0 11.051 8.959 20.01 20.01 20.01h275.629c11.052 0 20.011-8.959 20.011-20.01z" fill="url(#SVGID_22_)"/><path d="m392.815 469.98h-40.02c11.051 0 20.01 8.959 20.01 20.01s-8.959 20.01-20.01 20.01h40.02c11.051 0 20.01-8.959 20.01-20.01s-8.959-20.01-20.01-20.01z" fill="url(#SVGID_23_)"/></g></g></svg>