<svg id="Capa_1" enable-background="new 0 0 510 510" height="512" viewBox="0 0 510 510" width="512" xmlns="http://www.w3.org/2000/svg" xmlns:xlink="http://www.w3.org/1999/xlink"><linearGradient id="lg1"><stop offset="0" stop-color="#f3eae6"/><stop offset="1" stop-color="#cdbfba"/></linearGradient><linearGradient id="SVGID_1_" gradientUnits="userSpaceOnUse" x1="122.624" x2="254.626" xlink:href="#lg1" y1="119.597" y2="119.597"/><linearGradient id="lg2"><stop offset="0" stop-color="#cdbfba"/><stop offset="1" stop-color="#766e6e"/></linearGradient><linearGradient id="SVGID_2_" gradientUnits="userSpaceOnUse" x1="154.122" x2="431.624" xlink:href="#lg2" y1="119.596" y2="119.596"/><linearGradient id="SVGID_3_" gradientUnits="userSpaceOnUse" x1="96.533" x2="407.017" y1="360.287" y2="360.287"><stop offset="0" stop-color="#537983"/><stop offset=".593" stop-color="#554e56"/><stop offset="1" stop-color="#433f43"/></linearGradient><linearGradient id="SVGID_4_" gradientUnits="userSpaceOnUse" x1="57.016" x2="127.044" xlink:href="#lg2" y1="382.724" y2="382.724"/><linearGradient id="lg3"><stop offset="0" stop-color="#9e9797"/><stop offset="1" stop-color="#5b5555"/></linearGradient><linearGradient id="SVGID_5_" gradientUnits="userSpaceOnUse" x1="57.016" x2="186.669" xlink:href="#lg3" y1="382.726" y2="382.726"/><linearGradient id="SVGID_6_" gradientUnits="userSpaceOnUse" x1="32.506" x2="113.605" xlink:href="#lg1" y1="262.783" y2="262.783"/><linearGradient id="SVGID_7_" gradientUnits="userSpaceOnUse" x1="166.375" x2="236.403" xlink:href="#lg2" y1="382.724" y2="382.724"/><linearGradient id="SVGID_8_" gradientUnits="userSpaceOnUse" x1="166.375" x2="296.028" xlink:href="#lg3" y1="382.726" y2="382.726"/><linearGradient id="SVGID_9_" gradientUnits="userSpaceOnUse" x1="141.865" x2="222.963" xlink:href="#lg1" y1="262.783" y2="262.783"/><linearGradient id="SVGID_10_" gradientUnits="userSpaceOnUse" x1="275.734" x2="345.762" xlink:href="#lg2" y1="382.724" y2="382.724"/><linearGradient id="SVGID_11_" gradientUnits="userSpaceOnUse" x1="275.734" x2="405.387" xlink:href="#lg3" y1="382.726" y2="382.726"/><linearGradient id="SVGID_12_" gradientUnits="userSpaceOnUse" x1="251.224" x2="332.322" xlink:href="#lg1" y1="262.783" y2="262.783"/><linearGradient id="SVGID_13_" gradientUnits="userSpaceOnUse" x1="385.093" x2="455.121" xlink:href="#lg2" y1="382.724" y2="382.724"/><linearGradient id="SVGID_14_" gradientUnits="userSpaceOnUse" x1="385.093" x2="514.746" xlink:href="#lg3" y1="382.726" y2="382.726"/><linearGradient id="SVGID_15_" gradientUnits="userSpaceOnUse" x1="360.583" x2="441.681" xlink:href="#lg1" y1="262.783" y2="262.783"/><linearGradient id="SVGID_16_" gradientTransform="matrix(1 0 0 -1 0 -7048.877)" gradientUnits="userSpaceOnUse" x1="32.506" x2="113.605" xlink:href="#lg1" y1="-7501.924" y2="-7501.924"/><linearGradient id="SVGID_17_" gradientTransform="matrix(1 0 0 -1 0 -7048.877)" gradientUnits="userSpaceOnUse" x1="141.865" x2="222.963" xlink:href="#lg1" y1="-7501.924" y2="-7501.924"/><linearGradient id="SVGID_18_" gradientTransform="matrix(1 0 0 -1 0 -7048.877)" gradientUnits="userSpaceOnUse" x1="251.224" x2="332.322" xlink:href="#lg1" y1="-7501.924" y2="-7501.924"/><linearGradient id="SVGID_19_" gradientTransform="matrix(1 0 0 -1 0 -7048.877)" gradientUnits="userSpaceOnUse" x1="360.583" x2="441.681" xlink:href="#lg1" y1="-7501.924" y2="-7501.924"/><linearGradient id="lg4"><stop offset="0" stop-color="#faf7f7"/><stop offset=".4551" stop-color="#f3eae6"/><stop offset="1" stop-color="#efe2dd"/></linearGradient><linearGradient id="SVGID_20_" gradientUnits="userSpaceOnUse" x1="-46.868" x2="121.665" xlink:href="#lg4" y1="190.84" y2="190.84"/><linearGradient id="SVGID_21_" gradientUnits="userSpaceOnUse" x1="115.698" x2="635.592" xlink:href="#lg4" y1="118.75" y2="118.75"/><linearGradient id="SVGID_22_" gradientUnits="userSpaceOnUse" x1="291.084" x2="485.743" xlink:href="#lg1" y1="118.75" y2="118.75"/><linearGradient id="SVGID_23_" gradientUnits="userSpaceOnUse" x1="37.05" x2="464.08" xlink:href="#lg4" y1="157.393" y2="157.393"/><linearGradient id="SVGID_24_" gradientUnits="userSpaceOnUse" x1="127.044" x2="409.81" xlink:href="#lg1" y1="157.397" y2="157.397"/><linearGradient id="SVGID_25_" gradientUnits="userSpaceOnUse" x1="110.545" x2="439.343" xlink:href="#lg1" y1="186.732" y2="186.732"/><linearGradient id="SVGID_26_" gradientUnits="userSpaceOnUse" x1="227.539" x2="484.482" xlink:href="#lg2" y1="186.736" y2="186.736"/><linearGradient id="SVGID_27_" gradientUnits="userSpaceOnUse" x1="0" x2="510" xlink:href="#lg4" y1="239.461" y2="239.461"/><linearGradient id="SVGID_28_" gradientUnits="userSpaceOnUse" x1="357" x2="554.206" xlink:href="#lg1" y1="239.461" y2="239.461"/><linearGradient id="SVGID_29_" gradientUnits="userSpaceOnUse" x1="25.049" x2="529.294" xlink:href="#lg1" y1="477.473" y2="477.473"/><linearGradient id="SVGID_30_" gradientUnits="userSpaceOnUse" x1="410.53" x2="601.168" xlink:href="#lg2" y1="477.474" y2="477.474"/><g><path d="m424.135 169.135c0 93.41-338.269 93.41-338.269 0s75.724-169.134 169.134-169.134 169.135 75.724 169.135 169.134z" fill="url(#SVGID_1_)"/><path d="m255 .001c-6.772 0-13.446.41-20.01 1.184 36.474 4.3 68.447 20.208 92.955 43.923 26.155 30.871 41.025 75.565 41.025 124.023 0 23.56-18.42 37.95-33.88 45.87-12.03 6.17-26.95 10.8-43.26 13.6.65-.77 1.28-1.56 1.9-2.36 10.76-14.06 16.44-33.8 16.44-57.11 0-50.421-6.09-97.237-16.827-130.177-1.315-4.036-5.749-6.141-9.727-4.659l-.027.01c-3.771 1.405-5.739 5.529-4.497 9.356 10.121 31.182 16.078 77.306 16.078 125.47 0 42.98-20.82 62.56-40.17 62.56s-40.17-19.58-40.17-62.56c0-48.164 5.957-94.288 16.078-125.47 1.242-3.828-.726-7.951-4.497-9.356l-.027-.01c-3.977-1.482-8.411.624-9.727 4.659-10.737 32.94-16.827 79.756-16.827 130.177 0 23.31 5.68 43.05 16.44 57.11.62.8 1.25 1.59 1.9 2.36-16.31-2.8-31.23-7.43-43.26-13.6-15.46-7.92-33.88-22.31-33.88-45.87 0-32.653 6.75-63.605 19.163-89.764 2.356-4.966-1.268-10.686-6.764-10.686-2.9 0-5.539 1.672-6.781 4.292-13.361 28.171-20.618 61.314-20.618 96.158 0 29.53 20.53 50.14 49.4 62.65 18.608 3.739 38.881 6.063 59.56 6.972v.002c90.681 3.983 189.145-19.222 189.145-69.619 0-93.411-75.725-169.135-169.135-169.135z" fill="url(#SVGID_2_)"/><path d="m77.362 248.22h355.275v224.133h-355.275z" fill="url(#SVGID_3_)"/><g><g><g><path d="m62.715 271.394h56.494v222.66h-56.494z" fill="url(#SVGID_4_)"/><path d="m119.209 271.394v222.664h-25.01v-141.82c0-17.386-14.094-31.48-31.48-31.48v-49.364z" fill="url(#SVGID_5_)"/></g><path d="m119.94 295.309h-57.956c-7.506 0-13.592-6.085-13.592-13.592v-51.46h85.139v51.46c0 7.507-6.085 13.592-13.591 13.592z" fill="url(#SVGID_6_)"/></g><g><g><path d="m172.074 271.394h56.494v222.66h-56.494z" fill="url(#SVGID_7_)"/><path d="m228.568 271.394v222.664h-25.01v-141.82c0-17.386-14.094-31.48-31.48-31.48v-49.364z" fill="url(#SVGID_8_)"/></g><path d="m229.299 295.309h-57.956c-7.506 0-13.592-6.085-13.592-13.592v-51.46h85.139v51.46c0 7.507-6.085 13.592-13.591 13.592z" fill="url(#SVGID_9_)"/></g><g><g><path d="m281.432 271.394h56.494v222.66h-56.494z" fill="url(#SVGID_10_)"/><path d="m337.926 271.394v222.664h-25.01v-141.82c0-17.386-14.094-31.48-31.48-31.48v-49.364z" fill="url(#SVGID_11_)"/></g><path d="m338.658 295.309h-57.956c-7.506 0-13.592-6.085-13.592-13.592v-51.46h85.139v51.46c0 7.507-6.085 13.592-13.591 13.592z" fill="url(#SVGID_12_)"/></g><g><g><path d="m390.791 271.394h56.494v222.66h-56.494z" fill="url(#SVGID_13_)"/><path d="m447.285 271.394v222.664h-25.01v-141.82c0-17.386-14.094-31.48-31.48-31.48v-49.364z" fill="url(#SVGID_14_)"/></g><path d="m448.016 295.309h-57.956c-7.506 0-13.592-6.085-13.592-13.592v-51.46h85.139v51.46c.001 7.507-6.084 13.592-13.591 13.592z" fill="url(#SVGID_15_)"/></g></g><g><path d="m119.94 420.522h-57.956c-7.506 0-13.592 6.085-13.592 13.592v51.46h85.139v-51.46c0-7.507-6.085-13.592-13.591-13.592z" fill="url(#SVGID_16_)"/><path d="m229.299 420.522h-57.956c-7.506 0-13.592 6.085-13.592 13.592v51.46h85.139v-51.46c0-7.507-6.085-13.592-13.591-13.592z" fill="url(#SVGID_17_)"/><path d="m338.658 420.522h-57.956c-7.506 0-13.592 6.085-13.592 13.592v51.46h85.139v-51.46c0-7.507-6.085-13.592-13.591-13.592z" fill="url(#SVGID_18_)"/><path d="m448.016 420.522h-57.956c-7.506 0-13.592 6.085-13.592 13.592v51.46h85.139v-51.46c.001-7.507-6.084-13.592-13.591-13.592z" fill="url(#SVGID_19_)"/></g><path d="m62.719 122.001h384.567v137.679h-384.567z" fill="url(#SVGID_20_)"/><g><path d="m470.29 118.75c0-7.675-6.222-13.897-13.897-13.897h-402.786c-7.675 0-13.897 6.222-13.897 13.897 0 7.675 6.222 13.897 13.897 13.897h402.786c7.675-.001 13.897-6.222 13.897-13.897z" fill="url(#SVGID_21_)"/><path d="m456.393 104.853h-27.794c7.675 0 13.897 6.222 13.897 13.897s-6.222 13.897-13.897 13.897h27.794c7.675 0 13.897-6.222 13.897-13.897s-6.222-13.897-13.897-13.897z" fill="url(#SVGID_22_)"/></g><path d="m497.29 225.352-220.16-137.52c-13.54-8.45-30.72-8.45-44.26 0-3.322 2.078-220.16 137.52-220.16 137.52-3.66 2.29-2.04 7.94 2.27 7.94h480.04c4.31 0 5.93-5.65 2.27-7.94z" fill="url(#SVGID_23_)"/><path d="m497.29 225.352-220.16-137.52c-12.844-8.016-28.959-8.413-42.14-1.221.714.389 1.425.787 2.12 1.221l220.16 137.52c3.66 2.29 2.04 7.94-2.27 7.94h40.02c4.31 0 5.93-5.65 2.27-7.94z" fill="url(#SVGID_24_)"/><path d="m277.131 146.514c-13.542-8.458-30.72-8.458-44.261 0l-138.93 86.78h322.12z" fill="url(#SVGID_25_)"/><path d="m277.131 146.514c-12.846-8.024-28.958-8.422-42.141-1.222.714.39 1.425.788 2.121 1.222l138.929 86.78h40.02z" fill="url(#SVGID_26_)"/><g><path d="m490.158 262.851h-470.316c-10.958 0-19.842-8.884-19.842-19.842v-7.095c0-10.959 8.884-19.842 19.842-19.842h470.315c10.959 0 19.842 8.884 19.842 19.842v7.095c.001 10.958-8.883 19.842-19.841 19.842z" fill="url(#SVGID_27_)"/><path d="m490.158 216.071h-40.02c10.958 0 19.842 8.884 19.842 19.842v7.095c0 10.958-8.884 19.842-19.842 19.842h40.02c10.958 0 19.842-8.884 19.842-19.842v-7.095c0-10.958-8.884-19.842-19.842-19.842z" fill="url(#SVGID_28_)"/></g><g><path d="m490.158 509.999h-470.316c-10.958 0-19.842-8.883-19.842-19.842v-25.367c0-10.959 8.884-19.842 19.842-19.842h470.315c10.959 0 19.842 8.884 19.842 19.842v25.367c.001 10.959-8.883 19.842-19.841 19.842z" fill="url(#SVGID_29_)"/><path d="m490.158 444.948h-40.02c10.958 0 19.842 8.884 19.842 19.842v25.367c0 10.958-8.884 19.842-19.842 19.842h40.02c10.958 0 19.842-8.884 19.842-19.842v-25.367c0-10.959-8.884-19.842-19.842-19.842z" fill="url(#SVGID_30_)"/></g></g></svg>