<svg id="Capa_1" enable-background="new 0 0 510 510" height="512" viewBox="0 0 510 510" width="512" xmlns="http://www.w3.org/2000/svg" xmlns:xlink="http://www.w3.org/1999/xlink"><linearGradient id="lg1"><stop offset="0" stop-color="#fbc56d"/><stop offset=".593" stop-color="#dc8758"/><stop offset="1" stop-color="#9e5528"/></linearGradient><linearGradient id="SVGID_1_" gradientUnits="userSpaceOnUse" x1="-258" x2="584.314" xlink:href="#lg1" y1="255" y2="255"/><linearGradient id="SVGID_2_" gradientUnits="userSpaceOnUse" x1="-201" x2="425.767" xlink:href="#lg1" y1="255" y2="255"/><linearGradient id="SVGID_3_" gradientUnits="userSpaceOnUse" x1="39.492" x2="614.495" xlink:href="#lg1" y1="396.411" y2="396.411"/><linearGradient id="SVGID_4_" gradientUnits="userSpaceOnUse" x1="-215.786" x2="461.397" xlink:href="#lg1" y1="396.412" y2="396.412"/><linearGradient id="SVGID_5_" gradientUnits="userSpaceOnUse" x1="232.421" x2="292.945" y1="434.425" y2="434.425"><stop offset="0" stop-color="#537983"/><stop offset=".593" stop-color="#554e56"/><stop offset="1" stop-color="#433f43"/></linearGradient><linearGradient id="lg2"><stop offset="0" stop-color="#fef056"/><stop offset=".5213" stop-color="#fbc56d"/><stop offset="1" stop-color="#c86d36"/></linearGradient><linearGradient id="SVGID_6_" gradientUnits="userSpaceOnUse" x1="193.078" x2="334.02" xlink:href="#lg2" y1="341.842" y2="341.842"/><linearGradient id="SVGID_7_" gradientUnits="userSpaceOnUse" x1="170.777" x2="245.156" xlink:href="#lg1" y1="404.056" y2="404.056"/><linearGradient id="SVGID_8_" gradientUnits="userSpaceOnUse" x1="145.277" x2="248.974" xlink:href="#lg1" y1="404.058" y2="404.058"/><linearGradient id="SVGID_9_" gradientUnits="userSpaceOnUse" x1="148.277" x2="249.433" xlink:href="#lg2" y1="309.74" y2="309.74"/><linearGradient id="SVGID_10_" gradientTransform="matrix(1 0 0 -1 0 -7048.877)" gradientUnits="userSpaceOnUse" x1="148.277" x2="249.433" xlink:href="#lg2" y1="-7522.745" y2="-7522.745"/><linearGradient id="SVGID_11_" gradientUnits="userSpaceOnUse" x1="66.144" x2="140.523" xlink:href="#lg1" y1="404.056" y2="404.056"/><linearGradient id="SVGID_12_" gradientUnits="userSpaceOnUse" x1="40.644" x2="144.341" xlink:href="#lg1" y1="404.058" y2="404.058"/><linearGradient id="SVGID_13_" gradientUnits="userSpaceOnUse" x1="43.644" x2="144.8" xlink:href="#lg2" y1="309.74" y2="309.74"/><linearGradient id="SVGID_14_" gradientTransform="matrix(1 0 0 -1 0 -7048.877)" gradientUnits="userSpaceOnUse" x1="43.644" x2="144.8" xlink:href="#lg2" y1="-7522.745" y2="-7522.745"/><linearGradient id="SVGID_15_" gradientUnits="userSpaceOnUse" x1="394.189" x2="468.568" xlink:href="#lg1" y1="404.056" y2="404.056"/><linearGradient id="SVGID_16_" gradientUnits="userSpaceOnUse" x1="368.689" x2="472.386" xlink:href="#lg1" y1="404.058" y2="404.058"/><linearGradient id="SVGID_17_" gradientUnits="userSpaceOnUse" x1="371.689" x2="472.845" xlink:href="#lg2" y1="309.74" y2="309.74"/><linearGradient id="SVGID_18_" gradientTransform="matrix(1 0 0 -1 0 -7048.877)" gradientUnits="userSpaceOnUse" x1="371.689" x2="472.845" xlink:href="#lg2" y1="-7522.745" y2="-7522.745"/><linearGradient id="SVGID_19_" gradientUnits="userSpaceOnUse" x1="289.556" x2="363.936" xlink:href="#lg1" y1="404.056" y2="404.056"/><linearGradient id="SVGID_20_" gradientUnits="userSpaceOnUse" x1="264.056" x2="367.753" xlink:href="#lg1" y1="404.058" y2="404.058"/><linearGradient id="SVGID_21_" gradientUnits="userSpaceOnUse" x1="267.056" x2="368.212" xlink:href="#lg2" y1="309.74" y2="309.74"/><linearGradient id="SVGID_22_" gradientTransform="matrix(1 0 0 -1 0 -7048.877)" gradientUnits="userSpaceOnUse" x1="267.056" x2="368.212" xlink:href="#lg2" y1="-7522.745" y2="-7522.745"/><linearGradient id="SVGID_23_" gradientUnits="userSpaceOnUse" x1="25.049" x2="675.078" xlink:href="#lg1" y1="490.158" y2="490.158"/><linearGradient id="SVGID_24_" gradientUnits="userSpaceOnUse" x1="184.594" x2="498.999" xlink:href="#lg1" y1="490.158" y2="490.158"/><linearGradient id="SVGID_25_" gradientUnits="userSpaceOnUse" x1="37.592" x2="80.557" xlink:href="#lg1" y1="219.741" y2="219.741"/><linearGradient id="SVGID_26_" gradientUnits="userSpaceOnUse" x1="23.271" x2="102.985" xlink:href="#lg2" y1="146.046" y2="146.046"/><linearGradient id="SVGID_27_" gradientTransform="matrix(1 0 0 -1 0 -7048.877)" gradientUnits="userSpaceOnUse" x1="23.271" x2="102.985" xlink:href="#lg2" y1="-7328.745" y2="-7328.745"/><linearGradient id="SVGID_28_" gradientUnits="userSpaceOnUse" x1="91.251" x2="134.216" xlink:href="#lg1" y1="219.741" y2="219.741"/><linearGradient id="SVGID_29_" gradientUnits="userSpaceOnUse" x1="76.93" x2="156.644" xlink:href="#lg2" y1="146.046" y2="146.046"/><linearGradient id="SVGID_30_" gradientTransform="matrix(1 0 0 -1 0 -7048.877)" gradientUnits="userSpaceOnUse" x1="76.93" x2="156.644" xlink:href="#lg2" y1="-7328.745" y2="-7328.745"/><linearGradient id="SVGID_31_" gradientUnits="userSpaceOnUse" x1="-25.695" x2="160.278" xlink:href="#lg2" y1="91.177" y2="91.177"/><linearGradient id="SVGID_32_" gradientUnits="userSpaceOnUse" x1="25.805" x2="164.257" xlink:href="#lg2" y1="89.268" y2="89.268"/><linearGradient id="SVGID_33_" gradientUnits="userSpaceOnUse" x1="23.208" x2="143.129" xlink:href="#lg2" y1="128.749" y2="128.749"/><linearGradient id="SVGID_34_" gradientUnits="userSpaceOnUse" x1="375.488" x2="418.453" xlink:href="#lg1" y1="219.741" y2="219.741"/><linearGradient id="SVGID_35_" gradientUnits="userSpaceOnUse" x1="361.167" x2="440.882" xlink:href="#lg2" y1="146.046" y2="146.046"/><linearGradient id="SVGID_36_" gradientTransform="matrix(1 0 0 -1 0 -7048.877)" gradientUnits="userSpaceOnUse" x1="361.167" x2="440.882" xlink:href="#lg2" y1="-7328.745" y2="-7328.745"/><linearGradient id="SVGID_37_" gradientUnits="userSpaceOnUse" x1="429.148" x2="472.113" xlink:href="#lg1" y1="219.741" y2="219.741"/><linearGradient id="SVGID_38_" gradientUnits="userSpaceOnUse" x1="414.827" x2="494.541" xlink:href="#lg2" y1="146.046" y2="146.046"/><linearGradient id="SVGID_39_" gradientTransform="matrix(1 0 0 -1 0 -7048.877)" gradientUnits="userSpaceOnUse" x1="414.827" x2="494.541" xlink:href="#lg2" y1="-7328.745" y2="-7328.745"/><linearGradient id="SVGID_40_" gradientUnits="userSpaceOnUse" x1="229.305" x2="457.404" xlink:href="#lg2" y1="91.177" y2="91.177"/><linearGradient id="SVGID_41_" gradientUnits="userSpaceOnUse" x1="327.305" x2="499.929" xlink:href="#lg2" y1="89.268" y2="89.268"/><linearGradient id="SVGID_42_" gradientUnits="userSpaceOnUse" x1="361.105" x2="481.025" xlink:href="#lg2" y1="128.749" y2="128.749"/><linearGradient id="SVGID_43_" gradientUnits="userSpaceOnUse" x1="170.777" x2="245.156" xlink:href="#lg1" y1="219.741" y2="219.741"/><linearGradient id="SVGID_44_" gradientUnits="userSpaceOnUse" x1="145.277" x2="248.974" xlink:href="#lg1" y1="219.743" y2="219.743"/><linearGradient id="SVGID_45_" gradientUnits="userSpaceOnUse" x1="148.277" x2="249.433" xlink:href="#lg2" y1="146.046" y2="146.046"/><linearGradient id="SVGID_46_" gradientTransform="matrix(1 0 0 -1 0 -7048.877)" gradientUnits="userSpaceOnUse" x1="148.277" x2="249.433" xlink:href="#lg2" y1="-7328.745" y2="-7328.745"/><linearGradient id="SVGID_47_" gradientUnits="userSpaceOnUse" x1="289.556" x2="363.936" xlink:href="#lg1" y1="219.741" y2="219.741"/><linearGradient id="SVGID_48_" gradientUnits="userSpaceOnUse" x1="264.056" x2="367.753" xlink:href="#lg1" y1="219.743" y2="219.743"/><linearGradient id="SVGID_49_" gradientUnits="userSpaceOnUse" x1="267.056" x2="368.212" xlink:href="#lg2" y1="146.046" y2="146.046"/><linearGradient id="SVGID_50_" gradientTransform="matrix(1 0 0 -1 0 -7048.877)" gradientUnits="userSpaceOnUse" x1="267.056" x2="368.212" xlink:href="#lg2" y1="-7328.745" y2="-7328.745"/><linearGradient id="SVGID_51_" gradientUnits="userSpaceOnUse" x1="81" x2="346.012" xlink:href="#lg2" y1="81.494" y2="81.494"/><linearGradient id="SVGID_52_" gradientUnits="userSpaceOnUse" x1="27" x2="313.505" xlink:href="#lg2" y1="81.495" y2="81.495"/><linearGradient id="SVGID_53_" gradientUnits="userSpaceOnUse" x1="140" x2="359.447" xlink:href="#lg2" y1="128.749" y2="128.749"/><linearGradient id="SVGID_54_" gradientUnits="userSpaceOnUse" x1="140" x2="359.447" xlink:href="#lg2" y1="68.685" y2="68.685"/><linearGradient id="SVGID_55_" gradientUnits="userSpaceOnUse" x1="48.039" x2="633.079" xlink:href="#lg2" y1="298.764" y2="298.764"/><linearGradient id="SVGID_56_" gradientUnits="userSpaceOnUse" x1="159.1" x2="473.505" xlink:href="#lg2" y1="298.764" y2="298.764"/><g><path d="m458.613 68.374h-14.385c-11.223 0-21.987-4.458-29.923-12.394l-22.298-22.298c-7.936-7.936-18.7-12.394-29.923-12.394h-24.324c-6.198 0-12.143-2.462-16.525-6.845-4.383-4.383-10.327-6.845-16.525-6.845h-40.433c-6.198 0-12.143 2.462-16.525 6.845l-46.73 46.73c-9.853 9.853-23.216 15.388-37.15 15.388h-16.752c-13.934 0-27.297-5.535-37.15-15.388l-52.17-52.171c-5.764-5.764-13.581-9.002-21.732-9.002h-5.333c-16.975 0-30.735 13.76-30.735 30.734v448.531c0 16.975 13.76 30.735 30.734 30.735h448.531c16.975 0 30.735-13.76 30.735-30.734v-359.506c0-11.223-4.458-21.987-12.394-29.923l-9.069-9.069c-7.937-7.936-18.7-12.394-29.924-12.394z" fill="url(#SVGID_1_)"/><path d="m497.605 89.837-9.069-9.069c-7.936-7.936-18.7-12.395-29.923-12.395h-14.385c-11.223 0-21.987-4.458-29.923-12.395l-22.298-22.298c-7.936-7.936-18.7-12.395-29.923-12.395h-24.324c-6.198 0-12.143-2.462-16.525-6.845-4.383-4.383-10.327-6.845-16.525-6.845h-40.433c-6.198 0-12.143 2.462-16.525 6.845l-46.73 46.73c-9.853 9.853-23.216 15.388-37.15 15.388h-16.752c-13.934 0-27.297-5.535-37.15-15.388l-52.17-52.168c-5.764-5.764-13.581-9.002-21.732-9.002h-5.333c-16.975 0-30.735 13.76-30.735 30.734v58.425l40.991 40.991c9.853 9.853 23.216 15.388 37.15 15.388h16.752c13.934 0 27.297-5.535 37.15-15.388l46.73-46.73c4.383-4.383 10.327-6.845 16.525-6.845h40.433c6.198 0 12.143 2.462 16.525 6.845 4.383 4.383 10.327 6.845 16.525 6.845h24.325c11.223 0 21.987 4.458 29.923 12.395l22.298 22.298c7.936 7.936 18.7 12.395 29.923 12.395h14.385c11.223 0 21.987 4.458 29.923 12.395l9.069 9.069c7.936 7.936 12.394 18.699 12.394 29.923v321.26h38.244c16.975 0 30.735-13.76 30.735-30.734v-359.506c0-11.223-4.458-21.987-12.395-29.923z" fill="url(#SVGID_2_)"/><g><path d="m33.858 298.764h440.284v195.294h-440.284z" fill="url(#SVGID_3_)"/><path d="m476.143 298.766h-442.286v44.85h89.616c14.389 0 26.054 11.665 26.054 26.054v84.009h-.731c-7.506 0-13.592 6.085-13.592 13.592v26.788h68.092v-26.789c0-7.507-6.085-13.592-13.592-13.592h-.731v-110.062h158.129c14.389 0 26.054 11.665 26.054 26.054v84.009h-.731c-7.506 0-13.592 6.085-13.592 13.592v26.788h117.309v-195.293z" fill="url(#SVGID_4_)"/></g><path d="m231.828 494.058h46.344v-110.262c0-4.973-4.031-9.004-9.004-9.004h-28.336c-4.973 0-9.004 4.031-9.004 9.004z" fill="url(#SVGID_5_)"/><path d="m264.486 324.602c-5.805-3.626-13.168-3.626-18.973 0l-59.553 37.199h138.079z" fill="url(#SVGID_6_)"/><g><g><g><g><g><g><path d="m175.887 314.059h39.447v179.995h-39.447z" fill="url(#SVGID_7_)"/><path d="m175.891 314.059v49.365h1.459c7.165 0 12.974 5.809 12.974 12.974v117.661h25.01v-180z" fill="url(#SVGID_8_)"/></g><path d="m216.065 337.973h-40.909c-7.506 0-13.592-6.085-13.592-13.592v-42.876h68.092v42.876c0 7.507-6.085 13.592-13.591 13.592z" fill="url(#SVGID_9_)"/></g><path d="m216.065 453.678h-40.909c-7.506 0-13.592 6.085-13.592 13.592v26.788h68.092v-26.788c0-7.506-6.085-13.592-13.591-13.592z" fill="url(#SVGID_10_)"/></g></g></g></g><g><g><g><g><g><g><path d="m71.254 314.059h39.447v179.995h-39.447z" fill="url(#SVGID_11_)"/><path d="m71.258 314.059v49.365h1.459c7.165 0 12.974 5.809 12.974 12.974v117.661h25.01v-180z" fill="url(#SVGID_12_)"/></g><path d="m111.432 337.973h-40.909c-7.506 0-13.592-6.085-13.592-13.592v-42.876h68.092v42.876c0 7.507-6.085 13.592-13.591 13.592z" fill="url(#SVGID_13_)"/></g><path d="m111.432 453.678h-40.909c-7.506 0-13.592 6.085-13.592 13.592v26.788h68.092v-26.788c0-7.506-6.085-13.592-13.591-13.592z" fill="url(#SVGID_14_)"/></g></g></g></g><g><g><g><g><g><g><path d="m399.299 314.059h39.447v179.995h-39.447z" fill="url(#SVGID_15_)"/><path d="m399.303 314.059v49.365h1.459c7.165 0 12.974 5.809 12.974 12.974v117.661h25.01v-180z" fill="url(#SVGID_16_)"/></g><path d="m439.477 337.973h-40.909c-7.506 0-13.592-6.085-13.592-13.592v-42.876h68.092v42.876c.001 7.507-6.084 13.592-13.591 13.592z" fill="url(#SVGID_17_)"/></g><path d="m439.477 453.678h-40.909c-7.506 0-13.592 6.085-13.592 13.592v26.788h68.092v-26.788c.001-7.506-6.084-13.592-13.591-13.592z" fill="url(#SVGID_18_)"/></g></g></g></g><g><g><g><g><g><g><path d="m294.666 314.059h39.447v179.995h-39.447z" fill="url(#SVGID_19_)"/><path d="m294.67 314.059v49.365h1.459c7.165 0 12.974 5.809 12.974 12.974v117.661h25.01v-180z" fill="url(#SVGID_20_)"/></g><path d="m334.844 337.973h-40.909c-7.506 0-13.592-6.085-13.592-13.592v-42.876h68.092v42.876c.001 7.507-6.084 13.592-13.591 13.592z" fill="url(#SVGID_21_)"/></g><path d="m334.844 453.678h-40.909c-7.506 0-13.592 6.085-13.592 13.592v26.788h68.092v-26.788c.001-7.506-6.084-13.592-13.591-13.592z" fill="url(#SVGID_22_)"/></g></g></g></g><g><path d="m490.158 510h-470.316c-10.958 0-19.842-8.884-19.842-19.842 0-10.959 8.884-19.842 19.842-19.842h470.315c10.959 0 19.842 8.884 19.842 19.842.001 10.958-8.883 19.842-19.841 19.842z" fill="url(#SVGID_23_)"/><path d="m490.158 470.315h-40.02c10.958 0 19.842 8.884 19.842 19.842 0 10.958-8.884 19.842-19.842 19.842h40.02c10.958 0 19.842-8.884 19.842-19.842 0-10.958-8.884-19.842-19.842-19.842z" fill="url(#SVGID_24_)"/></g><g><g><g><g><g><g><g><g><path d="m48.064 139.428h25.014v160.626h-25.014z" fill="url(#SVGID_25_)"/><path d="m73.809 163.343h-26.476c-7.506 0-13.592-6.085-13.592-13.592v-21.002h53.659v21.002c.001 7.507-6.085 13.592-13.591 13.592z" fill="url(#SVGID_26_)"/></g><path d="m73.809 259.679h-26.476c-7.506 0-13.592 6.085-13.592 13.592v26.788h53.659v-26.789c.001-7.506-6.085-13.591-13.591-13.591z" fill="url(#SVGID_27_)"/></g></g></g></g><g><g><g><g><g><path d="m101.723 139.428h25.014v160.626h-25.014z" fill="url(#SVGID_28_)"/><path d="m127.468 163.343h-26.476c-7.506 0-13.592-6.085-13.592-13.592v-21.002h53.659v21.002c.001 7.507-6.084 13.592-13.591 13.592z" fill="url(#SVGID_29_)"/></g><path d="m127.468 259.679h-26.476c-7.506 0-13.592 6.085-13.592 13.592v26.788h53.659v-26.789c.001-7.506-6.084-13.591-13.591-13.591z" fill="url(#SVGID_30_)"/></g></g></g></g></g><g><path d="m121.401 54.396c-19.411 13.276-56.055 38.374-81.603 55.876l5.943 19.178h75.105c7.617 0 13.793-6.175 13.793-13.793v-54.271c0-6.806-7.62-10.832-13.238-6.99z" fill="url(#SVGID_31_)"/><path d="m56.194 125.483c23.359-16.002 55.548-38.05 76.932-52.683 4.05-2.771 6.469-7.361 6.469-12.268v-2.545c0-7.142-7.996-11.367-13.891-7.336-20.379 13.937-58.856 40.291-85.68 58.667-8.946 6.129-4.605 20.132 6.239 20.132h6.349c.788-1.493 1.965-2.86 3.582-3.967z" fill="url(#SVGID_32_)"/></g><path d="m134.595 138.749h-97.086c-5.523 0-10-4.477-10-10s4.477-10 10-10h97.086c5.522 0 10 4.477 10 10s-4.478 10-10 10z" fill="url(#SVGID_33_)"/></g><g><g><g><g><g><g><g><path d="m385.961 139.428h25.014v160.626h-25.014z" fill="url(#SVGID_34_)"/><path d="m411.706 163.343h-26.476c-7.506 0-13.592-6.085-13.592-13.592v-21.002h53.659v21.002c0 7.507-6.085 13.592-13.591 13.592z" fill="url(#SVGID_35_)"/></g><path d="m411.706 259.679h-26.476c-7.506 0-13.592 6.085-13.592 13.592v26.788h53.659v-26.789c0-7.506-6.085-13.591-13.591-13.591z" fill="url(#SVGID_36_)"/></g></g></g></g><g><g><g><g><g><path d="m439.62 139.428h25.014v160.626h-25.014z" fill="url(#SVGID_37_)"/><path d="m465.365 163.343h-26.476c-7.506 0-13.592-6.085-13.592-13.592v-21.002h53.659v21.002c.001 7.507-6.085 13.592-13.591 13.592z" fill="url(#SVGID_38_)"/></g><path d="m465.365 259.679h-26.476c-7.506 0-13.592 6.085-13.592 13.592v26.788h53.659v-26.789c.001-7.506-6.085-13.591-13.591-13.591z" fill="url(#SVGID_39_)"/></g></g></g></g></g><g><path d="m391.296 54.396c19.412 13.276 56.055 38.374 81.603 55.876l-5.943 19.178h-75.105c-7.617 0-13.793-6.175-13.793-13.793v-54.271c.001-6.806 7.621-10.832 13.238-6.99z" fill="url(#SVGID_40_)"/><path d="m456.504 125.483c-23.359-16.002-55.548-38.05-76.932-52.683-4.05-2.771-6.469-7.361-6.469-12.268v-2.545c0-7.142 7.996-11.367 13.891-7.336 20.379 13.937 58.856 40.291 85.68 58.667 8.946 6.129 4.605 20.132-6.239 20.132h-6.349c-.788-1.493-1.965-2.86-3.582-3.967z" fill="url(#SVGID_41_)"/></g><path d="m472.491 138.749h-97.086c-5.523 0-10-4.477-10-10s4.477-10 10-10h97.086c5.522 0 10 4.477 10 10s-4.477 10-10 10z" fill="url(#SVGID_42_)"/></g></g><g><g><g><g><g><g><g><path d="m175.887 139.428h39.447v160.626h-39.447z" fill="url(#SVGID_43_)"/><path d="m175.891 139.428v49.365h1.459c7.165 0 12.974 5.809 12.974 12.974v98.291h25.01v-160.63z" fill="url(#SVGID_44_)"/></g><path d="m216.065 163.343h-40.909c-7.506 0-13.592-6.085-13.592-13.592v-21.002h68.092v21.002c0 7.507-6.085 13.592-13.591 13.592z" fill="url(#SVGID_45_)"/></g><path d="m216.065 259.679h-40.909c-7.506 0-13.592 6.085-13.592 13.592v26.788h68.092v-26.789c0-7.506-6.085-13.591-13.591-13.591z" fill="url(#SVGID_46_)"/></g></g></g></g><g><g><g><g><g><g><path d="m294.666 139.428h39.447v160.626h-39.447z" fill="url(#SVGID_47_)"/><path d="m294.67 139.428v49.365h1.459c7.165 0 12.974 5.809 12.974 12.974v98.291h25.01v-160.63z" fill="url(#SVGID_48_)"/></g><path d="m334.844 163.343h-40.909c-7.506 0-13.592-6.085-13.592-13.592v-21.002h68.092v21.002c.001 7.507-6.084 13.592-13.591 13.592z" fill="url(#SVGID_49_)"/></g><path d="m334.844 259.679h-40.909c-7.506 0-13.592 6.085-13.592 13.592v26.788h68.092v-26.789c.001-7.506-6.084-13.591-13.591-13.591z" fill="url(#SVGID_50_)"/></g></g></g></g><path d="m334.113 128.749h-158.226l-21.236-71.638c-3.384-11.415 5.17-22.873 17.076-22.873h166.547c11.906 0 20.46 11.457 17.076 22.873z" fill="url(#SVGID_51_)"/><path d="m355.35 57.11-21.24 71.64h-40.02l2.791-9.409c2.315-7.806-3.534-15.641-11.675-15.641h-116.746l-7.41-25.02h147.88l6.4-21.57c3.38-11.41-5.17-22.87-17.08-22.87h40.02c11.91 0 20.46 11.46 17.08 22.87z" fill="url(#SVGID_52_)"/><path d="m352.13 138.749h-194.26c-5.523 0-10-4.477-10-10s4.477-10 10-10h194.26c5.522 0 10 4.477 10 10s-4.478 10-10 10z" fill="url(#SVGID_53_)"/><path d="m352.13 78.685h-194.26c-5.523 0-10-4.477-10-10s4.477-10 10-10h194.26c5.522 0 10 4.477 10 10s-4.478 10-10 10z" fill="url(#SVGID_54_)"/></g><g><path d="m464.663 318.606h-419.326c-10.959 0-19.842-8.884-19.842-19.842 0-10.959 8.884-19.842 19.842-19.842h419.326c10.959 0 19.842 8.884 19.842 19.842.001 10.958-8.883 19.842-19.842 19.842z" fill="url(#SVGID_55_)"/><path d="m464.663 278.921h-40.02c10.958 0 19.842 8.884 19.842 19.842 0 10.958-8.884 19.842-19.842 19.842h40.02c10.958 0 19.842-8.884 19.842-19.842.001-10.958-8.883-19.842-19.842-19.842z" fill="url(#SVGID_56_)"/></g></g></svg>