<svg id="Capa_1" enable-background="new 0 0 510 510" height="512" viewBox="0 0 510 510" width="512" xmlns="http://www.w3.org/2000/svg" xmlns:xlink="http://www.w3.org/1999/xlink"><linearGradient id="lg1"><stop offset="0" stop-color="#faf7f7"/><stop offset=".4551" stop-color="#f3eae6"/><stop offset="1" stop-color="#efe2dd"/></linearGradient><linearGradient id="SVGID_1_" gradientUnits="userSpaceOnUse" x1="123.723" x2="446.347" xlink:href="#lg1" y1="281.01" y2="281.01"/><linearGradient id="lg2"><stop offset="0" stop-color="#f3eae6"/><stop offset="1" stop-color="#cdbfba"/></linearGradient><linearGradient id="SVGID_2_" gradientUnits="userSpaceOnUse" x1="141.74" x2="444.784" xlink:href="#lg2" y1="281.01" y2="281.01"/><linearGradient id="SVGID_3_" gradientTransform="matrix(.979 .204 .032 -.155 36.634 26.1)" gradientUnits="userSpaceOnUse" x1="223.853" x2="359.931" xlink:href="#lg1" y1="132.944" y2="132.944"/><linearGradient id="SVGID_4_" gradientTransform="matrix(.979 .204 -.204 .979 51.863 -47.133)" gradientUnits="userSpaceOnUse" x1="224.499" x2="355.249" xlink:href="#lg2" y1="53.717" y2="53.717"/><linearGradient id="lg3"><stop offset="0" stop-color="#537983"/><stop offset=".593" stop-color="#554e56"/><stop offset="1" stop-color="#433f43"/></linearGradient><linearGradient id="SVGID_5_" gradientTransform="matrix(.979 .204 -.204 .979 51.863 -47.133)" gradientUnits="userSpaceOnUse" x1="257.148" x2="302.348" xlink:href="#lg3" y1="69.032" y2="69.032"/><linearGradient id="SVGID_6_" gradientTransform="matrix(.979 .204 -.204 .979 51.863 -47.133)" gradientUnits="userSpaceOnUse" x1="236.249" x2="365.802" xlink:href="#lg1" y1="20.937" y2="20.937"/><linearGradient id="SVGID_7_" gradientTransform="matrix(.979 .204 -.204 .979 51.863 -47.133)" gradientUnits="userSpaceOnUse" x1="257.49" x2="373.92" xlink:href="#lg2" y1="20.937" y2="20.937"/><linearGradient id="SVGID_8_" gradientTransform="matrix(.979 .204 -.204 .979 51.863 -47.133)" gradientUnits="userSpaceOnUse" x1="197.575" x2="260.33" xlink:href="#lg3" y1="328.262" y2="328.262"/><linearGradient id="SVGID_9_" gradientTransform="matrix(.979 .204 -.204 .979 51.863 -47.133)" gradientUnits="userSpaceOnUse" x1="294.311" x2="357.067" xlink:href="#lg3" y1="328.262" y2="328.262"/><linearGradient id="SVGID_10_" gradientTransform="matrix(.979 .204 -.204 .979 51.863 -47.133)" gradientUnits="userSpaceOnUse" x1="199.446" x2="424.838" xlink:href="#lg1" y1="365.793" y2="365.793"/><linearGradient id="SVGID_11_" gradientTransform="matrix(.979 .204 -.204 .979 51.863 -47.133)" gradientUnits="userSpaceOnUse" x1="314.369" x2="430.799" xlink:href="#lg2" y1="365.793" y2="365.793"/><linearGradient id="SVGID_12_" gradientTransform="matrix(.979 .204 -.204 .979 51.863 -47.133)" gradientUnits="userSpaceOnUse" x1="197.575" x2="260.33" xlink:href="#lg3" y1="194.117" y2="194.117"/><linearGradient id="SVGID_13_" gradientTransform="matrix(.979 .204 -.204 .979 51.863 -47.133)" gradientUnits="userSpaceOnUse" x1="294.311" x2="357.067" xlink:href="#lg3" y1="194.117" y2="194.117"/><linearGradient id="SVGID_14_" gradientTransform="matrix(.979 .204 -.204 .979 51.863 -47.133)" gradientUnits="userSpaceOnUse" x1="199.446" x2="424.838" xlink:href="#lg1" y1="231.648" y2="231.648"/><linearGradient id="SVGID_15_" gradientTransform="matrix(.979 .204 -.204 .979 51.863 -47.133)" gradientUnits="userSpaceOnUse" x1="314.369" x2="430.799" xlink:href="#lg2" y1="231.648" y2="231.648"/><linearGradient id="SVGID_16_" gradientTransform="matrix(.979 .204 -.204 .979 51.863 -47.133)" gradientUnits="userSpaceOnUse" x1="199.446" x2="424.838" xlink:href="#lg1" y1="97.503" y2="97.503"/><linearGradient id="SVGID_17_" gradientTransform="matrix(.979 .204 -.204 .979 51.863 -47.133)" gradientUnits="userSpaceOnUse" x1="314.369" x2="430.799" xlink:href="#lg2" y1="97.503" y2="97.503"/><linearGradient id="SVGID_18_" gradientUnits="userSpaceOnUse" x1="141.3" x2="216.414" xlink:href="#lg3" y1="447.382" y2="447.382"/><linearGradient id="SVGID_19_" gradientUnits="userSpaceOnUse" x1="241.798" x2="311.063" xlink:href="#lg3" y1="457.227" y2="457.227"/><linearGradient id="lg4"><stop offset="0" stop-color="#bbec6c"/><stop offset=".5857" stop-color="#78a91f"/><stop offset="1" stop-color="#02905d"/></linearGradient><linearGradient id="SVGID_20_" gradientUnits="userSpaceOnUse" x1="-23.932" x2="657.231" xlink:href="#lg4" y1="478.001" y2="478.001"/><linearGradient id="SVGID_21_" gradientUnits="userSpaceOnUse" x1="108" x2="494.448" xlink:href="#lg4" y1="478.001" y2="478.001"/><g><g><path d="m420.423 129.098-72.56 348.936-226.19-.012 81.942-394.006z" fill="url(#SVGID_1_)"/><path d="m420.433 129.108-72.559 348.926-40.88-.002 1.681-8.08c4.851-23.33-10.128-46.18-33.467-51.032l-135.388-28.157 5.091-24.49 177.638 36.95 13.434-64.609c4.861-23.33-10.127-46.181-33.457-51.032l-135.388-28.158 5.091-24.49 177.638 36.94 13.434-64.589c4.851-23.34-10.127-46.181-33.467-51.042l-135.388-28.148 9.163-44.079z" fill="url(#SVGID_2_)"/><path d="m389.289 44.421-123.361-25.653-13.348 64.188 123.361 25.653z" fill="url(#SVGID_3_)"/><path d="m389.289 44.421-13.348 64.187-39.182-8.148 1.628-7.827c1.38-6.637-2.881-13.137-9.519-14.517l-72.161-15.006 9.221-44.341z" fill="url(#SVGID_4_)"/><path d="m329.735 99.001-30.948-6.436 3.895-18.729c1.777-8.546 10.146-14.033 18.692-12.256 8.546 1.777 14.033 10.146 12.256 18.692z" fill="url(#SVGID_5_)"/><g><path d="m402.886 47.248c2.25-10.82-4.697-21.415-15.517-23.665l-111.372-23.16c-10.82-2.25-21.415 4.697-23.665 15.517-2.25 10.82 4.697 21.415 15.517 23.665l111.372 23.16c10.82 2.25 21.415-4.697 23.665-15.517z" fill="url(#SVGID_6_)"/><path d="m387.369 23.583-39.182-8.148c10.82 2.25 17.767 12.845 15.517 23.665s-12.845 17.767-23.665 15.517l39.182 8.148c10.82 2.25 21.415-4.697 23.665-15.517s-4.697-21.415-15.517-23.665z" fill="url(#SVGID_7_)"/></g><g><path d="m231.526 363.847-42.968-8.935 10.815-52.005c2.467-11.865 14.086-19.484 25.952-17.016 11.865 2.467 19.484 14.086 17.016 25.952z" fill="url(#SVGID_8_)"/><path d="m326.236 383.542-42.968-8.935 10.815-52.005c2.467-11.865 14.086-19.484 25.952-17.016 11.865 2.467 19.484 14.086 17.016 25.952z" fill="url(#SVGID_9_)"/></g><g><path d="m388.362 396.461c2.25-10.82-4.697-21.415-15.517-23.665l-222.748-46.321c-10.82-2.25-21.415 4.697-23.665 15.517-2.25 10.82 4.697 21.415 15.517 23.665l222.748 46.321c10.82 2.25 21.415-4.697 23.665-15.517z" fill="url(#SVGID_10_)"/><path d="m372.845 372.797-39.182-8.148c10.82 2.25 17.767 12.845 15.517 23.665s-12.845 17.767-23.665 15.517l39.182 8.148c10.82 2.25 21.415-4.697 23.665-15.517s-4.697-21.415-15.517-23.665z" fill="url(#SVGID_11_)"/></g><g><path d="m258.837 232.512-42.968-8.935 10.815-52.005c2.467-11.865 14.086-19.484 25.952-17.016 11.865 2.467 19.484 14.086 17.016 25.952z" fill="url(#SVGID_12_)"/><path d="m353.548 252.207-42.968-8.935 10.815-52.005c2.467-11.865 14.086-19.484 25.952-17.016 11.865 2.467 19.484 14.086 17.016 25.952z" fill="url(#SVGID_13_)"/></g><g><path d="m415.674 265.126c2.25-10.82-4.697-21.415-15.517-23.665l-222.749-46.321c-10.82-2.25-21.415 4.697-23.665 15.517-2.25 10.82 4.697 21.415 15.517 23.665l222.748 46.321c10.82 2.25 21.415-4.697 23.666-15.517z" fill="url(#SVGID_14_)"/><path d="m400.157 241.461-39.182-8.148c10.82 2.25 17.767 12.845 15.517 23.665s-12.845 17.767-23.665 15.517l39.182 8.148c10.82 2.25 21.415-4.697 23.665-15.517 2.25-10.819-4.698-21.415-15.517-23.665z" fill="url(#SVGID_15_)"/></g><g><path d="m442.985 133.791c2.25-10.82-4.697-21.415-15.517-23.665l-222.748-46.321c-10.82-2.25-21.415 4.697-23.665 15.517-2.25 10.82 4.697 21.415 15.517 23.665l222.748 46.321c10.82 2.25 21.415-4.697 23.665-15.517z" fill="url(#SVGID_16_)"/><path d="m427.468 110.126-39.182-8.148c10.82 2.25 17.767 12.845 15.517 23.665s-12.845 17.767-23.665 15.517l39.182 8.148c10.82 2.25 21.415-4.697 23.665-15.517s-4.697-21.415-15.517-23.665z" fill="url(#SVGID_17_)"/></g><g><path d="m215.485 438.687c0 1.48-.15 2.98-.46 4.49l-7.242 34.85-44.83-.003 9.103-43.78c2.471-11.87 14.091-19.489 25.961-17.019 10.35 2.161 17.469 11.282 17.468 21.462z" fill="url(#SVGID_18_)"/><path d="m310.204 458.392c0 1.48-.15 2.98-.46 4.48l-3.151 15.16-44.83-.003 5.011-24.09c2.461-11.87 14.081-19.489 25.951-17.019 10.361 2.162 17.48 11.292 17.479 21.472z" fill="url(#SVGID_19_)"/></g></g><g><path d="m491.634 510h-473.268c-20.968 0-25.527-29.406-5.574-35.852 52.566-16.985 141.432-28.147 242.208-28.147s189.642 11.162 242.208 28.146c19.953 6.447 15.395 35.853-5.574 35.853z" fill="url(#SVGID_20_)"/><path d="m497.208 474.147c-52.566-16.984-141.432-28.146-242.208-28.146-6.727 0-13.395.053-20.008.151 49.114.727 94.905 4.105 134.395 9.493 33.668 4.593 30.226 54.355-3.754 54.355h126.002c20.968 0 25.526-29.406 5.573-35.853z" fill="url(#SVGID_21_)"/></g></g></svg>