<svg id="Capa_1" enable-background="new 0 0 510 510" height="512" viewBox="0 0 510 510" width="512" xmlns="http://www.w3.org/2000/svg" xmlns:xlink="http://www.w3.org/1999/xlink"><linearGradient id="lg1"><stop offset="0" stop-color="#fef056"/><stop offset=".5213" stop-color="#fbc56d"/><stop offset="1" stop-color="#c86d36"/></linearGradient><linearGradient id="SVGID_1_" gradientUnits="userSpaceOnUse" x1="35.558" x2="510" xlink:href="#lg1" y1="237.208" y2="237.208"/><linearGradient id="SVGID_2_" gradientUnits="userSpaceOnUse" x1="-14" x2="435.33" xlink:href="#lg1" y1="237.212" y2="237.212"/><linearGradient id="SVGID_3_" gradientUnits="userSpaceOnUse" x1="-14" x2="435.33" xlink:href="#lg1" y1="274" y2="274"/><linearGradient id="SVGID_4_" gradientUnits="userSpaceOnUse" x1="-14" x2="435.33" xlink:href="#lg1" y1="150.19" y2="150.19"/><linearGradient id="SVGID_5_" gradientUnits="userSpaceOnUse" x1="0" x2="343.245" xlink:href="#lg1" y1="302.803" y2="302.803"/><linearGradient id="SVGID_6_" gradientUnits="userSpaceOnUse" x1="-149" x2="344.852" xlink:href="#lg1" y1="302.803" y2="302.803"/><linearGradient id="SVGID_7_" gradientUnits="userSpaceOnUse" x1="-149" x2="344.852" xlink:href="#lg1" y1="342.712" y2="342.712"/><linearGradient id="SVGID_8_" gradientUnits="userSpaceOnUse" x1="-149" x2="344.852" xlink:href="#lg1" y1="409.212" y2="409.212"/><linearGradient id="lg2"><stop offset="0" stop-color="#fbc56d"/><stop offset=".593" stop-color="#dc8758"/><stop offset="1" stop-color="#9e5528"/></linearGradient><linearGradient id="SVGID_9_" gradientUnits="userSpaceOnUse" x1="253.912" x2="580.616" xlink:href="#lg2" y1="455.707" y2="455.707"/><linearGradient id="SVGID_10_" gradientUnits="userSpaceOnUse" x1="98.152" x2="544.479" xlink:href="#lg2" y1="455.707" y2="455.707"/><linearGradient id="SVGID_11_" gradientUnits="userSpaceOnUse" x1="-.667" x2="439.98" xlink:href="#lg2" y1="469.106" y2="469.106"/><linearGradient id="SVGID_12_" gradientUnits="userSpaceOnUse" x1="-83.339" x2="371.187" xlink:href="#lg2" y1="469.106" y2="469.106"/><g><g><g><path d="m246.991 15.939-208.353 416.753c-9.584 19.17 4.356 41.724 25.788 41.724h416.705c21.432 0 35.372-22.554 25.788-41.724l-208.352-416.753c-10.625-21.252-40.951-21.252-51.576 0z" fill="url(#SVGID_1_)"/><g><path d="m506.92 432.692-208.353-416.753c-9.078-18.159-32.533-20.787-45.798-7.914 2.259 2.193 4.232 4.821 5.778 7.914l153.013 306.061h-18.974c-6.186 0-11.201 5.015-11.201 11.201v15.598c0 .068.009.134.01.201h-36.193c-6.186 0-11.201 5.015-11.201 11.201v15.598c0 6.186 5.015 11.201 11.201 11.201h42.598c6.186 0 11.201-5.015 11.201-11.201v-15.598c0-.068-.009-.134-.01-.201h13.107c11.314 0 21.657 6.393 26.716 16.513l28.087 56.18c9.584 19.17-4.356 41.724-25.788 41.724h40.02c21.431-.001 35.37-22.555 25.787-41.725z" fill="url(#SVGID_2_)"/><path d="m351.5 281.799v-15.598c0-6.186-5.015-11.201-11.201-11.201h-42.598c-6.186 0-11.201 5.015-11.201 11.201v15.598c0 6.186 5.015 11.201 11.201 11.201h42.598c6.186 0 11.201-5.015 11.201-11.201z" fill="url(#SVGID_3_)"/><path d="m261.578 131.19h-42.598c-6.186 0-11.201 5.015-11.201 11.201v15.598c0 6.186 5.015 11.201 11.201 11.201h42.598c6.186 0 11.201-5.015 11.201-11.201v-15.598c0-6.186-5.015-11.201-11.201-11.201z" fill="url(#SVGID_4_)"/></g><path d="m152.966 142.721-150.737 301.509c-6.934 13.869 3.151 30.186 18.657 30.186h301.474c15.505 0 25.59-16.317 18.657-30.186l-150.738-301.509c-7.686-15.375-29.627-15.375-37.313 0z" fill="url(#SVGID_5_)"/><g><path d="m341.016 444.23-150.737-301.509c-7.687-15.375-29.627-15.375-37.314 0l-1.353 2.707 36.388 72.785h-27.3c-6.186 0-11.201 5.015-11.201 11.201v15.598c0 6.186 5.015 11.201 11.201 11.201 0 0 18.312-.078 31.84-.225 8.73-.095 16.745 4.802 20.649 12.611l87.806 175.632c6.934 13.869-3.151 30.186-18.657 30.186h40.02c15.507-.001 25.592-16.318 18.658-30.187z" fill="url(#SVGID_6_)"/><path d="m174.578 336.212h-24.996v-13.799c0-6.186-5.015-11.201-11.201-11.201h-42.598c-6.186 0-11.201 5.015-11.201 11.201v15.598c0 6.186 5.015 11.201 11.201 11.201h24.996v13.799c0 6.186 5.015 11.201 11.201 11.201h42.598c6.186 0 11.201-5.015 11.201-11.201v-15.598c0-6.186-5.015-11.201-11.201-11.201z" fill="url(#SVGID_7_)"/><path d="m251.63 390.212h-42.598c-6.186 0-11.201 5.015-11.201 11.201v15.598c0 6.186 5.015 11.201 11.201 11.201h42.598c6.186 0 11.201-5.015 11.201-11.201v-15.598c0-6.186-5.014-11.201-11.201-11.201z" fill="url(#SVGID_8_)"/></g></g></g><g><path d="m510 446.355c0-10.552-5.806-20.301-15.169-25.167-23.971-12.458-53.211-19.775-84.769-19.775-70.543 0-129.504 36.559-143.921 85.379-3.423 11.59 5.3 23.208 17.384 23.208h209.917c9.145 0 16.559-7.414 16.559-16.559v-47.086z" fill="url(#SVGID_9_)"/><path d="m494.831 421.188c-23.971-12.458-53.211-19.775-84.769-19.775-6.816 0-13.523.345-20.093 1.006 2.332.233 4.646.505 6.941.817 41.956 5.697 73.07 41.85 73.07 84.192v6.013c0 9.145-7.414 16.559-16.559 16.559h40.02c9.145 0 16.559-7.414 16.559-16.559v-47.087c0-10.552-5.806-20.3-15.169-25.166z" fill="url(#SVGID_10_)"/></g><g><path d="m10.892 510h319.886c0-45.17-90.464-81.788-202.056-81.788-45.371 0-87.247 6.054-120.972 16.274-4.601 1.394-7.75 5.626-7.75 10.434v44.188c0 6.015 4.877 10.892 10.892 10.892z" fill="url(#SVGID_11_)"/><path d="m128.723 428.212c-6.697 0-13.306.147-19.835.405 102.115 4.1 181.871 38.97 181.871 81.382h40.02c0-45.169-90.464-81.787-202.056-81.787z" fill="url(#SVGID_12_)"/></g></g></svg>