<svg id="Capa_1" enable-background="new 0 0 510 510" height="512" viewBox="0 0 510 510" width="512" xmlns="http://www.w3.org/2000/svg" xmlns:xlink="http://www.w3.org/1999/xlink"><linearGradient id="lg1"><stop offset="0" stop-color="#f3eae6"/><stop offset="1" stop-color="#cdbfba"/></linearGradient><linearGradient id="SVGID_1_" gradientUnits="userSpaceOnUse" x1="19" x2="170.331" xlink:href="#lg1" y1="234.381" y2="234.381"/><linearGradient id="lg2"><stop offset="0" stop-color="#faf7f7"/><stop offset=".4551" stop-color="#f3eae6"/><stop offset="1" stop-color="#efe2dd"/></linearGradient><linearGradient id="SVGID_2_" gradientUnits="userSpaceOnUse" x1="0" x2="207.337" xlink:href="#lg2" y1="161.591" y2="161.591"/><linearGradient id="SVGID_3_" gradientUnits="userSpaceOnUse" x1="301.989" x2="500.415" xlink:href="#lg1" y1="234.381" y2="234.381"/><linearGradient id="SVGID_4_" gradientUnits="userSpaceOnUse" x1="155.333" x2="348.677" xlink:href="#lg1" y1="234.384" y2="234.384"/><linearGradient id="SVGID_5_" gradientUnits="userSpaceOnUse" x1="317.846" x2="515.495" xlink:href="#lg2" y1="161.591" y2="161.591"/><linearGradient id="SVGID_6_" gradientUnits="userSpaceOnUse" x1="182" x2="336.081" xlink:href="#lg2" y1="160.458" y2="160.458"/><linearGradient id="SVGID_7_" gradientUnits="userSpaceOnUse" x1="184" x2="294.114" xlink:href="#lg1" y1="183.27" y2="183.27"/><linearGradient id="SVGID_8_" gradientUnits="userSpaceOnUse" x1="270" x2="352.298" xlink:href="#lg1" y1="160.458" y2="160.458"/><linearGradient id="lg3"><stop offset="0" stop-color="#cdbfba"/><stop offset="1" stop-color="#766e6e"/></linearGradient><linearGradient id="SVGID_9_" gradientUnits="userSpaceOnUse" x1="161" x2="356.003" xlink:href="#lg3" y1="71.838" y2="71.838"/><linearGradient id="SVGID_10_" gradientUnits="userSpaceOnUse" x1="-11" x2="345.81" xlink:href="#lg3" y1="93.524" y2="93.524"/><linearGradient id="SVGID_11_" gradientUnits="userSpaceOnUse" x1="-11" x2="345.81" xlink:href="#lg3" y1="71.847" y2="71.847"/><linearGradient id="SVGID_12_" gradientUnits="userSpaceOnUse" x1="-6.45" x2="698.604" xlink:href="#lg3" y1="370.589" y2="370.589"/><linearGradient id="SVGID_13_" gradientUnits="userSpaceOnUse" x1="-60.579" x2="203.822" xlink:href="#lg3" y1="395.103" y2="395.103"/><linearGradient id="SVGID_14_" gradientUnits="userSpaceOnUse" x1="-95.333" x2="513.089" xlink:href="#lg3" y1="398.539" y2="398.539"/><linearGradient id="SVGID_15_" gradientUnits="userSpaceOnUse" x1="-95.333" x2="513.089" xlink:href="#lg3" y1="357.901" y2="357.901"/><linearGradient id="SVGID_16_" gradientUnits="userSpaceOnUse" x1="-95.333" x2="513.089" xlink:href="#lg3" y1="370.589" y2="370.589"/><linearGradient id="SVGID_17_" gradientUnits="userSpaceOnUse" x1="28.049" x2="442.3" xlink:href="#lg2" y1="313.019" y2="313.019"/><linearGradient id="lg4"><stop offset="0" stop-color="#01d0fb"/><stop offset=".6075" stop-color="#26a6fe"/><stop offset="1" stop-color="#0182fc"/></linearGradient><linearGradient id="SVGID_18_" gradientUnits="userSpaceOnUse" x1="-2.951" x2="794.46" xlink:href="#lg4" y1="445.053" y2="445.053"/><linearGradient id="SVGID_19_" gradientUnits="userSpaceOnUse" x1="148" x2="527.033" xlink:href="#lg4" y1="445.053" y2="445.053"/><g><g><g><path d="m13.647 194.026v141.965l25.724-8.107v-81.456c0-16.361 13.263-29.624 29.624-29.624 16.361 0 29.624 13.263 29.624 29.624v62.783l24.42-7.696v-85.328c0-16.361 13.263-29.624 29.624-29.624 16.361 0 29.624 13.263 29.624 29.624v66.656l25.724-8.107v-141.964z" fill="url(#SVGID_1_)"/><path d="m12.501 203.754c-5.278 0-10.184-3.369-11.893-8.663-2.121-6.569 1.485-13.614 8.056-15.735l182.33-59.32c6.565-2.121 13.614 1.486 15.735 8.056s-1.485 13.614-8.056 15.735l-182.33 59.32c-1.275.412-2.57.607-3.842.607z" fill="url(#SVGID_2_)"/></g><g><path d="m496.353 194.026v141.965l-25.724-8.107v-81.456c0-16.361-13.263-29.624-29.624-29.624-16.361 0-29.624 13.263-29.624 29.624v62.783l-24.42-7.696v-85.328c0-16.361-13.263-29.624-29.624-29.624-16.361 0-29.624 13.263-29.624 29.624v66.656l-25.724-8.107v-141.964z" fill="url(#SVGID_3_)"/><path d="m496.35 194.023v141.97l-25.01-7.89v-79.593c0-16.326-10.509-30.796-26.034-35.847l-143.297-46.623c-.007-.01-.012-.017-.02-.027v-33.24l169.35 53.37z" fill="url(#SVGID_4_)"/><path d="m497.499 203.754c5.278 0 10.184-3.369 11.893-8.663 2.121-6.569-1.485-13.614-8.056-15.735l-182.33-59.32c-6.565-2.121-13.614 1.486-15.735 8.056s1.485 13.614 8.056 15.735l182.33 59.32c1.275.412 2.57.607 3.842.607z" fill="url(#SVGID_5_)"/></g><path d="m255 51.836-73.477 35.657v181.587h35.97v-134.114c0-20.714 16.792-37.507 37.507-37.507 20.714 0 37.507 16.792 37.507 37.507v134.114h35.97v-181.587z" fill="url(#SVGID_6_)"/><path d="m229.989 97.46c-20.714 0-37.507 16.792-37.507 37.507v134.114h25.011v-134.115c0-16.328 10.437-30.212 25.001-35.363-3.912-1.383-8.119-2.143-12.505-2.143z" fill="url(#SVGID_7_)"/><path d="m255 51.836-12.505 6.069 60.971 29.588v181.588h25.011v-181.588z" fill="url(#SVGID_8_)"/><path d="m277.131 35.85c-13.541-8.458-30.72-8.458-44.261 0l-70.981 44.337c-10.031 6.265-11.623 20.234-3.261 28.597 6.053 6.053 15.482 7.128 22.743 2.593l51.498-32.168c13.542-8.458 30.72-8.458 44.261 0l51.498 32.168c7.26 4.535 16.69 3.46 22.743-2.593 8.363-8.363 6.77-22.331-3.261-28.597z" fill="url(#SVGID_9_)"/><g><path d="m207.858 79.21-48.467 30.274c6.062 5.418 15.015 6.244 21.98 1.893l51.498-32.167c3.05-1.905 6.29-3.357 9.625-4.404-11.475-3.602-24.144-2.149-34.636 4.404z" fill="url(#SVGID_10_)"/><path d="m348.111 80.187-70.98-44.337c-10.492-6.553-23.161-8.006-34.636-4.404 3.336 1.047 6.575 2.499 9.625 4.404l70.98 44.337c10.031 6.266 11.623 20.234 3.261 28.597-.246.246-.506.47-.763.7l3.031 1.893c7.26 4.535 16.69 3.46 22.743-2.593 8.362-8.363 6.77-22.331-3.261-28.597z" fill="url(#SVGID_11_)"/></g><g><path d="m499.243 354.971-159.182-65.187c-4.999-2.047-10.348-3.1-15.75-3.1h-138.622c-5.401 0-10.751 1.053-15.75 3.1l-159.182 65.187c-6.507 2.664-10.757 8.998-10.757 16.029v83.494h97.201c22.423-65.603 84.6-118.777 157.799-118.777s135.375 53.174 157.799 118.777h97.201v-83.494c0-7.031-4.25-13.365-10.757-16.029z" fill="url(#SVGID_12_)"/><path d="m214.98 335.713c6.77 0 15.949.4 22.509 1.19-64.36 7.7-119.939 58.06-140.289 117.59h-40.02c22.42-65.6 84.6-118.78 157.8-118.78z" fill="url(#SVGID_13_)"/><g><path d="m66.974 395.302h-12.446v-6.871c0-3.08-2.497-5.577-5.577-5.577h-21.211c-3.08 0-5.577 2.497-5.577 5.577v7.767c0 3.08 2.497 5.577 5.577 5.577h12.446v6.871c0 3.08 2.497 5.577 5.577 5.577h21.211c3.08 0 5.577-2.497 5.577-5.577v-7.767c.001-3.08-2.496-5.577-5.577-5.577z" fill="url(#SVGID_14_)"/><path d="m396.908 348.44h-21.211c-3.08 0-5.577 2.497-5.577 5.577v7.767c0 3.08 2.497 5.577 5.577 5.577h21.211c3.08 0 5.577-2.497 5.577-5.577v-7.767c0-3.079-2.496-5.577-5.577-5.577z" fill="url(#SVGID_15_)"/><path d="m499.243 354.971-159.182-65.187c-4.999-2.047-10.348-3.1-15.75-3.1h-138.622c-5.401 0-10.751 1.053-15.75 3.1l-159.182 65.187c-6.507 2.664-10.757 8.998-10.757 16.029v13.913c1.14-.81 2.39-1.5 3.73-2.03l163.76-65.19c5.15-2.04 10.65-3.1 16.21-3.1h142.6c5.56 0 11.06 1.06 16.21 3.1l77.602 30.89c27.004 10.749 45.671 35.294 49.236 63.621h-11.007v-6.871c0-3.081-2.497-5.578-5.577-5.578h-21.21c-3.08 0-5.577 2.497-5.577 5.578v7.766c0 3.08 2.497 5.577 5.577 5.577h12.446v6.871c0 3.08 2.497 5.577 5.577 5.577h20.403v23.368h40.02v-83.492c0-7.031-4.25-13.365-10.757-16.029z" fill="url(#SVGID_16_)"/></g><path d="m499.243 320.421-159.182-65.187c-4.999-2.047-10.348-3.1-15.75-3.1h-138.622c-5.401 0-10.751 1.053-15.75 3.1l-159.182 65.187c-6.507 2.664-10.757 8.998-10.757 16.029v37.453c0-7.031 4.25-13.365 10.757-16.029l159.182-65.187c4.999-2.047 10.348-3.1 15.75-3.1h138.622c5.401 0 10.751 1.053 15.75 3.1l159.182 65.187c6.507 2.665 10.757 8.998 10.757 16.029v-37.453c0-7.031-4.25-13.365-10.757-16.029z" fill="url(#SVGID_17_)"/></g></g><g><path d="m510 453.384v14.867c0 6.761-5.481 12.242-12.242 12.242h-485.516c-6.761 0-12.242-5.481-12.242-12.242v-14.871c0-10.783 8.769-19.586 19.551-19.452 10.803.134 21.647-3.919 29.889-12.154 8.1-8.11 18.73-12.16 29.36-12.16s21.26 4.05 29.37 12.16c8.11 8.1 18.74 12.16 29.37 12.16 10.62 0 21.25-4.06 29.36-12.16 8.11-8.11 18.74-12.16 29.37-12.16s21.25 4.05 29.36 12.16c8.11 8.1 18.74 12.16 29.37 12.16s21.26-4.06 29.37-12.16c8.11-8.11 18.73-12.16 29.36-12.16s21.26 4.05 29.37 12.16c8.11 8.1 18.74 12.16 29.36 12.16 10.63 0 21.26-4.06 29.37-12.16 8.11-8.11 18.74-12.16 29.37-12.16s21.26 4.05 29.36 12.16c8.11 8.1 18.74 12.16 29.37 12.16.069 0 .138 0 .208-.001 10.904-.054 19.862 8.546 19.862 19.451z" fill="url(#SVGID_18_)"/><path d="m490.137 433.933c-.069 0-.138 0-.208 0-10.63 0-21.26-4.06-29.37-12.16-8.1-8.11-18.73-12.16-29.36-12.16-6.902 0-13.799 1.719-20.011 5.136 3.354 1.846 6.511 4.18 9.351 7.024 8.11 8.1 18.74 12.16 29.37 12.16h.208c10.905-.054 19.863 8.547 19.863 19.451v14.867c0 6.761-5.481 12.242-12.242 12.242h40.02c6.761 0 12.242-5.481 12.242-12.242v-14.867c0-10.904-8.958-19.505-19.863-19.451z" fill="url(#SVGID_19_)"/></g></g></svg>