<svg id="Capa_1" enable-background="new 0 0 510 510" height="512" viewBox="0 0 510 510" width="512" xmlns="http://www.w3.org/2000/svg" xmlns:xlink="http://www.w3.org/1999/xlink"><linearGradient id="lg1"><stop offset="0" stop-color="#537983"/><stop offset=".593" stop-color="#554e56"/><stop offset="1" stop-color="#433f43"/></linearGradient><linearGradient id="SVGID_1_" gradientUnits="userSpaceOnUse" x1="11.713" x2="169.451" xlink:href="#lg1" y1="174.905" y2="174.905"/><linearGradient id="SVGID_2_" gradientUnits="userSpaceOnUse" x1="302.612" x2="489.471" xlink:href="#lg1" y1="174.905" y2="174.905"/><linearGradient id="lg2"><stop offset="0" stop-color="#fe646f"/><stop offset=".593" stop-color="#fb2b3a"/><stop offset="1" stop-color="#c41926"/></linearGradient><linearGradient id="SVGID_3_" gradientUnits="userSpaceOnUse" x1="111.57" x2="571.793" xlink:href="#lg2" y1="78.725" y2="78.725"/><linearGradient id="SVGID_4_" gradientUnits="userSpaceOnUse" x1="111.57" x2="571.793" xlink:href="#lg2" y1="172.985" y2="172.985"/><linearGradient id="SVGID_5_" gradientUnits="userSpaceOnUse" x1="154.667" x2="338.744" xlink:href="#lg2" y1="78.72" y2="78.72"/><linearGradient id="SVGID_6_" gradientUnits="userSpaceOnUse" x1="154.667" x2="338.744" xlink:href="#lg2" y1="172.985" y2="172.985"/><linearGradient id="SVGID_7_" gradientUnits="userSpaceOnUse" x1="138.57" x2="252.268" xlink:href="#lg2" y1="239.201" y2="239.201"/><linearGradient id="SVGID_8_" gradientUnits="userSpaceOnUse" x1="300.562" x2="414.26" xlink:href="#lg2" y1="239.201" y2="239.201"/><linearGradient id="lg3"><stop offset="0" stop-color="#cdbfba"/><stop offset="1" stop-color="#766e6e"/></linearGradient><linearGradient id="SVGID_9_" gradientTransform="matrix(1 0 0 -1 0 404.133)" gradientUnits="userSpaceOnUse" x1="138.345" x2="203.434" xlink:href="#lg3" y1="-43.26" y2="-43.26"/><linearGradient id="SVGID_10_" gradientTransform="matrix(1 0 0 -1 0 404.133)" gradientUnits="userSpaceOnUse" x1="300.341" x2="365.43" xlink:href="#lg3" y1="-43.26" y2="-43.26"/><linearGradient id="SVGID_11_" gradientUnits="userSpaceOnUse" x1="-3" x2="376.361" xlink:href="#lg2" y1="396.37" y2="396.37"/><linearGradient id="SVGID_13_" gradientUnits="userSpaceOnUse" x1="77.626" x2="644.34" xlink:href="#lg2" y1="351.491" y2="351.491"/><linearGradient id="SVGID_14_" gradientUnits="userSpaceOnUse" x1="182" x2="462.713" xlink:href="#lg2" y1="351.491" y2="351.491"/><linearGradient id="lg4"><stop offset="0" stop-color="#01d0fb"/><stop offset=".6075" stop-color="#26a6fe"/><stop offset="1" stop-color="#0182fc"/></linearGradient><linearGradient id="SVGID_15_" gradientUnits="userSpaceOnUse" x1="-2.951" x2="794.46" xlink:href="#lg4" y1="474.56" y2="474.56"/><linearGradient id="SVGID_16_" gradientUnits="userSpaceOnUse" x1="148" x2="527.033" xlink:href="#lg4" y1="474.56" y2="474.56"/><g><g><path d="m161.831 18.002c-4.017.057-7.272 3.262-7.402 7.276-.528 16.312-3.267 58.61-17.22 107.997-10.423 36.894-24.978 70.48-43.261 99.827-21.376 34.313-47.953 62.905-79.07 85.084-3.318 2.365-4.165 6.927-1.888 10.306 2.352 3.49 7.127 4.38 10.555 1.937 19.541-13.924 37.366-30.24 53.337-48.784v48.784h15v-67.609c5.219-7.072 10.208-14.406 14.942-22.019 2.938-4.723 5.77-9.562 8.52-14.489v104.116h15v-134.06c8.379-18.716 15.549-38.58 21.425-59.455 14.414-51.215 17.172-94.126 17.678-111.189.127-4.274-3.34-7.783-7.616-7.722z" fill="url(#SVGID_1_)"/><path d="m348.169 18.002c4.017.057 7.272 3.262 7.402 7.276.528 16.312 3.267 58.61 17.22 107.997 10.423 36.894 24.978 70.48 43.261 99.827 21.376 34.313 47.953 62.905 79.07 85.084 3.318 2.365 4.165 6.927 1.888 10.306-2.352 3.49-7.127 4.38-10.555 1.937-19.541-13.924-37.366-30.24-53.337-48.784v48.784h-15v-67.609c-5.219-7.072-10.208-14.406-14.942-22.019-2.938-4.723-5.77-9.562-8.52-14.489v104.116h-15v-134.06c-8.379-18.716-15.549-38.58-21.425-59.455-14.414-51.215-17.172-94.126-17.678-111.189-.127-4.274 3.34-7.783 7.616-7.722z" fill="url(#SVGID_2_)"/></g><path d="m174.004 31.594v94.261h13.131c10.201 0 19.829-4.507 26.54-12.19 10.054-11.512 24.84-18.785 41.325-18.785s31.271 7.273 41.325 18.785c6.71 7.683 16.339 12.19 26.54 12.19h13.131v-94.261z" fill="url(#SVGID_3_)"/><path d="m174.004 125.855v94.261h13.131c10.201 0 19.829-4.507 26.54-12.19 10.054-11.512 24.84-18.785 41.325-18.785s31.271 7.273 41.325 18.785c6.71 7.683 16.339 12.19 26.54 12.19h13.131v-94.261z" fill="url(#SVGID_4_)"/><path d="m336 31.59v94.26h-13.14c-2.33 0-4.63-.24-6.87-.69-7.57-1.53-14.48-5.57-19.66-11.5-5.53-6.32-12.48-11.37-20.36-14.63v-67.44z" fill="url(#SVGID_5_)"/><path d="m336 125.85v94.27h-13.14c-2.33 0-4.63-.24-6.87-.69-7.57-1.53-14.48-5.57-19.66-11.5-5.53-6.33-12.48-11.38-20.36-14.63v-67.45z" fill="url(#SVGID_6_)"/><g><path d="m174.004 478.403c11.051 0 20.01-8.959 20.01-20.01v-438.383c0-11.051-8.959-20.01-20.01-20.01-11.051 0-20.01 8.959-20.01 20.01v438.383c0 11.051 8.959 20.01 20.01 20.01z" fill="url(#SVGID_7_)"/><path d="m335.996 478.403c11.051 0 20.01-8.959 20.01-20.01v-438.383c0-11.051-8.959-20.01-20.01-20.01-11.051 0-20.01 8.959-20.01 20.01v438.383c0 11.051 8.959 20.01 20.01 20.01z" fill="url(#SVGID_8_)"/></g><path d="m183.09 423.398h-18.172c-12.994 0-24.258 8.993-27.135 21.664l-5.978 26.327h84.397l-5.978-26.327c-2.876-12.671-14.14-21.664-27.134-21.664z" fill="url(#SVGID_9_)"/><path d="m345.086 423.398h-18.172c-12.994 0-24.258 8.993-27.135 21.664l-5.978 26.327h84.397l-5.978-26.327c-2.876-12.671-14.14-21.664-27.134-21.664z" fill="url(#SVGID_10_)"/><g fill="url(#SVGID_11_)"><path d="m153.99 379.99h40.02v32.76h-40.02z"/><path d="m315.99 379.99h40.02v32.76h-40.02z"/></g><g><path d="m482.099 388.304h-454.198c-15.409 0-27.901-12.492-27.901-27.901v-17.825c0-15.409 12.492-27.901 27.901-27.901h454.197c15.409 0 27.901 12.492 27.901 27.901v17.825c.001 15.409-12.491 27.901-27.9 27.901z" fill="url(#SVGID_13_)"/><path d="m482.099 314.677h-34.273c-1.258 0-2.509.031-3.756.078 14.479 1.022 25.91 13.084 25.91 27.823v17.825c0 14.739-11.431 26.801-25.91 27.823 1.247.047 2.498.078 3.756.078h34.273c15.409 0 27.901-12.492 27.901-27.901v-17.825c0-15.409-12.492-27.901-27.901-27.901z" fill="url(#SVGID_14_)"/></g><g><path d="m510 482.891v14.867c0 6.761-5.481 12.242-12.242 12.242h-485.516c-6.761 0-12.242-5.481-12.242-12.242v-14.871c0-10.783 8.769-19.586 19.551-19.452 10.803.134 21.647-3.919 29.889-12.154 8.1-8.11 18.73-12.16 29.36-12.16s21.26 4.05 29.37 12.16c8.11 8.1 18.74 12.16 29.37 12.16 10.62 0 21.25-4.06 29.36-12.16 8.11-8.11 18.74-12.16 29.37-12.16s21.25 4.05 29.36 12.16c8.11 8.1 18.74 12.16 29.37 12.16s21.26-4.06 29.37-12.16c8.11-8.11 18.73-12.16 29.36-12.16s21.26 4.05 29.37 12.16c8.11 8.1 18.74 12.16 29.36 12.16 10.63 0 21.26-4.06 29.37-12.16 8.11-8.11 18.74-12.16 29.37-12.16s21.26 4.05 29.36 12.16c8.11 8.1 18.74 12.16 29.37 12.16.069 0 .138 0 .208-.001 10.904-.055 19.862 8.546 19.862 19.451z" fill="url(#SVGID_15_)"/><path d="m490.137 463.439c-.069 0-.138 0-.208 0-10.63 0-21.26-4.06-29.37-12.16-8.1-8.11-18.73-12.16-29.36-12.16-6.902 0-13.799 1.719-20.011 5.136 3.354 1.846 6.511 4.18 9.351 7.024 8.11 8.1 18.74 12.16 29.37 12.16h.208c10.905-.054 19.863 8.547 19.863 19.451v14.867c0 6.761-5.481 12.242-12.242 12.242h40.02c6.761 0 12.242-5.481 12.242-12.242v-14.867c0-10.904-8.958-19.505-19.863-19.451z" fill="url(#SVGID_16_)"/></g></g></svg>