<svg id="Capa_1" enable-background="new 0 0 510 510" height="512" viewBox="0 0 510 510" width="512" xmlns="http://www.w3.org/2000/svg" xmlns:xlink="http://www.w3.org/1999/xlink"><linearGradient id="lg1"><stop offset="0" stop-color="#faf7f7"/><stop offset=".4551" stop-color="#f3eae6"/><stop offset="1" stop-color="#efe2dd"/></linearGradient><linearGradient id="SVGID_1_" gradientUnits="userSpaceOnUse" x1="178.345" x2="415.312" xlink:href="#lg1" y1="426.095" y2="426.095"/><linearGradient id="lg2"><stop offset="0" stop-color="#f3eae6"/><stop offset="1" stop-color="#cdbfba"/></linearGradient><linearGradient id="SVGID_2_" gradientUnits="userSpaceOnUse" x1="33.102" x2="381.136" xlink:href="#lg2" y1="426.094" y2="426.094"/><linearGradient id="SVGID_3_" gradientUnits="userSpaceOnUse" x1="238.754" x2="281.278" xlink:href="#lg1" y1="152.025" y2="152.025"/><linearGradient id="SVGID_4_" gradientUnits="userSpaceOnUse" x1="222" x2="285.008" xlink:href="#lg2" y1="152.025" y2="152.025"/><linearGradient id="lg3"><stop offset="0" stop-color="#fe646f"/><stop offset=".593" stop-color="#fb2b3a"/><stop offset="1" stop-color="#c41926"/></linearGradient><linearGradient id="SVGID_5_" gradientUnits="userSpaceOnUse" x1="234.092" x2="280.975" xlink:href="#lg3" y1="50.831" y2="50.831"/><linearGradient id="SVGID_6_" gradientUnits="userSpaceOnUse" x1="234.092" x2="280.975" xlink:href="#lg3" y1="211.28" y2="211.28"/><linearGradient id="SVGID_7_" gradientUnits="userSpaceOnUse" x1="136" x2="290.932" xlink:href="#lg3" y1="50.831" y2="50.831"/><linearGradient id="SVGID_8_" gradientUnits="userSpaceOnUse" x1="136" x2="290.932" xlink:href="#lg3" y1="211.28" y2="211.28"/><linearGradient id="lg4"><stop offset="0" stop-color="#cdbfba"/><stop offset="1" stop-color="#766e6e"/></linearGradient><linearGradient id="SVGID_9_" gradientUnits="userSpaceOnUse" x1="176.782" x2="341.244" xlink:href="#lg4" y1="271.525" y2="271.525"/><linearGradient id="SVGID_10_" gradientUnits="userSpaceOnUse" x1="182" x2="289" xlink:href="#lg4" y1="271.525" y2="271.525"/><linearGradient id="SVGID_11_" gradientUnits="userSpaceOnUse" x1="115.768" x2="408.518" xlink:href="#lg4" y1="334.18" y2="334.18"/><linearGradient id="SVGID_12_" gradientUnits="userSpaceOnUse" x1="208.887" x2="351.001" xlink:href="#lg1" y1="226.158" y2="226.158"/><linearGradient id="SVGID_13_" gradientUnits="userSpaceOnUse" x1="225.481" x2="316.454" xlink:href="#lg1" y1="111.66" y2="111.66"/><linearGradient id="SVGID_14_" gradientUnits="userSpaceOnUse" x1="64" x2="351.005" xlink:href="#lg4" y1="334.18" y2="334.18"/><linearGradient id="SVGID_15_" gradientUnits="userSpaceOnUse" x1="64" x2="351.005" xlink:href="#lg4" y1="303.691" y2="303.691"/><linearGradient id="SVGID_17_" gradientUnits="userSpaceOnUse" x1="64" x2="351.005" xlink:href="#lg4" y1="364.669" y2="364.669"/><g><g><path d="m320.569 510h-131.138c-5.639 0-10.209-4.571-10.209-10.209v-147.391c0-5.639 4.571-10.209 10.209-10.209h131.138c5.639 0 10.209 4.571 10.209 10.209v147.391c.001 5.638-4.57 10.209-10.209 10.209z" fill="url(#SVGID_1_)"/><path d="m330.78 352.397v147.393c0 5.639-4.571 10.21-10.21 10.21h-40.02c5.64 0 10.21-6.36 10.21-12v-48c0-18.006-14.597-24.813-32.603-24.813h-78.937v-72.79c0-5.639 4.571-10.21 10.21-10.21h131.14c5.639.001 10.21 4.572 10.21 10.21z" fill="url(#SVGID_2_)"/></g><path d="m261.12 9.46c-3.366-12.613-8.874-12.613-12.24 0-6.363 23.842-10.244 47.963-11.615 72.182l-14.962 222.408h65.394l-14.962-222.408c-1.371-24.219-5.252-48.341-11.615-72.182z" fill="url(#SVGID_3_)"/><path d="m272.735 81.642c-1.37-24.219-5.252-48.341-11.615-72.182-3.366-12.613-8.874-12.613-12.24 0-2.521 9.445-4.645 18.935-6.385 28.457 2.652 14.513 4.402 29.101 5.229 43.725l14.963 222.409h25.011z" fill="url(#SVGID_4_)"/><g><path d="m272.73 81.64c-1.37-24.22-5.25-48.34-11.61-72.18-3.37-12.61-8.87-12.61-12.24 0-3.18 11.92-5.74 23.91-7.68 35.95-1.93 12.03-3.24 24.12-3.93 36.23l-1.13 20.02h37.72z" fill="url(#SVGID_5_)"/><path d="m279.54 159.95h-49.08l-5.81 102.66h60.7z" fill="url(#SVGID_6_)"/></g><g><path d="m272.73 81.64c-1.37-24.22-5.25-48.34-11.61-72.18-3.37-12.61-8.87-12.61-12.24 0-2.52 9.445-4.644 18.935-6.385 28.459 2.652 14.512 4.401 29.1 5.229 43.723l1.133 20.018h25.004z" fill="url(#SVGID_7_)"/><path d="m279.54 159.95h-25.008l5.809 102.66h25.009z" fill="url(#SVGID_8_)"/></g><path d="m314.123 323.533h-118.246c-7.295 0-13.21-5.914-13.21-13.21v-77.596c0-7.295 5.914-13.21 13.21-13.21h118.247c7.295 0 13.21 5.914 13.21 13.21v77.596c-.001 7.296-5.915 13.21-13.211 13.21z" fill="url(#SVGID_9_)"/><path d="m314.123 219.517h-11.801v104.015h11.801c7.296 0 13.21-5.914 13.21-13.21v-77.596c0-7.294-5.914-13.209-13.21-13.209z" fill="url(#SVGID_10_)"/><path d="m363.316 404.132h-216.632c-11.288 0-20.439-9.151-20.439-20.439v-99.025c0-11.288 9.151-20.439 20.439-20.439h216.632c11.288 0 20.439 9.151 20.439 20.439v99.025c0 11.288-9.151 20.439-20.439 20.439z" fill="url(#SVGID_11_)"/><path d="m330.133 236.158h-150.266c-5.523 0-10-4.477-10-10s4.477-10 10-10h150.265c5.522 0 10 4.477 10 10s-4.477 10-9.999 10z" fill="url(#SVGID_12_)"/><path d="m299.496 121.66h-88.993c-5.523 0-10-4.477-10-10s4.477-10 10-10h88.993c5.522 0 10 4.477 10 10s-4.477 10-10 10z" fill="url(#SVGID_13_)"/><g><path d="m363.316 264.228h-40.02c10.211 0 18.649 7.496 20.171 17.28h-23.55c-5.94 0-10.755 4.815-10.755 10.755v22.854c0 5.94 4.815 10.755 10.755 10.755h23.819v16.614h-23.819c-5.94 0-10.755 4.815-10.755 10.755v22.854c0 5.94 4.815 10.755 10.755 10.755h23.55c-1.522 9.784-9.959 17.28-20.171 17.28h40.02c11.288 0 20.439-9.151 20.439-20.439v-99.025c0-11.287-9.151-20.438-20.439-20.438z" fill="url(#SVGID_14_)"/><path d="m190.083 281.509h-22.854c-5.94 0-10.755 4.815-10.755 10.755v22.854c0 5.94 4.815 10.755 10.755 10.755h22.854c5.94 0 10.755-4.815 10.755-10.755v-22.854c0-5.94-4.815-10.755-10.755-10.755z" fill="url(#SVGID_15_)"/><path d="m266.427 281.509h-22.854c-5.94 0-10.755 4.815-10.755 10.755v22.854c0 5.94 4.815 10.755 10.755 10.755h22.854c5.94 0 10.755-4.815 10.755-10.755v-22.854c0-5.94-4.815-10.755-10.755-10.755z" fill="url(#SVGID_15_)"/><g fill="url(#SVGID_17_)"><path d="m190.083 342.487h-22.854c-5.94 0-10.755 4.815-10.755 10.755v22.854c0 5.94 4.815 10.755 10.755 10.755h22.854c5.94 0 10.755-4.815 10.755-10.755v-22.854c0-5.94-4.815-10.755-10.755-10.755z"/><path d="m266.427 342.487h-22.854c-5.94 0-10.755 4.815-10.755 10.755v22.854c0 5.94 4.815 10.755 10.755 10.755h22.854c5.94 0 10.755-4.815 10.755-10.755v-22.854c0-5.94-4.815-10.755-10.755-10.755z"/></g></g></g></svg>