<svg id="Capa_1" enable-background="new 0 0 510 510" height="512" viewBox="0 0 510 510" width="512" xmlns="http://www.w3.org/2000/svg" xmlns:xlink="http://www.w3.org/1999/xlink"><linearGradient id="lg1"><stop offset="0" stop-color="#cdbfba"/><stop offset="1" stop-color="#766e6e"/></linearGradient><linearGradient id="SVGID_1_" gradientUnits="userSpaceOnUse" x1="214.5" x2="276.655" xlink:href="#lg1" y1="45.25" y2="45.25"/><linearGradient id="lg2"><stop offset="0" stop-color="#537983"/><stop offset=".593" stop-color="#554e56"/><stop offset="1" stop-color="#433f43"/></linearGradient><linearGradient id="SVGID_2_" gradientUnits="userSpaceOnUse" x1="209.5" x2="318.009" xlink:href="#lg2" y1="390.102" y2="390.102"/><linearGradient id="SVGID_3_" gradientUnits="userSpaceOnUse" x1="131.333" x2="287.449" xlink:href="#lg2" y1="390.1" y2="390.1"/><linearGradient id="SVGID_4_" gradientUnits="userSpaceOnUse" x1="164.036" x2="503.524" y1="208" y2="208"><stop offset="0" stop-color="#01d0fb"/><stop offset=".6075" stop-color="#26a6fe"/><stop offset="1" stop-color="#0182fc"/></linearGradient><linearGradient id="SVGID_5_" gradientUnits="userSpaceOnUse" x1="116" x2="457.511" y1="208" y2="208"><stop offset="0" stop-color="#01bffa"/><stop offset="1" stop-color="#5b5cff"/></linearGradient><linearGradient id="SVGID_6_" gradientUnits="userSpaceOnUse" x1="74" x2="527" xlink:href="#lg1" y1="203.103" y2="203.103"/><linearGradient id="SVGID_7_" gradientUnits="userSpaceOnUse" x1="231.245" x2="425.904" xlink:href="#lg1" y1="203.103" y2="203.103"/><linearGradient id="lg3"><stop offset="0" stop-color="#f3eae6"/><stop offset="1" stop-color="#cdbfba"/></linearGradient><linearGradient id="SVGID_8_" gradientUnits="userSpaceOnUse" x1="211.593" x2="306.278" xlink:href="#lg3" y1="73.594" y2="73.594"/><linearGradient id="SVGID_9_" gradientUnits="userSpaceOnUse" x1="180.667" x2="268.041" xlink:href="#lg3" y1="73.594" y2="73.594"/><linearGradient id="lg4"><stop offset="0" stop-color="#faf7f7"/><stop offset=".4551" stop-color="#f3eae6"/><stop offset="1" stop-color="#efe2dd"/></linearGradient><linearGradient id="SVGID_10_" gradientUnits="userSpaceOnUse" x1="105" x2="368.274" xlink:href="#lg4" y1="118.303" y2="118.303"/><linearGradient id="SVGID_11_" gradientUnits="userSpaceOnUse" x1="169.121" x2="450.092" xlink:href="#lg3" y1="118.303" y2="118.303"/><linearGradient id="SVGID_12_" gradientUnits="userSpaceOnUse" x1="175.2" x2="334.8" xlink:href="#lg4" y1="388.655" y2="388.655"/><linearGradient id="SVGID_13_" gradientUnits="userSpaceOnUse" x1="190" x2="349.524" xlink:href="#lg3" y1="388.655" y2="388.655"/><linearGradient id="SVGID_14_" gradientUnits="userSpaceOnUse" x1="110" x2="209.408" xlink:href="#lg4" y1="287.735" y2="287.735"/><linearGradient id="SVGID_15_" gradientUnits="userSpaceOnUse" x1="113" x2="354.207" xlink:href="#lg4" y1="267.311" y2="267.311"/><linearGradient id="SVGID_16_" gradientUnits="userSpaceOnUse" x1="264.49" x2="478.007" xlink:href="#lg3" y1="268.773" y2="268.773"/><g><path d="m265 10v80.5h-20v-80.5c0-5.52 4.48-10 10-10s10 4.48 10 10z" fill="url(#SVGID_1_)"/><path d="m278.811 508h-47.621c-6.326 0-11.454-5.128-11.454-11.454v-224.343h70.529v224.343c0 6.326-5.128 11.454-11.454 11.454z" fill="url(#SVGID_2_)"/><path d="m290.26 272.2v224.35c0 6.32-5.12 11.45-11.45 11.45h-16.95c-4.22-20.25-6.38-40.82-6.53-61.39-.23-31.15 4.21-62.33 13.29-92.48l6.183-20.515c3.703-12.286-5.523-24.624-18.355-24.606-.089 0-.178 0-.268 0h-1.18c-12.13 0-23.93-.21-35.26-.61v-36.2h70.52z" fill="url(#SVGID_3_)"/><path d="m370.463 259h-230.926l-25.12-102h281.166z" fill="url(#SVGID_4_)"/><path d="m355.563 157-14.776 60h-211.594l6.16 25.011h181.778c8.9 0 15.441 8.347 13.313 16.989h40.02l25.12-102z" fill="url(#SVGID_5_)"/><g><path d="m445.451 203.103c0-7.675-6.222-13.897-13.897-13.897h-353.108c-7.675 0-13.897 6.222-13.897 13.897 0 7.675 6.222 13.897 13.897 13.897h353.108c7.675 0 13.897-6.222 13.897-13.897z" fill="url(#SVGID_6_)"/><path d="m431.554 189.206h-27.794c7.675 0 13.897 6.222 13.897 13.897s-6.222 13.897-13.897 13.897h27.794c7.675 0 13.897-6.222 13.897-13.897s-6.222-13.897-13.897-13.897z" fill="url(#SVGID_7_)"/></g><g><path d="m299.5 101.801h-89v-31.863c0-13.56 10.993-24.553 24.553-24.553h39.895c13.56 0 24.553 10.993 24.553 24.553v31.863z" fill="url(#SVGID_8_)"/><path d="m274.947 45.386h-25.011c13.56 0 24.553 10.993 24.553 24.553v31.863h25.011v-31.864c0-13.56-10.993-24.552-24.553-24.552z" fill="url(#SVGID_9_)"/></g><path d="m334.285 83.529c2.369-2.294 4.326-4.759 5.78-7.396 2.74-4.973-.964-11.062-6.642-11.062h-156.846c-5.678 0-9.382 6.089-6.642 11.062 1.453 2.637 3.411 5.101 5.78 7.396 7.991 7.739 4.586 21.16-6.053 24.41-30.318 9.26-56.966 23.582-68.039 43.257-5.12 9.097 1.688 20.338 12.128 20.338h282.5c10.439 0 17.247-11.24 12.128-20.338-11.073-19.675-37.721-33.997-68.039-43.257-10.641-3.25-14.046-16.67-6.055-24.41z" fill="url(#SVGID_10_)"/><path d="m408.377 151.196c-11.073-19.675-37.721-33.997-68.039-43.257-10.639-3.25-14.045-16.67-6.053-24.409 2.369-2.294 4.326-4.759 5.78-7.396 2.74-4.973-.964-11.062-6.642-11.062h-40.02c5.678 0 9.382 6.089 6.642 11.062-1.453 2.637-3.411 5.101-5.78 7.396-7.991 7.739-4.586 21.16 6.053 24.409 30.318 9.26 56.966 23.582 68.039 43.257 5.12 9.097-1.688 20.338-12.128 20.338h40.02c10.44 0 17.248-11.241 12.128-20.338z" fill="url(#SVGID_11_)"/><path d="m308.64 354.13c-9.08 30.15-13.52 61.33-13.29 92.48.15 21.25 2.46 42.49 6.94 63.39h-94.58c4.48-20.9 6.79-42.14 6.94-63.39.23-31.15-4.21-62.33-13.29-92.48l-26.16-86.82h26.04l37.52 124.52c4.85 16.1 27.63 16.1 32.48 0l37.52-124.52h26.04z" fill="url(#SVGID_12_)"/><path d="m334.8 267.31h-26.04l-37.52 124.52c-2.073 6.88-7.421 10.81-13.244 11.81-1.874 14.261-2.772 28.618-2.666 42.97.15 21.25 2.46 42.49 6.94 63.39h40.02c-4.48-20.9-6.79-42.14-6.94-63.39-.23-31.15 4.21-62.33 13.29-92.48z" fill="url(#SVGID_13_)"/><path d="m203.89 276.12 9.66 32.04c-9.21-.39-18.07-.9-26.5-1.53l-8.99-29.84-2.86-9.48h26.04z" fill="url(#SVGID_14_)"/><path d="m410.118 260.398c0 13.035-69.449 23.602-155.118 23.602s-155.118-10.567-155.118-23.602 310.236-13.035 310.236 0z" fill="url(#SVGID_15_)"/><path d="m369.554 253.545c-6.089 15.755-63.465 28.39-136.272 30.224 7.098.151 14.346.231 21.718.231 85.669 0 155.118-10.567 155.118-23.602 0-2.954-15.927-5.238-40.564-6.853z" fill="url(#SVGID_16_)"/></g></svg>