<svg id="Capa_1" enable-background="new 0 0 510 510" height="512" viewBox="0 0 510 510" width="512" xmlns="http://www.w3.org/2000/svg" xmlns:xlink="http://www.w3.org/1999/xlink"><linearGradient id="lg1"><stop offset="0" stop-color="#fef056"/><stop offset=".5213" stop-color="#fbc56d"/><stop offset="1" stop-color="#c86d36"/></linearGradient><linearGradient id="SVGID_1_" gradientUnits="userSpaceOnUse" x1="128.836" x2="599.696" xlink:href="#lg1" y1="321.665" y2="321.665"/><linearGradient id="SVGID_2_" gradientUnits="userSpaceOnUse" x1="-5" x2="526.648" xlink:href="#lg1" y1="321.665" y2="321.665"/><linearGradient id="lg2"><stop offset="0" stop-color="#fbc56d"/><stop offset=".593" stop-color="#dc8758"/><stop offset="1" stop-color="#9e5528"/></linearGradient><linearGradient id="SVGID_3_" gradientUnits="userSpaceOnUse" x1="170.621" x2="340.438" xlink:href="#lg2" y1="413.688" y2="413.688"/><linearGradient id="SVGID_4_" gradientUnits="userSpaceOnUse" x1="41.628" x2="310.152" xlink:href="#lg2" y1="413.688" y2="413.688"/><linearGradient id="SVGID_5_" gradientUnits="userSpaceOnUse" x1="83" x2="405.002" xlink:href="#lg1" y1="152" y2="152"/><linearGradient id="SVGID_6_" gradientUnits="userSpaceOnUse" x1="29.234" x2="347.616" xlink:href="#lg1" y1="195.137" y2="195.137"/><linearGradient id="SVGID_7_" gradientUnits="userSpaceOnUse" x1="73.126" x2="365.996" xlink:href="#lg1" y1="152" y2="152"/><linearGradient id="SVGID_8_" gradientUnits="userSpaceOnUse" x1="170.207" x2="376.458" xlink:href="#lg1" y1="167.002" y2="167.002"/><linearGradient id="SVGID_9_" gradientUnits="userSpaceOnUse" x1="102.667" x2="335.218" xlink:href="#lg1" y1="167" y2="167"/><linearGradient id="SVGID_10_" gradientUnits="userSpaceOnUse" x1="203.876" x2="394.679" xlink:href="#lg1" y1="100.171" y2="100.171"/><linearGradient id="SVGID_11_" gradientUnits="userSpaceOnUse" x1="154.806" x2="349.465" xlink:href="#lg1" y1="100.171" y2="100.171"/><linearGradient id="SVGID_12_" gradientUnits="userSpaceOnUse" x1="35.227" x2="220.257" xlink:href="#lg1" y1="402.414" y2="402.414"/><linearGradient id="SVGID_13_" gradientUnits="userSpaceOnUse" x1="12.287" x2="202.925" xlink:href="#lg1" y1="402.414" y2="402.414"/><linearGradient id="SVGID_14_" gradientUnits="userSpaceOnUse" x1="300.053" x2="485.083" xlink:href="#lg1" y1="402.414" y2="402.414"/><linearGradient id="SVGID_15_" gradientUnits="userSpaceOnUse" x1="281.613" x2="472.251" xlink:href="#lg1" y1="402.414" y2="402.414"/><linearGradient id="SVGID_16_" gradientUnits="userSpaceOnUse" x1="253.912" x2="580.616" xlink:href="#lg2" y1="455.707" y2="455.707"/><linearGradient id="SVGID_17_" gradientUnits="userSpaceOnUse" x1="98.152" x2="544.479" xlink:href="#lg2" y1="455.707" y2="455.707"/><linearGradient id="SVGID_18_" gradientUnits="userSpaceOnUse" x1="-.667" x2="439.98" xlink:href="#lg2" y1="469.106" y2="469.106"/><linearGradient id="SVGID_19_" gradientUnits="userSpaceOnUse" x1="-83.339" x2="371.187" xlink:href="#lg2" y1="469.106" y2="469.106"/><g><path d="m449.984 459.126h-389.968l97.984-274.922h194z" fill="url(#SVGID_1_)"/><path d="m449.98 459.13h-40.02l-38.589-108.28c-4.423-12.411-16.155-20.611-29.33-20.751-.141-.001-.282-.005-.423-.009-10.46-.336-18.617-9.243-18.617-19.708v-21.352c0-.161 0-.322-.001-.483-.114-20.132-19.756-34.071-39.072-28.395-5.178 1.522-10.657 2.338-16.327 2.338h-25.2c-16.79 0-31.91-7.16-42.49-18.59-8.36 13.44-12.91 29.04-12.91 45.13v21.358c0 10.437-8.114 19.327-18.545 19.7-10.951.392-19.955-8.373-19.955-19.237v-30.31c0-13.48-4.04-26.54-11.44-37.58l20.939-58.761h194l20.94 58.76z" fill="url(#SVGID_2_)"/><path d="m314.153 459.125-10.112-59.987c-3.006-17.832-18.447-30.888-36.53-30.888h-25.021c-18.083 0-33.524 13.056-36.53 30.888l-10.112 59.987z" fill="url(#SVGID_3_)"/><path d="m304.041 399.139c-3.006-17.832-18.447-30.888-36.53-30.888h-25.011c18.083 0 33.524 13.056 36.53 30.888l10.112 59.987h25.011z" fill="url(#SVGID_4_)"/><path d="m305.868 0h-101.736c-31.408 0-59.571 19.343-70.846 48.657l-25.545 80.418c-9.572 24.887-3.59 53.076 15.265 71.93l5.733 5.733c12.653 12.653 19.762 29.815 19.762 47.709v30.303c0 10.631 8.619 19.25 19.25 19.25 10.631 0 19.25-8.618 19.25-19.25v-21.82c0-22.978 9.26-44.986 25.688-61.052 23.519-23 61.104-23 84.623 0 16.428 16.066 25.688 38.074 25.688 61.052v21.82c0 10.631 8.618 19.25 19.25 19.25 10.631 0 19.25-8.618 19.25-19.25v-30.303c0-17.894 7.109-35.056 19.762-47.709l5.733-5.733c18.854-18.854 24.836-47.043 15.265-71.93l-25.545-80.418c-11.275-29.314-39.439-48.657-70.847-48.657z" fill="url(#SVGID_5_)"/><path d="m308.969 99.217c-.492-7.36-6.885-12.942-14.262-12.942h-129.437c-7.376 0-13.77 5.583-14.262 12.942-.413 6.177 3.214 11.561 8.499 13.775v10.707h-14.654c-6.907 0-12.505 5.599-12.505 12.505 0 6.907 5.599 12.505 12.505 12.505 8.093 0 14.654 6.561 14.654 14.654v8.335h-14.654c-6.907 0-12.505 5.599-12.505 12.505 0 6.907 5.599 12.505 12.505 12.505h1.161c9.957 0 17.04 9.725 13.944 19.188-.778 2.38-1.764 4.699-2.95 6.93-3.556 6.686-6.213 13.827-7.892 21.234-.604 2.666-.758 5.409-.658 8.141.027.747.042 1.496.042 2.246v29.841c0 10.438 8.117 19.328 18.548 19.699 10.952.39 19.952-8.372 19.952-19.237v-21.82c0-22.978 9.26-44.986 25.688-61.052 6.505-6.361 14.088-10.953 22.149-13.796 20.7-7.294 44.565-2.99 61.529 12.917 2.638-6.623 4.104-13.839 4.104-21.403v-66.605c5.285-2.214 8.912-7.597 8.499-13.774z" fill="url(#SVGID_6_)"/><path d="m402.26 129.075-25.545-80.418c-11.275-29.314-39.439-48.657-70.847-48.657h-40.02c23.112 0 44.458 10.484 58.62 27.698h-76.972c-6.907 0-12.506 5.599-12.506 12.506 0 6.907 5.599 12.506 12.506 12.506h79.37c6.62 0 12.478 4.286 14.482 10.595l3.937 12.394h-79.922c-6.907 0-12.506 5.599-12.506 12.506 0 6.907 5.599 12.506 12.506 12.506h76.751c6.62 0 12.478 4.286 14.482 10.595l3.937 12.394h-78.345v25.011h78.639c3.328 0 5.964 2.755 5.89 6.083-.127 5.729-.983 11.411-2.54 16.906h-81.989v25.011h54.865c5.225 0 7.863 6.298 4.198 10.022l-.007.007c-7.075 7.075-12.41 15.56-15.741 24.794-2.783 7.716-3.538 15.981-2.821 24.152.211 2.4.32 4.817.32 7.246v21.358c0 10.438 8.117 19.328 18.548 19.699 10.951.389 19.952-8.373 19.952-19.237v-30.302c0-17.895 7.109-35.056 19.762-47.71l5.733-5.733c18.852-18.856 24.834-47.045 15.263-71.932z" fill="url(#SVGID_7_)"/><path d="m267.595 237.483h-25.191c-31.97 0-57.886-25.917-57.886-57.886v-83.077h140.963v83.077c.001 31.969-25.916 57.886-57.886 57.886z" fill="url(#SVGID_8_)"/><path d="m184.52 96.52v42.56h52.822c10.405 0 17.645 10.494 13.787 20.157-.296.741-.607 1.476-.934 2.206l-5.712 12.752c-2.105 4.7 1.333 10.008 6.483 10.008h16.273c10.318 0 17.102 10.746 12.697 20.077-8.257 17.493-25.016 30.178-44.946 32.72 2.43.32 4.9.48 7.41.48h25.2c31.966 0 57.88-25.914 57.88-57.88v-83.08z" fill="url(#SVGID_9_)"/><g><path d="m334.012 100.171c0-7.675-6.222-13.897-13.897-13.897h-130.23c-7.675 0-13.897 6.222-13.897 13.897 0 7.675 6.222 13.897 13.897 13.897h130.231c7.674 0 13.896-6.222 13.896-13.897z" fill="url(#SVGID_10_)"/><path d="m320.115 86.274h-27.794c7.675 0 13.897 6.222 13.897 13.897s-6.222 13.897-13.897 13.897h27.794c7.675 0 13.897-6.222 13.897-13.897s-6.222-13.897-13.897-13.897z" fill="url(#SVGID_11_)"/></g><g><g><path d="m176.759 439.9h-148.842v-41.277c0-18.61 15.086-33.696 33.696-33.696h81.451c18.61 0 33.696 15.086 33.696 33.696v41.277z" fill="url(#SVGID_12_)"/><path d="m143.064 364.927h-26.167c10.958 0 19.842 8.884 19.842 19.842v35.288c0 10.958-8.884 19.842-19.842 19.842h59.862v-41.277c0-18.609-15.086-33.695-33.695-33.695z" fill="url(#SVGID_13_)"/></g><g><path d="m482.083 439.9h-148.842v-41.277c0-18.61 15.086-33.696 33.696-33.696h81.451c18.61 0 33.696 15.086 33.696 33.696v41.277z" fill="url(#SVGID_14_)"/><path d="m448.388 364.927h-26.167c10.958 0 19.842 8.884 19.842 19.842v35.288c0 10.958-8.884 19.842-19.842 19.842h59.862v-41.277c0-18.609-15.086-33.695-33.695-33.695z" fill="url(#SVGID_15_)"/></g></g><g><path d="m510 446.355c0-10.552-5.806-20.301-15.169-25.167-23.971-12.458-53.211-19.775-84.769-19.775-70.543 0-129.504 36.559-143.921 85.379-3.423 11.59 5.3 23.208 17.384 23.208h209.917c9.145 0 16.559-7.414 16.559-16.559v-47.086z" fill="url(#SVGID_16_)"/><path d="m494.831 421.188c-23.971-12.458-53.211-19.775-84.769-19.775-6.816 0-13.523.345-20.093 1.006 2.332.233 4.646.505 6.941.817 41.956 5.697 73.07 41.85 73.07 84.192v6.013c0 9.145-7.414 16.559-16.559 16.559h40.02c9.145 0 16.559-7.414 16.559-16.559v-47.087c0-10.552-5.806-20.3-15.169-25.166z" fill="url(#SVGID_17_)"/></g><g><path d="m10.892 510h319.886c0-45.17-90.464-81.788-202.056-81.788-45.371 0-87.247 6.054-120.972 16.274-4.601 1.394-7.75 5.626-7.75 10.434v44.188c0 6.015 4.877 10.892 10.892 10.892z" fill="url(#SVGID_18_)"/><path d="m128.723 428.212c-6.697 0-13.306.147-19.835.405 102.115 4.1 181.871 38.97 181.871 81.382h40.02c0-45.169-90.464-81.787-202.056-81.787z" fill="url(#SVGID_19_)"/></g></g></svg>