<svg id="Capa_1" enable-background="new 0 0 510 510" height="512" viewBox="0 0 510 510" width="512" xmlns="http://www.w3.org/2000/svg" xmlns:xlink="http://www.w3.org/1999/xlink"><linearGradient id="lg1"><stop offset="0" stop-color="#bbec6c"/><stop offset=".5857" stop-color="#78a91f"/><stop offset="1" stop-color="#02905d"/></linearGradient><linearGradient id="SVGID_1_" gradientUnits="userSpaceOnUse" x1="106.168" x2="378.203" xlink:href="#lg1" y1="454.6" y2="454.6"/><linearGradient id="lg2"><stop offset="0" stop-color="#f3eae6"/><stop offset="1" stop-color="#cdbfba"/></linearGradient><linearGradient id="SVGID_2_" gradientUnits="userSpaceOnUse" x1="0" x2="112.409" xlink:href="#lg2" y1="376.636" y2="376.636"/><linearGradient id="SVGID_3_" gradientUnits="userSpaceOnUse" x1="-92" x2="78.012" xlink:href="#lg2" y1="377.278" y2="377.278"/><linearGradient id="lg3"><stop offset="0" stop-color="#faf7f7"/><stop offset=".4551" stop-color="#f3eae6"/><stop offset="1" stop-color="#efe2dd"/></linearGradient><linearGradient id="SVGID_4_" gradientUnits="userSpaceOnUse" x1="63.398" x2="239.56" xlink:href="#lg3" y1="262.374" y2="262.374"/><linearGradient id="SVGID_5_" gradientUnits="userSpaceOnUse" x1="74.626" x2="253.426" xlink:href="#lg2" y1="262.373" y2="262.373"/><linearGradient id="SVGID_6_" gradientUnits="userSpaceOnUse" x1="269.148" x2="439.108" xlink:href="#lg3" y1="259.819" y2="259.819"/><linearGradient id="SVGID_7_" gradientUnits="userSpaceOnUse" x1="257.617" x2="505.268" xlink:href="#lg2" y1="259.822" y2="259.822"/><linearGradient id="SVGID_8_" gradientUnits="userSpaceOnUse" x1="365.612" x2="499.348" xlink:href="#lg2" y1="446.001" y2="446.001"/><linearGradient id="SVGID_9_" gradientUnits="userSpaceOnUse" x1="379.518" x2="459.941" xlink:href="#lg2" y1="445.2" y2="445.2"/><linearGradient id="SVGID_10_" gradientUnits="userSpaceOnUse" x1="-23.932" x2="657.231" xlink:href="#lg1" y1="478.001" y2="478.001"/><linearGradient id="SVGID_11_" gradientUnits="userSpaceOnUse" x1="108" x2="494.448" xlink:href="#lg1" y1="478.001" y2="478.001"/><linearGradient id="SVGID_12_" gradientUnits="userSpaceOnUse" x1="50.551" x2="459.449" xlink:href="#lg2" y1="60.336" y2="60.336"/><linearGradient id="SVGID_13_" gradientUnits="userSpaceOnUse" x1="370.111" x2="640.805" y1="62.435" y2="62.435"><stop offset="0" stop-color="#cdbfba"/><stop offset="1" stop-color="#766e6e"/></linearGradient><g><path d="m456.19 510h-402.38c-17.828 0-21.703-50.909-4.739-62.07 44.692-29.405 120.248-48.729 205.929-48.729s161.237 19.324 205.929 48.729c16.965 11.161 13.089 62.07-4.739 62.07z" fill="url(#SVGID_1_)"/><path d="m17.673 485.113-16.634-116.344c-2.852-19.947.192-40.191 8.849-58.858l13.847-29.856c4.89-10.543 19.407-15.022 30.97-9.556l29.628 14.006c19.594 9.263 30.557 27.932 27.599 46.997l-23.837 153.61h-70.422z" fill="url(#SVGID_2_)"/><path d="m88.094 485.113 23.837-153.61c2.958-19.065-8.005-37.734-27.599-46.997l-29.627-14.006c-.867-.41-1.752-.757-2.647-1.057l-11.644 215.67z" fill="url(#SVGID_3_)"/><path d="m165.377 64.342-20.79 11.261c-36.661 19.857-60.817 58.998-63.533 102.944l-17.656 285.706h176.162l-26.682-375.247c-4.376-23.006-27.957-35.25-47.501-24.664z" fill="url(#SVGID_4_)"/><path d="m239.56 464.25h-40.02l-19.051-267.917c-2.351-33.062-27.996-59.718-60.942-63.346l-26.027-2.867c11.03-23.15 28.73-42.42 51.07-54.52l15.27-8.27 5.52-2.99c19.54-10.58 43.12 1.66 47.5 24.67l3.88 54.57z" fill="url(#SVGID_5_)"/><path d="m295.869 464.253-25.151-219.259c-4.312-37.592.29-75.743 13.379-110.922l20.936-56.266c7.393-19.87 29.342-28.311 46.827-18.008l44.797 26.396c29.625 17.456 46.201 52.64 41.728 88.569l-36.042 289.489h-106.474z" fill="url(#SVGID_6_)"/><path d="m431.83 126.95c-7.15-16.94-19.29-31.4-35.17-40.76l-44.8-26.39c-11.82-6.96-25.67-5.36-35.7 2.55-4.81 3.78-8.73 9.02-11.13 15.46l-20.93 56.26c-1.39 3.75-2.69 7.53-3.89 11.34 13.57-.43 27.12-1.4 40.62-2.9l41.163-4.562c20.991-2.326 38.931 15.425 36.418 36.395-.017.139-.034.278-.051.417l-31.042 249.345-5.818 1.46c-15.453 3.877-29.216 14.566-36.199 28.113l-3.96 7.682c-.502.974-.847 1.943-1.067 2.893h82.069l36.047-289.493c2.07-16.66-.38-33.16-6.56-47.81z" fill="url(#SVGID_7_)"/><path d="m346.352 461.36 3.96-7.682c6.982-13.547 20.746-24.236 36.199-28.113l29.157-7.315c36.209-9.084 71.308 18.297 71.308 55.628l-131.95 1.627c-8.091.099-12.396-6.923-8.674-14.145z" fill="url(#SVGID_8_)"/><path d="m417.245 417.903c25.065 5.682 44.719 28.04 44.719 55.975h25.011c0-36.789-34.087-63.888-69.73-55.975z" fill="url(#SVGID_9_)"/><g><path d="m491.634 510h-473.268c-20.968 0-25.527-29.406-5.574-35.852 52.566-16.985 141.432-28.147 242.208-28.147s189.642 11.162 242.208 28.146c19.953 6.447 15.395 35.853-5.574 35.853z" fill="url(#SVGID_10_)"/><path d="m497.208 474.147c-52.566-16.984-141.432-28.146-242.208-28.146-6.727 0-13.395.053-20.008.151 49.114.727 94.905 4.105 134.395 9.493 33.668 4.593 30.226 54.355-3.754 54.355h126.002c20.968 0 25.526-29.406 5.573-35.853z" fill="url(#SVGID_11_)"/></g><path d="m54.328 45.063-3.509 25.063c-2.3 16.43 10.44 31.432 28.372 33.407l127.208 14.011c38.01 4.187 76.43 4.173 114.436-.041l92.672-10.275c26.219-2.907 45.942-23.315 45.942-47.539 0-15.303-10.875-28.819-26.818-33.33l-24.251-6.862c-64.019-18.115-131.471-23.693-197.99-16.373l-125.089 13.765c-16.141 1.776-28.902 13.384-30.973 28.174z" fill="url(#SVGID_12_)"/><path d="m432.631 26.359-24.251-6.862c-3.98-1.126-7.973-2.204-11.979-3.233 13.85 7.344 23.029 24.251 23.029 43.2 0 19.544-7.07 37.24-18.364 49.144l12.442-1.379c26.219-2.907 45.942-23.315 45.942-47.539-.001-15.304-10.876-28.82-26.819-33.331z" fill="url(#SVGID_13_)"/></g></svg>