<svg id="Capa_1" enable-background="new 0 0 510 510" height="512" viewBox="0 0 510 510" width="512" xmlns="http://www.w3.org/2000/svg" xmlns:xlink="http://www.w3.org/1999/xlink"><linearGradient id="lg1"><stop offset="0" stop-color="#faf7f7"/><stop offset=".4551" stop-color="#f3eae6"/><stop offset="1" stop-color="#efe2dd"/></linearGradient><linearGradient id="SVGID_1_" gradientUnits="userSpaceOnUse" x1="313.986" x2="482.215" xlink:href="#lg1" y1="208.042" y2="208.042"/><linearGradient id="lg2"><stop offset="0" stop-color="#f3eae6"/><stop offset="1" stop-color="#cdbfba"/></linearGradient><linearGradient id="SVGID_2_" gradientUnits="userSpaceOnUse" x1="332" x2="544.763" xlink:href="#lg2" y1="208.042" y2="208.042"/><linearGradient id="SVGID_3_" gradientUnits="userSpaceOnUse" x1="161.164" x2="412.707" xlink:href="#lg1" y1="177.88" y2="177.88"/><linearGradient id="SVGID_4_" gradientUnits="userSpaceOnUse" x1="172.433" x2="412.953" xlink:href="#lg2" y1="177.88" y2="177.88"/><linearGradient id="lg3"><stop offset="0" stop-color="#cdbfba"/><stop offset="1" stop-color="#766e6e"/></linearGradient><linearGradient id="SVGID_5_" gradientUnits="userSpaceOnUse" x1="21.185" x2="267.623" xlink:href="#lg3" y1="181.875" y2="181.875"/><linearGradient id="SVGID_6_" gradientUnits="userSpaceOnUse" x1="85.347" x2="285.323" xlink:href="#lg1" y1="217.959" y2="217.959"/><linearGradient id="SVGID_7_" gradientUnits="userSpaceOnUse" x1="92.83" x2="285.487" xlink:href="#lg2" y1="217.959" y2="217.959"/><linearGradient id="SVGID_8_" gradientUnits="userSpaceOnUse" x1="-25.936" x2="169.982" xlink:href="#lg3" y1="220.866" y2="220.866"/><linearGradient id="SVGID_9_" gradientUnits="userSpaceOnUse" x1="29.953" x2="170.402" xlink:href="#lg1" y1="253.442" y2="253.442"/><linearGradient id="SVGID_10_" gradientUnits="userSpaceOnUse" x1="35.771" x2="170.529" xlink:href="#lg2" y1="253.442" y2="253.442"/><linearGradient id="SVGID_11_" gradientUnits="userSpaceOnUse" x1="-48.204" x2="89.395" xlink:href="#lg3" y1="255.386" y2="255.386"/><linearGradient id="lg4"><stop offset="0" stop-color="#fef056"/><stop offset=".5213" stop-color="#fbc56d"/><stop offset="1" stop-color="#c86d36"/></linearGradient><linearGradient id="SVGID_12_" gradientUnits="userSpaceOnUse" x1="-52" x2="595.932" xlink:href="#lg4" y1="359.645" y2="359.645"/><linearGradient id="SVGID_13_" gradientUnits="userSpaceOnUse" x1="-248" x2="499.217" xlink:href="#lg4" y1="343.462" y2="343.462"/><linearGradient id="SVGID_14_" gradientUnits="userSpaceOnUse" x1="-248" x2="499.217" xlink:href="#lg4" y1="383.518" y2="383.518"/><linearGradient id="SVGID_15_" gradientUnits="userSpaceOnUse" x1="74.667" x2="287.672" xlink:href="#lg4" y1="296.044" y2="296.044"/><linearGradient id="lg5"><stop offset="0" stop-color="#fbc56d"/><stop offset=".593" stop-color="#dc8758"/><stop offset="1" stop-color="#9e5528"/></linearGradient><linearGradient id="SVGID_16_" gradientUnits="userSpaceOnUse" x1="0" x2="592.119" xlink:href="#lg5" y1="411.797" y2="411.797"/><linearGradient id="SVGID_17_" gradientUnits="userSpaceOnUse" x1="182.621" x2="478.654" xlink:href="#lg5" y1="411.797" y2="411.797"/><linearGradient id="lg6"><stop offset="0" stop-color="#01d0fb"/><stop offset=".6075" stop-color="#26a6fe"/><stop offset="1" stop-color="#0182fc"/></linearGradient><linearGradient id="SVGID_18_" gradientUnits="userSpaceOnUse" x1="-2.951" x2="794.46" xlink:href="#lg6" y1="443.81" y2="443.81"/><linearGradient id="SVGID_19_" gradientUnits="userSpaceOnUse" x1="148" x2="527.033" xlink:href="#lg6" y1="443.81" y2="443.81"/><g><g><path d="m491.713 91.074c-.123 0-.245 0-.368 0-112.46 0-228.428 104.736-228.428 233.935h200.447c0-78.631 6.635-150.398 43.4-204.957 8.274-12.28-.243-28.947-15.051-28.978z" fill="url(#SVGID_1_)"/><path d="m491.713 91.074c-.123 0-.245 0-.368 0-6.243 0-12.497.341-18.741.973 10.984 3.721 16.246 17.472 9.148 28.005-36.764 54.56-43.4 126.326-43.4 204.957h25.011c0-78.631 6.635-150.398 43.4-204.957 8.275-12.28-.242-28.947-15.05-28.978z" fill="url(#SVGID_2_)"/><g><path d="m130.984 30.75c-.154 0-.309 0-.463 0-18.626.038-29.34 21.003-18.931 36.45 46.245 68.629 54.591 158.901 54.591 257.809h252.135c0-162.515-145.872-294.259-287.332-294.259z" fill="url(#SVGID_3_)"/><path d="m130.984 30.75c-.154 0-.309 0-.463 0-3.423.007-6.576.726-9.383 1.982 131.283 16.922 257.157 141.312 257.157 292.276h40.02c.001-162.514-145.871-294.258-287.331-294.258z" fill="url(#SVGID_4_)"/><path d="m113.167 38.742c-6.401 7.526-7.939 19.019-1.578 28.459 46.245 68.629 54.591 158.901 54.591 257.809h73.364c.001-117.773-53.145-222.068-126.377-286.268z" fill="url(#SVGID_5_)"/></g><g><path d="m61.354 110.909c-.123 0-.245 0-.368 0-14.808.028-23.325 15.282-15.05 26.52 36.764 49.934 43.4 115.615 43.4 187.58h200.447c-.001-118.244-115.969-214.1-228.429-214.1z" fill="url(#SVGID_6_)"/><path d="m61.354 110.909c-.123 0-.245 0-.368 0-3.475.006-6.597.859-9.243 2.294 102.015 15.18 198.019 104.22 198.019 211.806h40.02c0-118.244-115.968-214.1-228.428-214.1z" fill="url(#SVGID_7_)"/><path d="m47.19 116.723c-5.089 5.476-6.311 13.838-1.254 20.706 36.764 49.934 43.399 115.615 43.399 187.58h58.324c.001-85.69-42.25-161.574-100.469-208.286z" fill="url(#SVGID_8_)"/></g><g><path d="m13.102 181.875c-.086 0-.172 0-.259 0-10.4.018-16.382 10.216-10.57 17.73 25.821 33.383 30.481 77.293 30.481 125.404h140.779c0-79.05-81.447-143.134-160.431-143.134z" fill="url(#SVGID_9_)"/><path d="m13.102 181.875c-.086 0-.172 0-.259 0-2.149.004-4.105.448-5.812 1.207 72.541 9.135 141.491 69.193 141.491 141.926h25.011c0-79.05-81.447-143.133-160.431-143.133z" fill="url(#SVGID_10_)"/><path d="m3.154 185.762c-3.574 3.661-4.433 9.251-.881 13.843 25.821 33.383 30.481 77.293 30.481 125.404h40.963c0-57.287-29.674-108.018-70.563-139.247z" fill="url(#SVGID_11_)"/></g></g><path d="m249.463 305.39-18.692-18.692c-9.196-9.196-24.106-9.196-33.301 0-9.196 9.196-24.106 9.196-33.301 0l-15.26-15.26c-9.196-9.196-24.106-9.196-33.301 0l-29.304 29.302c-7.394 7.394-17.422 11.547-27.878 11.547h-9.064c-16.769 0-30.362 13.593-30.362 30.362v112.101h472v-118.915c0-13.005-10.543-23.548-23.548-23.548h-201.338c-6.245 0-12.235-2.481-16.651-6.897z" fill="url(#SVGID_12_)"/><g><path d="m157.783 330.723h-73.29c-7.036 0-12.739 5.704-12.739 12.739s5.704 12.739 12.739 12.739h73.29c7.036 0 12.739-5.704 12.739-12.739 0-7.036-5.704-12.739-12.739-12.739z" fill="url(#SVGID_13_)"/><path d="m467.452 312.287h-40.02c11.249 0 20.649 7.89 22.985 18.436h-220.048c-7.036 0-12.739 5.704-12.739 12.739s5.704 12.739 12.739 12.739h196.365c13.39 0 24.245 10.855 24.245 24.245v74.304h40.021v-118.915c0-13.005-10.543-23.548-23.548-23.548z" fill="url(#SVGID_14_)"/></g><path d="m249.463 305.39-18.692-18.692c-9.196-9.196-24.106-9.196-33.302 0-1.151 1.151-2.391 2.157-3.698 3.02l15.672 15.672c4.416 4.416 10.406 6.897 16.651 6.897h40.02c-6.245 0-12.235-2.481-16.651-6.897z" fill="url(#SVGID_15_)"/><g><path d="m510 454.75h-510v-66.064c0-10.959 8.884-19.842 19.842-19.842h470.315c10.959 0 19.842 8.884 19.842 19.842v66.064z" fill="url(#SVGID_16_)"/><path d="m490.158 368.844h-40.02c10.958 0 19.842 8.884 19.842 19.842v25.367c0 10.958-8.884 40.696-19.842 40.696h59.862v-66.064c0-10.957-8.884-19.841-19.842-19.841z" fill="url(#SVGID_17_)"/></g><g><path d="m510 452.141v14.867c0 6.761-5.481 12.242-12.242 12.242h-485.516c-6.761 0-12.242-5.481-12.242-12.242v-14.871c0-10.783 8.769-19.586 19.551-19.452 10.803.134 21.647-3.919 29.889-12.154 8.1-8.11 18.73-12.16 29.36-12.16s21.26 4.05 29.37 12.16c8.11 8.1 18.74 12.16 29.37 12.16 10.62 0 21.25-4.06 29.36-12.16 8.11-8.11 18.74-12.16 29.37-12.16s21.25 4.05 29.36 12.16c8.11 8.1 18.74 12.16 29.37 12.16s21.26-4.06 29.37-12.16c8.11-8.11 18.73-12.16 29.36-12.16s21.26 4.05 29.37 12.16c8.11 8.1 18.74 12.16 29.36 12.16 10.63 0 21.26-4.06 29.37-12.16 8.11-8.11 18.74-12.16 29.37-12.16s21.26 4.05 29.36 12.16c8.11 8.1 18.74 12.16 29.37 12.16.069 0 .138 0 .208-.001 10.904-.055 19.862 8.546 19.862 19.451z" fill="url(#SVGID_18_)"/><path d="m490.137 432.689c-.069 0-.138 0-.208 0-10.63 0-21.26-4.06-29.37-12.16-8.1-8.11-18.73-12.16-29.36-12.16-6.902 0-13.799 1.719-20.011 5.136 3.354 1.846 6.511 4.18 9.351 7.024 8.11 8.1 18.74 12.16 29.37 12.16h.208c10.905-.054 19.863 8.547 19.863 19.451v14.867c0 6.761-5.481 12.242-12.242 12.242h40.02c6.761 0 12.242-5.481 12.242-12.242v-14.867c0-10.904-8.958-19.505-19.863-19.451z" fill="url(#SVGID_19_)"/></g></g></svg>