<svg id="Capa_1" enable-background="new 0 0 510 510" height="512" viewBox="0 0 510 510" width="512" xmlns="http://www.w3.org/2000/svg" xmlns:xlink="http://www.w3.org/1999/xlink"><linearGradient id="lg1"><stop offset="0" stop-color="#f3eae6"/><stop offset="1" stop-color="#cdbfba"/></linearGradient><linearGradient id="SVGID_1_" gradientUnits="userSpaceOnUse" x1="30.928" x2="60.083" xlink:href="#lg1" y1="164.601" y2="164.601"/><linearGradient id="SVGID_2_" gradientUnits="userSpaceOnUse" x1="461.072" x2="490.227" xlink:href="#lg1" y1="164.601" y2="164.601"/><linearGradient id="SVGID_3_" gradientUnits="userSpaceOnUse" x1="246" x2="275.155" xlink:href="#lg1" y1="45.251" y2="45.251"/><linearGradient id="SVGID_4_" gradientUnits="userSpaceOnUse" x1="232" x2="260.862" xlink:href="#lg1" y1="53.416" y2="53.416"/><linearGradient id="lg2"><stop offset="0" stop-color="#faf7f7"/><stop offset=".4551" stop-color="#f3eae6"/><stop offset="1" stop-color="#efe2dd"/></linearGradient><linearGradient id="SVGID_5_" gradientUnits="userSpaceOnUse" x1="64.859" x2="160.445" xlink:href="#lg2" y1="215.915" y2="215.915"/><linearGradient id="SVGID_6_" gradientUnits="userSpaceOnUse" x1="62" x2="138.278" xlink:href="#lg1" y1="215.915" y2="215.915"/><linearGradient id="SVGID_7_" gradientUnits="userSpaceOnUse" x1="65.208" x2="132.973" xlink:href="#lg2" y1="168.119" y2="168.119"/><linearGradient id="SVGID_8_" gradientUnits="userSpaceOnUse" x1="78" x2="144.01" xlink:href="#lg1" y1="171.561" y2="171.561"/><linearGradient id="SVGID_9_" gradientUnits="userSpaceOnUse" x1="51.668" x2="137.873" xlink:href="#lg1" y1="190.864" y2="190.864"/><linearGradient id="lg3"><stop offset="0" stop-color="#cdbfba"/><stop offset="1" stop-color="#766e6e"/></linearGradient><linearGradient id="SVGID_10_" gradientUnits="userSpaceOnUse" x1="100.5" x2="167.541" xlink:href="#lg3" y1="190.864" y2="190.864"/><linearGradient id="SVGID_11_" gradientUnits="userSpaceOnUse" x1="363.949" x2="459.535" xlink:href="#lg2" y1="215.915" y2="215.915"/><linearGradient id="SVGID_12_" gradientUnits="userSpaceOnUse" x1="364.298" x2="432.063" xlink:href="#lg2" y1="168.119" y2="168.119"/><linearGradient id="SVGID_13_" gradientUnits="userSpaceOnUse" x1="350.758" x2="436.963" xlink:href="#lg1" y1="190.864" y2="190.864"/><linearGradient id="SVGID_14_" gradientUnits="userSpaceOnUse" x1="136" x2="297.529" xlink:href="#lg2" y1="182.551" y2="182.551"/><linearGradient id="SVGID_15_" gradientUnits="userSpaceOnUse" x1="137" x2="307.179" xlink:href="#lg1" y1="182.551" y2="182.551"/><linearGradient id="SVGID_16_" gradientUnits="userSpaceOnUse" x1="36" x2="143.342" xlink:href="#lg2" y1="353.236" y2="353.236"/><linearGradient id="SVGID_17_" gradientUnits="userSpaceOnUse" x1="28" x2="144.76" xlink:href="#lg1" y1="353.236" y2="353.236"/><linearGradient id="SVGID_18_" gradientUnits="userSpaceOnUse" x1="53.209" x2="152.899" xlink:href="#lg3" y1="417.132" y2="417.132"/><linearGradient id="SVGID_19_" gradientUnits="userSpaceOnUse" x1="3.209" x2="113.282" xlink:href="#lg3" y1="417.132" y2="417.132"/><linearGradient id="SVGID_20_" gradientUnits="userSpaceOnUse" x1="53.209" x2="152.899" xlink:href="#lg3" y1="308.02" y2="308.02"/><linearGradient id="SVGID_21_" gradientUnits="userSpaceOnUse" x1="3.209" x2="113.282" xlink:href="#lg3" y1="308.02" y2="308.02"/><linearGradient id="SVGID_22_" gradientUnits="userSpaceOnUse" x1="30" x2="110.225" xlink:href="#lg1" y1="246.219" y2="246.219"/><linearGradient id="SVGID_23_" gradientUnits="userSpaceOnUse" x1="30" x2="110.225" xlink:href="#lg1" y1="353.236" y2="353.236"/><linearGradient id="SVGID_24_" gradientUnits="userSpaceOnUse" x1="364.5" x2="472.167" xlink:href="#lg2" y1="353.236" y2="353.236"/><linearGradient id="SVGID_25_" gradientUnits="userSpaceOnUse" x1="396" x2="518.465" xlink:href="#lg1" y1="353.236" y2="353.236"/><linearGradient id="SVGID_26_" gradientUnits="userSpaceOnUse" x1="382.627" x2="482.317" xlink:href="#lg3" y1="417.132" y2="417.132"/><linearGradient id="SVGID_27_" gradientUnits="userSpaceOnUse" x1="332.627" x2="442.7" xlink:href="#lg3" y1="417.132" y2="417.132"/><linearGradient id="SVGID_28_" gradientUnits="userSpaceOnUse" x1="382.627" x2="482.317" xlink:href="#lg3" y1="308.02" y2="308.02"/><linearGradient id="SVGID_29_" gradientUnits="userSpaceOnUse" x1="332.627" x2="442.7" xlink:href="#lg3" y1="308.02" y2="308.02"/><linearGradient id="SVGID_30_" gradientUnits="userSpaceOnUse" x1="340.667" x2="467.349" xlink:href="#lg1" y1="246.219" y2="246.219"/><linearGradient id="SVGID_31_" gradientUnits="userSpaceOnUse" x1="340.667" x2="467.349" xlink:href="#lg1" y1="353.236" y2="353.236"/><linearGradient id="SVGID_32_" gradientUnits="userSpaceOnUse" x1="-13.014" x2="721.73" xlink:href="#lg2" y1="337.028" y2="337.028"/><linearGradient id="SVGID_33_" gradientUnits="userSpaceOnUse" x1="137" x2="380.167" xlink:href="#lg1" y1="337.026" y2="337.026"/><linearGradient id="SVGID_34_" gradientUnits="userSpaceOnUse" x1="185" x2="377.003" xlink:href="#lg3" y1="363.397" y2="363.397"/><linearGradient id="SVGID_35_" gradientUnits="userSpaceOnUse" x1="94" x2="353.048" xlink:href="#lg3" y1="363.397" y2="363.397"/><linearGradient id="SVGID_36_" gradientUnits="userSpaceOnUse" x1="25.049" x2="529.294" xlink:href="#lg1" y1="477.473" y2="477.473"/><linearGradient id="SVGID_37_" gradientUnits="userSpaceOnUse" x1="410.53" x2="601.168" xlink:href="#lg3" y1="477.474" y2="477.474"/><linearGradient id="SVGID_38_" gradientUnits="userSpaceOnUse" x1="191.333" x2="377.678" xlink:href="#lg2" y1="209.802" y2="209.802"/><linearGradient id="SVGID_39_" gradientUnits="userSpaceOnUse" x1="230.751" x2="427.957" xlink:href="#lg1" y1="209.802" y2="209.802"/><g><g><path d="m49.928 93.088v153.026h-20v-153.026c0-5.52 4.48-10 10-10s10 4.48 10 10z" fill="url(#SVGID_1_)"/><path d="m480.072 93.088v153.026h-20v-153.026c0-5.52 4.48-10 10-10s10 4.48 10 10z" fill="url(#SVGID_2_)"/></g><path d="m265 10.001v80.5h-20v-80.5c0-5.52 4.48-10 10-10 5.52 0 10 4.48 10 10z" fill="url(#SVGID_3_)"/><path d="m244.964 36.298c-8.42 13.092-22.862 29.579-45.964 39.703h112c-23.102-10.124-37.544-26.611-45.964-39.703-4.687-7.289-15.385-7.289-20.072 0z" fill="url(#SVGID_4_)"/><g><g><path d="m63.935 190.084v51.663h18.88c.254-12.69 6.845-24.431 17.605-31.227l4.344-2.744c.422-.267.96-.267 1.382 0l4.344 2.744c10.76 6.796 17.351 18.537 17.605 31.227h18.88v-51.663z" fill="url(#SVGID_5_)"/><path d="m128.095 241.747h18.88v-51.663h-38.801c.064 1.03.136 2.057.224 3.081-4.374 3.64-7.161 9.122-7.161 15.257v1.582l3.526-2.227c.422-.267.96-.267 1.382 0l4.344 2.744c10.761 6.794 17.352 18.536 17.606 31.226z" fill="url(#SVGID_6_)"/><g><path d="m122.597 154.744c-2.473-1.049-4.796-2.434-6.792-4.231-2.94-2.648-5.14-5.47-6.737-7.953-1.688-2.624-5.539-2.624-7.226 0-1.598 2.484-3.799 5.308-6.741 7.957-1.971 1.775-4.257 3.16-6.701 4.191-15.922 6.712-27.062 22.535-26.884 40.94l87.882-.434c-.001-18.187-11.05-33.79-26.801-40.47z" fill="url(#SVGID_7_)"/></g><path d="m106.09 195.427 43.307-.214c0-18.186-11.049-33.79-26.8-40.47-2.473-1.049-4.796-2.434-6.792-4.231-1.027-.925-1.959-1.872-2.812-2.818-3.286 11.046-5.059 22.743-5.059 34.856 0 3.577.163 7.115.464 10.614-.829.691-1.601 1.448-2.308 2.263z" fill="url(#SVGID_8_)"/></g><path d="m146.218 200.864h-81.526c-5.523 0-10-4.477-10-10s4.477-10 10-10h81.525c5.522 0 10 4.477 10 10s-4.477 10-9.999 10z" fill="url(#SVGID_9_)"/><path d="m102.73 200.864h43.488c5.522 0 10-4.477 10-10s-4.478-10-10-10h-38.262c-.008.562-.021 1.123-.021 1.687 0 3.577.163 7.115.464 10.614-2.466 2.051-4.427 4.689-5.669 7.699z" fill="url(#SVGID_10_)"/></g><g><g><path d="m363.025 190.084v51.663h18.88c.254-12.69 6.845-24.431 17.605-31.227l4.344-2.744c.422-.267.96-.267 1.382 0l4.344 2.744c10.76 6.796 17.351 18.537 17.605 31.227h18.88v-51.663z" fill="url(#SVGID_11_)"/><g><path d="m421.687 154.744c-2.473-1.049-4.796-2.434-6.792-4.231-2.94-2.648-5.14-5.47-6.737-7.953-1.688-2.624-5.539-2.624-7.226 0-1.598 2.484-3.799 5.308-6.741 7.957-1.971 1.775-4.257 3.16-6.701 4.191-15.922 6.712-27.062 22.535-26.884 40.94l87.882-.434c-.001-18.187-11.05-33.79-26.801-40.47z" fill="url(#SVGID_12_)"/></g></g><path d="m445.308 200.864h-81.525c-5.523 0-10-4.477-10-10s4.477-10 10-10h81.525c5.522 0 10 4.477 10 10s-4.478 10-10 10z" fill="url(#SVGID_13_)"/></g><circle cx="255" cy="182.551" fill="url(#SVGID_14_)" r="122.055"/><path d="m255 60.496c-6.816 0-13.498.568-20.01 1.642 57.888 9.549 102.045 59.82 102.045 120.413s-44.157 110.864-102.045 120.413c6.512 1.074 13.194 1.642 20.01 1.642 67.409 0 122.055-54.646 122.055-122.055s-54.646-122.055-122.055-122.055z" fill="url(#SVGID_15_)"/><g><path d="m30.45 460.253h119.681v-214.034h-119.681z" fill="url(#SVGID_16_)"/><path d="m150.13 246.221v214.03h-35.5v-29.575c0-23.475-19.03-42.505-42.505-42.505h-41.675v-25.01h84.18v-39.995c0-23.475-19.03-42.505-42.505-42.505h-41.675v-34.44z" fill="url(#SVGID_17_)"/><path d="m89.3 374.298-6.228 3.934c-15.734 9.937-25.275 27.247-25.275 45.857v36.164h32.494 32.494v-36.164c0-18.61-9.541-35.92-25.275-45.857l-6.228-3.934c-.606-.382-1.377-.382-1.982 0z" fill="url(#SVGID_18_)"/><path d="m97.51 378.232-6.228-3.934c-.605-.382-1.376-.382-1.981 0l-6.228 3.934c-1.853 1.17-3.611 2.45-5.287 3.815 12.554 10.225 19.988 25.624 19.988 42.042v36.164h25.011v-36.164c0-18.61-9.541-35.92-25.275-45.857z" fill="url(#SVGID_19_)"/><path d="m89.3 265.185-6.228 3.934c-15.734 9.937-25.275 27.247-25.275 45.857v36.164h32.494 32.494v-36.164c0-18.61-9.541-35.92-25.275-45.857l-6.228-3.934c-.606-.382-1.377-.382-1.982 0z" fill="url(#SVGID_20_)"/><path d="m97.51 269.119-6.228-3.934c-.605-.382-1.376-.382-1.981 0l-6.228 3.934c-1.853 1.17-3.611 2.45-5.287 3.815 12.554 10.225 19.988 25.624 19.988 42.042v36.164h25.011v-36.164c0-18.61-9.541-35.92-25.275-45.857z" fill="url(#SVGID_21_)"/><path d="m154.889 256.219h-129.197c-5.523 0-10-4.477-10-10s4.477-10 10-10h129.197c5.522 0 10 4.477 10 10s-4.477 10-10 10z" fill="url(#SVGID_22_)"/><path d="m154.889 363.236h-129.197c-5.523 0-10-4.477-10-10s4.477-10 10-10h129.197c5.522 0 10 4.477 10 10s-4.477 10-10 10z" fill="url(#SVGID_23_)"/></g><g><path d="m359.869 460.253h119.681v-214.034h-119.681z" fill="url(#SVGID_24_)"/><path d="m479.55 246.221v214.03h-25.01v-41.552c0-16.86-13.668-30.528-30.528-30.528h-64.142v-25.01h94.67v-51.972c0-16.86-13.668-30.528-30.528-30.528h-64.142v-34.44z" fill="url(#SVGID_25_)"/><path d="m418.719 374.298-6.228 3.934c-15.734 9.937-25.275 27.247-25.275 45.857v36.164h32.494 32.494v-36.164c0-18.61-9.541-35.92-25.275-45.857l-6.228-3.934c-.606-.382-1.377-.382-1.982 0z" fill="url(#SVGID_26_)"/><path d="m426.928 378.232-6.228-3.934c-.605-.382-1.376-.382-1.981 0l-6.228 3.934c-1.853 1.17-3.611 2.45-5.287 3.815 12.554 10.225 19.988 25.624 19.988 42.042v36.164h25.011v-36.164c0-18.61-9.541-35.92-25.275-45.857z" fill="url(#SVGID_27_)"/><path d="m418.719 265.185-6.228 3.934c-15.734 9.937-25.275 27.247-25.275 45.857v36.164h32.494 32.494v-36.164c0-18.61-9.541-35.92-25.275-45.857l-6.228-3.934c-.606-.382-1.377-.382-1.982 0z" fill="url(#SVGID_28_)"/><path d="m426.928 269.119-6.228-3.934c-.605-.382-1.376-.382-1.981 0l-6.228 3.934c-1.853 1.17-3.611 2.45-5.287 3.815 12.554 10.225 19.988 25.624 19.988 42.042v36.164h25.011v-36.164c0-18.61-9.541-35.92-25.275-45.857z" fill="url(#SVGID_29_)"/><path d="m484.307 256.219h-129.196c-5.523 0-10-4.477-10-10s4.477-10 10-10h129.197c5.522 0 10 4.477 10 10s-4.478 10-10.001 10z" fill="url(#SVGID_30_)"/><path d="m484.307 363.236h-129.196c-5.523 0-10-4.477-10-10s4.477-10 10-10h129.197c5.522 0 10 4.477 10 10s-4.478 10-10.001 10z" fill="url(#SVGID_31_)"/></g><path d="m139.642 209.802h230.717v254.451h-230.717z" fill="url(#SVGID_32_)"/><path d="m370.36 209.801v254.45h-40.02v-137.572c0-39.012-31.626-70.638-70.638-70.638h-113.612c-2.26 0-4.43-.38-6.45-1.08v-45.16z" fill="url(#SVGID_33_)"/><path d="m252.683 263.211-14.567 9.2c-36.801 23.243-59.116 63.73-59.116 107.257v84.586h76 76v-84.586c0-43.526-22.315-84.013-59.116-107.256l-14.567-9.2c-1.415-.894-3.219-.894-4.634-.001z" fill="url(#SVGID_34_)"/><path d="m271.884 272.412-14.567-9.2c-1.415-.894-3.218-.894-4.633 0l-10.189 6.435 4.378 2.765c36.801 23.243 59.116 63.73 59.116 107.256v84.586h25.011v-84.586c0-43.527-22.315-84.014-59.116-107.256z" fill="url(#SVGID_35_)"/><g><path d="m490.158 509.999h-470.316c-10.958 0-19.842-8.883-19.842-19.842v-25.367c0-10.959 8.884-19.842 19.842-19.842h470.315c10.959 0 19.842 8.884 19.842 19.842v25.367c.001 10.959-8.883 19.842-19.841 19.842z" fill="url(#SVGID_36_)"/><path d="m490.158 444.948h-40.02c10.958 0 19.842 8.884 19.842 19.842v25.367c0 10.958-8.884 19.842-19.842 19.842h40.02c10.958 0 19.842-8.884 19.842-19.842v-25.367c0-10.959-8.884-19.842-19.842-19.842z" fill="url(#SVGID_37_)"/></g><g><path d="m363.909 231.026h-217.818c-10.959 0-19.842-8.884-19.842-19.842v-2.762c0-10.959 8.884-19.842 19.842-19.842h217.818c10.959 0 19.842 8.884 19.842 19.842v2.762c0 10.958-8.884 19.842-19.842 19.842z" fill="url(#SVGID_38_)"/><path d="m363.909 188.579h-40.02c10.958 0 19.842 8.884 19.842 19.842v2.762c0 10.958-8.884 19.842-19.842 19.842h40.02c10.958 0 19.842-8.884 19.842-19.842v-2.762c0-10.958-8.884-19.842-19.842-19.842z" fill="url(#SVGID_39_)"/></g></g></svg>