<svg id="Capa_1" enable-background="new 0 0 510 510" height="512" viewBox="0 0 510 510" width="512" xmlns="http://www.w3.org/2000/svg" xmlns:xlink="http://www.w3.org/1999/xlink"><linearGradient id="lg1"><stop offset="0" stop-color="#537983"/><stop offset=".593" stop-color="#554e56"/><stop offset="1" stop-color="#433f43"/></linearGradient><linearGradient id="SVGID_1_" gradientUnits="userSpaceOnUse" x1="214.5" x2="276.655" xlink:href="#lg1" y1="266.061" y2="266.061"/><linearGradient id="lg2"><stop offset="0" stop-color="#fe646f"/><stop offset=".593" stop-color="#fb2b3a"/><stop offset="1" stop-color="#c41926"/></linearGradient><linearGradient id="SVGID_2_" gradientUnits="userSpaceOnUse" x1="214.5" x2="276.655" xlink:href="#lg2" y1="45.25" y2="45.25"/><linearGradient id="lg3"><stop offset="0" stop-color="#faf7f7"/><stop offset=".4551" stop-color="#f3eae6"/><stop offset="1" stop-color="#efe2dd"/></linearGradient><linearGradient id="SVGID_3_" gradientUnits="userSpaceOnUse" x1="112" x2="352.133" xlink:href="#lg3" y1="271.734" y2="271.734"/><linearGradient id="lg4"><stop offset="0" stop-color="#f3eae6"/><stop offset="1" stop-color="#cdbfba"/></linearGradient><linearGradient id="SVGID_4_" gradientUnits="userSpaceOnUse" x1="212" x2="275.837" xlink:href="#lg4" y1="342.831" y2="342.831"/><linearGradient id="SVGID_5_" gradientUnits="userSpaceOnUse" x1="85" x2="437.24" xlink:href="#lg2" y1="365.81" y2="365.81"/><linearGradient id="SVGID_6_" gradientUnits="userSpaceOnUse" x1="-3.671" x2="164.191" xlink:href="#lg2" y1="465.507" y2="465.507"/><linearGradient id="SVGID_7_" gradientUnits="userSpaceOnUse" x1="-182.235" x2="259.376" xlink:href="#lg2" y1="365.497" y2="365.497"/><linearGradient id="SVGID_8_" gradientUnits="userSpaceOnUse" x1="219.484" x2="323.435" y1="268.981" y2="268.981"><stop offset="0" stop-color="#cdbfba"/><stop offset="1" stop-color="#766e6e"/></linearGradient><linearGradient id="SVGID_9_" gradientUnits="userSpaceOnUse" x1="238.5" x2="382.695" y1="268.981" y2="268.981"><stop offset="0" stop-color="#9e9797"/><stop offset="1" stop-color="#5b5555"/></linearGradient><linearGradient id="SVGID_10_" gradientUnits="userSpaceOnUse" x1="227.257" x2="284.741" xlink:href="#lg2" y1="151.954" y2="151.954"/><linearGradient id="SVGID_11_" gradientUnits="userSpaceOnUse" x1="167" x2="274.433" xlink:href="#lg2" y1="136.216" y2="136.216"/><linearGradient id="SVGID_12_" gradientUnits="userSpaceOnUse" x1="239.086" x2="272.059" xlink:href="#lg2" y1="51.968" y2="51.968"/><linearGradient id="SVGID_13_" gradientUnits="userSpaceOnUse" x1="215" x2="257.012" xlink:href="#lg3" y1="176.724" y2="176.724"/><linearGradient id="SVGID_14_" gradientUnits="userSpaceOnUse" x1="226.012" x2="256.458" xlink:href="#lg3" y1="116.699" y2="116.699"/><linearGradient id="SVGID_15_" gradientUnits="userSpaceOnUse" x1="96.538" x2="216.377" xlink:href="#lg3" y1="488.42" y2="488.42"/><linearGradient id="SVGID_16_" gradientUnits="userSpaceOnUse" x1="81.41" x2="206.979" xlink:href="#lg4" y1="488.42" y2="488.42"/><linearGradient id="SVGID_17_" gradientUnits="userSpaceOnUse" x1="359.538" x2="479.377" xlink:href="#lg3" y1="488.42" y2="488.42"/><linearGradient id="SVGID_18_" gradientUnits="userSpaceOnUse" x1="344.41" x2="469.979" xlink:href="#lg4" y1="488.42" y2="488.42"/><linearGradient id="SVGID_19_" gradientUnits="userSpaceOnUse" x1="227.5" x2="288.821" xlink:href="#lg1" y1="492.89" y2="492.89"/><g><path d="m265 57.87v425.191h-20v-425.191c0-4.863 4.48-8.809 10-8.809s10 3.947 10 8.809z" fill="url(#SVGID_1_)"/><path d="m265 10v80.5h-20v-80.5c0-5.52 4.48-10 10-10s10 4.48 10 10z" fill="url(#SVGID_2_)"/><g><path d="m441.654 502.158c-27.737-25.069-52.385-51.09-73.259-84.95-19.707-31.966-36.681-68.506-50.452-108.604-24.871-72.416-40.154-157.314-46.725-259.541-.533-8.312-7.657-14.824-16.218-14.824s-15.685 6.512-16.218 14.823c-6.57 102.229-21.854 187.126-46.725 259.542-13.771 40.098-30.746 76.639-50.452 108.604-20.874 33.86-45.522 59.881-73.259 84.95-8.272 7.477-2.789 6.39 8.546 6.39h89.798c7.617 0 12.37.681 12.37.681-.525-3.495-.826-7.072-.893-10.633-.405-21.448 8.195-38.676 23.593-53.999 14.503-14.432 33.404-22.529 53.239-22.811 19.835.283 38.736 8.38 53.239 22.811 15.398 15.322 23.998 32.551 23.593 53.999-.067 3.562-.367 7.139-.893 10.633 0 0 4.753-.681 12.37-.681h89.798c11.336 0 16.82 1.087 8.548-6.39zm-76.269-46.051c10.488 13.525 21.698 25.859 33.579 38.401l-2.076 2.003-36.689-35.401zm-8.837-11.942-6.956 6.712-18.049-17.415c-1.707-1.917-3.493-3.802-5.356-5.655-2.484-2.472-5.07-4.799-7.745-6.986l-5.539-5.344 16.808-16.217c5.483 10.466 11.215 20.576 17.198 30.281 3.132 5.079 6.346 9.937 9.639 14.624zm-147.744-108.664 35.589 34.339-36.689 35.401-20.458-19.739c7.769-15.918 14.967-32.613 21.558-50.001zm50.679-162.762-4.483 4.326-4.483-4.326c1.606-10.123 3.109-20.417 4.483-30.931 1.374 10.514 2.877 20.808 4.483 30.931zm-4.483 24.795 10.667 10.293c2.766 14.211 5.788 28.026 9.067 41.467l-19.734 19.041-19.734-19.042c3.28-13.441 6.301-27.257 9.067-41.467zm23.909 68.201c3.254 12.235 6.745 24.137 10.454 35.756l-23.756-22.922zm-34.516 12.834-23.756 22.922c3.709-11.62 7.2-23.522 10.454-35.756zm-26.082 45.636 36.689-35.401 36.689 35.401-36.689 35.401zm82.885 11.296c6.591 17.388 13.789 34.083 21.558 50.001l-20.458 19.739-36.689-35.401zm-120.907 63.757 16.808 16.218-5.539 5.344c-2.675 2.186-5.261 4.514-7.745 6.986-1.863 1.854-3.649 3.739-5.356 5.655l-18.049 17.415-6.956-6.712c3.293-4.687 6.507-9.545 9.64-14.626 5.982-9.704 11.714-19.814 17.197-30.28zm-30.488 61.853-36.689 35.401-2.076-2.003c11.881-12.543 23.091-24.876 33.579-38.401zm-17.951 37.788 23.724-22.891c-1.717 7.286-2.545 14.909-2.405 22.891zm123.15-101.237-.158.002c-6.961.085-13.826.887-20.517 2.359l20.675-19.948 20.674 19.948c-6.69-1.472-13.555-2.274-20.517-2.359zm99.426 78.346 23.724 22.891h-21.319c.14-7.982-.688-15.605-2.405-22.891z" fill="url(#SVGID_3_)"/><path d="m441.65 502.158c-27.73-25.068-52.38-51.091-73.25-84.948-19.71-31.966-36.69-68.507-50.46-108.607-10.44-30.384-19.18-62.969-26.3-98.1-1.61-7.912-3.13-15.959-4.57-24.132-.54-3.088-1.08-6.185-1.6-9.311h-60.95c-.52 3.126-1.05 6.223-1.59 9.311-1.44 8.173-2.96 16.22-4.57 24.132h25.44c.18-.888.36-1.785.53-2.673l10.67-10.295 10.67 10.295c.17.888.35 1.785.53 2.673 2.61 13.267 5.46 26.197 8.53 38.788l-11.46 11.067c1.45 5.452 2.95 10.826 4.49 16.133l11.15-10.759c3.25 12.235 6.74 24.141 10.45 35.759l-19.89-19.201c2.68 8.954 5.5 17.715 8.45 26.312.4 1.158.8 2.316 1.2 3.473l12.57 12.129-5.99 5.78c1.91 4.988 3.88 9.919 5.9 14.782l9.6-9.263c6.59 17.387 13.79 34.08 21.55 50l-8.12 7.844c2.42 4.506 4.9 8.935 7.43 13.286l7.65-7.381c5.48 10.469 11.22 20.581 17.2 30.288 3.13 5.075 6.35 9.938 9.64 14.628l-5.48 5.278c3.09 3.879 6.24 7.661 9.45 11.356l4.87-4.699c10.48 13.528 21.69 25.859 33.57 38.402l-2.07 2.007-32.7-31.552c11.73 13.113 24.23 25.261 37.44 37.196 8.28 7.478 2.79 6.388-8.54 6.388h40.02c11.33.002 16.82 1.092 8.54-6.386z" fill="url(#SVGID_4_)"/><path d="m274.734 249.293-19.734 19.042-19.734-19.042c2.147-8.8 4.172-17.777 6.099-26.903h-25.497c-6.642 30.628-14.562 59.286-23.81 86.213-13.771 40.098-30.746 76.639-50.452 108.604-20.874 33.86-45.522 59.881-73.259 84.95-8.272 7.477-2.789 6.39 8.546 6.39h89.798c7.617 0 12.37.682 12.37.682-.525-3.496-.826-7.073-.893-10.635-.405-21.448 8.195-38.676 23.593-53.999 14.503-14.432 33.404-22.529 53.239-22.811 19.835.283 38.736 8.38 53.239 22.811 15.398 15.322 23.998 32.551 23.593 53.999-.067 3.562-.367 7.139-.893 10.633 0 0 4.753-.681 12.37-.681h89.798c11.334 0 16.818 1.086 8.546-6.39-27.737-25.069-52.385-51.09-73.259-84.95-19.707-31.966-36.681-68.506-50.452-108.604-9.248-26.928-17.168-55.585-23.81-86.213h-25.497c1.927 9.127 3.952 18.105 6.099 26.904zm-43.643 16.442 13.302 12.835-23.756 22.922c3.709-11.621 7.201-23.523 10.454-35.757zm-120.055 228.773c11.881-12.543 23.091-24.876 33.579-38.401l5.186 5.004-36.689 35.401zm42.133 4.391h-21.319l23.724-22.891c-1.717 7.286-2.545 14.909-2.405 22.891zm38.389-78.079c-2.675 2.186-5.261 4.514-7.745 6.986-1.863 1.854-3.649 3.739-5.356 5.655l-18.049 17.415-6.956-6.712c3.293-4.687 6.507-9.545 9.64-14.626 5.983-9.705 11.714-19.815 17.198-30.281l16.808 16.218zm-4.312-35.318c7.769-15.918 14.967-32.612 21.558-50.001l35.589 34.339-36.689 35.401zm67.912 12.162-.158-.002-.158.002c-6.961.085-13.826.887-20.517 2.359l20.675-19.948 20.674 19.948c-6.69-1.472-13.555-2.274-20.516-2.359zm101.673 101.235c.139-7.982-.688-15.605-2.405-22.891l23.724 22.891zm8.554-42.792c10.488 13.525 21.698 25.859 33.579 38.401l-2.076 2.003-36.689-35.401zm-18.476-26.568c3.132 5.081 6.346 9.939 9.64 14.626l-6.956 6.712-18.049-17.415c-1.707-1.917-3.493-3.802-5.356-5.655-2.484-2.472-5.07-4.799-7.745-6.986l-5.539-5.344 16.808-16.217c5.482 10.464 11.214 20.574 17.197 30.279zm-24.155-44.037-20.458 19.739-36.689-35.401 35.589-34.339c6.591 17.388 13.789 34.083 21.558 50.001zm-67.754-25.896-36.689-35.401 36.689-35.401 36.689 35.401zm34.363-58.115-23.756-22.922 13.302-12.835c3.253 12.235 6.745 24.137 10.454 35.757z" fill="url(#SVGID_5_)"/><g><path d="m201.76 444.593c-15.4 15.322-24 32.555-23.59 54.005.06 3.56.36 7.14.89 10.633 0 0-4.75-.685-12.37-.685h-27.75c-.45-3.174-.71-6.417-.78-9.649h15.01c-.14-7.98.69-15.602 2.4-22.887l-17.27 16.673c.63-10.421 3.5-19.819 8.32-28.503l3.18-3.068-.86-.83c2.59-4.062 5.62-7.96 9.05-11.743l2.42 2.335 18.05-17.416c.97-1.09 1.97-2.171 3-3.242 10.37-5.336 21.78-8.259 33.52-8.433 6.83.097 13.54 1.148 20.01 3.04-12.31 3.599-23.72 10.314-33.23 19.77z" fill="url(#SVGID_6_)"/><path d="m441.654 502.158c-27.737-25.069-52.385-51.09-73.259-84.95-19.707-31.966-36.681-68.506-50.452-108.604-9.248-26.928-17.168-55.585-23.81-86.213h-25.497c1.927 9.126 3.952 18.104 6.099 26.903l-11.464 11.061c1.452 5.443 2.954 10.816 4.498 16.129l11.14-10.749c2.596 9.761 5.349 19.302 8.238 28.665.729 2.376 1.467 4.742 2.216 7.091l-14.197-13.698-5.679-5.48c.55 1.836 1.109 3.659 1.67 5.48h-36.323l-14.197 13.698c1.442-4.518 2.841-9.092 4.216-13.698h-26.022c-2.174 7.05-4.43 13.987-6.774 20.811-.382 1.114-.777 2.214-1.164 3.322h40.144l23.963-23.122 23.963 23.122h.124c.021.06.042.12.063.18l12.539 12.099-5.987 5.777c1.917 4.986 3.885 9.912 5.904 14.772l9.589-9.253c6.591 17.388 13.789 34.083 21.558 50.001l-8.123 7.838c2.428 4.51 4.908 8.94 7.434 13.296l7.646-7.377c5.483 10.466 11.215 20.576 17.198 30.281 3.132 5.081 6.346 9.939 9.64 14.626l-5.465 5.273c3.089 3.873 6.239 7.653 9.45 11.35l4.851-4.681c10.488 13.525 21.698 25.859 33.579 38.401l-2.076 2.003-32.536-31.393c11.688 13.046 24.133 25.156 37.281 37.04 8.272 7.477 2.789 6.39-8.546 6.39h40.02c11.336-.001 16.82 1.086 8.548-6.391z" fill="url(#SVGID_7_)"/></g><g><path d="m307.332 289.459h-104.663c-10.764 0-19.491-8.726-19.491-19.491v-1.975c0-10.764 8.726-19.491 19.491-19.491h104.663c10.764 0 19.491 8.726 19.491 19.491v1.975c-.001 10.765-8.727 19.491-19.491 19.491z" fill="url(#SVGID_8_)"/><path d="m306.98 248.503h-40.02c10.958 0 19.842 8.572 19.842 19.145v2.665c0 10.574-8.884 19.146-19.842 19.146h40.02c10.958 0 19.842-8.572 19.842-19.146v-2.665c0-10.573-8.883-19.145-19.842-19.145z" fill="url(#SVGID_9_)"/></g><path d="m223.889 180.815h62.221c-3.16-18.544-5.909-37.767-8.253-57.722h-45.716c-2.342 19.955-5.091 39.178-8.252 57.722zm35.594-8.076-4.483 4.326-4.483-4.326c1.606-10.123 3.109-20.417 4.483-30.931 1.374 10.514 2.877 20.808 4.483 30.931z" fill="url(#SVGID_10_)"/><path d="m278.12 125.207c-.09-.704-.18-1.409-.26-2.113h-45.72c-.08.705-.17 1.409-.26 2.113-.96 8.163-2 16.21-3.12 24.132h25.23c.34-2.499.68-5.008 1.01-7.536.33 2.528.67 5.037 1.01 7.536h25.23c-1.12-7.922-2.16-15.969-3.12-24.132z" fill="url(#SVGID_11_)"/><path d="m272.845 71.697c-.589-7.453-1.135-16.99-1.627-24.635-.533-8.312-7.657-14.824-16.218-14.824s-15.685 6.512-16.218 14.823c-.491 7.646-1.038 17.182-1.627 24.636z" fill="url(#SVGID_12_)"/><path d="m299.496 186.372h-88.993c-5.523 0-10-4.32-10-9.649s4.477-9.649 10-9.649h88.993c5.522 0 10 4.32 10 9.649s-4.477 9.649-10 9.649z" fill="url(#SVGID_13_)"/><path d="m284.494 126.347h-58.988c-5.523 0-10-4.32-10-9.649s4.477-9.649 10-9.649h58.988c5.522 0 10 4.32 10 9.649s-4.478 9.649-10 9.649z" fill="url(#SVGID_14_)"/></g><g><g><path d="m195.079 488.419c0-11.919-9.662-21.581-21.581-21.581h-99.997c-11.919 0-21.581 9.662-21.581 21.581 0 11.919 9.662 21.581 21.581 21.581h99.997c11.919 0 21.581-9.662 21.581-21.581z" fill="url(#SVGID_15_)"/><path d="m173.499 466.839h-43.161c11.919 0 21.581 9.662 21.581 21.581s-9.663 21.58-21.581 21.58h43.161c11.919 0 21.581-9.662 21.581-21.581s-9.663-21.58-21.581-21.58z" fill="url(#SVGID_16_)"/></g><g><path d="m458.079 488.419c0-11.919-9.662-21.581-21.581-21.581h-99.997c-11.919 0-21.581 9.662-21.581 21.581 0 11.919 9.662 21.581 21.581 21.581h99.997c11.919 0 21.581-9.662 21.581-21.581z" fill="url(#SVGID_17_)"/><path d="m436.499 466.839h-43.161c11.919 0 21.581 9.662 21.581 21.581s-9.663 21.58-21.581 21.58h43.161c11.919 0 21.581-9.662 21.581-21.581s-9.663-21.58-21.581-21.58z" fill="url(#SVGID_18_)"/></g></g><path d="m274.798 510h-41.595c-3.425 0-6.202-2.777-6.202-6.202v-15.079c0-7.146 5.793-12.939 12.939-12.939h28.123c7.146 0 12.939 5.793 12.939 12.939v15.079c-.002 3.425-2.779 6.202-6.204 6.202z" fill="url(#SVGID_19_)"/></g></svg>