<svg id="Capa_1" enable-background="new 0 0 510 510" height="512" viewBox="0 0 510 510" width="512" xmlns="http://www.w3.org/2000/svg" xmlns:xlink="http://www.w3.org/1999/xlink"><linearGradient id="lg1"><stop offset="0" stop-color="#fe646f"/><stop offset=".593" stop-color="#fb2b3a"/><stop offset="1" stop-color="#c41926"/></linearGradient><linearGradient id="SVGID_1_" gradientUnits="userSpaceOnUse" x1="118.669" x2="192.293" xlink:href="#lg1" y1="296.208" y2="296.208"/><linearGradient id="SVGID_2_" gradientUnits="userSpaceOnUse" x1="62.893" x2="197.344" xlink:href="#lg1" y1="296.21" y2="296.21"/><linearGradient id="SVGID_3_" gradientTransform="matrix(1 0 0 .386 0 -607.908)" gradientUnits="userSpaceOnUse" x1="95.524" x2="230.193" xlink:href="#lg1" y1="1968.447" y2="1968.447"/><linearGradient id="SVGID_4_" gradientUnits="userSpaceOnUse" x1="60" x2="196.095" xlink:href="#lg1" y1="151.656" y2="151.656"/><linearGradient id="SVGID_5_" gradientUnits="userSpaceOnUse" x1="354.777" x2="428.401" xlink:href="#lg1" y1="296.208" y2="296.208"/><linearGradient id="SVGID_6_" gradientUnits="userSpaceOnUse" x1="299" x2="433.451" xlink:href="#lg1" y1="296.21" y2="296.21"/><linearGradient id="SVGID_7_" gradientTransform="matrix(1 0 0 .386 0 -607.908)" gradientUnits="userSpaceOnUse" x1="331.632" x2="466.302" xlink:href="#lg1" y1="1968.447" y2="1968.447"/><linearGradient id="SVGID_8_" gradientUnits="userSpaceOnUse" x1="251" x2="441.614" xlink:href="#lg1" y1="151.656" y2="151.656"/><linearGradient id="SVGID_9_" gradientUnits="userSpaceOnUse" x1="53.333" x2="518.789" xlink:href="#lg1" y1="107.146" y2="107.146"/><linearGradient id="SVGID_10_" gradientUnits="userSpaceOnUse" x1="14.667" x2="426.738" xlink:href="#lg1" y1="107.145" y2="107.145"/><linearGradient id="lg2"><stop offset="0" stop-color="#537983"/><stop offset=".593" stop-color="#554e56"/><stop offset="1" stop-color="#433f43"/></linearGradient><linearGradient id="SVGID_11_" gradientUnits="userSpaceOnUse" x1="46.309" x2="560.006" xlink:href="#lg2" y1="57.528" y2="57.528"/><linearGradient id="SVGID_12_" gradientUnits="userSpaceOnUse" x1="-31.979" x2="437.557" xlink:href="#lg2" y1="57.528" y2="57.528"/><linearGradient id="SVGID_13_" gradientUnits="userSpaceOnUse" x1="133.117" x2="588.001" xlink:href="#lg1" y1="262.385" y2="262.385"/><linearGradient id="SVGID_14_" gradientUnits="userSpaceOnUse" x1="185.333" x2="465.62" xlink:href="#lg1" y1="262.385" y2="262.385"/><linearGradient id="lg3"><stop offset="0" stop-color="#9e9797"/><stop offset="1" stop-color="#5b5555"/></linearGradient><linearGradient id="SVGID_15_" gradientUnits="userSpaceOnUse" x1="93.013" x2="176.613" xlink:href="#lg3" y1="446.208" y2="446.208"/><linearGradient id="SVGID_16_" gradientUnits="userSpaceOnUse" x1="325.987" x2="409.588" xlink:href="#lg3" y1="446.208" y2="446.208"/><linearGradient id="SVGID_17_" gradientUnits="userSpaceOnUse" x1="226" x2="330.389" xlink:href="#lg2" y1="199.568" y2="199.568"/><linearGradient id="SVGID_18_" gradientUnits="userSpaceOnUse" x1="174" x2="313.291" xlink:href="#lg2" y1="199.568" y2="199.568"/><linearGradient id="lg4"><stop offset="0" stop-color="#01d0fb"/><stop offset=".6075" stop-color="#26a6fe"/><stop offset="1" stop-color="#0182fc"/></linearGradient><linearGradient id="SVGID_19_" gradientUnits="userSpaceOnUse" x1="-2.951" x2="794.46" xlink:href="#lg4" y1="474.56" y2="474.56"/><linearGradient id="SVGID_20_" gradientUnits="userSpaceOnUse" x1="148" x2="527.033" xlink:href="#lg4" y1="474.56" y2="474.56"/><g><g><g><path d="m108.699 118h56.494v356.416h-56.494z" fill="url(#SVGID_1_)"/><path d="m165.193 118v356.42h-25.01v-135.53c0-17.386-14.094-31.48-31.48-31.48v-25.01h31.48v-40.84c0-17.386-14.094-31.48-31.48-31.48v-92.08z" fill="url(#SVGID_2_)"/><g><path d="m161.438 185.312h-48.984c-8.719 0-16.574-5.269-19.88-13.337l-22.124-53.975h132.992l-22.123 53.975c-3.307 8.068-11.162 13.337-19.881 13.337z" fill="url(#SVGID_3_)"/><path d="m178.431 118-2.654 6.474c-12.447-1.768-24.423-3.938-35.826-6.474h-69.501l14.335 34.974c16.984 6.982 36.607 12.92 58.22 17.558 6.649 1.427 10.415 8.487 7.836 14.78h10.597c8.719 0 16.574-5.269 19.88-13.337l22.124-53.975z" fill="url(#SVGID_4_)"/></g><path d="m344.807 118h56.494v356.416h-56.494z" fill="url(#SVGID_5_)"/><path d="m401.3 118v356.42h-25.01v-135.53c0-17.386-14.094-31.48-31.48-31.48v-25.01h31.48v-40.84c0-17.386-14.094-31.48-31.48-31.48v-92.08z" fill="url(#SVGID_6_)"/><g><path d="m397.546 185.312h-48.984c-8.719 0-16.574-5.269-19.88-13.337l-22.124-53.975h132.992l-22.123 53.975c-3.307 8.068-11.162 13.337-19.881 13.337z" fill="url(#SVGID_7_)"/></g><path d="m414.539 118h-44.49c-18.525 4.119-38.547 7.283-59.676 9.306l18.309 44.669c.707 1.724 1.631 3.31 2.717 4.755 17.951-2.444 34.932-5.728 50.668-9.731 5.722-1.456 10.649 4.244 8.41 9.708l-3.527 8.606h10.597c8.719 0 16.574-5.269 19.88-13.337l22.123-53.976z" fill="url(#SVGID_8_)"/><path d="m42.058 64.083 4.571 32.975c1.065 7.686 5.633 14.423 12.339 18.326 42.943 24.998 114.725 41.38 196.032 41.38s153.089-16.382 196.032-41.38c6.706-3.904 11.273-10.64 12.339-18.326l4.571-32.975c.681-4.913-4.754-8.326-8.879-5.573-41.644 27.796-117.444 46.39-204.063 46.39s-162.419-18.594-204.062-46.39c-4.126-2.753-9.561.66-8.88 5.573z" fill="url(#SVGID_9_)"/><path d="m467.94 64.08-4.57 32.98c-.26 1.89-.74 3.72-1.4 5.47-2.04 5.36-5.88 9.91-10.94 12.85-42.94 25-114.72 41.38-196.03 41.38-6.74 0-13.41-.11-20.01-.34 34.229-1.141 66.403-5.196 94.983-11.545 5.492-1.22 4.117-9.402-1.475-8.783-23.401 2.593-48.047 3.977-73.498 3.977-82.42 0-156.39-14.52-206.97-37.54-.66-1.75-1.14-3.58-1.4-5.47l-2.97-21.42-1.6-11.56c-.68-4.91 4.75-8.32 8.88-5.57 38.39 25.63 105.8 43.43 183.97 46.05.06.01.11.01.16 0 6.57.23 13.22.34 19.93.34 67.28 0 128.03-11.22 171.32-29.26 12.44-5.17 23.44-10.92 32.74-17.13 4.13-2.749 9.56.661 8.88 5.571z" fill="url(#SVGID_10_)"/><path d="m8.108 7.6 5.299 38.232c1.235 8.911 6.531 16.722 14.306 21.248 49.79 28.983 133.017 47.977 227.287 47.977s177.497-18.994 227.286-47.977c7.775-4.526 13.071-12.337 14.306-21.248l5.3-38.232c.79-5.696-5.512-9.654-10.295-6.461-48.283 32.226-136.168 53.785-236.597 53.785s-188.314-21.559-236.597-53.785c-4.783-3.193-11.084.764-10.295 6.461z" fill="url(#SVGID_11_)"/><path d="m491.597 1.139c-9.058 6.046-19.51 11.716-31.178 16.939l-3.847 27.754c-1.235 8.911-6.531 16.722-14.306 21.248-46.234 26.914-121.308 45.203-207.276 47.679 6.611.19 13.278.298 20.01.298 94.27 0 177.497-18.994 227.286-47.977 7.775-4.526 13.071-12.337 14.306-21.248l5.3-38.232c.789-5.697-5.512-9.654-10.295-6.461z" fill="url(#SVGID_12_)"/><g><path d="m443.369 262.385c0-11.051-8.959-20.01-20.01-20.01h-336.718c-11.051 0-20.01 8.959-20.01 20.01 0 11.051 8.959 20.01 20.01 20.01h336.718c11.051 0 20.01-8.958 20.01-20.01z" fill="url(#SVGID_13_)"/><path d="m423.359 242.375h-40.02c11.051 0 20.01 8.959 20.01 20.01s-8.959 20.01-20.01 20.01h40.02c11.051 0 20.01-8.959 20.01-20.01s-8.959-20.01-20.01-20.01z" fill="url(#SVGID_14_)"/></g><g><path d="m183.013 474.416h-89v-31.863c0-13.56 10.993-24.553 24.553-24.553h39.895c13.56 0 24.553 10.993 24.553 24.553v31.863z" fill="url(#SVGID_15_)"/><path d="m415.987 474.416h-89v-31.863c0-13.56 10.993-24.553 24.553-24.553h39.895c13.56 0 24.553 10.993 24.553 24.553v31.863z" fill="url(#SVGID_16_)"/></g><g><path d="m273.637 242.375h-37.273c-5.54 0-10.03-4.491-10.03-10.03v-65.555c0-5.539 4.491-10.03 10.03-10.03h37.273c5.539 0 10.03 4.491 10.03 10.03v65.555c0 5.54-4.491 10.03-10.03 10.03z" fill="url(#SVGID_17_)"/><path d="m273.637 156.76h-25.011c5.539 0 10.03 4.491 10.03 10.03v65.555c0 5.54-4.491 10.03-10.03 10.03h25.011c5.539 0 10.03-4.491 10.03-10.03v-65.555c0-5.539-4.491-10.03-10.03-10.03z" fill="url(#SVGID_18_)"/></g></g></g><g><path d="m510 482.891v14.867c0 6.761-5.481 12.242-12.242 12.242h-485.516c-6.761 0-12.242-5.481-12.242-12.242v-14.871c0-10.783 8.769-19.586 19.551-19.452 10.803.134 21.647-3.919 29.889-12.154 8.1-8.11 18.73-12.16 29.36-12.16s21.26 4.05 29.37 12.16c8.11 8.1 18.74 12.16 29.37 12.16 10.62 0 21.25-4.06 29.36-12.16 8.11-8.11 18.74-12.16 29.37-12.16s21.25 4.05 29.36 12.16c8.11 8.1 18.74 12.16 29.37 12.16s21.26-4.06 29.37-12.16c8.11-8.11 18.73-12.16 29.36-12.16s21.26 4.05 29.37 12.16c8.11 8.1 18.74 12.16 29.36 12.16 10.63 0 21.26-4.06 29.37-12.16 8.11-8.11 18.74-12.16 29.37-12.16s21.26 4.05 29.36 12.16c8.11 8.1 18.74 12.16 29.37 12.16.069 0 .138 0 .208-.001 10.904-.055 19.862 8.546 19.862 19.451z" fill="url(#SVGID_19_)"/><path d="m490.137 463.439c-.069 0-.138 0-.208 0-10.63 0-21.26-4.06-29.37-12.16-8.1-8.11-18.73-12.16-29.36-12.16-6.902 0-13.799 1.719-20.011 5.136 3.354 1.846 6.511 4.18 9.351 7.024 8.11 8.1 18.74 12.16 29.37 12.16h.208c10.905-.054 19.863 8.547 19.863 19.451v14.867c0 6.761-5.481 12.242-12.242 12.242h40.02c6.761 0 12.242-5.481 12.242-12.242v-14.867c0-10.904-8.958-19.505-19.863-19.451z" fill="url(#SVGID_20_)"/></g></g></svg>