<svg id="Capa_1" enable-background="new 0 0 510 510" height="512" viewBox="0 0 510 510" width="512" xmlns="http://www.w3.org/2000/svg" xmlns:xlink="http://www.w3.org/1999/xlink"><linearGradient id="lg1"><stop offset="0" stop-color="#cdbfba"/><stop offset="1" stop-color="#766e6e"/></linearGradient><linearGradient id="SVGID_1_" gradientUnits="userSpaceOnUse" x1="103.053" x2="275.105" xlink:href="#lg1" y1="332.57" y2="332.57"/><linearGradient id="SVGID_2_" gradientUnits="userSpaceOnUse" x1="259.053" x2="386.63" xlink:href="#lg1" y1="332.57" y2="332.57"/><linearGradient id="SVGID_3_" gradientUnits="userSpaceOnUse" x1="127.954" x2="430.023" xlink:href="#lg1" y1="194.303" y2="194.303"/><linearGradient id="SVGID_4_" gradientUnits="userSpaceOnUse" x1="170" x2="293.26" xlink:href="#lg1" y1="194.303" y2="194.303"/><linearGradient id="lg2"><stop offset="0" stop-color="#f3eae6"/><stop offset="1" stop-color="#cdbfba"/></linearGradient><linearGradient id="SVGID_5_" gradientUnits="userSpaceOnUse" x1="93.099" x2="110.659" xlink:href="#lg2" y1="34.25" y2="34.25"/><linearGradient id="SVGID_6_" gradientUnits="userSpaceOnUse" x1="55.375" x2="173.561" xlink:href="#lg1" y1="98.978" y2="98.978"/><linearGradient id="SVGID_7_" gradientTransform="matrix(1 0 0 -.475 0 251.427)" gradientUnits="userSpaceOnUse" x1="68.477" x2="151.435" xlink:href="#lg2" y1="269.953" y2="269.953"/><linearGradient id="SVGID_8_" gradientUnits="userSpaceOnUse" x1="38.84" x2="193.539" xlink:href="#lg2" y1="320.902" y2="320.902"/><linearGradient id="SVGID_9_" gradientUnits="userSpaceOnUse" x1="5.804" x2="135.792" xlink:href="#lg2" y1="320.905" y2="320.905"/><linearGradient id="lg3"><stop offset="0" stop-color="#faf7f7"/><stop offset=".4551" stop-color="#f3eae6"/><stop offset="1" stop-color="#efe2dd"/></linearGradient><linearGradient id="SVGID_10_" gradientUnits="userSpaceOnUse" x1="64.615" x2="182.135" xlink:href="#lg3" y1="157.288" y2="157.288"/><linearGradient id="SVGID_11_" gradientUnits="userSpaceOnUse" x1="64.615" x2="182.135" xlink:href="#lg3" y1="256.834" y2="256.834"/><linearGradient id="SVGID_12_" gradientUnits="userSpaceOnUse" x1="64.615" x2="182.135" xlink:href="#lg3" y1="350.094" y2="350.094"/><linearGradient id="SVGID_13_" gradientUnits="userSpaceOnUse" x1="26.581" x2="82.599" xlink:href="#lg2" y1="309.883" y2="309.883"/><linearGradient id="SVGID_14_" gradientUnits="userSpaceOnUse" x1="16.722" x2="76.782" xlink:href="#lg2" y1="68.706" y2="68.706"/><linearGradient id="SVGID_15_" gradientUnits="userSpaceOnUse" x1="37.722" x2="85.351" xlink:href="#lg3" y1="116.683" y2="116.683"/><linearGradient id="SVGID_16_" gradientUnits="userSpaceOnUse" x1="-78.278" x2="80.726" xlink:href="#lg3" y1="116.683" y2="116.683"/><linearGradient id="SVGID_17_" gradientUnits="userSpaceOnUse" x1="132.631" x2="188.649" xlink:href="#lg2" y1="309.883" y2="309.883"/><linearGradient id="SVGID_18_" gradientUnits="userSpaceOnUse" x1="122.773" x2="182.832" xlink:href="#lg2" y1="68.706" y2="68.706"/><linearGradient id="SVGID_19_" gradientUnits="userSpaceOnUse" x1="143.773" x2="191.401" xlink:href="#lg3" y1="116.683" y2="116.683"/><linearGradient id="SVGID_20_" gradientUnits="userSpaceOnUse" x1="27.773" x2="186.776" xlink:href="#lg3" y1="116.683" y2="116.683"/><linearGradient id="SVGID_21_" gradientUnits="userSpaceOnUse" x1="-29.432" x2="251.49" xlink:href="#lg1" y1="445.786" y2="445.786"/><linearGradient id="SVGID_22_" gradientUnits="userSpaceOnUse" x1="-176.415" x2="202.367" xlink:href="#lg1" y1="439.664" y2="439.664"/><linearGradient id="SVGID_23_" gradientUnits="userSpaceOnUse" x1="-176.415" x2="202.367" xlink:href="#lg1" y1="445.786" y2="445.786"/><linearGradient id="SVGID_24_" gradientUnits="userSpaceOnUse" x1="397.604" x2="415.164" xlink:href="#lg2" y1="34.25" y2="34.25"/><linearGradient id="SVGID_25_" gradientUnits="userSpaceOnUse" x1="359.88" x2="478.066" xlink:href="#lg1" y1="98.978" y2="98.978"/><linearGradient id="SVGID_26_" gradientTransform="matrix(1 0 0 -.475 0 251.427)" gradientUnits="userSpaceOnUse" x1="372.982" x2="455.94" xlink:href="#lg2" y1="269.953" y2="269.953"/><linearGradient id="SVGID_27_" gradientUnits="userSpaceOnUse" x1="343.345" x2="498.044" xlink:href="#lg2" y1="320.902" y2="320.902"/><linearGradient id="SVGID_28_" gradientUnits="userSpaceOnUse" x1="310.309" x2="440.297" xlink:href="#lg2" y1="320.905" y2="320.905"/><linearGradient id="SVGID_29_" gradientUnits="userSpaceOnUse" x1="369.119" x2="486.64" xlink:href="#lg3" y1="157.288" y2="157.288"/><linearGradient id="SVGID_30_" gradientUnits="userSpaceOnUse" x1="369.119" x2="486.64" xlink:href="#lg3" y1="256.834" y2="256.834"/><linearGradient id="SVGID_31_" gradientUnits="userSpaceOnUse" x1="369.119" x2="486.64" xlink:href="#lg3" y1="350.094" y2="350.094"/><linearGradient id="SVGID_32_" gradientUnits="userSpaceOnUse" x1="331.086" x2="387.104" xlink:href="#lg2" y1="309.883" y2="309.883"/><linearGradient id="SVGID_33_" gradientUnits="userSpaceOnUse" x1="321.227" x2="381.287" xlink:href="#lg2" y1="68.706" y2="68.706"/><linearGradient id="SVGID_34_" gradientUnits="userSpaceOnUse" x1="342.227" x2="389.856" xlink:href="#lg3" y1="116.683" y2="116.683"/><linearGradient id="SVGID_35_" gradientUnits="userSpaceOnUse" x1="226.227" x2="385.231" xlink:href="#lg3" y1="116.683" y2="116.683"/><linearGradient id="SVGID_36_" gradientUnits="userSpaceOnUse" x1="437.136" x2="493.154" xlink:href="#lg2" y1="309.883" y2="309.883"/><linearGradient id="SVGID_37_" gradientUnits="userSpaceOnUse" x1="427.278" x2="487.337" xlink:href="#lg2" y1="68.706" y2="68.706"/><linearGradient id="SVGID_38_" gradientUnits="userSpaceOnUse" x1="448.278" x2="495.906" xlink:href="#lg3" y1="116.683" y2="116.683"/><linearGradient id="SVGID_39_" gradientUnits="userSpaceOnUse" x1="332.278" x2="491.281" xlink:href="#lg3" y1="116.683" y2="116.683"/><linearGradient id="SVGID_40_" gradientUnits="userSpaceOnUse" x1="275.073" x2="555.995" xlink:href="#lg1" y1="445.786" y2="445.786"/><linearGradient id="SVGID_41_" gradientUnits="userSpaceOnUse" x1="128.09" x2="506.872" xlink:href="#lg1" y1="439.664" y2="439.664"/><linearGradient id="SVGID_42_" gradientUnits="userSpaceOnUse" x1="128.09" x2="506.872" xlink:href="#lg1" y1="445.786" y2="445.786"/><linearGradient id="lg4"><stop offset="0" stop-color="#01d0fb"/><stop offset=".6075" stop-color="#26a6fe"/><stop offset="1" stop-color="#0182fc"/></linearGradient><linearGradient id="SVGID_43_" gradientUnits="userSpaceOnUse" x1="-2.951" x2="794.46" xlink:href="#lg4" y1="474.56" y2="474.56"/><linearGradient id="SVGID_44_" gradientUnits="userSpaceOnUse" x1="148" x2="527.033" xlink:href="#lg4" y1="474.56" y2="474.56"/><g><g><path d="m229.671 310.371-136.613 62.581c-5.021 2.3-10.956.094-13.256-4.927s-.094-10.956 4.927-13.256l136.613-62.582c5.021-2.3 10.956-.094 13.256 4.927 2.3 5.022.094 10.957-4.927 13.257z" fill="url(#SVGID_1_)"/><path d="m280.329 310.371 136.613 62.582c5.021 2.3 10.956.094 13.256-4.927s.094-10.956-4.927-13.256l-136.613-62.582c-5.021-2.3-10.956-.094-13.256 4.927s-.094 10.956 4.927 13.256z" fill="url(#SVGID_2_)"/></g><path d="m156.242 175.605h197.515v37.395h-197.515z" fill="url(#SVGID_3_)"/><path d="m308.508 175.605h45.249v37.395h-45.249z" fill="url(#SVGID_4_)"/><g><path d="m110.248 7.5c0-4.143-3.358-7.5-7.5-7.5s-7.5 3.357-7.5 7.5v53.5c0 4.143 3.358 7.5 7.5 7.5s7.5-3.357 7.5-7.5z" fill="url(#SVGID_5_)"/><path d="m91.019 39.732-34.953 130.785h93.363l-36.312-131.053c-4.478-16.159-17.751-15.998-22.098.268z" fill="url(#SVGID_6_)"/><path d="m95.012 84.262-23.052 86.255h61.574l-23.948-86.432c-2.953-10.657-11.706-10.551-14.574.177z" fill="url(#SVGID_7_)"/><g><path d="m45.336 170.517h114.822v300.77h-114.822z" fill="url(#SVGID_8_)"/><path d="m160.156 170.52v300.77h-52.63v-58.676c0-15.803-12.811-28.615-28.615-28.615h-33.572v-25.01h62.188v-39.295c0-15.803-12.811-28.615-28.615-28.615h-33.573v-25.02h62.188v-39.296c0-15.803-12.811-28.615-28.615-28.615h-33.573v-27.63h114.817z" fill="url(#SVGID_9_)"/><path d="m152.75 173.575h-100.005c-11.265 0-20.397-7.292-20.397-16.287s9.132-16.288 20.397-16.288h100.005c11.264 0 20.397 7.292 20.397 16.287s-9.133 16.288-20.397 16.288z" fill="url(#SVGID_10_)"/><path d="m152.75 266.834h-100.005c-11.265 0-20.397-4.477-20.397-10s9.132-10 20.397-10h100.005c11.264 0 20.397 4.477 20.397 10s-9.133 10-20.397 10z" fill="url(#SVGID_11_)"/><path d="m152.75 360.094h-100.005c-11.265 0-20.397-4.477-20.397-10s9.132-10 20.397-10h100.005c11.264 0 20.397 4.477 20.397 10s-9.133 10-20.397 10z" fill="url(#SVGID_12_)"/></g><g><g><g><path d="m28.933 148.479h41.578v322.808h-41.578z" fill="url(#SVGID_13_)"/><path d="m67.875 51.206h-11.22v-9.25c0-4.143-3.358-7.5-7.5-7.5s-7.5 3.357-7.5 7.5v9.25h-10.085c-4.143 0-7.5 3.358-7.5 7.5s3.357 7.5 7.5 7.5h10.083v29.25c0 4.143 3.358 7.5 7.5 7.5s7.5-3.357 7.5-7.5v-29.25h11.22c4.143 0 7.5-3.358 7.5-7.5s-3.356-7.5-7.498-7.5z" fill="url(#SVGID_14_)"/><path d="m43.453 84.541-17.026 60.593c-1.191 4.238 1.994 8.441 6.396 8.441h33.798c4.402 0 7.587-4.203 6.396-8.441l-17.025-60.593c-1.78-6.334-10.759-6.334-12.539 0z" fill="url(#SVGID_15_)"/><path d="m73.017 145.134-17.025-60.593c-1.78-6.334-10.759-6.334-12.538 0-4.079 14.515-4.079 29.874 0 44.39l4.553 16.204c1.191 4.238-1.994 8.441-6.396 8.441h25.011c4.401-.001 7.586-4.204 6.395-8.442z" fill="url(#SVGID_16_)"/></g><g><path d="m134.984 148.479h41.578v322.808h-41.578z" fill="url(#SVGID_17_)"/><path d="m173.925 51.206h-11.22v-9.25c0-4.143-3.358-7.5-7.5-7.5s-7.5 3.357-7.5 7.5v9.25h-10.083c-4.143 0-7.5 3.358-7.5 7.5s3.357 7.5 7.5 7.5h10.083v29.25c0 4.143 3.358 7.5 7.5 7.5s7.5-3.357 7.5-7.5v-29.25h11.22c4.143 0 7.5-3.358 7.5-7.5s-3.358-7.5-7.5-7.5z" fill="url(#SVGID_18_)"/><path d="m149.504 84.541-17.026 60.593c-1.191 4.238 1.994 8.441 6.396 8.441h33.798c4.402 0 7.587-4.203 6.396-8.441l-17.026-60.593c-1.78-6.334-10.759-6.334-12.538 0z" fill="url(#SVGID_19_)"/><path d="m179.068 145.134-17.026-60.593c-1.78-6.334-10.759-6.334-12.538 0-4.079 14.515-4.079 29.874 0 44.39l4.553 16.204c1.191 4.238-1.994 8.441-6.396 8.441h25.011c4.401-.001 7.586-4.204 6.396-8.442z" fill="url(#SVGID_20_)"/></g></g><g><path d="m205.495 490.158h-205.495v-71.598c0-9.47 7.677-17.147 17.147-17.147h171.202c9.47 0 17.147 7.677 17.147 17.147v71.598z" fill="url(#SVGID_21_)"/><g><path d="m120.398 436.042h-13.927v-7.688c0-3.447-2.794-6.241-6.241-6.241h-23.732c-3.447 0-6.241 2.794-6.241 6.241v8.69c0 3.447 2.794 6.241 6.241 6.241h13.927v7.688c0 3.447 2.794 6.241 6.241 6.241h23.733c3.447 0 6.241-2.794 6.241-6.241v-8.69c-.001-3.446-2.795-6.241-6.242-6.241z" fill="url(#SVGID_22_)"/><path d="m188.348 401.414h-40.02c9.47 0 17.147 7.677 17.147 17.147v36.982h-12.917c-3.447 0-6.241 2.794-6.241 6.241v8.69c0 3.447 2.794 6.241 6.241 6.241h12.917v13.443h40.02v-71.598c0-9.47-7.677-17.146-17.147-17.146z" fill="url(#SVGID_23_)"/></g></g></g></g><g><path d="m414.753 7.5c0-4.143-3.358-7.5-7.5-7.5s-7.5 3.357-7.5 7.5v53.5c0 4.143 3.358 7.5 7.5 7.5s7.5-3.357 7.5-7.5z" fill="url(#SVGID_24_)"/><path d="m395.524 39.732-34.953 130.785h93.363l-36.312-131.053c-4.478-16.159-17.751-15.998-22.098.268z" fill="url(#SVGID_25_)"/><path d="m399.517 84.262-23.052 86.255h61.574l-23.948-86.432c-2.953-10.657-11.707-10.551-14.574.177z" fill="url(#SVGID_26_)"/><g><path d="m349.841 170.517h114.822v300.77h-114.822z" fill="url(#SVGID_27_)"/><path d="m464.661 170.52v300.77h-52.63v-58.676c0-15.803-12.811-28.615-28.615-28.615h-33.573v-25.01h62.188v-39.295c0-15.803-12.811-28.615-28.615-28.615h-33.573v-25.02h62.188v-39.296c0-15.803-12.811-28.615-28.615-28.615h-33.573v-27.63h114.818z" fill="url(#SVGID_28_)"/><path d="m457.255 173.575h-100.005c-11.265 0-20.397-7.292-20.397-16.287s9.132-16.288 20.397-16.288h100.005c11.264 0 20.397 7.292 20.397 16.287s-9.133 16.288-20.397 16.288z" fill="url(#SVGID_29_)"/><path d="m457.255 266.834h-100.005c-11.265 0-20.397-4.477-20.397-10s9.132-10 20.397-10h100.005c11.264 0 20.397 4.477 20.397 10s-9.133 10-20.397 10z" fill="url(#SVGID_30_)"/><path d="m457.255 360.094h-100.005c-11.265 0-20.397-4.477-20.397-10s9.132-10 20.397-10h100.005c11.264 0 20.397 4.477 20.397 10s-9.133 10-20.397 10z" fill="url(#SVGID_31_)"/></g><g><g><g><path d="m333.438 148.479h41.578v322.808h-41.578z" fill="url(#SVGID_32_)"/><path d="m372.379 51.206h-11.22v-9.25c0-4.143-3.358-7.5-7.5-7.5s-7.5 3.357-7.5 7.5v9.25h-10.083c-4.143 0-7.5 3.358-7.5 7.5s3.357 7.5 7.5 7.5h10.083v29.25c0 4.143 3.358 7.5 7.5 7.5s7.5-3.357 7.5-7.5v-29.25h11.22c4.143 0 7.5-3.358 7.5-7.5s-3.357-7.5-7.5-7.5z" fill="url(#SVGID_33_)"/><path d="m347.958 84.541-17.026 60.593c-1.191 4.238 1.994 8.441 6.396 8.441h33.798c4.402 0 7.587-4.203 6.396-8.441l-17.026-60.593c-1.779-6.334-10.758-6.334-12.538 0z" fill="url(#SVGID_34_)"/><path d="m377.522 145.134-17.026-60.593c-1.78-6.334-10.759-6.334-12.538 0-4.079 14.515-4.079 29.874 0 44.39l4.553 16.204c1.191 4.238-1.994 8.441-6.396 8.441h25.011c4.402-.001 7.587-4.204 6.396-8.442z" fill="url(#SVGID_35_)"/></g><g><path d="m439.488 148.479h41.578v322.808h-41.578z" fill="url(#SVGID_36_)"/><path d="m478.43 51.206h-11.22v-9.25c0-4.143-3.358-7.5-7.5-7.5s-7.5 3.357-7.5 7.5v9.25h-10.083c-4.143 0-7.5 3.358-7.5 7.5s3.357 7.5 7.5 7.5h10.083v29.25c0 4.143 3.358 7.5 7.5 7.5s7.5-3.357 7.5-7.5v-29.25h11.22c4.143 0 7.5-3.358 7.5-7.5s-3.358-7.5-7.5-7.5z" fill="url(#SVGID_37_)"/><path d="m454.008 84.541-17.026 60.593c-1.191 4.238 1.994 8.441 6.396 8.441h33.798c4.402 0 7.587-4.203 6.396-8.441l-17.026-60.593c-1.779-6.334-10.758-6.334-12.538 0z" fill="url(#SVGID_38_)"/><path d="m483.572 145.134-17.026-60.593c-1.78-6.334-10.759-6.334-12.538 0-4.079 14.515-4.079 29.874 0 44.39l4.553 16.204c1.191 4.238-1.994 8.441-6.396 8.441h25.011c4.402-.001 7.587-4.204 6.396-8.442z" fill="url(#SVGID_39_)"/></g></g><g><path d="m510 490.158h-205.495v-71.598c0-9.47 7.677-17.147 17.147-17.147h171.202c9.47 0 17.147 7.677 17.147 17.147v71.598z" fill="url(#SVGID_40_)"/><g><path d="m424.903 436.042h-13.927v-7.688c0-3.447-2.794-6.241-6.241-6.241h-23.733c-3.447 0-6.241 2.794-6.241 6.241v8.69c0 3.447 2.794 6.241 6.241 6.241h13.927v7.688c0 3.447 2.794 6.241 6.241 6.241h23.733c3.447 0 6.241-2.794 6.241-6.241v-8.69c0-3.446-2.794-6.241-6.241-6.241z" fill="url(#SVGID_41_)"/><path d="m492.853 401.414h-40.02c9.47 0 17.147 7.677 17.147 17.147v36.982h-12.917c-3.447 0-6.241 2.794-6.241 6.241v8.69c0 3.447 2.794 6.241 6.241 6.241h12.917v13.443h40.02v-71.598c0-9.47-7.677-17.146-17.147-17.146z" fill="url(#SVGID_42_)"/></g></g></g></g><g><path d="m510 482.891v14.867c0 6.761-5.481 12.242-12.242 12.242h-485.516c-6.761 0-12.242-5.481-12.242-12.242v-14.871c0-10.783 8.769-19.586 19.551-19.452 10.803.134 21.647-3.919 29.889-12.154 8.1-8.11 18.73-12.16 29.36-12.16s21.26 4.05 29.37 12.16c8.11 8.1 18.74 12.16 29.37 12.16 10.62 0 21.25-4.06 29.36-12.16 8.11-8.11 18.74-12.16 29.37-12.16s21.25 4.05 29.36 12.16c8.11 8.1 18.74 12.16 29.37 12.16s21.26-4.06 29.37-12.16c8.11-8.11 18.73-12.16 29.36-12.16s21.26 4.05 29.37 12.16c8.11 8.1 18.74 12.16 29.36 12.16 10.63 0 21.26-4.06 29.37-12.16 8.11-8.11 18.74-12.16 29.37-12.16s21.26 4.05 29.36 12.16c8.11 8.1 18.74 12.16 29.37 12.16.069 0 .138 0 .208-.001 10.904-.055 19.862 8.546 19.862 19.451z" fill="url(#SVGID_43_)"/><path d="m490.137 463.439c-.069 0-.138 0-.208 0-10.63 0-21.26-4.06-29.37-12.16-8.1-8.11-18.73-12.16-29.36-12.16-6.902 0-13.799 1.719-20.011 5.136 3.354 1.846 6.511 4.18 9.351 7.024 8.11 8.1 18.74 12.16 29.37 12.16h.208c10.905-.054 19.863 8.547 19.863 19.451v14.867c0 6.761-5.481 12.242-12.242 12.242h40.02c6.761 0 12.242-5.481 12.242-12.242v-14.867c0-10.904-8.958-19.505-19.863-19.451z" fill="url(#SVGID_44_)"/></g></g></svg>