<svg id="Capa_1" enable-background="new 0 0 510 510" height="512" viewBox="0 0 510 510" width="512" xmlns="http://www.w3.org/2000/svg" xmlns:xlink="http://www.w3.org/1999/xlink"><linearGradient id="lg1"><stop offset="0" stop-color="#faf7f7"/><stop offset=".4551" stop-color="#f3eae6"/><stop offset="1" stop-color="#efe2dd"/></linearGradient><linearGradient id="SVGID_1_" gradientUnits="userSpaceOnUse" x1="258.361" x2="323.361" xlink:href="#lg1" y1="30" y2="30"/><linearGradient id="lg2"><stop offset="0" stop-color="#fe646f"/><stop offset=".593" stop-color="#fb2b3a"/><stop offset="1" stop-color="#c41926"/></linearGradient><linearGradient id="SVGID_2_" gradientUnits="userSpaceOnUse" x1="247.5" x2="337.5" xlink:href="#lg2" y1="15" y2="15"/><linearGradient id="SVGID_4_" gradientUnits="userSpaceOnUse" x1="247.5" x2="337.5" xlink:href="#lg2" y1="45" y2="45"/><linearGradient id="SVGID_6_" gradientUnits="userSpaceOnUse" x1="247.611" x2="262.611" xlink:href="#lg1" y1="69.833" y2="69.833"/><linearGradient id="lg3"><stop offset="0" stop-color="#fbc56d"/><stop offset=".593" stop-color="#dc8758"/><stop offset="1" stop-color="#9e5528"/></linearGradient><linearGradient id="SVGID_7_" gradientUnits="userSpaceOnUse" x1="127.044" x2="579.42" xlink:href="#lg3" y1="294.312" y2="294.312"/><linearGradient id="SVGID_8_" gradientUnits="userSpaceOnUse" x1="13" x2="386.048" xlink:href="#lg3" y1="187.963" y2="187.963"/><linearGradient id="SVGID_9_" gradientUnits="userSpaceOnUse" x1="13" x2="386.048" xlink:href="#lg3" y1="331.927" y2="331.927"/><linearGradient id="SVGID_10_" gradientUnits="userSpaceOnUse" x1="13" x2="386.048" xlink:href="#lg3" y1="294.315" y2="294.315"/><linearGradient id="SVGID_11_" gradientUnits="userSpaceOnUse" x1="147.669" x2="548.242" xlink:href="#lg3" y1="118.75" y2="118.75"/><linearGradient id="SVGID_12_" gradientUnits="userSpaceOnUse" x1="241.673" x2="436.332" xlink:href="#lg3" y1="118.75" y2="118.75"/><linearGradient id="lg4"><stop offset="0" stop-color="#537983"/><stop offset=".593" stop-color="#554e56"/><stop offset="1" stop-color="#433f43"/></linearGradient><linearGradient id="SVGID_13_" gradientUnits="userSpaceOnUse" x1="128.522" x2="175.532" xlink:href="#lg4" y1="272.5" y2="272.5"/><linearGradient id="SVGID_14_" gradientUnits="userSpaceOnUse" x1="128.522" x2="175.532" xlink:href="#lg4" y1="383.5" y2="383.5"/><linearGradient id="SVGID_15_" gradientUnits="userSpaceOnUse" x1="335.022" x2="382.032" xlink:href="#lg4" y1="272.5" y2="272.5"/><linearGradient id="SVGID_16_" gradientUnits="userSpaceOnUse" x1="335.022" x2="382.032" xlink:href="#lg4" y1="383.5" y2="383.5"/><linearGradient id="lg5"><stop offset="0" stop-color="#bbec6c"/><stop offset=".5857" stop-color="#78a91f"/><stop offset="1" stop-color="#02905d"/></linearGradient><linearGradient id="SVGID_17_" gradientUnits="userSpaceOnUse" x1="-23.932" x2="657.231" xlink:href="#lg5" y1="477.969" y2="477.969"/><linearGradient id="SVGID_18_" gradientUnits="userSpaceOnUse" x1="108" x2="494.448" xlink:href="#lg5" y1="477.969" y2="477.969"/><linearGradient id="SVGID_19_" gradientUnits="userSpaceOnUse" x1="215.447" x2="303.292" xlink:href="#lg5" y1="167.865" y2="167.865"/><g><g><g><path d="m263.61 7.5c-2.899 0-5.249 2.35-5.249 5.249v9.751 15 9.751c0 2.899 2.35 5.249 5.249 5.249h54.502c2.899 0 5.249-2.35 5.249-5.249v-9.751-15-9.751c0-2.899-2.35-5.249-5.249-5.249z" fill="url(#SVGID_1_)"/><g><path d="m258.36 12.75v9.75h21.708c1.818 0 3.292-1.474 3.292-3.292v-11.708h-19.75c-2.9 0-5.25 2.351-5.25 5.25z" fill="url(#SVGID_2_)"/><path d="m318.11 7.5h-19.75v11.708c0 1.818 1.474 3.292 3.292 3.292h21.708v-9.75c0-2.899-2.351-5.25-5.25-5.25z" fill="url(#SVGID_2_)"/><g fill="url(#SVGID_4_)"><path d="m258.36 47.25c0 2.899 2.35 5.25 5.25 5.25h19.75v-11.708c0-1.818-1.474-3.292-3.292-3.292h-21.708z"/><path d="m298.36 52.5h19.75c2.9 0 5.25-2.351 5.25-5.25v-9.75h-21.708c-1.818 0-3.292 1.474-3.292 3.292z"/></g></g></g><path d="m255.111 139.667c-4.142 0-7.5-3.358-7.5-7.5v-124.667c0-4.142 3.358-7.5 7.5-7.5s7.5 3.358 7.5 7.5v124.667c0 4.142-3.358 7.5-7.5 7.5z" fill="url(#SVGID_6_)"/></g><g><path d="m105.592 114.756v359.112h91.793v-230.04c0-31.82 25.795-57.615 57.615-57.615 31.82 0 57.615 25.795 57.615 57.615v230.04h91.793v-359.112z" fill="url(#SVGID_7_)"/><g><path d="m144.117 172.279h-21.21c-3.08 0-5.577 2.497-5.577 5.577v7.767c0 3.08 2.497 5.577 5.577 5.577h12.446v6.871c0 3.08 2.497 5.577 5.577 5.577h21.211c3.08 0 5.577-2.497 5.577-5.577v-7.767c0-3.08-2.497-5.577-5.577-5.577h-12.447v-6.871c.001-3.08-2.496-5.577-5.577-5.577z" fill="url(#SVGID_8_)"/><path d="m141.678 322.466h-21.211c-3.08 0-5.577 2.497-5.577 5.577v7.767c0 3.08 2.497 5.577 5.577 5.577h21.211c3.08 0 5.577-2.497 5.577-5.577v-7.767c0-3.08-2.496-5.577-5.577-5.577z" fill="url(#SVGID_9_)"/><path d="m105.59 114.76v42.9h107.298l-2.344 14.797c-.748 4.724.419 9.444 3.307 13.782-31.297.604-56.49 26.15-56.49 57.592v230.04h40.03v-230.041c0-24.561 15.369-45.538 37.023-53.814 3.574-1.369 7.318-2.393 11.195-3.029 3.266-4.541 4.619-9.533 3.827-14.531l-2.344-14.797h80.314c20.427 0 36.986 16.559 36.986 36.986v13.865h-6.196v-6.871c0-3.08-2.497-5.577-5.577-5.577h-21.21c-3.08 0-5.577 2.497-5.577 5.577v7.767c0 3.08 2.497 5.577 5.577 5.577h12.446v6.871c0 3.08 2.497 5.577 5.577 5.577h14.96v192.034h-20.423c-3.08 0-5.577 2.497-5.577 5.577v7.767c0 3.08 2.497 5.577 5.577 5.577h20.423v35.483h40.02v-359.109z" fill="url(#SVGID_10_)"/></g><g><path d="m420.879 118.75c0-7.675-6.222-13.897-13.897-13.897h-303.964c-7.675 0-13.897 6.222-13.897 13.897 0 7.675 6.222 13.897 13.897 13.897h303.964c7.675-.001 13.897-6.222 13.897-13.897z" fill="url(#SVGID_11_)"/><path d="m406.982 104.853h-27.794c7.675 0 13.897 6.222 13.897 13.897s-6.222 13.897-13.897 13.897h27.794c7.675 0 13.897-6.222 13.897-13.897s-6.222-13.897-13.897-13.897z" fill="url(#SVGID_12_)"/></g><g><g><path d="m139.244 249.438v46.123c0 3.55 2.878 6.427 6.427 6.427h12.157c3.55 0 6.427-2.878 6.427-6.427v-46.123c0-3.55-2.878-6.427-6.427-6.427h-12.157c-3.549 0-6.427 2.878-6.427 6.427z" fill="url(#SVGID_13_)"/><path d="m139.244 360.438v46.123c0 3.55 2.878 6.427 6.427 6.427h12.157c3.55 0 6.427-2.878 6.427-6.427v-46.123c0-3.55-2.878-6.427-6.427-6.427h-12.157c-3.549 0-6.427 2.878-6.427 6.427z" fill="url(#SVGID_14_)"/></g><g><path d="m345.745 249.438v46.123c0 3.55 2.878 6.427 6.427 6.427h12.157c3.55 0 6.427-2.878 6.427-6.427v-46.123c0-3.55-2.878-6.427-6.427-6.427h-12.157c-3.55 0-6.427 2.878-6.427 6.427z" fill="url(#SVGID_15_)"/><path d="m345.745 360.438v46.123c0 3.55 2.878 6.427 6.427 6.427h12.157c3.55 0 6.427-2.878 6.427-6.427v-46.123c0-3.55-2.878-6.427-6.427-6.427h-12.157c-3.55 0-6.427 2.878-6.427 6.427z" fill="url(#SVGID_16_)"/></g></g></g><g><path d="m491.634 510h-473.268c-20.968 0-25.527-29.434-5.574-35.888 52.566-17.001 141.432-28.174 242.208-28.174s189.642 11.173 242.208 28.174c19.953 6.454 15.395 35.888-5.574 35.888z" fill="url(#SVGID_17_)"/><path d="m497.208 474.112c-52.566-17.001-141.432-28.174-242.208-28.174-6.727 0-13.395.054-20.008.152 49.114.728 94.905 4.109 134.395 9.502 33.668 4.597 30.226 54.408-3.754 54.408h126.002c20.968 0 25.526-29.434 5.573-35.888z" fill="url(#SVGID_18_)"/></g><path d="m271.395 153.206-.802-5.05c-1.788-11.32-29.398-11.32-31.186 0l-.802 5.05-3.05 19.25c-1.177 7.426 2.363 14.845 9.915 20.78 4.793 3.767 14.266 3.767 19.06 0 7.552-5.935 11.092-13.354 9.915-20.78z" fill="url(#SVGID_19_)"/></g></svg>