<svg id="Capa_1" enable-background="new 0 0 510 510" height="512" viewBox="0 0 510 510" width="512" xmlns="http://www.w3.org/2000/svg" xmlns:xlink="http://www.w3.org/1999/xlink"><linearGradient id="lg1"><stop offset="0" stop-color="#cdbfba"/><stop offset="1" stop-color="#766e6e"/></linearGradient><linearGradient id="SVGID_1_" gradientUnits="userSpaceOnUse" x1="140" x2="248.74" xlink:href="#lg1" y1="337.942" y2="337.942"/><linearGradient id="SVGID_2_" gradientUnits="userSpaceOnUse" x1="172.595" x2="327.552" xlink:href="#lg1" y1="301.026" y2="301.026"/><linearGradient id="lg2"><stop offset="0" stop-color="#f3eae6"/><stop offset="1" stop-color="#cdbfba"/></linearGradient><linearGradient id="SVGID_3_" gradientUnits="userSpaceOnUse" x1="109.518" x2="162.781" xlink:href="#lg2" y1="56.071" y2="56.071"/><linearGradient id="SVGID_4_" gradientUnits="userSpaceOnUse" x1="106.518" x2="261.381" xlink:href="#lg1" y1="56.071" y2="56.071"/><linearGradient id="SVGID_5_" gradientUnits="userSpaceOnUse" x1="97.519" x2="183.487" xlink:href="#lg2" y1="149.294" y2="149.294"/><linearGradient id="SVGID_6_" gradientUnits="userSpaceOnUse" x1="147.016" x2="289.351" xlink:href="#lg1" y1="149.294" y2="149.294"/><linearGradient id="SVGID_7_" gradientUnits="userSpaceOnUse" x1="75.02" x2="166.564" xlink:href="#lg2" y1="222.412" y2="222.412"/><linearGradient id="SVGID_8_" gradientUnits="userSpaceOnUse" x1="127.517" x2="276.765" xlink:href="#lg1" y1="222.412" y2="222.412"/><linearGradient id="SVGID_9_" gradientUnits="userSpaceOnUse" x1="61.521" x2="231.072" xlink:href="#lg2" y1="371.495" y2="371.495"/><linearGradient id="SVGID_10_" gradientUnits="userSpaceOnUse" x1="88" x2="302.037" xlink:href="#lg1" y1="388.245" y2="388.245"/><linearGradient id="SVGID_11_" gradientUnits="userSpaceOnUse" x1="88" x2="302.037" xlink:href="#lg1" y1="414.745" y2="414.745"/><linearGradient id="SVGID_12_" gradientUnits="userSpaceOnUse" x1="88" x2="302.037" xlink:href="#lg1" y1="371.495" y2="371.495"/><linearGradient id="SVGID_13_" gradientUnits="userSpaceOnUse" x1="343.666" x2="396.929" xlink:href="#lg2" y1="56.071" y2="56.071"/><linearGradient id="SVGID_14_" gradientUnits="userSpaceOnUse" x1="340.666" x2="495.529" xlink:href="#lg1" y1="56.071" y2="56.071"/><linearGradient id="SVGID_15_" gradientUnits="userSpaceOnUse" x1="331.666" x2="417.634" xlink:href="#lg2" y1="149.294" y2="149.294"/><linearGradient id="SVGID_16_" gradientUnits="userSpaceOnUse" x1="381.164" x2="523.499" xlink:href="#lg1" y1="149.294" y2="149.294"/><linearGradient id="SVGID_17_" gradientUnits="userSpaceOnUse" x1="309.167" x2="400.712" xlink:href="#lg2" y1="222.412" y2="222.412"/><linearGradient id="SVGID_18_" gradientUnits="userSpaceOnUse" x1="361.665" x2="510.913" xlink:href="#lg1" y1="222.412" y2="222.412"/><linearGradient id="SVGID_19_" gradientUnits="userSpaceOnUse" x1="295.668" x2="465.219" xlink:href="#lg2" y1="371.495" y2="371.495"/><linearGradient id="SVGID_20_" gradientUnits="userSpaceOnUse" x1="322.147" x2="536.185" xlink:href="#lg1" y1="388.245" y2="388.245"/><linearGradient id="SVGID_21_" gradientUnits="userSpaceOnUse" x1="322.147" x2="536.185" xlink:href="#lg1" y1="414.745" y2="414.745"/><linearGradient id="SVGID_22_" gradientUnits="userSpaceOnUse" x1="322.147" x2="536.185" xlink:href="#lg1" y1="371.495" y2="371.495"/><linearGradient id="lg3"><stop offset="0" stop-color="#bbec6c"/><stop offset=".5857" stop-color="#78a91f"/><stop offset="1" stop-color="#02905d"/></linearGradient><linearGradient id="SVGID_23_" gradientUnits="userSpaceOnUse" x1="253.912" x2="580.616" xlink:href="#lg3" y1="455.707" y2="455.707"/><linearGradient id="SVGID_24_" gradientUnits="userSpaceOnUse" x1="98.152" x2="544.479" xlink:href="#lg3" y1="455.707" y2="455.707"/><linearGradient id="SVGID_25_" gradientUnits="userSpaceOnUse" x1="-.667" x2="439.98" xlink:href="#lg3" y1="469.106" y2="469.106"/><linearGradient id="SVGID_26_" gradientUnits="userSpaceOnUse" x1="-83.339" x2="371.187" xlink:href="#lg3" y1="469.106" y2="469.106"/><g><path d="m311.761 357.785-56.76-56.76-56.77 56.76c-3.9 3.91-3.9 10.24 0 14.14 3.91 3.91 10.24 3.91 14.14 0l42.63-42.62 42.62 42.62c3.91 3.91 10.24 3.91 14.14 0 3.91-3.899 3.91-10.23 0-14.14z" fill="url(#SVGID_1_)"/><path d="m190.342 287.091v27.809l129.316.06v-27.8z" fill="url(#SVGID_2_)"/><g><path d="m130.206 4.885c-16.827 23.243-27.03 63.73-27.03 107.256h69.5c0-43.526-10.203-84.013-27.03-107.256-4.716-6.513-10.724-6.513-15.44 0z" fill="url(#SVGID_3_)"/><path d="m145.646 4.885c-4.716-6.514-10.724-6.514-15.44 0-1.662 2.296-3.256 4.766-4.786 7.384 13.954 23.892 22.244 60.645 22.244 99.872h25.011c.001-43.526-10.202-84.013-27.029-107.256z" fill="url(#SVGID_4_)"/><path d="m184.098 196.1h-92.344v-79.788c0-7.636 6.19-13.826 13.826-13.826h64.692c7.636 0 13.826 6.19 13.826 13.826z" fill="url(#SVGID_5_)"/><path d="m170.272 102.487h-40.02c7.636 0 13.826 6.19 13.826 13.826v79.788h40.02v-79.788c0-7.636-6.19-13.826-13.826-13.826z" fill="url(#SVGID_6_)"/><path d="m205.841 269.219h-135.83v-79.788c0-7.636 6.19-13.826 13.826-13.826h108.178c7.636 0 13.826 6.19 13.826 13.826z" fill="url(#SVGID_7_)"/><path d="m192.015 175.605h-40.02c7.636 0 13.826 6.19 13.826 13.826v79.788h40.02v-79.788c0-7.636-6.19-13.826-13.826-13.826z" fill="url(#SVGID_8_)"/><path d="m224.582 496.915h-173.312v-237.015c0-7.636 6.19-13.826 13.826-13.826h145.66c7.636 0 13.826 6.19 13.826 13.826z" fill="url(#SVGID_9_)"/><g><path d="m157.31 279.57c-3.84 0-7.32 1.56-9.83 4.07-2.52 2.52-4.08 6-4.08 9.84l-.1 203.44h27.8l.1-203.45c.01-7.68-6.21-13.9-13.89-13.9z" fill="url(#SVGID_10_)"/><path d="m104.31 332.57c-3.84 0-7.32 1.56-9.83 4.07-2.52 2.52-4.08 6-4.08 9.84l-.07 150.44h27.8l.08-150.45c0-7.68-6.22-13.9-13.9-13.9z" fill="url(#SVGID_11_)"/><path d="m210.756 246.074h-40.02c7.636 0 13.826 6.19 13.826 13.826v237.016h40.02v-237.016c0-7.636-6.19-13.826-13.826-13.826z" fill="url(#SVGID_12_)"/></g></g><g><path d="m364.354 4.885c-16.827 23.243-27.03 63.73-27.03 107.256h69.5c0-43.526-10.203-84.013-27.03-107.256-4.716-6.513-10.725-6.513-15.44 0z" fill="url(#SVGID_13_)"/><path d="m379.794 4.885c-4.716-6.514-10.724-6.514-15.44 0-1.662 2.296-3.256 4.766-4.786 7.384 13.954 23.892 22.244 60.645 22.244 99.872h25.011c.001-43.526-10.203-84.013-27.029-107.256z" fill="url(#SVGID_14_)"/><path d="m418.246 196.1h-92.344v-79.788c0-7.636 6.19-13.826 13.826-13.826h64.692c7.636 0 13.826 6.19 13.826 13.826z" fill="url(#SVGID_15_)"/><path d="m404.42 102.487h-40.02c7.636 0 13.826 6.19 13.826 13.826v79.788h40.02v-79.788c0-7.636-6.19-13.826-13.826-13.826z" fill="url(#SVGID_16_)"/><path d="m439.989 269.219h-135.83v-79.788c0-7.636 6.19-13.826 13.826-13.826h108.178c7.636 0 13.826 6.19 13.826 13.826z" fill="url(#SVGID_17_)"/><path d="m426.163 175.605h-40.02c7.636 0 13.826 6.19 13.826 13.826v79.788h40.02v-79.788c0-7.636-6.19-13.826-13.826-13.826z" fill="url(#SVGID_18_)"/><path d="m458.73 496.915h-173.312v-237.015c0-7.636 6.19-13.826 13.826-13.826h145.66c7.636 0 13.826 6.19 13.826 13.826z" fill="url(#SVGID_19_)"/><g><path d="m391.457 279.57c-3.84 0-7.32 1.56-9.83 4.07-2.52 2.52-4.08 6-4.08 9.84l-.1 203.44h27.8l.1-203.45c.01-7.68-6.21-13.9-13.89-13.9z" fill="url(#SVGID_20_)"/><path d="m338.457 332.57c-3.84 0-7.32 1.56-9.83 4.07-2.52 2.52-4.08 6-4.08 9.84l-.07 150.44h27.8l.08-150.45c0-7.68-6.22-13.9-13.9-13.9z" fill="url(#SVGID_21_)"/><path d="m444.904 246.074h-40.02c7.636 0 13.826 6.19 13.826 13.826v237.016h40.02v-237.016c0-7.636-6.19-13.826-13.826-13.826z" fill="url(#SVGID_22_)"/></g></g><g><g><path d="m510 446.355c0-10.552-5.806-20.301-15.169-25.167-23.971-12.458-53.211-19.775-84.769-19.775-70.543 0-129.504 36.559-143.921 85.379-3.423 11.59 5.3 23.208 17.384 23.208h209.917c9.145 0 16.559-7.414 16.559-16.559v-47.086z" fill="url(#SVGID_23_)"/><path d="m494.831 421.188c-23.971-12.458-53.211-19.775-84.769-19.775-6.816 0-13.523.345-20.093 1.006 2.332.233 4.646.505 6.941.817 41.956 5.697 73.07 41.85 73.07 84.192v6.013c0 9.145-7.414 16.559-16.559 16.559h40.02c9.145 0 16.559-7.414 16.559-16.559v-47.087c0-10.552-5.806-20.3-15.169-25.166z" fill="url(#SVGID_24_)"/></g><g><path d="m10.892 510h319.886c0-45.17-90.464-81.788-202.056-81.788-45.371 0-87.247 6.054-120.972 16.274-4.601 1.394-7.75 5.626-7.75 10.434v44.188c0 6.015 4.877 10.892 10.892 10.892z" fill="url(#SVGID_25_)"/><path d="m128.723 428.212c-6.697 0-13.306.147-19.835.405 102.115 4.1 181.871 38.97 181.871 81.382h40.02c0-45.169-90.464-81.787-202.056-81.787z" fill="url(#SVGID_26_)"/></g></g></g></svg>