<svg id="Capa_1" enable-background="new 0 0 510 510" height="512" viewBox="0 0 510 510" width="512" xmlns="http://www.w3.org/2000/svg" xmlns:xlink="http://www.w3.org/1999/xlink"><linearGradient id="lg1"><stop offset="0" stop-color="#faf7f7"/><stop offset=".4551" stop-color="#f3eae6"/><stop offset="1" stop-color="#efe2dd"/></linearGradient><linearGradient id="SVGID_1_" gradientUnits="userSpaceOnUse" x1="178.594" x2="355.643" xlink:href="#lg1" y1="281.623" y2="281.623"/><linearGradient id="lg2"><stop offset="0" stop-color="#f3eae6"/><stop offset="1" stop-color="#cdbfba"/></linearGradient><linearGradient id="SVGID_2_" gradientUnits="userSpaceOnUse" x1="68" x2="377.658" xlink:href="#lg2" y1="281.623" y2="281.623"/><linearGradient id="SVGID_3_" gradientTransform="matrix(1 0 0 -.195 0 108.174)" gradientUnits="userSpaceOnUse" x1="234.931" x2="287.463" xlink:href="#lg2" y1="354.584" y2="354.584"/><linearGradient id="SVGID_4_" gradientUnits="userSpaceOnUse" x1="187" x2="271.481" xlink:href="#lg2" y1="38.877" y2="38.877"/><linearGradient id="SVGID_5_" gradientUnits="userSpaceOnUse" x1="28.888" x2="93.888" xlink:href="#lg1" y1="374.606" y2="374.606"/><linearGradient id="lg3"><stop offset="0" stop-color="#fe646f"/><stop offset=".593" stop-color="#fb2b3a"/><stop offset="1" stop-color="#c41926"/></linearGradient><linearGradient id="SVGID_6_" gradientUnits="userSpaceOnUse" x1="28.888" x2="93.888" xlink:href="#lg3" y1="359.606" y2="359.606"/><linearGradient id="SVGID_7_" gradientUnits="userSpaceOnUse" x1="28.888" x2="93.888" xlink:href="#lg3" y1="389.606" y2="389.606"/><linearGradient id="lg4"><stop offset="0" stop-color="#01d0fb"/><stop offset=".6075" stop-color="#26a6fe"/><stop offset="1" stop-color="#0182fc"/></linearGradient><linearGradient id="SVGID_8_" gradientUnits="userSpaceOnUse" x1="28.888" x2="51.638" xlink:href="#lg4" y1="363.481" y2="363.481"/><linearGradient id="SVGID_9_" gradientUnits="userSpaceOnUse" x1="19.138" x2="34.138" xlink:href="#lg1" y1="414.439" y2="414.439"/><linearGradient id="SVGID_10_" gradientUnits="userSpaceOnUse" x1="160.879" x2="225.879" xlink:href="#lg1" y1="351.48" y2="351.48"/><linearGradient id="SVGID_11_" gradientUnits="userSpaceOnUse" x1="160.879" x2="225.879" xlink:href="#lg3" y1="336.48" y2="336.48"/><linearGradient id="SVGID_12_" gradientUnits="userSpaceOnUse" x1="160.879" x2="225.879" xlink:href="#lg3" y1="366.48" y2="366.48"/><linearGradient id="SVGID_13_" gradientUnits="userSpaceOnUse" x1="160.879" x2="183.629" xlink:href="#lg4" y1="340.355" y2="340.355"/><linearGradient id="SVGID_14_" gradientUnits="userSpaceOnUse" x1="151.129" x2="166.129" xlink:href="#lg1" y1="391.313" y2="391.313"/><linearGradient id="SVGID_15_" gradientUnits="userSpaceOnUse" x1="292.871" x2="357.871" xlink:href="#lg1" y1="351.48" y2="351.48"/><linearGradient id="SVGID_16_" gradientUnits="userSpaceOnUse" x1="292.871" x2="357.871" xlink:href="#lg3" y1="336.48" y2="336.48"/><linearGradient id="SVGID_17_" gradientUnits="userSpaceOnUse" x1="292.871" x2="357.871" xlink:href="#lg3" y1="366.48" y2="366.48"/><linearGradient id="SVGID_18_" gradientUnits="userSpaceOnUse" x1="292.871" x2="315.621" xlink:href="#lg4" y1="340.355" y2="340.355"/><linearGradient id="SVGID_19_" gradientUnits="userSpaceOnUse" x1="283.121" x2="298.121" xlink:href="#lg1" y1="391.313" y2="391.313"/><linearGradient id="SVGID_20_" gradientUnits="userSpaceOnUse" x1="424.863" x2="489.863" xlink:href="#lg1" y1="374.606" y2="374.606"/><linearGradient id="SVGID_21_" gradientUnits="userSpaceOnUse" x1="424.863" x2="489.863" xlink:href="#lg3" y1="359.606" y2="359.606"/><linearGradient id="SVGID_22_" gradientUnits="userSpaceOnUse" x1="424.863" x2="489.863" xlink:href="#lg3" y1="389.606" y2="389.606"/><linearGradient id="SVGID_23_" gradientUnits="userSpaceOnUse" x1="424.863" x2="447.613" xlink:href="#lg4" y1="363.481" y2="363.481"/><linearGradient id="SVGID_24_" gradientUnits="userSpaceOnUse" x1="415.113" x2="430.113" xlink:href="#lg1" y1="414.439" y2="414.439"/><linearGradient id="lg5"><stop offset="0" stop-color="#bbec6c"/><stop offset=".5857" stop-color="#78a91f"/><stop offset="1" stop-color="#02905d"/></linearGradient><linearGradient id="SVGID_25_" gradientUnits="userSpaceOnUse" x1="-23.932" x2="657.231" xlink:href="#lg5" y1="478.001" y2="478.001"/><linearGradient id="SVGID_26_" gradientUnits="userSpaceOnUse" x1="108" x2="494.448" xlink:href="#lg5" y1="478.001" y2="478.001"/><g><path d="m295.393 62.235h-80.786l-43.858 438.775h168.502z" fill="url(#SVGID_1_)"/><path d="m295.393 62.235h-40.02l43.858 438.775h40.02z" fill="url(#SVGID_2_)"/><path d="m295.393 62.235-34.739 14.548c-3.381 1.416-7.186 1.428-10.577.035l-35.47-14.583 24.624-52.235c6.285-13.333 25.254-13.333 31.539 0z" fill="url(#SVGID_3_)"/><path d="m239.231 10-4.241 8.996 21.924 58.758c1.275-.148 2.535-.466 3.74-.971l34.739-14.548-24.624-52.235c-6.285-13.333-25.253-13.333-31.538 0z" fill="url(#SVGID_4_)"/><g><g><path d="m34.136 352.106c-2.899 0-5.249 2.35-5.249 5.249v9.751 15 9.751c0 2.899 2.35 5.249 5.249 5.249h54.502c2.899 0 5.249-2.35 5.249-5.249v-9.751-15-9.751c0-2.899-2.35-5.249-5.249-5.249z" fill="url(#SVGID_5_)"/><path d="m93.887 367.106h-65v-9.751c0-2.899 2.35-3.249 5.249-3.249l17.471-2h37.031c2.899 0 5.249 2.35 5.249 5.249z" fill="url(#SVGID_6_)"/><path d="m88.638 397.106h-54.502c-2.899 0-5.249-2.35-5.249-5.249v-9.751h65v9.751c0 2.899-2.35 5.249-5.249 5.249z" fill="url(#SVGID_7_)"/><path d="m47.724 374.856h-18.837v-17.501c0-2.899 2.35-5.249 5.249-5.249h17.501v18.837c0 2.161-1.751 3.913-3.913 3.913z" fill="url(#SVGID_8_)"/></g><path d="m26.637 484.272c-4.142 0-7.5-3.358-7.5-7.5v-124.666c0-4.142 3.358-7.5 7.5-7.5s7.5 3.358 7.5 7.5v124.667c0 4.141-3.357 7.499-7.5 7.499z" fill="url(#SVGID_9_)"/></g><g><g><path d="m166.128 328.98c-2.899 0-5.249 2.35-5.249 5.249v9.751 15 9.751c0 2.899 2.35 5.249 5.249 5.249h54.502c2.899 0 5.249-2.35 5.249-5.249v-9.751-15-9.751c0-2.899-2.35-5.249-5.249-5.249z" fill="url(#SVGID_10_)"/><path d="m225.879 343.98h-65v-9.751c0-2.899 2.35-3.249 5.249-3.249l17.5-2h37.002c2.899 0 5.249 2.35 5.249 5.249z" fill="url(#SVGID_11_)"/><path d="m220.63 373.98h-54.502c-2.899 0-5.249-2.35-5.249-5.249v-9.751h65v9.751c0 2.898-2.35 5.249-5.249 5.249z" fill="url(#SVGID_12_)"/><path d="m179.716 351.73h-18.837v-17.501c0-2.899 2.35-5.249 5.249-5.249h17.501v18.837c0 2.161-1.752 3.913-3.913 3.913z" fill="url(#SVGID_13_)"/></g><path d="m158.629 461.146c-4.142 0-7.5-3.358-7.5-7.5v-124.666c0-4.142 3.358-7.5 7.5-7.5s7.5 3.358 7.5 7.5v124.667c0 4.141-3.358 7.499-7.5 7.499z" fill="url(#SVGID_14_)"/></g><g><g><path d="m298.12 328.98c-2.899 0-5.249 2.35-5.249 5.249v9.751 15 9.751c0 2.899 2.35 5.249 5.249 5.249h54.502c2.899 0 5.249-2.35 5.249-5.249v-9.751-15-9.751c0-2.899-2.35-5.249-5.249-5.249z" fill="url(#SVGID_15_)"/><path d="m357.871 343.98h-65v-9.751c0-2.899 2.35-3.249 5.249-3.249l17.49-2h37.012c2.899 0 5.249 2.35 5.249 5.249z" fill="url(#SVGID_16_)"/><path d="m352.622 373.98h-54.502c-2.899 0-5.249-2.35-5.249-5.249v-9.751h65v9.751c0 2.898-2.35 5.249-5.249 5.249z" fill="url(#SVGID_17_)"/><path d="m311.708 351.73h-18.837v-17.501c0-2.899 2.35-5.249 5.249-5.249h17.501v18.837c0 2.161-1.752 3.913-3.913 3.913z" fill="url(#SVGID_18_)"/></g><path d="m290.621 461.146c-4.142 0-7.5-3.358-7.5-7.5v-124.666c0-4.142 3.358-7.5 7.5-7.5s7.5 3.358 7.5 7.5v124.667c0 4.141-3.358 7.499-7.5 7.499z" fill="url(#SVGID_19_)"/></g><g><g><path d="m430.112 352.106c-2.899 0-5.249 2.35-5.249 5.249v9.751 15 9.751c0 2.899 2.35 5.249 5.249 5.249h54.502c2.899 0 5.249-2.35 5.249-5.249v-9.751-15-9.751c0-2.899-2.35-5.249-5.249-5.249z" fill="url(#SVGID_20_)"/><path d="m489.863 367.106h-65v-9.751c0-2.899 2.35-3.249 5.249-3.249l17.499-2h37.003c2.899 0 5.249 2.35 5.249 5.249z" fill="url(#SVGID_21_)"/><path d="m484.614 397.106h-54.502c-2.899 0-5.249-2.35-5.249-5.249v-9.751h65v9.751c0 2.899-2.351 5.249-5.249 5.249z" fill="url(#SVGID_22_)"/><path d="m443.699 374.856h-18.837v-17.501c0-2.899 2.35-5.249 5.249-5.249h17.501v18.837c.001 2.161-1.751 3.913-3.913 3.913z" fill="url(#SVGID_23_)"/></g><path d="m422.613 484.272c-4.142 0-7.5-3.358-7.5-7.5v-124.666c0-4.142 3.358-7.5 7.5-7.5s7.5 3.358 7.5 7.5v124.667c0 4.141-3.358 7.499-7.5 7.499z" fill="url(#SVGID_24_)"/></g><g><path d="m491.634 510h-473.268c-20.968 0-25.527-29.406-5.574-35.852 52.566-16.985 141.432-28.147 242.208-28.147s189.642 11.162 242.208 28.146c19.953 6.447 15.395 35.853-5.574 35.853z" fill="url(#SVGID_25_)"/><path d="m497.208 474.147c-52.566-16.984-141.432-28.146-242.208-28.146-6.727 0-13.395.053-20.008.151 49.114.727 94.905 4.105 134.395 9.493 33.668 4.593 30.226 54.355-3.754 54.355h126.002c20.968 0 25.526-29.405 5.573-35.853z" fill="url(#SVGID_26_)"/></g></g></svg>