<svg id="Capa_1" enable-background="new 0 0 510.019 510.019" height="512" viewBox="0 0 510.019 510.019" width="512" xmlns="http://www.w3.org/2000/svg" xmlns:xlink="http://www.w3.org/1999/xlink"><linearGradient id="lg1"><stop offset="0" stop-color="#fef056"/><stop offset=".5213" stop-color="#fbc56d"/><stop offset="1" stop-color="#c86d36"/></linearGradient><linearGradient id="SVGID_1_" gradientUnits="userSpaceOnUse" x1="168.843" x2="294.425" xlink:href="#lg1" y1="222.376" y2="222.376"/><linearGradient id="SVGID_2_" gradientUnits="userSpaceOnUse" x1="73.331" x2="518.236" xlink:href="#lg1" y1="358.383" y2="358.383"/><linearGradient id="SVGID_3_" gradientUnits="userSpaceOnUse" x1="-195.378" x2="457.201" xlink:href="#lg1" y1="362.579" y2="362.579"/><linearGradient id="SVGID_4_" gradientUnits="userSpaceOnUse" x1="156.53" x2="524.068" xlink:href="#lg1" y1="393.454" y2="393.454"/><linearGradient id="SVGID_5_" gradientUnits="userSpaceOnUse" x1="87.01" x2="322.987" xlink:href="#lg1" y1="393.454" y2="393.454"/><linearGradient id="SVGID_6_" gradientUnits="userSpaceOnUse" x1="228.003" x2="422.662" xlink:href="#lg1" y1="393.454" y2="393.454"/><linearGradient id="SVGID_7_" gradientUnits="userSpaceOnUse" x1="6.01" x2="870.343" xlink:href="#lg1" y1="477.474" y2="477.474"/><linearGradient id="SVGID_8_" gradientUnits="userSpaceOnUse" x1="105.01" x2="252.225" xlink:href="#lg1" y1="477.474" y2="477.474"/><linearGradient id="SVGID_9_" gradientUnits="userSpaceOnUse" x1="268.01" x2="511.349" xlink:href="#lg1" y1="477.474" y2="477.474"/><linearGradient id="SVGID_10_" gradientUnits="userSpaceOnUse" x1="-145.38" x2="642.122" xlink:href="#lg1" y1="496.103" y2="496.103"/><linearGradient id="SVGID_11_" gradientUnits="userSpaceOnUse" x1="304.01" x2="494.084" xlink:href="#lg1" y1="496.103" y2="496.103"/><linearGradient id="SVGID_12_" gradientUnits="userSpaceOnUse" x1="174.51" x2="286.013" xlink:href="#lg1" y1="453.889" y2="453.889"/><linearGradient id="SVGID_13_" gradientUnits="userSpaceOnUse" x1="288.321" x2="345.753" xlink:href="#lg1" y1="453.889" y2="453.889"/><linearGradient id="SVGID_14_" gradientUnits="userSpaceOnUse" x1="215.404" x2="324.037" xlink:href="#lg1" y1="424.833" y2="424.833"/><linearGradient id="SVGID_15_" gradientUnits="userSpaceOnUse" x1="233.826" x2="291.931" y1="456.175" y2="456.175"><stop offset="0" stop-color="#537983"/><stop offset=".593" stop-color="#554e56"/><stop offset="1" stop-color="#433f43"/></linearGradient><linearGradient id="SVGID_16_" gradientUnits="userSpaceOnUse" x1="207.227" x2="324.24" xlink:href="#lg1" y1="106.864" y2="106.864"/><linearGradient id="SVGID_17_" gradientUnits="userSpaceOnUse" x1="5.597" x2="422.378" xlink:href="#lg1" y1="106.864" y2="106.864"/><g><path d="m222.84 190.206h64.339v64.339h-64.339z" fill="url(#SVGID_1_)"/><path d="m375.158 356.811-3.683-33.152c-6.577-59.201-58.432-102.501-116.465-102.501-58.033 0-109.888 43.3-116.465 102.501l-3.683 33.152c-2.988 26.894-18.382 53.823-42.664 71.636-13.536 9.93-22.152 21.325-24.089 33.623-7.043 44.717 380.844 44.717 373.802 0-1.937-12.299-10.553-23.693-24.089-33.623-24.282-17.813-39.676-44.741-42.664-71.636z" fill="url(#SVGID_2_)"/><path d="m441.91 462.07c-1.937-12.299-10.553-23.693-24.089-33.623-24.281-17.813-39.676-44.741-42.664-71.636l-3.683-33.152c-6.577-59.201-58.432-102.501-116.465-102.501-6.776 0-13.465.598-20.01 1.734 49.512 8.6 90.646 48.477 96.455 100.767l3.683 33.152c1.776 15.981 7.932 31.973 17.73 46.059h-163.384c-2.463-3.068-13.041-10.881-13.041-10.881-.42-.28-.966-.28-1.386 0l-4.357 2.903c-3.311 2.205-6.221 4.91-8.684 7.978h-44.883c-6.519 9.372-14.656 17.894-24.183 25.011h46.834c7.321 0 13.255 5.931 13.252 13.251-.008 21.807-.019 62.868-.019 62.868h22.733 22.733v-75.271c0-.284-.02-.565-.026-.848h154.726c18.684 0 36.176 9.772 45.443 25.995 1.68 2.941 2.881 5.753 3.265 8.194 3.274 20.789-78.814 31.911-166.891 33.37 101.373 1.68 210.68-9.442 206.911-33.37z" fill="url(#SVGID_3_)"/><g><path d="m407.208 393.454c0-7.675-6.222-13.897-13.897-13.897h-276.603c-7.675 0-13.897 6.222-13.897 13.897 0 7.675 6.222 13.897 13.897 13.897h276.604c7.675 0 13.896-6.222 13.896-13.897z" fill="url(#SVGID_4_)"/><path d="m252.692 379.557h-34.246c-4.029 0-8.006 1.051-11.455 3.132-8.248 4.976-14.448 10.607-18.271 16.614-1.706 2.681-5.225 3.391-7.866 1.625-.018-.012-.036-.024-.054-.036l-4.357-2.903c-.42-.28-.966-.28-1.386 0l-4.357 2.903c-2.756 1.836-5.24 4.013-7.415 6.46h89.385c.024-9.791.035-19.24.022-27.795z" fill="url(#SVGID_5_)"/><path d="m393.312 379.557h-27.794c7.675 0 13.897 6.222 13.897 13.897s-6.222 13.897-13.897 13.897h27.794c7.675 0 13.897-6.222 13.897-13.897s-6.222-13.897-13.897-13.897z" fill="url(#SVGID_6_)"/></g><g><path d="m471.815 510h-433.611c-10.959 0-19.842-8.884-19.842-19.842v-25.367c0-10.959 8.884-19.842 19.842-19.842h433.611c10.959 0 19.842 8.884 19.842 19.842v25.367c0 10.958-8.884 19.842-19.842 19.842z" fill="url(#SVGID_7_)"/><path d="m153.016 444.948v65.052h22.733 22.732v-65.052z" fill="url(#SVGID_8_)"/><path d="m471.815 444.948h-40.02c10.958 0 19.842 8.884 19.842 19.842v25.367c0 10.958-8.884 19.842-19.842 19.842h40.02c10.958 0 19.842-8.884 19.842-19.842v-25.367c0-10.958-8.884-19.842-19.842-19.842z" fill="url(#SVGID_9_)"/></g><g><path d="m510.01 496.103c0-7.686-6.23-13.916-13.916-13.916h-482.168c-7.686 0-13.916 6.23-13.916 13.916 0 7.686 6.23 13.916 13.916 13.916h482.168c7.685 0 13.916-6.23 13.916-13.916z" fill="url(#SVGID_10_)"/><path d="m496.093 482.187h-27.832c7.686 0 13.916 6.23 13.916 13.916s-6.23 13.916-13.916 13.916h27.832c7.686 0 13.916-6.23 13.916-13.916s-6.23-13.916-13.916-13.916z" fill="url(#SVGID_11_)"/></g><g><path d="m205.81 400.891-4.357-2.903c-.423-.282-.963-.282-1.386 0l-4.357 2.903c-11.008 7.333-17.683 20.106-17.683 33.837v75.272h22.733 22.733v-75.271c0-13.732-6.675-26.505-17.683-33.838z" fill="url(#SVGID_12_)"/><path d="m314.31 400.891-4.357-2.903c-.423-.282-.963-.282-1.386 0l-4.357 2.903c-11.008 7.333-17.683 20.106-17.683 33.837v75.272h22.733 22.733v-75.271c0-13.732-6.675-26.505-17.683-33.838z" fill="url(#SVGID_13_)"/></g><path d="m273.695 375.107c-6.165-3.881-10.759-9.842-12.694-16.865-1.665-6.042-2.953-12.133-3.901-17.282-.317-1.724-3.864-1.724-4.182 0-.948 5.149-2.236 11.241-3.901 17.282-1.935 7.024-6.529 12.984-12.694 16.865-15.321 9.645-24.314 23.614-24.314 38.459v96.434h43 43v-96.434c.001-14.846-8.993-28.814-24.314-38.459z" fill="url(#SVGID_14_)"/><path d="m254.309 402.552-4.408 2.784c-11.137 7.034-17.89 19.287-17.89 32.459v72.205h23 23v-72.204c0-13.172-6.753-25.425-17.89-32.459l-4.408-2.784c-.431-.271-.976-.271-1.404-.001z" fill="url(#SVGID_15_)"/><path d="m248.154 6.029c-7.141 55.194-20.169 133.675-40.516 179.065-6.026 13.443 3.718 28.633 18.45 28.633h57.841c14.732 0 24.477-15.19 18.45-28.633-20.347-45.39-33.375-123.87-40.515-179.065-1.039-8.039-12.67-8.039-13.71 0z" fill="url(#SVGID_16_)"/><path d="m302.426 185.196c-20.373-45.374-33.415-123.931-40.561-179.167-1.04-8.039-12.671-8.039-13.711 0-.159 1.227-.32 2.465-.485 3.714-3.481 26.429-2.679 53.246 2.453 79.404.589 3.002 1.192 6 1.81 8.989h-3.08c-5.326 0-9.977 4.019-10.321 9.335-.377 5.824 4.235 10.665 9.978 10.665 4.565 0 8.537 3.122 9.629 7.555 1.026 4.167 2.083 8.275 3.172 12.31h-18.958c-5.326 0-9.977 4.019-10.321 9.335-.377 5.824 4.235 10.665 9.978 10.665h18.02c4.227 0 7.999 2.68 9.373 6.678 1.579 4.595 3.211 9.003 4.897 13.186h-40.465c-5.326 0-9.977 4.019-10.321 9.335-.377 5.824 4.235 10.665 9.978 10.665h25.896c10.18 0 10.767 15.323.6 15.836-.353.018-.71.027-1.069.027h25.011c14.686-.001 24.512-15.135 18.497-28.532z" fill="url(#SVGID_17_)"/></g></svg>